<?xml version="1.0" standalone="no"?>
 <!DOCTYPE svg PUBLIC "-//W3C//DTD SVG 1.1//EN" 
 "http://www.w3.org/Graphics/SVG/1.1/DTD/svg11.dtd"> 
<svg xmlns="http://www.w3.org/2000/svg" version="1.1" 
    width="29.7002cm" height="21.0007cm" viewBox="0 0 116930 82680 ">
<title>SVG Picture created as PSU_v2-F.Cu.svg date 2017/03/22 12:26:56 </title>
  <desc>Picture generated by PCBNEW </desc>
<g style="fill:#000000; fill-opacity:1;stroke:#000000; stroke-opacity:1;
stroke-linecap:round; stroke-linejoin:round; "
 transform="translate(0 0) scale(1 1)">
</g>
<g style="fill:#000000; fill-opacity:0.0; 
stroke:#000000; stroke-width:-0.000393701; stroke-opacity:1; 
stroke-linecap:round; stroke-linejoin:round;">
</g>
<g style="fill:#000000; fill-opacity:1.0; 
stroke:#000000; stroke-width:39.3701; stroke-opacity:1; 
stroke-linecap:round; stroke-linejoin:round;">
<rect x="41909.4" y="25767.7" width="23310.6" height="20315" rx="0" />
</g>
<g style="fill:#FFFFFF; fill-opacity:1.0; 
stroke:#FFFFFF; stroke-width:39.3701; stroke-opacity:1; 
stroke-linecap:round; stroke-linejoin:round;">
</g>
<g style="fill:#FFFFFF; fill-opacity:0.0; 
stroke:#FFFFFF; stroke-width:39.3701; stroke-opacity:1; 
stroke-linecap:round; stroke-linejoin:round;">
</g>
<g style="fill:#FFFFFF; fill-opacity:0.0; 
stroke:#FFFFFF; stroke-width:118.11; stroke-opacity:1; 
stroke-linecap:round; stroke-linejoin:round;">
<path d="M44555 42910
L44555 42438
" />
<path d="M44555 42663
L44825 42663
" />
<path d="M44825 42910
L44825 42438
" />
<path d="M44983 42438
L45140 42910
L45298 42438
" />
<path d="M46040 42438
L45815 42438
L45793 42663
L45815 42640
L45860 42618
L45973 42618
L46017 42640
L46040 42663
L46062 42708
L46062 42820
L46040 42865
L46017 42888
L45973 42910
L45860 42910
L45815 42888
L45793 42865
" />
<path d="M46220 42438
L46332 42910
L46422 42573
L46512 42910
L46625 42438
" />
<path d="M47165 42910
L47165 42438
L47345 42438
L47390 42460
L47412 42483
L47435 42528
L47435 42595
L47412 42640
L47390 42663
L47345 42685
L47165 42685
" />
<path d="M47615 42888
L47682 42910
L47795 42910
L47840 42888
L47862 42865
L47885 42820
L47885 42775
L47862 42730
L47840 42708
L47795 42685
L47705 42663
L47660 42640
L47637 42618
L47615 42573
L47615 42528
L47637 42483
L47660 42460
L47705 42438
L47817 42438
L47885 42460
" />
<path d="M48087 42438
L48087 42820
L48110 42865
L48132 42888
L48177 42910
L48267 42910
L48312 42888
L48335 42865
L48357 42820
L48357 42438
" />
<path d="M44229 43422
L44341 43737
L44454 43422
" />
<path d="M44611 43309
L44634 43287
L44679 43264
L44791 43264
L44836 43287
L44859 43309
L44881 43354
L44881 43399
L44859 43467
L44589 43737
L44881 43737
" />
<path d="M45084 43692
L45106 43714
L45084 43737
L45061 43714
L45084 43692
L45084 43737
" />
<path d="M45399 43264
L45444 43264
L45489 43287
L45511 43309
L45534 43354
L45556 43444
L45556 43557
L45534 43647
L45511 43692
L45489 43714
L45444 43737
L45399 43737
L45354 43714
L45331 43692
L45309 43647
L45286 43557
L45286 43444
L45309 43354
L45331 43309
L45354 43287
L45399 43264
" />
<path d="M46389 43737
L46231 43512
" />
<path d="M46119 43737
L46119 43264
L46299 43264
L46344 43287
L46366 43309
L46389 43354
L46389 43422
L46366 43467
L46344 43489
L46299 43512
L46119 43512
" />
<path d="M46839 43287
L46794 43264
L46726 43264
L46659 43287
L46614 43332
L46591 43377
L46569 43467
L46569 43534
L46591 43624
L46614 43669
L46659 43714
L46726 43737
L46771 43737
L46839 43714
L46861 43692
L46861 43534
L46771 43534
" />
<path d="M47041 43309
L47064 43287
L47109 43264
L47221 43264
L47266 43287
L47289 43309
L47311 43354
L47311 43399
L47289 43467
L47019 43737
L47311 43737
" />
<path d="M47604 43264
L47649 43264
L47694 43287
L47716 43309
L47739 43354
L47761 43444
L47761 43557
L47739 43647
L47716 43692
L47694 43714
L47649 43737
L47604 43737
L47559 43714
L47536 43692
L47514 43647
L47491 43557
L47491 43444
L47514 43354
L47536 43309
L47559 43287
L47604 43264
" />
<path d="M48211 43737
L47941 43737
" />
<path d="M48076 43737
L48076 43264
L48031 43332
L47986 43377
L47941 43399
" />
<path d="M48368 43264
L48683 43264
L48481 43737
" />
</g>
<g style="fill:#FFFFFF; fill-opacity:0.0; 
stroke:#FFFFFF; stroke-width:0; stroke-opacity:1; 
stroke-linecap:round; stroke-linejoin:round;">
</g>
<g style="fill:#FFFFFF; fill-opacity:1.0; 
stroke:#FFFFFF; stroke-width:0; stroke-opacity:1; 
stroke-linecap:round; stroke-linejoin:round;">
<polyline style="fill-rule:evenodd;"
points="47649,39460
48141,39460
48141,40051
47649,40051
47649,39460
" /> 
<polyline style="fill-rule:evenodd;"
points="47649,40445
48141,40445
48141,41035
47649,41035
47649,40445
" /> 
<polyline style="fill-rule:evenodd;"
points="45824,33229
46808,33229
46808,34804
45824,34804
45824,33229
" /> 
<polyline style="fill-rule:evenodd;"
points="45824,30828
46808,30828
46808,32403
45824,32403
45824,30828
" /> 
<polyline style="fill-rule:evenodd;"
points="52270,38929
52762,38929
52762,39520
52270,39520
52270,38929
" /> 
<polyline style="fill-rule:evenodd;"
points="52270,39914
52762,39914
52762,40504
52270,40504
52270,39914
" /> 
<polyline style="fill-rule:evenodd;"
points="60008,39429
59024,39429
59024,37855
60008,37855
60008,39429
" /> 
<polyline style="fill-rule:evenodd;"
points="60008,42579
59024,42579
59024,41004
60008,41004
60008,42579
" /> 
<polyline style="fill-rule:evenodd;"
points="47680,36190
48152,36190
48152,36544
47680,36544
47680,36190
" /> 
<polyline style="fill-rule:evenodd;"
points="47680,37489
48152,37489
48152,37844
47680,37844
47680,37489
" /> 
<polyline style="fill-rule:evenodd;"
points="57751,36600
57751,36285
58500,36285
58500,36600
57751,36600
" /> 
<polyline style="fill-rule:evenodd;"
points="57751,37348
57751,37033
58500,37033
58500,37348
57751,37348
" /> 
<polyline style="fill-rule:evenodd;"
points="58933,36974
58933,36659
59681,36659
59681,36974
58933,36974
" /> 
<polyline style="fill-rule:evenodd;"
points="60844,32151
60844,31482
61788,31482
61788,32151
60844,32151
" /> 
</g>
<g style="fill:#FFFFFF; fill-opacity:1.0; 
stroke:#FFFFFF; stroke-width:669.291; stroke-opacity:1; 
stroke-linecap:round; stroke-linejoin:round;">
</g>
<g style="fill:#FFFFFF; fill-opacity:0.0; 
stroke:#FFFFFF; stroke-width:669.291; stroke-opacity:1; 
stroke-linecap:round; stroke-linejoin:round;">
<path d="M61178 32817
L61454 32817
" />
<path d="M61178 33817
L61454 33817
" />
<path d="M61178 34817
L61454 34817
" />
<path d="M61178 35817
L61454 35817
" />
</g>
<g style="fill:#FFFFFF; fill-opacity:0.0; 
stroke:#FFFFFF; stroke-width:0; stroke-opacity:1; 
stroke-linecap:round; stroke-linejoin:round;">
</g>
<g style="fill:#FFFFFF; fill-opacity:1.0; 
stroke:#FFFFFF; stroke-width:0; stroke-opacity:1; 
stroke-linecap:round; stroke-linejoin:round;">
<polyline style="fill-rule:evenodd;"
points="51779,35904
49653,35904
49653,33975
51779,33975
51779,35904
" /> 
<polyline style="fill-rule:evenodd;"
points="51779,31258
49653,31258
49653,29329
51779,29329
51779,31258
" /> 
<polyline style="fill-rule:evenodd;"
points="47071,36833
47071,37148
46323,37148
46323,36833
47071,36833
" /> 
<polyline style="fill-rule:evenodd;"
points="47071,36085
47071,36400
46323,36400
46323,36085
47071,36085
" /> 
<polyline style="fill-rule:evenodd;"
points="45890,36459
45890,36774
45142,36774
45142,36459
45890,36459
" /> 
<polyline style="fill-rule:evenodd;"
points="57316,29891
57316,34143
53616,34143
53616,29891
57316,29891
" /> 
<polyline style="fill-rule:evenodd;"
points="59974,30743
59974,31290
58163,31290
58163,30743
59974,30743
" /> 
<polyline style="fill-rule:evenodd;"
points="59974,32743
59974,33290
58163,33290
58163,32743
59974,32743
" /> 
<polyline style="fill-rule:evenodd;"
points="53585,37259
53585,36275
54372,36275
54372,37259
53585,37259
" /> 
<polyline style="fill-rule:evenodd;"
points="55160,37259
55160,36275
55947,36275
55947,37259
55160,37259
" /> 
<polyline style="fill-rule:evenodd;"
points="53585,35861
53585,34877
54372,34877
54372,35861
53585,35861
" /> 
<polyline style="fill-rule:evenodd;"
points="55160,35861
55160,34877
55947,34877
55947,35861
55160,35861
" /> 
<polyline style="fill-rule:evenodd;"
points="46060,37859
46572,37859
46572,38449
46060,38449
46060,37859
" /> 
<polyline style="fill-rule:evenodd;"
points="46060,38922
46572,38922
46572,39512
46060,39512
46060,38922
" /> 
<polyline style="fill-rule:evenodd;"
points="55843,38461
55843,38973
55252,38973
55252,38461
55843,38461
" /> 
<polyline style="fill-rule:evenodd;"
points="54780,38461
54780,38973
54189,38973
54189,38461
54780,38461
" /> 
<polyline style="fill-rule:evenodd;"
points="53260,38890
53772,38890
53772,39481
53260,39481
53260,38890
" /> 
<polyline style="fill-rule:evenodd;"
points="53260,39953
53772,39953
53772,40544
53260,40544
53260,39953
" /> 
<polyline style="fill-rule:evenodd;"
points="55843,39461
55843,39973
55252,39973
55252,39461
55843,39461
" /> 
<polyline style="fill-rule:evenodd;"
points="54780,39461
54780,39973
54189,39973
54189,39461
54780,39461
" /> 
<polyline style="fill-rule:evenodd;"
points="56772,42544
56260,42544
56260,41953
56772,41953
56772,42544
" /> 
<polyline style="fill-rule:evenodd;"
points="56772,41481
56260,41481
56260,40890
56772,40890
56772,41481
" /> 
<polyline style="fill-rule:evenodd;"
points="51151,38075
50639,38075
50639,37484
51151,37484
51151,38075
" /> 
<polyline style="fill-rule:evenodd;"
points="51151,37012
50639,37012
50639,36421
51151,36421
51151,37012
" /> 
<polyline style="fill-rule:evenodd;"
points="49151,38075
48639,38075
48639,37484
49151,37484
49151,38075
" /> 
<polyline style="fill-rule:evenodd;"
points="49151,37012
48639,37012
48639,36421
49151,36421
49151,37012
" /> 
<polyline style="fill-rule:evenodd;"
points="54819,40949
54307,40949
54307,40437
54819,40437
54819,40949
" /> 
<polyline style="fill-rule:evenodd;"
points="55410,42996
54622,42996
54622,42485
55410,42485
55410,42996
" /> 
<polyline style="fill-rule:evenodd;"
points="55725,40949
55213,40949
55213,40437
55725,40437
55725,40949
" /> 
<polyline style="fill-rule:evenodd;"
points="48527,38616
48527,38380
49137,38380
49137,38616
48527,38616
" /> 
<polyline style="fill-rule:evenodd;"
points="48527,39116
48527,38880
49137,38880
49137,39116
48527,39116
" /> 
<polyline style="fill-rule:evenodd;"
points="48527,39616
48527,39380
49137,39380
49137,39616
48527,39616
" /> 
<polyline style="fill-rule:evenodd;"
points="48527,40116
48527,39880
49137,39880
49137,40116
48527,40116
" /> 
<polyline style="fill-rule:evenodd;"
points="50653,40116
50653,39880
51263,39880
51263,40116
50653,40116
" /> 
<polyline style="fill-rule:evenodd;"
points="50653,39616
50653,39380
51263,39380
51263,39616
50653,39616
" /> 
<polyline style="fill-rule:evenodd;"
points="50653,39116
50653,38880
51263,38880
51263,39116
50653,39116
" /> 
<polyline style="fill-rule:evenodd;"
points="50653,38616
50653,38380
51263,38380
51263,38616
50653,38616
" /> 
<circle cx="58116.5" cy="34817.3" r="295.276" /> 
</g>
<g style="fill:#FFFFFF; fill-opacity:1.0; 
stroke:#FFFFFF; stroke-width:39.3701; stroke-opacity:1; 
stroke-linecap:round; stroke-linejoin:round;">
</g>
<g style="fill:#FFFFFF; fill-opacity:1.0; 
stroke:#FFFFFF; stroke-width:0; stroke-opacity:1; 
stroke-linecap:round; stroke-linejoin:round;">
<circle cx="47395.4" cy="39748.3" r="295.276" /> 
</g>
<g style="fill:#FFFFFF; fill-opacity:1.0; 
stroke:#FFFFFF; stroke-width:39.3701; stroke-opacity:1; 
stroke-linecap:round; stroke-linejoin:round;">
</g>
<g style="fill:#FFFFFF; fill-opacity:1.0; 
stroke:#FFFFFF; stroke-width:0; stroke-opacity:1; 
stroke-linecap:round; stroke-linejoin:round;">
<circle cx="49395.4" cy="37748.3" r="295.276" /> 
</g>
<g style="fill:#FFFFFF; fill-opacity:1.0; 
stroke:#FFFFFF; stroke-width:39.3701; stroke-opacity:1; 
stroke-linecap:round; stroke-linejoin:round;">
</g>
<g style="fill:#FFFFFF; fill-opacity:1.0; 
stroke:#FFFFFF; stroke-width:0; stroke-opacity:1; 
stroke-linecap:round; stroke-linejoin:round;">
<circle cx="53516.5" cy="38417.3" r="295.276" /> 
</g>
<g style="fill:#FFFFFF; fill-opacity:1.0; 
stroke:#FFFFFF; stroke-width:39.3701; stroke-opacity:1; 
stroke-linecap:round; stroke-linejoin:round;">
</g>
<g style="fill:#FFFFFF; fill-opacity:1.0; 
stroke:#FFFFFF; stroke-width:0; stroke-opacity:1; 
stroke-linecap:round; stroke-linejoin:round;">
<circle cx="56916.5" cy="38417.3" r="295.276" /> 
</g>
<g style="fill:#FFFFFF; fill-opacity:1.0; 
stroke:#FFFFFF; stroke-width:39.3701; stroke-opacity:1; 
stroke-linecap:round; stroke-linejoin:round;">
</g>
<g style="fill:#FFFFFF; fill-opacity:1.0; 
stroke:#FFFFFF; stroke-width:0; stroke-opacity:1; 
stroke-linecap:round; stroke-linejoin:round;">
<circle cx="56516.5" cy="40017.3" r="295.276" /> 
</g>
<g style="fill:#FFFFFF; fill-opacity:1.0; 
stroke:#FFFFFF; stroke-width:39.3701; stroke-opacity:1; 
stroke-linecap:round; stroke-linejoin:round;">
</g>
<g style="fill:#FFFFFF; fill-opacity:1.0; 
stroke:#FFFFFF; stroke-width:0; stroke-opacity:1; 
stroke-linecap:round; stroke-linejoin:round;">
<circle cx="59116.5" cy="33617.3" r="295.276" /> 
</g>
<g style="fill:#FFFFFF; fill-opacity:1.0; 
stroke:#FFFFFF; stroke-width:39.3701; stroke-opacity:1; 
stroke-linecap:round; stroke-linejoin:round;">
</g>
<g style="fill:#FFFFFF; fill-opacity:1.0; 
stroke:#FFFFFF; stroke-width:0; stroke-opacity:1; 
stroke-linecap:round; stroke-linejoin:round;">
<circle cx="51716.5" cy="37417.3" r="295.276" /> 
</g>
<g style="fill:#FFFFFF; fill-opacity:1.0; 
stroke:#FFFFFF; stroke-width:39.3701; stroke-opacity:1; 
stroke-linecap:round; stroke-linejoin:round;">
</g>
<g style="fill:#FFFFFF; fill-opacity:1.0; 
stroke:#FFFFFF; stroke-width:0; stroke-opacity:1; 
stroke-linecap:round; stroke-linejoin:round;">
<circle cx="47895.4" cy="38748.3" r="295.276" /> 
</g>
<g style="fill:#FFFFFF; fill-opacity:1.0; 
stroke:#FFFFFF; stroke-width:39.3701; stroke-opacity:1; 
stroke-linecap:round; stroke-linejoin:round;">
</g>
<g style="fill:#FFFFFF; fill-opacity:1.0; 
stroke:#FFFFFF; stroke-width:0; stroke-opacity:1; 
stroke-linecap:round; stroke-linejoin:round;">
<circle cx="58716.5" cy="34017.3" r="393.701" /> 
</g>
<g style="fill:#FFFFFF; fill-opacity:1.0; 
stroke:#FFFFFF; stroke-width:39.3701; stroke-opacity:1; 
stroke-linecap:round; stroke-linejoin:round;">
</g>
<g style="fill:#FFFFFF; fill-opacity:1.0; 
stroke:#FFFFFF; stroke-width:0; stroke-opacity:1; 
stroke-linecap:round; stroke-linejoin:round;">
<circle cx="47516.5" cy="35817.3" r="393.701" /> 
</g>
<g style="fill:#FFFFFF; fill-opacity:1.0; 
stroke:#FFFFFF; stroke-width:39.3701; stroke-opacity:1; 
stroke-linecap:round; stroke-linejoin:round;">
</g>
<g style="fill:#FFFFFF; fill-opacity:1.0; 
stroke:#FFFFFF; stroke-width:0; stroke-opacity:1; 
stroke-linecap:round; stroke-linejoin:round;">
<circle cx="58267.7" cy="29527.6" r="393.701" /> 
</g>
<g style="fill:#FFFFFF; fill-opacity:1.0; 
stroke:#FFFFFF; stroke-width:39.3701; stroke-opacity:1; 
stroke-linecap:round; stroke-linejoin:round;">
</g>
<g style="fill:#FFFFFF; fill-opacity:1.0; 
stroke:#FFFFFF; stroke-width:0; stroke-opacity:1; 
stroke-linecap:round; stroke-linejoin:round;">
<circle cx="57086.6" cy="36614.2" r="393.701" /> 
</g>
<g style="fill:#FFFFFF; fill-opacity:1.0; 
stroke:#FFFFFF; stroke-width:39.3701; stroke-opacity:1; 
stroke-linecap:round; stroke-linejoin:round;">
</g>
<g style="fill:#FFFFFF; fill-opacity:1.0; 
stroke:#FFFFFF; stroke-width:196.85; stroke-opacity:1; 
stroke-linecap:round; stroke-linejoin:round;">
</g>
<g style="fill:#FFFFFF; fill-opacity:0.0; 
stroke:#FFFFFF; stroke-width:196.85; stroke-opacity:1; 
stroke-linecap:round; stroke-linejoin:round;">
<path d="M47895 39756
L47403 39756
" />
<path d="M47403 39756
L47395 39748
" />
<path d="M48832 39498
L48153 39498
" />
<path d="M48153 39498
L47895 39756
" />
</g>
<g style="fill:#FFFFFF; fill-opacity:0.0; 
stroke:#FFFFFF; stroke-width:590.551; stroke-opacity:1; 
stroke-linecap:round; stroke-linejoin:round;">
<path d="M47399 34017
L46316 34017
" />
<path d="M48322 34940
L47399 34017
" />
<path d="M50716 34940
L48322 34940
" />
<path d="M52716 35369
L52316 35369
" />
<path d="M52316 35369
L51145 35369
" />
<path d="M53979 35369
L52316 35369
" />
</g>
<g style="fill:#FFFFFF; fill-opacity:0.0; 
stroke:#FFFFFF; stroke-width:196.85; stroke-opacity:1; 
stroke-linecap:round; stroke-linejoin:round;">
<path d="M50145 36046
L50716 35475
" />
<path d="M50716 35475
L50716 34940
" />
<path d="M50145 36748
L50145 36046
" />
<path d="M50145 36748
L50176 36716
" />
<path d="M52776 35430
L52716 35369
" />
</g>
<g style="fill:#FFFFFF; fill-opacity:0.0; 
stroke:#FFFFFF; stroke-width:590.551; stroke-opacity:1; 
stroke-linecap:round; stroke-linejoin:round;">
<path d="M51145 35369
L50716 34940
" />
<path d="M53979 35369
L53979 36767
" />
</g>
<g style="fill:#FFFFFF; fill-opacity:0.0; 
stroke:#FFFFFF; stroke-width:196.85; stroke-opacity:1; 
stroke-linecap:round; stroke-linejoin:round;">
<path d="M50145 36748
L50113 36716
" />
<path d="M50113 36716
L48895 36716
" />
<path d="M50145 38998
L50145 36748
" />
<path d="M50176 36716
L50895 36716
" />
<path d="M50338 38998
L50145 38998
" />
<path d="M50958 38998
L50338 38998
" />
<path d="M50958 38998
L50751 38998
" />
<path d="M50958 39998
L51743 39998
" />
<path d="M51743 39998
L52516 39225
" />
<path d="M52508 39217
L52516 39225
" />
<path d="M54485 39185
L54485 39717
" />
<path d="M54485 39185
L54485 38717
" />
<path d="M53516 39185
L54485 39185
" />
<path d="M53516 39185
L53516 38217
" />
<path d="M52516 39225
L53477 39225
" />
<path d="M53477 39225
L53516 39185
" />
<path d="M59516 37442
L59516 36617
" />
<path d="M59516 36617
L59516 36017
" />
<path d="M59307 36817
L59316 36817
" />
<path d="M59316 36817
L59516 36617
" />
<path d="M59316 36817
L59516 37017
" />
<path d="M56916 38417
L59291 38417
" />
<path d="M59291 38417
L59516 38642
" />
<path d="M55548 38717
L56616 38717
" />
<path d="M56616 38717
L56916 38417
" />
<path d="M59516 37442
L59516 38642
" />
<path d="M59516 36017
L60716 34817
" />
<path d="M60716 34817
L61316 34817
" />
<path d="M58716 34017
L58716 33519
" />
<path d="M58716 33519
L59068 33167
" />
<path d="M47516 36367
L46822 36367
" />
<path d="M47916 36367
L47516 36367
" />
<path d="M47516 36367
L47516 35817
" />
<path d="M46822 36367
L46697 36243
" />
<path d="M58916 33817
L58916 33319
" />
<path d="M58916 33319
L59068 33167
" />
<path d="M47895 38748
L47895 37688
" />
<path d="M47895 37688
L47916 37666
" />
<path d="M46697 36991
L47240 36991
" />
<path d="M47240 36991
L47916 37666
" />
<path d="M46316 38154
L46316 37372
" />
<path d="M46316 37372
L46697 36991
" />
<path d="M48832 38998
L48145 38998
" />
<path d="M48145 38998
L47895 38748
" />
<path d="M58125 36443
L57257 36443
" />
<path d="M57257 36443
L57086 36614
" />
<path d="M60759 32817
L61316 32817
" />
<path d="M60759 32817
L60559 32617
" />
<path d="M60559 32617
L60559 32317
" />
<path d="M60559 32317
L60129 32317
" />
<path d="M60129 32317
L59979 32167
" />
<path d="M59979 32167
L55466 32167
" />
</g>
<g style="fill:#FFFFFF; fill-opacity:0.0; 
stroke:#FFFFFF; stroke-width:590.551; stroke-opacity:1; 
stroke-linecap:round; stroke-linejoin:round;">
<path d="M55466 32167
L56466 32167
" />
<path d="M55466 32167
L54766 32167
" />
<path d="M55466 32167
L55466 31967
" />
<path d="M58116 34817
L58116 35369
" />
<path d="M58116 34817
L58116 35369
" />
</g>
<g style="fill:#FFFFFF; fill-opacity:0.0; 
stroke:#FFFFFF; stroke-width:196.85; stroke-opacity:1; 
stroke-linecap:round; stroke-linejoin:round;">
<path d="M50958 39498
L51460 39498
" />
<path d="M51460 39498
L51558 39399
" />
<path d="M55553 36865
L55553 36767
" />
<path d="M51558 39399
L51558 38975
" />
<path d="M51558 38975
L52916 37617
" />
<path d="M52916 37617
L54802 37617
" />
<path d="M54802 37617
L55553 36865
" />
</g>
<g style="fill:#FFFFFF; fill-opacity:0.0; 
stroke:#FFFFFF; stroke-width:590.551; stroke-opacity:1; 
stroke-linecap:round; stroke-linejoin:round;">
<path d="M61316 33817
L60316 33817
" />
<path d="M60316 33817
L58764 35369
" />
<path d="M58764 35369
L56553 35369
" />
<path d="M56553 35369
L55553 35369
" />
</g>
<g style="fill:#FFFFFF; fill-opacity:0.0; 
stroke:#FFFFFF; stroke-width:196.85; stroke-opacity:1; 
stroke-linecap:round; stroke-linejoin:round;">
<path d="M51035 39498
L50958 39498
" />
</g>
<g style="fill:#FFFFFF; fill-opacity:0.0; 
stroke:#FFFFFF; stroke-width:590.551; stroke-opacity:1; 
stroke-linecap:round; stroke-linejoin:round;">
<path d="M55553 35369
L55553 36767
" />
</g>
<g style="fill:#FFFFFF; fill-opacity:0.0; 
stroke:#FFFFFF; stroke-width:196.85; stroke-opacity:1; 
stroke-linecap:round; stroke-linejoin:round;">
<path d="M56516 40017
L55848 40017
" />
<path d="M55848 40017
L55548 39717
" />
<path d="M61316 35817
L61316 39362
" />
<path d="M61316 39362
L60661 40017
" />
<path d="M60661 40017
L56934 40017
" />
<path d="M56934 40017
L56516 40017
" />
<path d="M61316 36290
L61316 35817
" />
<path d="M55469 40693
L55492 40693
" />
<path d="M55492 40693
L56016 41217
" />
<path d="M56016 41217
L56485 41217
" />
<path d="M56485 41217
L56516 41185
" />
<path d="M55548 39717
L55548 40614
" />
<path d="M55548 40614
L55469 40693
" />
<path d="M49395 37748
L48926 37748
" />
<path d="M48926 37748
L48895 37779
" />
<path d="M48832 38498
L48832 37842
" />
<path d="M48832 37842
L48895 37779
" />
<path d="M51363 37779
L51363 37769
" />
<path d="M51363 37769
L51716 37417
" />
<path d="M50895 37779
L51363 37779
" />
<path d="M51363 37779
L51395 37748
" />
<path d="M50958 38498
L50958 37842
" />
<path d="M50958 37842
L50895 37779
" />
</g>
<g style="fill:#FFFFFF; fill-opacity:1.0; 
stroke:#FFFFFF; stroke-width:100; stroke-opacity:1; 
stroke-linecap:round; stroke-linejoin:round;">
<polyline style="fill-rule:evenodd;"
points="57866,30173
57707,30275
57566,30482
57566,29841
57528,29749
57458,29679
57366,29641
55872,29641
55810,29703
55810,31673
57504,31673
57566,31611
57566,31546
57695,31746
57866,31863
57866,32173
57707,32275
57566,32482
57566,32423
57504,32361
55810,32361
55810,32368
55122,32368
55122,32361
53428,32361
53366,32423
53366,33767
52393,33767
52387,33738
52247,33520
52033,33374
51779,33322
49653,33322
49416,33367
49198,33507
49051,33721
49042,33767
48472,33767
48366,33661
48366,30405
49403,30405
49403,31308
49441,31400
49511,31470
49603,31508
50605,31508
50668,31446
50668,30342
50764,30342
50764,31446
50827,31508
51829,31508
51921,31470
51991,31400
52029,31308
52029,30405
51967,30342
50764,30342
50668,30342
49466,30342
49403,30405
48366,30405
48366,29280
49403,29280
49403,30183
49466,30245
50668,30245
50668,29142
50764,29142
50764,30245
51967,30245
52029,30183
52029,29841
53366,29841
53366,31611
53428,31673
55122,31673
55122,29703
55060,29641
53566,29641
53474,29679
53404,29749
53366,29841
52029,29841
52029,29280
51991,29188
51921,29117
51829,29079
50827,29079
50764,29142
50668,29142
50605,29079
49603,29079
49511,29117
49441,29188
49403,29280
48366,29280
48366,29067
57866,29067
57866,30173
" /> 
<polyline style="fill-rule:evenodd;"
points="62528,43827
48998,43827
48998,42851
54372,42851
54372,43046
54410,43138
54481,43208
54573,43246
54905,43246
54968,43184
54968,42789
55064,42789
55064,43184
55127,43246
55459,43246
55551,43208
55622,43138
55660,43046
55660,42851
55597,42789
55064,42789
54968,42789
54435,42789
54372,42851
48998,42851
48998,42435
54372,42435
54372,42630
54435,42692
54968,42692
54968,42297
55064,42297
55064,42692
55597,42692
55660,42630
55660,42435
55628,42359
56010,42359
56010,42593
56048,42685
56119,42756
56210,42794
56405,42794
56468,42731
56468,42297
56564,42297
56564,42731
56627,42794
56822,42794
56914,42756
56984,42685
57022,42593
57022,42359
56959,42297
56564,42297
56468,42297
56073,42297
56010,42359
55628,42359
55622,42343
55551,42273
55459,42235
55127,42235
55064,42297
54968,42297
54905,42235
54573,42235
54481,42273
54410,42343
54372,42435
48998,42435
48998,42060
44164,42060
44164,40851
47399,40851
47399,41085
47437,41177
47507,41247
47599,41285
47784,41285
47846,41223
47846,40788
47943,40788
47943,41223
48006,41285
48191,41285
48283,41247
48353,41177
48391,41085
48391,40851
48328,40788
47943,40788
47846,40788
47461,40788
47399,40851
44164,40851
44164,39328
45810,39328
45810,39562
45848,39654
45919,39724
46010,39762
46205,39762
46268,39700
46268,39265
46364,39265
46364,39700
46427,39762
46622,39762
46714,39724
46784,39654
46822,39562
46822,39328
46759,39265
46364,39265
46268,39265
45873,39265
45810,39328
44164,39328
44164,36728
44892,36728
44892,36824
44930,36916
45000,36986
45092,37024
45405,37024
45468,36962
45468,36665
44955,36665
44892,36728
44164,36728
44164,36410
44892,36410
44892,36506
44955,36568
45468,36568
45468,36272
45564,36272
45564,36568
46078,36568
46114,36532
46143,36576
46203,36617
46148,36653
46114,36702
46078,36665
45564,36665
45564,36962
45627,37024
45940,37024
46032,36986
46071,36946
46071,37128
45997,37240
45971,37372
45971,37624
45969,37624
45885,37678
45828,37761
45808,37859
45808,38449
45826,38541
45880,38625
45962,38681
45979,38684
45919,38710
45848,38780
45810,38872
45810,39106
45873,39168
46268,39168
46268,39161
46364,39161
46364,39168
46759,39168
46822,39106
46822,38872
46784,38780
46714,38710
46655,38685
46663,38684
46747,38630
46804,38547
46824,38449
46824,37859
46806,37767
46752,37683
46670,37627
46661,37625
46661,37515
46776,37400
47071,37400
47147,37386
47428,37667
47428,37844
47445,37935
47499,38019
47550,38053
47550,38326
47436,38440
47353,38640
47353,38855
47435,39055
47587,39207
47609,39216
47557,39226
47555,39227
47503,39206
47288,39206
47088,39288
46936,39440
46853,39640
46853,39855
46935,40055
47087,40207
47287,40290
47450,40290
47437,40303
47399,40395
47399,40629
47461,40692
47846,40692
47846,40684
47943,40684
47943,40692
48328,40692
48391,40629
48391,40395
48353,40303
48295,40245
48307,40238
48315,40258
48385,40328
48477,40366
48721,40366
48783,40303
48783,40046
48880,40046
48880,40303
48943,40366
49187,40366
49279,40328
49349,40258
49387,40166
49387,40109
49325,40046
48880,40046
48783,40046
48776,40046
48776,39949
48783,39949
48783,39942
48880,39942
48880,39949
49325,39949
49387,39887
49387,39830
49350,39741
49369,39714
49389,39616
49389,39380
49371,39288
49346,39248
49369,39214
49389,39116
49389,38880
49371,38788
49346,38748
49369,38714
49389,38616
49389,38380
49372,38290
49502,38290
49702,38208
49800,38110
49800,38998
49826,39130
49901,39242
50013,39317
50145,39343
50408,39343
50401,39380
50401,39616
50418,39707
50444,39748
50421,39782
50401,39880
50401,40116
50418,40207
50472,40291
50555,40348
50653,40368
51263,40368
51354,40350
51366,40343
51743,40343
51875,40317
51987,40242
52020,40209
52020,40257
52082,40257
52020,40320
52020,40554
52058,40646
52128,40716
52220,40754
52405,40754
52468,40692
52468,40257
52564,40257
52564,40692
52627,40754
52812,40754
52904,40716
52974,40646
53010,40559
53010,40593
53048,40685
53119,40756
53210,40794
53405,40794
53468,40731
53468,40297
53564,40297
53564,40731
53627,40794
53822,40794
53914,40756
53984,40685
54022,40593
54022,40359
53959,40297
53564,40297
53468,40297
53073,40297
53012,40357
53012,40320
52950,40257
52564,40257
52468,40257
52460,40257
52460,40161
52468,40161
52468,40153
52564,40153
52564,40161
52950,40161
53010,40100
53010,40137
53073,40200
53468,40200
53468,40192
53564,40192
53564,40200
53959,40200
54010,40149
54091,40205
54184,40223
54132,40257
54076,40339
54056,40437
54056,40949
54073,41041
54127,41125
54209,41181
54307,41201
54819,41201
54911,41184
54995,41130
55016,41099
55032,41125
55115,41181
55213,41201
55512,41201
55772,41461
55884,41536
56016,41562
56024,41562
56026,41572
56080,41656
56162,41712
56179,41716
56119,41741
56048,41811
56010,41903
56010,42137
56073,42200
56468,42200
56468,42192
56564,42192
56564,42200
56959,42200
57022,42137
57022,41903
57022,41903
58774,41903
58774,42629
58812,42721
58882,42791
58974,42829
59405,42829
59468,42767
59468,41840
59564,41840
59564,42767
59627,42829
60058,42829
60150,42791
60220,42721
60258,42629
60258,41903
60196,41840
59564,41840
59468,41840
58836,41840
58774,41903
57022,41903
56984,41811
56914,41741
56855,41717
56863,41715
56947,41661
57004,41579
57024,41481
57024,40954
58774,40954
58774,41681
58836,41743
59468,41743
59468,40817
59564,40817
59564,41743
60196,41743
60258,41681
60258,40954
60220,40863
60150,40792
60058,40754
59627,40754
59564,40817
59468,40817
59405,40754
58974,40754
58882,40792
58812,40863
58774,40954
57024,40954
57024,40890
57006,40799
56952,40715
56870,40658
56772,40638
56260,40638
56169,40656
56085,40710
56049,40762
55976,40689
55976,40437
55962,40362
56095,40362
56209,40476
56408,40559
56623,40559
56823,40477
56938,40362
60661,40362
60793,40336
60905,40261
61560,39606
61560,39606
61635,39494
61661,39362
61661,39362
61661,36280
61739,36228
61865,36039
61909,35817
61868,35611
62025,35506
62236,35190
62310,34817
62236,34444
62025,34127
61868,34023
61909,33817
61868,33611
62025,33506
62236,33190
62310,32817
62236,32444
62025,32127
61894,32040
61838,31984
61811,31984
61708,31916
61335,31842
61297,31842
61135,31874
61082,31794
60981,31727
60981,31650
61149,31650
61149,31295
61483,31295
61483,31650
61838,31650
61901,31587
61901,31432
61863,31341
61792,31270
61700,31232
61546,31232
61483,31295
61149,31295
61086,31232
60932,31232
60840,31270
60769,31341
60731,31432
60731,31612
60559,31578
60402,31578
60261,31484
60155,31463
60186,31432
60224,31340
60224,31216
60161,31154
59412,31154
59412,31290
58725,31290
58725,31154
58717,31154
58717,30880
58725,30880
58725,30556
59412,30556
59412,30880
60161,30880
60224,30818
60224,30693
60186,30602
60116,30531
60024,30493
59475,30493
59412,30556
58725,30556
58662,30493
58637,30493
58852,30404
59144,30114
59301,29734
59302,29322
59145,28942
58854,28651
58474,28493
58262,28493
58165,28427
57916,28376
48316,28376
48083,28420
47869,28558
47726,28768
47675,29017
47675,33562
47606,33516
47399,33475
47060,33475
47060,33229
47043,33138
46989,33054
46906,32998
46808,32978
45824,32978
45732,32995
45648,33049
45592,33132
45572,33229
45572,34804
45589,34896
45643,34980
45726,35036
45824,35056
46808,35056
46900,35039
46984,34985
47040,34902
47060,34804
47060,34559
47174,34559
47938,35323
48114,35441
48322,35482
49401,35482
49401,35904
49419,35996
49473,36080
49555,36136
49653,36156
49800,36156
49800,36371
49393,36371
49385,36330
49331,36246
49249,36189
49151,36169
48639,36169
48547,36187
48463,36241
48407,36323
48404,36339
48404,36190
48387,36099
48333,36015
48250,35958
48156,35939
48157,35690
48059,35454
47879,35274
47644,35176
47389,35176
47154,35273
46973,35454
46876,35689
46875,35834
46323,35834
46232,35851
46148,35905
46091,35987
46071,36085
46071,36287
46032,36247
45940,36209
45627,36209
45564,36272
45468,36272
45405,36209
45092,36209
45000,36247
44930,36318
44892,36410
44164,36410
44164,31726
45574,31726
45574,32452
45612,32544
45682,32615
45774,32653
46205,32653
46268,32590
46268,31664
46364,31664
46364,32590
46427,32653
46858,32653
46950,32615
47020,32544
47058,32452
47058,31726
46996,31664
46364,31664
46268,31664
45636,31664
45574,31726
44164,31726
44164,30778
45574,30778
45574,31504
45636,31567
46268,31567
46268,30640
46364,30640
46364,31567
46996,31567
47058,31504
47058,30778
47020,30686
46950,30616
46858,30578
46427,30578
46364,30640
46268,30640
46205,30578
45774,30578
45682,30616
45612,30686
45574,30778
44164,30778
44164,28022
62528,28022
62528,43827
" /> 
</g>
<g style="fill:#000000; fill-opacity:1.0; 
stroke:#000000; stroke-width:100; stroke-opacity:1; 
stroke-linecap:round; stroke-linejoin:round;">
</g>
<g style="fill:#000000; fill-opacity:1.0; 
stroke:#000000; stroke-width:0; stroke-opacity:1; 
stroke-linecap:round; stroke-linejoin:round;">
<circle cx="58716.5" cy="34017.3" r="68.8976" /> 
</g>
<g style="fill:#000000; fill-opacity:1.0; 
stroke:#000000; stroke-width:39.3701; stroke-opacity:1; 
stroke-linecap:round; stroke-linejoin:round;">
</g>
<g style="fill:#000000; fill-opacity:1.0; 
stroke:#000000; stroke-width:0; stroke-opacity:1; 
stroke-linecap:round; stroke-linejoin:round;">
<circle cx="47516.5" cy="35817.3" r="68.8976" /> 
</g>
<g style="fill:#000000; fill-opacity:1.0; 
stroke:#000000; stroke-width:39.3701; stroke-opacity:1; 
stroke-linecap:round; stroke-linejoin:round;">
</g>
<g style="fill:#000000; fill-opacity:1.0; 
stroke:#000000; stroke-width:0; stroke-opacity:1; 
stroke-linecap:round; stroke-linejoin:round;">
<circle cx="58267.7" cy="29527.6" r="68.8976" /> 
</g>
<g style="fill:#000000; fill-opacity:1.0; 
stroke:#000000; stroke-width:39.3701; stroke-opacity:1; 
stroke-linecap:round; stroke-linejoin:round;">
</g>
<g style="fill:#000000; fill-opacity:1.0; 
stroke:#000000; stroke-width:0; stroke-opacity:1; 
stroke-linecap:round; stroke-linejoin:round;">
<circle cx="57086.6" cy="36614.2" r="68.8976" /> 
</g>
<g style="fill:#000000; fill-opacity:1.0; 
stroke:#000000; stroke-width:39.3701; stroke-opacity:1; 
stroke-linecap:round; stroke-linejoin:round;">
</g>
<g style="fill:#000000; fill-opacity:1.0; 
stroke:#000000; stroke-width:0; stroke-opacity:1; 
stroke-linecap:round; stroke-linejoin:round;">
<circle cx="61316.5" cy="31817.3" r="68.8976" /> 
</g>
<g style="fill:#000000; fill-opacity:1.0; 
stroke:#000000; stroke-width:39.3701; stroke-opacity:1; 
stroke-linecap:round; stroke-linejoin:round;">
</g>
<g style="fill:#000000; fill-opacity:1.0; 
stroke:#000000; stroke-width:0; stroke-opacity:1; 
stroke-linecap:round; stroke-linejoin:round;">
<circle cx="61316.5" cy="32817.3" r="68.8976" /> 
</g>
<g style="fill:#000000; fill-opacity:1.0; 
stroke:#000000; stroke-width:39.3701; stroke-opacity:1; 
stroke-linecap:round; stroke-linejoin:round;">
</g>
<g style="fill:#000000; fill-opacity:1.0; 
stroke:#000000; stroke-width:0; stroke-opacity:1; 
stroke-linecap:round; stroke-linejoin:round;">
<circle cx="61316.5" cy="33817.3" r="68.8976" /> 
</g>
<g style="fill:#000000; fill-opacity:1.0; 
stroke:#000000; stroke-width:39.3701; stroke-opacity:1; 
stroke-linecap:round; stroke-linejoin:round;">
</g>
<g style="fill:#000000; fill-opacity:1.0; 
stroke:#000000; stroke-width:0; stroke-opacity:1; 
stroke-linecap:round; stroke-linejoin:round;">
<circle cx="61316.5" cy="34817.3" r="68.8976" /> 
</g>
<g style="fill:#000000; fill-opacity:1.0; 
stroke:#000000; stroke-width:39.3701; stroke-opacity:1; 
stroke-linecap:round; stroke-linejoin:round;">
</g>
<g style="fill:#000000; fill-opacity:1.0; 
stroke:#000000; stroke-width:0; stroke-opacity:1; 
stroke-linecap:round; stroke-linejoin:round;">
<circle cx="61316.5" cy="35817.3" r="68.8976" /> 
</g>
<g style="fill:#000000; fill-opacity:1.0; 
stroke:#000000; stroke-width:39.3701; stroke-opacity:1; 
stroke-linecap:round; stroke-linejoin:round;">
</g>
<g style="fill:#FFFFFF; fill-opacity:1.0; 
stroke:#FFFFFF; stroke-width:39.3701; stroke-opacity:1; 
stroke-linecap:round; stroke-linejoin:round;">
</g> 
</svg>
