G75*
%MOIN*%
%OFA0B0*%
%FSLAX25Y25*%
%IPPOS*%
%LPD*%
%AMOC8*
5,1,8,0,0,1.08239X$1,22.5*
%
%ADD10C,0.01600*%
%ADD11C,0.08200*%
%ADD12OC8,0.08400*%
%ADD13OC8,0.06800*%
%ADD14C,0.15800*%
%ADD15C,0.04769*%
%ADD16C,0.09400*%
%ADD17C,0.09650*%
%ADD18C,0.06107*%
%ADD19R,0.10643X0.09855*%
%ADD20R,0.10643X0.17729*%
%ADD21R,0.06706X0.05918*%
%ADD22R,0.05600X0.09600*%
%ADD23R,0.14973X0.09461*%
%ADD24C,0.00500*%
%ADD25R,0.05131X0.04737*%
%ADD26C,0.26200*%
D10*
X0001800Y0021485D02*
X0001800Y0297076D01*
X0001806Y0297552D01*
X0001823Y0298027D01*
X0001852Y0298502D01*
X0001892Y0298976D01*
X0001944Y0299449D01*
X0002007Y0299920D01*
X0002081Y0300390D01*
X0002167Y0300858D01*
X0002264Y0301324D01*
X0002372Y0301787D01*
X0002491Y0302247D01*
X0002622Y0302705D01*
X0002763Y0303159D01*
X0002916Y0303610D01*
X0003079Y0304056D01*
X0003253Y0304499D01*
X0003438Y0304937D01*
X0003633Y0305371D01*
X0003839Y0305800D01*
X0004055Y0306224D01*
X0004281Y0306643D01*
X0004517Y0307056D01*
X0004763Y0307463D01*
X0005019Y0307864D01*
X0005285Y0308258D01*
X0005560Y0308647D01*
X0005844Y0309028D01*
X0006137Y0309402D01*
X0006439Y0309770D01*
X0006751Y0310130D01*
X0007070Y0310482D01*
X0007398Y0310826D01*
X0007735Y0311163D01*
X0008079Y0311491D01*
X0008431Y0311810D01*
X0008791Y0312122D01*
X0009159Y0312424D01*
X0009533Y0312717D01*
X0009914Y0313001D01*
X0010303Y0313276D01*
X0010697Y0313542D01*
X0011098Y0313798D01*
X0011505Y0314044D01*
X0011918Y0314280D01*
X0012337Y0314506D01*
X0012761Y0314722D01*
X0013190Y0314928D01*
X0013624Y0315123D01*
X0014062Y0315308D01*
X0014505Y0315482D01*
X0014951Y0315645D01*
X0015402Y0315798D01*
X0015856Y0315939D01*
X0016314Y0316070D01*
X0016774Y0316189D01*
X0017237Y0316297D01*
X0017703Y0316394D01*
X0018171Y0316480D01*
X0018641Y0316554D01*
X0019112Y0316617D01*
X0019585Y0316669D01*
X0020059Y0316709D01*
X0020534Y0316738D01*
X0021009Y0316755D01*
X0021485Y0316761D01*
X0572666Y0316761D01*
X0573142Y0316755D01*
X0573617Y0316738D01*
X0574092Y0316709D01*
X0574566Y0316669D01*
X0575039Y0316617D01*
X0575510Y0316554D01*
X0575980Y0316480D01*
X0576448Y0316394D01*
X0576914Y0316297D01*
X0577377Y0316189D01*
X0577837Y0316070D01*
X0578295Y0315939D01*
X0578749Y0315798D01*
X0579200Y0315645D01*
X0579646Y0315482D01*
X0580089Y0315308D01*
X0580527Y0315123D01*
X0580961Y0314928D01*
X0581390Y0314722D01*
X0581814Y0314506D01*
X0582233Y0314280D01*
X0582646Y0314044D01*
X0583053Y0313798D01*
X0583454Y0313542D01*
X0583848Y0313276D01*
X0584237Y0313001D01*
X0584618Y0312717D01*
X0584992Y0312424D01*
X0585360Y0312122D01*
X0585720Y0311810D01*
X0586072Y0311491D01*
X0586416Y0311163D01*
X0586753Y0310826D01*
X0587081Y0310482D01*
X0587400Y0310130D01*
X0587712Y0309770D01*
X0588014Y0309402D01*
X0588307Y0309028D01*
X0588591Y0308647D01*
X0588866Y0308258D01*
X0589132Y0307864D01*
X0589388Y0307463D01*
X0589634Y0307056D01*
X0589870Y0306643D01*
X0590096Y0306224D01*
X0590312Y0305800D01*
X0590518Y0305371D01*
X0590713Y0304937D01*
X0590898Y0304499D01*
X0591072Y0304056D01*
X0591235Y0303610D01*
X0591388Y0303159D01*
X0591529Y0302705D01*
X0591660Y0302247D01*
X0591779Y0301787D01*
X0591887Y0301324D01*
X0591984Y0300858D01*
X0592070Y0300390D01*
X0592144Y0299920D01*
X0592207Y0299449D01*
X0592259Y0298976D01*
X0592299Y0298502D01*
X0592328Y0298027D01*
X0592345Y0297552D01*
X0592351Y0297076D01*
X0592351Y0021485D01*
X0592345Y0021009D01*
X0592328Y0020534D01*
X0592299Y0020059D01*
X0592259Y0019585D01*
X0592207Y0019112D01*
X0592144Y0018641D01*
X0592070Y0018171D01*
X0591984Y0017703D01*
X0591887Y0017237D01*
X0591779Y0016774D01*
X0591660Y0016314D01*
X0591529Y0015856D01*
X0591388Y0015402D01*
X0591235Y0014951D01*
X0591072Y0014505D01*
X0590898Y0014062D01*
X0590713Y0013624D01*
X0590518Y0013190D01*
X0590312Y0012761D01*
X0590096Y0012337D01*
X0589870Y0011918D01*
X0589634Y0011505D01*
X0589388Y0011098D01*
X0589132Y0010697D01*
X0588866Y0010303D01*
X0588591Y0009914D01*
X0588307Y0009533D01*
X0588014Y0009159D01*
X0587712Y0008791D01*
X0587400Y0008431D01*
X0587081Y0008079D01*
X0586753Y0007735D01*
X0586416Y0007398D01*
X0586072Y0007070D01*
X0585720Y0006751D01*
X0585360Y0006439D01*
X0584992Y0006137D01*
X0584618Y0005844D01*
X0584237Y0005560D01*
X0583848Y0005285D01*
X0583454Y0005019D01*
X0583053Y0004763D01*
X0582646Y0004517D01*
X0582233Y0004281D01*
X0581814Y0004055D01*
X0581390Y0003839D01*
X0580961Y0003633D01*
X0580527Y0003438D01*
X0580089Y0003253D01*
X0579646Y0003079D01*
X0579200Y0002916D01*
X0578749Y0002763D01*
X0578295Y0002622D01*
X0577837Y0002491D01*
X0577377Y0002372D01*
X0576914Y0002264D01*
X0576448Y0002167D01*
X0575980Y0002081D01*
X0575510Y0002007D01*
X0575039Y0001944D01*
X0574566Y0001892D01*
X0574092Y0001852D01*
X0573617Y0001823D01*
X0573142Y0001806D01*
X0572666Y0001800D01*
X0021485Y0001800D01*
X0021009Y0001806D01*
X0020534Y0001823D01*
X0020059Y0001852D01*
X0019585Y0001892D01*
X0019112Y0001944D01*
X0018641Y0002007D01*
X0018171Y0002081D01*
X0017703Y0002167D01*
X0017237Y0002264D01*
X0016774Y0002372D01*
X0016314Y0002491D01*
X0015856Y0002622D01*
X0015402Y0002763D01*
X0014951Y0002916D01*
X0014505Y0003079D01*
X0014062Y0003253D01*
X0013624Y0003438D01*
X0013190Y0003633D01*
X0012761Y0003839D01*
X0012337Y0004055D01*
X0011918Y0004281D01*
X0011505Y0004517D01*
X0011098Y0004763D01*
X0010697Y0005019D01*
X0010303Y0005285D01*
X0009914Y0005560D01*
X0009533Y0005844D01*
X0009159Y0006137D01*
X0008791Y0006439D01*
X0008431Y0006751D01*
X0008079Y0007070D01*
X0007735Y0007398D01*
X0007398Y0007735D01*
X0007070Y0008079D01*
X0006751Y0008431D01*
X0006439Y0008791D01*
X0006137Y0009159D01*
X0005844Y0009533D01*
X0005560Y0009914D01*
X0005285Y0010303D01*
X0005019Y0010697D01*
X0004763Y0011098D01*
X0004517Y0011505D01*
X0004281Y0011918D01*
X0004055Y0012337D01*
X0003839Y0012761D01*
X0003633Y0013190D01*
X0003438Y0013624D01*
X0003253Y0014062D01*
X0003079Y0014505D01*
X0002916Y0014951D01*
X0002763Y0015402D01*
X0002622Y0015856D01*
X0002491Y0016314D01*
X0002372Y0016774D01*
X0002264Y0017237D01*
X0002167Y0017703D01*
X0002081Y0018171D01*
X0002007Y0018641D01*
X0001944Y0019112D01*
X0001892Y0019585D01*
X0001852Y0020059D01*
X0001823Y0020534D01*
X0001806Y0021009D01*
X0001800Y0021485D01*
X0001800Y0336446D02*
X0001800Y0612036D01*
X0001806Y0612512D01*
X0001823Y0612987D01*
X0001852Y0613462D01*
X0001892Y0613936D01*
X0001944Y0614409D01*
X0002007Y0614880D01*
X0002081Y0615350D01*
X0002167Y0615818D01*
X0002264Y0616284D01*
X0002372Y0616747D01*
X0002491Y0617207D01*
X0002622Y0617665D01*
X0002763Y0618119D01*
X0002916Y0618570D01*
X0003079Y0619016D01*
X0003253Y0619459D01*
X0003438Y0619897D01*
X0003633Y0620331D01*
X0003839Y0620760D01*
X0004055Y0621184D01*
X0004281Y0621603D01*
X0004517Y0622016D01*
X0004763Y0622423D01*
X0005019Y0622824D01*
X0005285Y0623218D01*
X0005560Y0623607D01*
X0005844Y0623988D01*
X0006137Y0624362D01*
X0006439Y0624730D01*
X0006751Y0625090D01*
X0007070Y0625442D01*
X0007398Y0625786D01*
X0007735Y0626123D01*
X0008079Y0626451D01*
X0008431Y0626770D01*
X0008791Y0627082D01*
X0009159Y0627384D01*
X0009533Y0627677D01*
X0009914Y0627961D01*
X0010303Y0628236D01*
X0010697Y0628502D01*
X0011098Y0628758D01*
X0011505Y0629004D01*
X0011918Y0629240D01*
X0012337Y0629466D01*
X0012761Y0629682D01*
X0013190Y0629888D01*
X0013624Y0630083D01*
X0014062Y0630268D01*
X0014505Y0630442D01*
X0014951Y0630605D01*
X0015402Y0630758D01*
X0015856Y0630899D01*
X0016314Y0631030D01*
X0016774Y0631149D01*
X0017237Y0631257D01*
X0017703Y0631354D01*
X0018171Y0631440D01*
X0018641Y0631514D01*
X0019112Y0631577D01*
X0019585Y0631629D01*
X0020059Y0631669D01*
X0020534Y0631698D01*
X0021009Y0631715D01*
X0021485Y0631721D01*
X0572666Y0631721D01*
X0573142Y0631715D01*
X0573617Y0631698D01*
X0574092Y0631669D01*
X0574566Y0631629D01*
X0575039Y0631577D01*
X0575510Y0631514D01*
X0575980Y0631440D01*
X0576448Y0631354D01*
X0576914Y0631257D01*
X0577377Y0631149D01*
X0577837Y0631030D01*
X0578295Y0630899D01*
X0578749Y0630758D01*
X0579200Y0630605D01*
X0579646Y0630442D01*
X0580089Y0630268D01*
X0580527Y0630083D01*
X0580961Y0629888D01*
X0581390Y0629682D01*
X0581814Y0629466D01*
X0582233Y0629240D01*
X0582646Y0629004D01*
X0583053Y0628758D01*
X0583454Y0628502D01*
X0583848Y0628236D01*
X0584237Y0627961D01*
X0584618Y0627677D01*
X0584992Y0627384D01*
X0585360Y0627082D01*
X0585720Y0626770D01*
X0586072Y0626451D01*
X0586416Y0626123D01*
X0586753Y0625786D01*
X0587081Y0625442D01*
X0587400Y0625090D01*
X0587712Y0624730D01*
X0588014Y0624362D01*
X0588307Y0623988D01*
X0588591Y0623607D01*
X0588866Y0623218D01*
X0589132Y0622824D01*
X0589388Y0622423D01*
X0589634Y0622016D01*
X0589870Y0621603D01*
X0590096Y0621184D01*
X0590312Y0620760D01*
X0590518Y0620331D01*
X0590713Y0619897D01*
X0590898Y0619459D01*
X0591072Y0619016D01*
X0591235Y0618570D01*
X0591388Y0618119D01*
X0591529Y0617665D01*
X0591660Y0617207D01*
X0591779Y0616747D01*
X0591887Y0616284D01*
X0591984Y0615818D01*
X0592070Y0615350D01*
X0592144Y0614880D01*
X0592207Y0614409D01*
X0592259Y0613936D01*
X0592299Y0613462D01*
X0592328Y0612987D01*
X0592345Y0612512D01*
X0592351Y0612036D01*
X0592351Y0336446D01*
X0592345Y0335970D01*
X0592328Y0335495D01*
X0592299Y0335020D01*
X0592259Y0334546D01*
X0592207Y0334073D01*
X0592144Y0333602D01*
X0592070Y0333132D01*
X0591984Y0332664D01*
X0591887Y0332198D01*
X0591779Y0331735D01*
X0591660Y0331275D01*
X0591529Y0330817D01*
X0591388Y0330363D01*
X0591235Y0329912D01*
X0591072Y0329466D01*
X0590898Y0329023D01*
X0590713Y0328585D01*
X0590518Y0328151D01*
X0590312Y0327722D01*
X0590096Y0327298D01*
X0589870Y0326879D01*
X0589634Y0326466D01*
X0589388Y0326059D01*
X0589132Y0325658D01*
X0588866Y0325264D01*
X0588591Y0324875D01*
X0588307Y0324494D01*
X0588014Y0324120D01*
X0587712Y0323752D01*
X0587400Y0323392D01*
X0587081Y0323040D01*
X0586753Y0322696D01*
X0586416Y0322359D01*
X0586072Y0322031D01*
X0585720Y0321712D01*
X0585360Y0321400D01*
X0584992Y0321098D01*
X0584618Y0320805D01*
X0584237Y0320521D01*
X0583848Y0320246D01*
X0583454Y0319980D01*
X0583053Y0319724D01*
X0582646Y0319478D01*
X0582233Y0319242D01*
X0581814Y0319016D01*
X0581390Y0318800D01*
X0580961Y0318594D01*
X0580527Y0318399D01*
X0580089Y0318214D01*
X0579646Y0318040D01*
X0579200Y0317877D01*
X0578749Y0317724D01*
X0578295Y0317583D01*
X0577837Y0317452D01*
X0577377Y0317333D01*
X0576914Y0317225D01*
X0576448Y0317128D01*
X0575980Y0317042D01*
X0575510Y0316968D01*
X0575039Y0316905D01*
X0574566Y0316853D01*
X0574092Y0316813D01*
X0573617Y0316784D01*
X0573142Y0316767D01*
X0572666Y0316761D01*
X0021485Y0316761D02*
X0021009Y0316767D01*
X0020534Y0316784D01*
X0020059Y0316813D01*
X0019585Y0316853D01*
X0019112Y0316905D01*
X0018641Y0316968D01*
X0018171Y0317042D01*
X0017703Y0317128D01*
X0017237Y0317225D01*
X0016774Y0317333D01*
X0016314Y0317452D01*
X0015856Y0317583D01*
X0015402Y0317724D01*
X0014951Y0317877D01*
X0014505Y0318040D01*
X0014062Y0318214D01*
X0013624Y0318399D01*
X0013190Y0318594D01*
X0012761Y0318800D01*
X0012337Y0319016D01*
X0011918Y0319242D01*
X0011505Y0319478D01*
X0011098Y0319724D01*
X0010697Y0319980D01*
X0010303Y0320246D01*
X0009914Y0320521D01*
X0009533Y0320805D01*
X0009159Y0321098D01*
X0008791Y0321400D01*
X0008431Y0321712D01*
X0008079Y0322031D01*
X0007735Y0322359D01*
X0007398Y0322696D01*
X0007070Y0323040D01*
X0006751Y0323392D01*
X0006439Y0323752D01*
X0006137Y0324120D01*
X0005844Y0324494D01*
X0005560Y0324875D01*
X0005285Y0325264D01*
X0005019Y0325658D01*
X0004763Y0326059D01*
X0004517Y0326466D01*
X0004281Y0326879D01*
X0004055Y0327298D01*
X0003839Y0327722D01*
X0003633Y0328151D01*
X0003438Y0328585D01*
X0003253Y0329023D01*
X0003079Y0329466D01*
X0002916Y0329912D01*
X0002763Y0330363D01*
X0002622Y0330817D01*
X0002491Y0331275D01*
X0002372Y0331735D01*
X0002264Y0332198D01*
X0002167Y0332664D01*
X0002081Y0333132D01*
X0002007Y0333602D01*
X0001944Y0334073D01*
X0001892Y0334546D01*
X0001852Y0335020D01*
X0001823Y0335495D01*
X0001806Y0335970D01*
X0001800Y0336446D01*
D11*
X0250800Y0350761D03*
X0250800Y0360761D03*
X0250800Y0370761D03*
X0285265Y0257706D03*
X0295265Y0257706D03*
X0305265Y0257706D03*
X0583178Y0481792D03*
X0583178Y0491792D03*
X0583178Y0501792D03*
X0583178Y0511792D03*
X0583178Y0521792D03*
X0583178Y0531792D03*
X0305265Y0572666D03*
X0295265Y0572666D03*
X0285265Y0572666D03*
D12*
X0224300Y0360761D03*
X0224300Y0350761D03*
D13*
X0248769Y0263020D03*
X0258769Y0263020D03*
X0258769Y0253020D03*
X0258769Y0243020D03*
X0248769Y0243020D03*
X0248769Y0253020D03*
X0248769Y0233020D03*
X0258769Y0233020D03*
X0258769Y0223020D03*
X0248769Y0223020D03*
X0248769Y0213020D03*
X0258769Y0213020D03*
X0335383Y0213020D03*
X0345383Y0213020D03*
X0345383Y0223020D03*
X0345383Y0233020D03*
X0335383Y0233020D03*
X0335383Y0223020D03*
X0335383Y0243020D03*
X0335383Y0253020D03*
X0345383Y0253020D03*
X0345383Y0243020D03*
X0345383Y0263020D03*
X0335383Y0263020D03*
X0445619Y0263020D03*
X0445619Y0253020D03*
X0445619Y0243020D03*
X0445619Y0233020D03*
X0445619Y0223020D03*
X0445619Y0213020D03*
X0455619Y0213020D03*
X0455619Y0223020D03*
X0455619Y0233020D03*
X0455619Y0243020D03*
X0455619Y0253020D03*
X0455619Y0263020D03*
X0532233Y0263020D03*
X0542233Y0263020D03*
X0542233Y0253020D03*
X0542233Y0243020D03*
X0532233Y0243020D03*
X0532233Y0253020D03*
X0532233Y0233020D03*
X0532233Y0223020D03*
X0542233Y0223020D03*
X0542233Y0233020D03*
X0542233Y0213020D03*
X0532233Y0213020D03*
X0532233Y0527981D03*
X0542233Y0527981D03*
X0542233Y0537981D03*
X0532233Y0537981D03*
X0532233Y0547981D03*
X0542233Y0547981D03*
X0542233Y0557981D03*
X0532233Y0557981D03*
X0532233Y0567981D03*
X0542233Y0567981D03*
X0542233Y0577981D03*
X0532233Y0577981D03*
X0455619Y0577981D03*
X0455619Y0567981D03*
X0455619Y0557981D03*
X0455619Y0547981D03*
X0455619Y0537981D03*
X0455619Y0527981D03*
X0445619Y0527981D03*
X0445619Y0537981D03*
X0445619Y0547981D03*
X0445619Y0557981D03*
X0445619Y0567981D03*
X0445619Y0577981D03*
X0404401Y0620873D03*
X0386601Y0620873D03*
X0365031Y0620873D03*
X0347231Y0620873D03*
X0325661Y0620873D03*
X0307861Y0620873D03*
X0286291Y0620873D03*
X0268491Y0620873D03*
X0246920Y0620873D03*
X0229120Y0620873D03*
X0207550Y0620873D03*
X0189750Y0620873D03*
X0148532Y0577981D03*
X0138532Y0577981D03*
X0138532Y0567981D03*
X0138532Y0557981D03*
X0138532Y0547981D03*
X0138532Y0537981D03*
X0138532Y0527981D03*
X0148532Y0527981D03*
X0148532Y0537981D03*
X0148532Y0547981D03*
X0148532Y0557981D03*
X0148532Y0567981D03*
X0061918Y0567981D03*
X0061918Y0557981D03*
X0051918Y0557981D03*
X0051918Y0567981D03*
X0051918Y0577981D03*
X0061918Y0577981D03*
X0061918Y0547981D03*
X0051918Y0547981D03*
X0051918Y0537981D03*
X0051918Y0527981D03*
X0061918Y0527981D03*
X0061918Y0537981D03*
X0248769Y0537981D03*
X0258769Y0537981D03*
X0258769Y0527981D03*
X0248769Y0527981D03*
X0248769Y0547981D03*
X0258769Y0547981D03*
X0258769Y0557981D03*
X0258769Y0567981D03*
X0248769Y0567981D03*
X0248769Y0557981D03*
X0248769Y0577981D03*
X0258769Y0577981D03*
X0335383Y0577981D03*
X0345383Y0577981D03*
X0345383Y0567981D03*
X0345383Y0557981D03*
X0345383Y0547981D03*
X0345383Y0537981D03*
X0345383Y0527981D03*
X0335383Y0527981D03*
X0335383Y0537981D03*
X0335383Y0547981D03*
X0335383Y0557981D03*
X0335383Y0567981D03*
X0148532Y0263020D03*
X0148532Y0253020D03*
X0148532Y0243020D03*
X0148532Y0233020D03*
X0148532Y0223020D03*
X0148532Y0213020D03*
X0138532Y0213020D03*
X0138532Y0223020D03*
X0138532Y0233020D03*
X0138532Y0243020D03*
X0138532Y0253020D03*
X0138532Y0263020D03*
X0061918Y0263020D03*
X0061918Y0253020D03*
X0061918Y0243020D03*
X0061918Y0233020D03*
X0061918Y0223020D03*
X0061918Y0213020D03*
X0051918Y0213020D03*
X0051918Y0223020D03*
X0051918Y0233020D03*
X0051918Y0243020D03*
X0051918Y0253020D03*
X0051918Y0263020D03*
D14*
X0351898Y0354520D02*
X0351898Y0369520D01*
X0438394Y0369520D02*
X0438394Y0354520D01*
D15*
X0572816Y0459552D03*
X0572816Y0464670D03*
D16*
X0120273Y0576603D02*
X0111673Y0576603D01*
X0097076Y0584114D02*
X0097076Y0592714D01*
X0111673Y0600225D02*
X0120273Y0600225D01*
D17*
X0184850Y0611073D03*
X0212450Y0611073D03*
X0224220Y0611073D03*
X0251820Y0611073D03*
X0263591Y0611073D03*
X0291191Y0611073D03*
X0302961Y0611073D03*
X0330561Y0611073D03*
X0342331Y0611073D03*
X0369931Y0611073D03*
X0381701Y0611073D03*
X0409301Y0611073D03*
D18*
X0450619Y0183650D03*
X0461944Y0180859D03*
X0470675Y0173124D03*
X0474811Y0162218D03*
X0473405Y0150639D03*
X0466779Y0141039D03*
X0456451Y0135619D03*
X0444787Y0135619D03*
X0434459Y0141039D03*
X0427833Y0150639D03*
X0426427Y0162218D03*
X0430563Y0173124D03*
X0439294Y0180859D03*
X0364575Y0162218D03*
X0360439Y0173124D03*
X0351708Y0180859D03*
X0340383Y0183650D03*
X0329057Y0180859D03*
X0320327Y0173124D03*
X0316191Y0162218D03*
X0317596Y0150639D03*
X0324222Y0141039D03*
X0334551Y0135619D03*
X0346215Y0135619D03*
X0356543Y0141039D03*
X0363169Y0150639D03*
X0277961Y0162218D03*
X0273824Y0173124D03*
X0265094Y0180859D03*
X0253769Y0183650D03*
X0242443Y0180859D03*
X0233713Y0173124D03*
X0229576Y0162218D03*
X0230982Y0150639D03*
X0237608Y0141039D03*
X0247937Y0135619D03*
X0259600Y0135619D03*
X0269929Y0141039D03*
X0276555Y0150639D03*
X0167724Y0162218D03*
X0163588Y0173124D03*
X0154857Y0180859D03*
X0143532Y0183650D03*
X0132207Y0180859D03*
X0123476Y0173124D03*
X0119340Y0162218D03*
X0120746Y0150639D03*
X0127372Y0141039D03*
X0137700Y0135619D03*
X0149364Y0135619D03*
X0159693Y0141039D03*
X0166319Y0150639D03*
X0081110Y0162218D03*
X0076974Y0173124D03*
X0068243Y0180859D03*
X0056918Y0183650D03*
X0045593Y0180859D03*
X0036862Y0173124D03*
X0032726Y0162218D03*
X0034132Y0150639D03*
X0040758Y0141039D03*
X0051086Y0135619D03*
X0062750Y0135619D03*
X0073078Y0141039D03*
X0079704Y0150639D03*
X0513041Y0162218D03*
X0517177Y0173124D03*
X0525908Y0180859D03*
X0537233Y0183650D03*
X0548558Y0180859D03*
X0557289Y0173124D03*
X0561425Y0162218D03*
X0560019Y0150639D03*
X0553393Y0141039D03*
X0543065Y0135619D03*
X0531401Y0135619D03*
X0521073Y0141039D03*
X0514447Y0150639D03*
D19*
X0297666Y0198650D03*
X0280737Y0198650D03*
X0280737Y0218335D03*
X0280737Y0234083D03*
X0297666Y0234083D03*
X0297666Y0218335D03*
D20*
X0297800Y0074469D03*
X0297800Y0041792D03*
D21*
X0317139Y0101288D03*
X0317139Y0108769D03*
D22*
X0306176Y0116362D03*
X0297076Y0116362D03*
X0287976Y0116362D03*
D23*
X0297076Y0091961D03*
D24*
X0271264Y0104131D02*
X0271559Y0104763D01*
X0271739Y0105436D01*
X0271800Y0106131D01*
X0271800Y0110131D01*
X0271739Y0110825D01*
X0271559Y0111499D01*
X0271264Y0112131D01*
X0270864Y0112702D01*
X0270371Y0113195D01*
X0269800Y0113595D01*
X0269168Y0113889D01*
X0268495Y0114070D01*
X0267800Y0114131D01*
X0267105Y0114070D01*
X0266432Y0113889D01*
X0265800Y0113595D01*
X0265229Y0113195D01*
X0264736Y0112702D01*
X0264336Y0112131D01*
X0264041Y0111499D01*
X0263861Y0110825D01*
X0263800Y0110131D01*
X0263800Y0106131D01*
X0263861Y0105436D01*
X0264041Y0104763D01*
X0264336Y0104131D01*
X0264736Y0103560D01*
X0265229Y0103067D01*
X0265800Y0102667D01*
X0266432Y0102372D01*
X0267105Y0102191D01*
X0267800Y0102131D01*
X0268495Y0102191D01*
X0269168Y0102372D01*
X0269800Y0102667D01*
X0270371Y0103067D01*
X0270864Y0103560D01*
X0271264Y0104131D01*
X0271100Y0103896D02*
X0264500Y0103896D01*
X0264213Y0104395D02*
X0271387Y0104395D01*
X0271594Y0104893D02*
X0264006Y0104893D01*
X0263873Y0105392D02*
X0271727Y0105392D01*
X0271779Y0105890D02*
X0263821Y0105890D01*
X0263800Y0106389D02*
X0271800Y0106389D01*
X0271800Y0106887D02*
X0263800Y0106887D01*
X0263800Y0107386D02*
X0271800Y0107386D01*
X0271800Y0107884D02*
X0263800Y0107884D01*
X0263800Y0108383D02*
X0271800Y0108383D01*
X0271800Y0108881D02*
X0263800Y0108881D01*
X0263800Y0109380D02*
X0271800Y0109380D01*
X0271800Y0109878D02*
X0263800Y0109878D01*
X0263822Y0110377D02*
X0271778Y0110377D01*
X0271726Y0110875D02*
X0263874Y0110875D01*
X0264008Y0111374D02*
X0271592Y0111374D01*
X0271385Y0111872D02*
X0264215Y0111872D01*
X0264504Y0112371D02*
X0271096Y0112371D01*
X0270697Y0112870D02*
X0264903Y0112870D01*
X0265476Y0113368D02*
X0270124Y0113368D01*
X0269217Y0113867D02*
X0266383Y0113867D01*
X0264898Y0103398D02*
X0270702Y0103398D01*
X0270132Y0102899D02*
X0265468Y0102899D01*
X0266370Y0102401D02*
X0269230Y0102401D01*
X0262371Y0093195D02*
X0261800Y0093595D01*
X0261168Y0093889D01*
X0260495Y0094070D01*
X0259800Y0094131D01*
X0259105Y0094070D01*
X0258432Y0093889D01*
X0257800Y0093595D01*
X0257229Y0093195D01*
X0256736Y0092702D01*
X0256336Y0092131D01*
X0256041Y0091499D01*
X0255861Y0090825D01*
X0255800Y0090131D01*
X0255800Y0086131D01*
X0255861Y0085436D01*
X0256041Y0084763D01*
X0256336Y0084131D01*
X0256736Y0083560D01*
X0257229Y0083067D01*
X0257800Y0082667D01*
X0258432Y0082372D01*
X0259105Y0082191D01*
X0259800Y0082131D01*
X0260495Y0082191D01*
X0261168Y0082372D01*
X0261800Y0082667D01*
X0262371Y0083067D01*
X0262864Y0083560D01*
X0263264Y0084131D01*
X0263559Y0084763D01*
X0263739Y0085436D01*
X0263800Y0086131D01*
X0263800Y0090131D01*
X0263739Y0090825D01*
X0263559Y0091499D01*
X0263264Y0092131D01*
X0262864Y0092702D01*
X0262371Y0093195D01*
X0262637Y0092929D02*
X0256963Y0092929D01*
X0256546Y0092431D02*
X0263054Y0092431D01*
X0263357Y0091932D02*
X0256243Y0091932D01*
X0256024Y0091434D02*
X0263576Y0091434D01*
X0263710Y0090935D02*
X0255890Y0090935D01*
X0255827Y0090436D02*
X0263773Y0090436D01*
X0263800Y0089938D02*
X0255800Y0089938D01*
X0255800Y0089439D02*
X0263800Y0089439D01*
X0263800Y0088941D02*
X0255800Y0088941D01*
X0255800Y0088442D02*
X0263800Y0088442D01*
X0263800Y0087944D02*
X0255800Y0087944D01*
X0255800Y0087445D02*
X0263800Y0087445D01*
X0263800Y0086947D02*
X0255800Y0086947D01*
X0255800Y0086448D02*
X0263800Y0086448D01*
X0263784Y0085950D02*
X0255816Y0085950D01*
X0255859Y0085451D02*
X0263741Y0085451D01*
X0263610Y0084953D02*
X0255990Y0084953D01*
X0256185Y0084454D02*
X0263415Y0084454D01*
X0263142Y0083956D02*
X0256458Y0083956D01*
X0256838Y0083457D02*
X0262762Y0083457D01*
X0262217Y0082959D02*
X0257383Y0082959D01*
X0258242Y0082460D02*
X0261358Y0082460D01*
X0262039Y0093428D02*
X0257561Y0093428D01*
X0258568Y0093926D02*
X0261032Y0093926D01*
X0251576Y0091434D02*
X0244024Y0091434D01*
X0244041Y0091499D02*
X0243861Y0090825D01*
X0243800Y0090131D01*
X0243800Y0086131D01*
X0243861Y0085436D01*
X0244041Y0084763D01*
X0244336Y0084131D01*
X0244736Y0083560D01*
X0245229Y0083067D01*
X0245800Y0082667D01*
X0246432Y0082372D01*
X0247105Y0082191D01*
X0247800Y0082131D01*
X0248495Y0082191D01*
X0249168Y0082372D01*
X0249800Y0082667D01*
X0250371Y0083067D01*
X0250864Y0083560D01*
X0251264Y0084131D01*
X0251559Y0084763D01*
X0251739Y0085436D01*
X0251800Y0086131D01*
X0251800Y0090131D01*
X0251739Y0090825D01*
X0251559Y0091499D01*
X0251264Y0092131D01*
X0250864Y0092702D01*
X0250371Y0093195D01*
X0249800Y0093595D01*
X0249168Y0093889D01*
X0248495Y0094070D01*
X0247800Y0094131D01*
X0247105Y0094070D01*
X0246432Y0093889D01*
X0245800Y0093595D01*
X0245229Y0093195D01*
X0244736Y0092702D01*
X0244336Y0092131D01*
X0244041Y0091499D01*
X0244243Y0091932D02*
X0251357Y0091932D01*
X0251054Y0092431D02*
X0244546Y0092431D01*
X0244963Y0092929D02*
X0250637Y0092929D01*
X0250039Y0093428D02*
X0245561Y0093428D01*
X0246568Y0093926D02*
X0249032Y0093926D01*
X0251710Y0090935D02*
X0243890Y0090935D01*
X0243827Y0090436D02*
X0251773Y0090436D01*
X0251800Y0089938D02*
X0243800Y0089938D01*
X0243800Y0089439D02*
X0251800Y0089439D01*
X0251800Y0088941D02*
X0243800Y0088941D01*
X0243800Y0088442D02*
X0251800Y0088442D01*
X0251800Y0087944D02*
X0243800Y0087944D01*
X0243800Y0087445D02*
X0251800Y0087445D01*
X0251800Y0086947D02*
X0243800Y0086947D01*
X0243800Y0086448D02*
X0251800Y0086448D01*
X0251784Y0085950D02*
X0243816Y0085950D01*
X0243859Y0085451D02*
X0251741Y0085451D01*
X0251610Y0084953D02*
X0243990Y0084953D01*
X0244185Y0084454D02*
X0251415Y0084454D01*
X0251142Y0083956D02*
X0244458Y0083956D01*
X0244838Y0083457D02*
X0250762Y0083457D01*
X0250217Y0082959D02*
X0245383Y0082959D01*
X0246242Y0082460D02*
X0249358Y0082460D01*
X0253105Y0102191D02*
X0253800Y0102131D01*
X0254495Y0102191D01*
X0255168Y0102372D01*
X0255800Y0102667D01*
X0256371Y0103067D01*
X0256864Y0103560D01*
X0257264Y0104131D01*
X0257559Y0104763D01*
X0257739Y0105436D01*
X0257800Y0106131D01*
X0257800Y0110131D01*
X0257739Y0110825D01*
X0257559Y0111499D01*
X0257264Y0112131D01*
X0256864Y0112702D01*
X0256371Y0113195D01*
X0255800Y0113595D01*
X0255168Y0113889D01*
X0254495Y0114070D01*
X0253800Y0114131D01*
X0253105Y0114070D01*
X0252432Y0113889D01*
X0251800Y0113595D01*
X0251229Y0113195D01*
X0250736Y0112702D01*
X0250336Y0112131D01*
X0250041Y0111499D01*
X0249861Y0110825D01*
X0249800Y0110131D01*
X0249800Y0106131D01*
X0249861Y0105436D01*
X0250041Y0104763D01*
X0250336Y0104131D01*
X0250736Y0103560D01*
X0251229Y0103067D01*
X0251800Y0102667D01*
X0252432Y0102372D01*
X0253105Y0102191D01*
X0252370Y0102401D02*
X0255230Y0102401D01*
X0256132Y0102899D02*
X0251468Y0102899D01*
X0250898Y0103398D02*
X0256702Y0103398D01*
X0257100Y0103896D02*
X0250500Y0103896D01*
X0250213Y0104395D02*
X0257387Y0104395D01*
X0257594Y0104893D02*
X0250006Y0104893D01*
X0249873Y0105392D02*
X0257727Y0105392D01*
X0257779Y0105890D02*
X0249821Y0105890D01*
X0249800Y0106389D02*
X0257800Y0106389D01*
X0257800Y0106887D02*
X0249800Y0106887D01*
X0249800Y0107386D02*
X0257800Y0107386D01*
X0257800Y0107884D02*
X0249800Y0107884D01*
X0249800Y0108383D02*
X0257800Y0108383D01*
X0257800Y0108881D02*
X0249800Y0108881D01*
X0249800Y0109380D02*
X0257800Y0109380D01*
X0257800Y0109878D02*
X0249800Y0109878D01*
X0249822Y0110377D02*
X0257778Y0110377D01*
X0257726Y0110875D02*
X0249874Y0110875D01*
X0250008Y0111374D02*
X0257592Y0111374D01*
X0257385Y0111872D02*
X0250215Y0111872D01*
X0250504Y0112371D02*
X0257096Y0112371D01*
X0256697Y0112870D02*
X0250903Y0112870D01*
X0251476Y0113368D02*
X0256124Y0113368D01*
X0255217Y0113867D02*
X0252383Y0113867D01*
X0243559Y0111499D02*
X0243264Y0112131D01*
X0242864Y0112702D01*
X0242371Y0113195D01*
X0241800Y0113595D01*
X0241168Y0113889D01*
X0240495Y0114070D01*
X0239800Y0114131D01*
X0239105Y0114070D01*
X0238432Y0113889D01*
X0237800Y0113595D01*
X0237229Y0113195D01*
X0236736Y0112702D01*
X0236336Y0112131D01*
X0236041Y0111499D01*
X0235861Y0110825D01*
X0235800Y0110131D01*
X0235800Y0106131D01*
X0235861Y0105436D01*
X0236041Y0104763D01*
X0236336Y0104131D01*
X0236736Y0103560D01*
X0237229Y0103067D01*
X0237800Y0102667D01*
X0238432Y0102372D01*
X0239105Y0102191D01*
X0239800Y0102131D01*
X0240495Y0102191D01*
X0241168Y0102372D01*
X0241800Y0102667D01*
X0242371Y0103067D01*
X0242864Y0103560D01*
X0243264Y0104131D01*
X0243559Y0104763D01*
X0243739Y0105436D01*
X0243800Y0106131D01*
X0243800Y0110131D01*
X0243739Y0110825D01*
X0243559Y0111499D01*
X0243592Y0111374D02*
X0236008Y0111374D01*
X0235874Y0110875D02*
X0243726Y0110875D01*
X0243778Y0110377D02*
X0235822Y0110377D01*
X0235800Y0109878D02*
X0243800Y0109878D01*
X0243800Y0109380D02*
X0235800Y0109380D01*
X0235800Y0108881D02*
X0243800Y0108881D01*
X0243800Y0108383D02*
X0235800Y0108383D01*
X0235800Y0107884D02*
X0243800Y0107884D01*
X0243800Y0107386D02*
X0235800Y0107386D01*
X0235800Y0106887D02*
X0243800Y0106887D01*
X0243800Y0106389D02*
X0235800Y0106389D01*
X0235821Y0105890D02*
X0243779Y0105890D01*
X0243727Y0105392D02*
X0235873Y0105392D01*
X0236006Y0104893D02*
X0243594Y0104893D01*
X0243387Y0104395D02*
X0236213Y0104395D01*
X0236500Y0103896D02*
X0243100Y0103896D01*
X0242702Y0103398D02*
X0236898Y0103398D01*
X0237468Y0102899D02*
X0242132Y0102899D01*
X0241230Y0102401D02*
X0238370Y0102401D01*
X0236215Y0111872D02*
X0243385Y0111872D01*
X0243096Y0112371D02*
X0236504Y0112371D01*
X0236903Y0112870D02*
X0242697Y0112870D01*
X0242124Y0113368D02*
X0237476Y0113368D01*
X0238383Y0113867D02*
X0241217Y0113867D01*
X0161800Y0110131D02*
X0161800Y0106131D01*
X0161739Y0105436D01*
X0161559Y0104763D01*
X0161264Y0104131D01*
X0160864Y0103560D01*
X0160371Y0103067D01*
X0159800Y0102667D01*
X0159168Y0102372D01*
X0158495Y0102191D01*
X0157800Y0102131D01*
X0157105Y0102191D01*
X0156432Y0102372D01*
X0155800Y0102667D01*
X0155229Y0103067D01*
X0154736Y0103560D01*
X0154336Y0104131D01*
X0154041Y0104763D01*
X0153861Y0105436D01*
X0153800Y0106131D01*
X0153800Y0110131D01*
X0153861Y0110825D01*
X0154041Y0111499D01*
X0154336Y0112131D01*
X0154736Y0112702D01*
X0155229Y0113195D01*
X0155800Y0113595D01*
X0156432Y0113889D01*
X0157105Y0114070D01*
X0157800Y0114131D01*
X0158495Y0114070D01*
X0159168Y0113889D01*
X0159800Y0113595D01*
X0160371Y0113195D01*
X0160864Y0112702D01*
X0161264Y0112131D01*
X0161559Y0111499D01*
X0161739Y0110825D01*
X0161800Y0110131D01*
X0161778Y0110377D02*
X0153822Y0110377D01*
X0153800Y0109878D02*
X0161800Y0109878D01*
X0161800Y0109380D02*
X0153800Y0109380D01*
X0153800Y0108881D02*
X0161800Y0108881D01*
X0161800Y0108383D02*
X0153800Y0108383D01*
X0153800Y0107884D02*
X0161800Y0107884D01*
X0161800Y0107386D02*
X0153800Y0107386D01*
X0153800Y0106887D02*
X0161800Y0106887D01*
X0161800Y0106389D02*
X0153800Y0106389D01*
X0153821Y0105890D02*
X0161779Y0105890D01*
X0161727Y0105392D02*
X0153873Y0105392D01*
X0154006Y0104893D02*
X0161594Y0104893D01*
X0161387Y0104395D02*
X0154213Y0104395D01*
X0154500Y0103896D02*
X0161100Y0103896D01*
X0160702Y0103398D02*
X0154898Y0103398D01*
X0155468Y0102899D02*
X0160132Y0102899D01*
X0159230Y0102401D02*
X0156370Y0102401D01*
X0153874Y0110875D02*
X0161726Y0110875D01*
X0161592Y0111374D02*
X0154008Y0111374D01*
X0154215Y0111872D02*
X0161385Y0111872D01*
X0161096Y0112371D02*
X0154504Y0112371D01*
X0154903Y0112870D02*
X0160697Y0112870D01*
X0160124Y0113368D02*
X0155476Y0113368D01*
X0156383Y0113867D02*
X0159217Y0113867D01*
X0147739Y0110825D02*
X0147559Y0111499D01*
X0147264Y0112131D01*
X0146864Y0112702D01*
X0146371Y0113195D01*
X0145800Y0113595D01*
X0145168Y0113889D01*
X0144495Y0114070D01*
X0143800Y0114131D01*
X0143105Y0114070D01*
X0142432Y0113889D01*
X0141800Y0113595D01*
X0141229Y0113195D01*
X0140736Y0112702D01*
X0140336Y0112131D01*
X0140041Y0111499D01*
X0139861Y0110825D01*
X0139800Y0110131D01*
X0139800Y0106131D01*
X0139861Y0105436D01*
X0140041Y0104763D01*
X0140336Y0104131D01*
X0140736Y0103560D01*
X0141229Y0103067D01*
X0141800Y0102667D01*
X0142432Y0102372D01*
X0143105Y0102191D01*
X0143800Y0102131D01*
X0144495Y0102191D01*
X0145168Y0102372D01*
X0145800Y0102667D01*
X0146371Y0103067D01*
X0146864Y0103560D01*
X0147264Y0104131D01*
X0147559Y0104763D01*
X0147739Y0105436D01*
X0147800Y0106131D01*
X0147800Y0110131D01*
X0147739Y0110825D01*
X0147726Y0110875D02*
X0139874Y0110875D01*
X0139822Y0110377D02*
X0147778Y0110377D01*
X0147800Y0109878D02*
X0139800Y0109878D01*
X0139800Y0109380D02*
X0147800Y0109380D01*
X0147800Y0108881D02*
X0139800Y0108881D01*
X0139800Y0108383D02*
X0147800Y0108383D01*
X0147800Y0107884D02*
X0139800Y0107884D01*
X0139800Y0107386D02*
X0147800Y0107386D01*
X0147800Y0106887D02*
X0139800Y0106887D01*
X0139800Y0106389D02*
X0147800Y0106389D01*
X0147779Y0105890D02*
X0139821Y0105890D01*
X0139873Y0105392D02*
X0147727Y0105392D01*
X0147594Y0104893D02*
X0140006Y0104893D01*
X0140213Y0104395D02*
X0147387Y0104395D01*
X0147100Y0103896D02*
X0140500Y0103896D01*
X0140898Y0103398D02*
X0146702Y0103398D01*
X0146132Y0102899D02*
X0141468Y0102899D01*
X0142370Y0102401D02*
X0145230Y0102401D01*
X0147592Y0111374D02*
X0140008Y0111374D01*
X0140215Y0111872D02*
X0147385Y0111872D01*
X0147096Y0112371D02*
X0140504Y0112371D01*
X0140903Y0112870D02*
X0146697Y0112870D01*
X0146124Y0113368D02*
X0141476Y0113368D01*
X0142383Y0113867D02*
X0145217Y0113867D01*
X0133739Y0110825D02*
X0133559Y0111499D01*
X0133264Y0112131D01*
X0132864Y0112702D01*
X0132371Y0113195D01*
X0131800Y0113595D01*
X0131168Y0113889D01*
X0130495Y0114070D01*
X0129800Y0114131D01*
X0129105Y0114070D01*
X0128432Y0113889D01*
X0127800Y0113595D01*
X0127229Y0113195D01*
X0126736Y0112702D01*
X0126336Y0112131D01*
X0126041Y0111499D01*
X0125861Y0110825D01*
X0125800Y0110131D01*
X0125800Y0106131D01*
X0125861Y0105436D01*
X0126041Y0104763D01*
X0126336Y0104131D01*
X0126736Y0103560D01*
X0127229Y0103067D01*
X0127800Y0102667D01*
X0128432Y0102372D01*
X0129105Y0102191D01*
X0129800Y0102131D01*
X0130495Y0102191D01*
X0131168Y0102372D01*
X0131800Y0102667D01*
X0132371Y0103067D01*
X0132864Y0103560D01*
X0133264Y0104131D01*
X0133559Y0104763D01*
X0133739Y0105436D01*
X0133800Y0106131D01*
X0133800Y0110131D01*
X0133739Y0110825D01*
X0133726Y0110875D02*
X0125874Y0110875D01*
X0125822Y0110377D02*
X0133778Y0110377D01*
X0133800Y0109878D02*
X0125800Y0109878D01*
X0125800Y0109380D02*
X0133800Y0109380D01*
X0133800Y0108881D02*
X0125800Y0108881D01*
X0125800Y0108383D02*
X0133800Y0108383D01*
X0133800Y0107884D02*
X0125800Y0107884D01*
X0125800Y0107386D02*
X0133800Y0107386D01*
X0133800Y0106887D02*
X0125800Y0106887D01*
X0125800Y0106389D02*
X0133800Y0106389D01*
X0133779Y0105890D02*
X0125821Y0105890D01*
X0125873Y0105392D02*
X0133727Y0105392D01*
X0133594Y0104893D02*
X0126006Y0104893D01*
X0126213Y0104395D02*
X0133387Y0104395D01*
X0133100Y0103896D02*
X0126500Y0103896D01*
X0126898Y0103398D02*
X0132702Y0103398D01*
X0132132Y0102899D02*
X0127468Y0102899D01*
X0128370Y0102401D02*
X0131230Y0102401D01*
X0133592Y0111374D02*
X0126008Y0111374D01*
X0126215Y0111872D02*
X0133385Y0111872D01*
X0133096Y0112371D02*
X0126504Y0112371D01*
X0126903Y0112870D02*
X0132697Y0112870D01*
X0132124Y0113368D02*
X0127476Y0113368D01*
X0128383Y0113867D02*
X0131217Y0113867D01*
X0136568Y0093926D02*
X0139032Y0093926D01*
X0139168Y0093889D02*
X0138495Y0094070D01*
X0137800Y0094131D01*
X0137105Y0094070D01*
X0136432Y0093889D01*
X0135800Y0093595D01*
X0135229Y0093195D01*
X0134736Y0092702D01*
X0134336Y0092131D01*
X0134041Y0091499D01*
X0133861Y0090825D01*
X0133800Y0090131D01*
X0133800Y0086131D01*
X0133861Y0085436D01*
X0134041Y0084763D01*
X0134336Y0084131D01*
X0134736Y0083560D01*
X0135229Y0083067D01*
X0135800Y0082667D01*
X0136432Y0082372D01*
X0137105Y0082191D01*
X0137800Y0082131D01*
X0138495Y0082191D01*
X0139168Y0082372D01*
X0139800Y0082667D01*
X0140371Y0083067D01*
X0140864Y0083560D01*
X0141264Y0084131D01*
X0141559Y0084763D01*
X0141739Y0085436D01*
X0141800Y0086131D01*
X0141800Y0090131D01*
X0141739Y0090825D01*
X0141559Y0091499D01*
X0141264Y0092131D01*
X0140864Y0092702D01*
X0140371Y0093195D01*
X0139800Y0093595D01*
X0139168Y0093889D01*
X0140039Y0093428D02*
X0135561Y0093428D01*
X0134963Y0092929D02*
X0140637Y0092929D01*
X0141054Y0092431D02*
X0134546Y0092431D01*
X0134243Y0091932D02*
X0141357Y0091932D01*
X0141576Y0091434D02*
X0134024Y0091434D01*
X0133890Y0090935D02*
X0141710Y0090935D01*
X0141773Y0090436D02*
X0133827Y0090436D01*
X0133800Y0089938D02*
X0141800Y0089938D01*
X0141800Y0089439D02*
X0133800Y0089439D01*
X0133800Y0088941D02*
X0141800Y0088941D01*
X0141800Y0088442D02*
X0133800Y0088442D01*
X0133800Y0087944D02*
X0141800Y0087944D01*
X0141800Y0087445D02*
X0133800Y0087445D01*
X0133800Y0086947D02*
X0141800Y0086947D01*
X0141800Y0086448D02*
X0133800Y0086448D01*
X0133816Y0085950D02*
X0141784Y0085950D01*
X0141741Y0085451D02*
X0133859Y0085451D01*
X0133990Y0084953D02*
X0141610Y0084953D01*
X0141415Y0084454D02*
X0134185Y0084454D01*
X0134458Y0083956D02*
X0141142Y0083956D01*
X0140762Y0083457D02*
X0134838Y0083457D01*
X0135383Y0082959D02*
X0140217Y0082959D01*
X0139358Y0082460D02*
X0136242Y0082460D01*
X0145990Y0084953D02*
X0153610Y0084953D01*
X0153559Y0084763D02*
X0153739Y0085436D01*
X0153800Y0086131D01*
X0153800Y0090131D01*
X0153739Y0090825D01*
X0153559Y0091499D01*
X0153264Y0092131D01*
X0152864Y0092702D01*
X0152371Y0093195D01*
X0151800Y0093595D01*
X0151168Y0093889D01*
X0150495Y0094070D01*
X0149800Y0094131D01*
X0149105Y0094070D01*
X0148432Y0093889D01*
X0147800Y0093595D01*
X0147229Y0093195D01*
X0146736Y0092702D01*
X0146336Y0092131D01*
X0146041Y0091499D01*
X0145861Y0090825D01*
X0145800Y0090131D01*
X0145800Y0086131D01*
X0145861Y0085436D01*
X0146041Y0084763D01*
X0146336Y0084131D01*
X0146736Y0083560D01*
X0147229Y0083067D01*
X0147800Y0082667D01*
X0148432Y0082372D01*
X0149105Y0082191D01*
X0149800Y0082131D01*
X0150495Y0082191D01*
X0151168Y0082372D01*
X0151800Y0082667D01*
X0152371Y0083067D01*
X0152864Y0083560D01*
X0153264Y0084131D01*
X0153559Y0084763D01*
X0153415Y0084454D02*
X0146185Y0084454D01*
X0146458Y0083956D02*
X0153142Y0083956D01*
X0152762Y0083457D02*
X0146838Y0083457D01*
X0147383Y0082959D02*
X0152217Y0082959D01*
X0151358Y0082460D02*
X0148242Y0082460D01*
X0145859Y0085451D02*
X0153741Y0085451D01*
X0153784Y0085950D02*
X0145816Y0085950D01*
X0145800Y0086448D02*
X0153800Y0086448D01*
X0153800Y0086947D02*
X0145800Y0086947D01*
X0145800Y0087445D02*
X0153800Y0087445D01*
X0153800Y0087944D02*
X0145800Y0087944D01*
X0145800Y0088442D02*
X0153800Y0088442D01*
X0153800Y0088941D02*
X0145800Y0088941D01*
X0145800Y0089439D02*
X0153800Y0089439D01*
X0153800Y0089938D02*
X0145800Y0089938D01*
X0145827Y0090436D02*
X0153773Y0090436D01*
X0153710Y0090935D02*
X0145890Y0090935D01*
X0146024Y0091434D02*
X0153576Y0091434D01*
X0153357Y0091932D02*
X0146243Y0091932D01*
X0146546Y0092431D02*
X0153054Y0092431D01*
X0152637Y0092929D02*
X0146963Y0092929D01*
X0147561Y0093428D02*
X0152039Y0093428D01*
X0151032Y0093926D02*
X0148568Y0093926D01*
X0073739Y0105436D02*
X0073800Y0106131D01*
X0073800Y0110131D01*
X0073739Y0110825D01*
X0073559Y0111499D01*
X0073264Y0112131D01*
X0072864Y0112702D01*
X0072371Y0113195D01*
X0071800Y0113595D01*
X0071168Y0113889D01*
X0070495Y0114070D01*
X0069800Y0114131D01*
X0069105Y0114070D01*
X0068432Y0113889D01*
X0067800Y0113595D01*
X0067229Y0113195D01*
X0066736Y0112702D01*
X0066336Y0112131D01*
X0066041Y0111499D01*
X0065861Y0110825D01*
X0065800Y0110131D01*
X0065800Y0106131D01*
X0065861Y0105436D01*
X0066041Y0104763D01*
X0066336Y0104131D01*
X0066736Y0103560D01*
X0067229Y0103067D01*
X0067800Y0102667D01*
X0068432Y0102372D01*
X0069105Y0102191D01*
X0069800Y0102131D01*
X0070495Y0102191D01*
X0071168Y0102372D01*
X0071800Y0102667D01*
X0072371Y0103067D01*
X0072864Y0103560D01*
X0073264Y0104131D01*
X0073559Y0104763D01*
X0073739Y0105436D01*
X0073727Y0105392D02*
X0065873Y0105392D01*
X0065821Y0105890D02*
X0073779Y0105890D01*
X0073800Y0106389D02*
X0065800Y0106389D01*
X0065800Y0106887D02*
X0073800Y0106887D01*
X0073800Y0107386D02*
X0065800Y0107386D01*
X0065800Y0107884D02*
X0073800Y0107884D01*
X0073800Y0108383D02*
X0065800Y0108383D01*
X0065800Y0108881D02*
X0073800Y0108881D01*
X0073800Y0109380D02*
X0065800Y0109380D01*
X0065800Y0109878D02*
X0073800Y0109878D01*
X0073778Y0110377D02*
X0065822Y0110377D01*
X0065874Y0110875D02*
X0073726Y0110875D01*
X0073592Y0111374D02*
X0066008Y0111374D01*
X0066215Y0111872D02*
X0073385Y0111872D01*
X0073096Y0112371D02*
X0066504Y0112371D01*
X0066903Y0112870D02*
X0072697Y0112870D01*
X0072124Y0113368D02*
X0067476Y0113368D01*
X0068383Y0113867D02*
X0071217Y0113867D01*
X0073594Y0104893D02*
X0066006Y0104893D01*
X0066213Y0104395D02*
X0073387Y0104395D01*
X0073100Y0103896D02*
X0066500Y0103896D01*
X0066898Y0103398D02*
X0072702Y0103398D01*
X0072132Y0102899D02*
X0067468Y0102899D01*
X0068370Y0102401D02*
X0071230Y0102401D01*
X0064371Y0093195D02*
X0063800Y0093595D01*
X0063168Y0093889D01*
X0062495Y0094070D01*
X0061800Y0094131D01*
X0061105Y0094070D01*
X0060432Y0093889D01*
X0059800Y0093595D01*
X0059229Y0093195D01*
X0058736Y0092702D01*
X0058336Y0092131D01*
X0058041Y0091499D01*
X0057861Y0090825D01*
X0057800Y0090131D01*
X0057800Y0086131D01*
X0057861Y0085436D01*
X0058041Y0084763D01*
X0058336Y0084131D01*
X0058736Y0083560D01*
X0059229Y0083067D01*
X0059800Y0082667D01*
X0060432Y0082372D01*
X0061105Y0082191D01*
X0061800Y0082131D01*
X0062495Y0082191D01*
X0063168Y0082372D01*
X0063800Y0082667D01*
X0064371Y0083067D01*
X0064864Y0083560D01*
X0065264Y0084131D01*
X0065559Y0084763D01*
X0065739Y0085436D01*
X0065800Y0086131D01*
X0065800Y0090131D01*
X0065739Y0090825D01*
X0065559Y0091499D01*
X0065264Y0092131D01*
X0064864Y0092702D01*
X0064371Y0093195D01*
X0064637Y0092929D02*
X0058963Y0092929D01*
X0058546Y0092431D02*
X0065054Y0092431D01*
X0065357Y0091932D02*
X0058243Y0091932D01*
X0058024Y0091434D02*
X0065576Y0091434D01*
X0065710Y0090935D02*
X0057890Y0090935D01*
X0057827Y0090436D02*
X0065773Y0090436D01*
X0065800Y0089938D02*
X0057800Y0089938D01*
X0057800Y0089439D02*
X0065800Y0089439D01*
X0065800Y0088941D02*
X0057800Y0088941D01*
X0057800Y0088442D02*
X0065800Y0088442D01*
X0065800Y0087944D02*
X0057800Y0087944D01*
X0057800Y0087445D02*
X0065800Y0087445D01*
X0065800Y0086947D02*
X0057800Y0086947D01*
X0057800Y0086448D02*
X0065800Y0086448D01*
X0065784Y0085950D02*
X0057816Y0085950D01*
X0057859Y0085451D02*
X0065741Y0085451D01*
X0065610Y0084953D02*
X0057990Y0084953D01*
X0058185Y0084454D02*
X0065415Y0084454D01*
X0065142Y0083956D02*
X0058458Y0083956D01*
X0058838Y0083457D02*
X0064762Y0083457D01*
X0064217Y0082959D02*
X0059383Y0082959D01*
X0060242Y0082460D02*
X0063358Y0082460D01*
X0064039Y0093428D02*
X0059561Y0093428D01*
X0060568Y0093926D02*
X0063032Y0093926D01*
X0053576Y0091434D02*
X0046024Y0091434D01*
X0046041Y0091499D02*
X0045861Y0090825D01*
X0045800Y0090131D01*
X0045800Y0086131D01*
X0045861Y0085436D01*
X0046041Y0084763D01*
X0046336Y0084131D01*
X0046736Y0083560D01*
X0047229Y0083067D01*
X0047800Y0082667D01*
X0048432Y0082372D01*
X0049105Y0082191D01*
X0049800Y0082131D01*
X0050495Y0082191D01*
X0051168Y0082372D01*
X0051800Y0082667D01*
X0052371Y0083067D01*
X0052864Y0083560D01*
X0053264Y0084131D01*
X0053559Y0084763D01*
X0053739Y0085436D01*
X0053800Y0086131D01*
X0053800Y0090131D01*
X0053739Y0090825D01*
X0053559Y0091499D01*
X0053264Y0092131D01*
X0052864Y0092702D01*
X0052371Y0093195D01*
X0051800Y0093595D01*
X0051168Y0093889D01*
X0050495Y0094070D01*
X0049800Y0094131D01*
X0049105Y0094070D01*
X0048432Y0093889D01*
X0047800Y0093595D01*
X0047229Y0093195D01*
X0046736Y0092702D01*
X0046336Y0092131D01*
X0046041Y0091499D01*
X0046243Y0091932D02*
X0053357Y0091932D01*
X0053054Y0092431D02*
X0046546Y0092431D01*
X0046963Y0092929D02*
X0052637Y0092929D01*
X0052039Y0093428D02*
X0047561Y0093428D01*
X0048568Y0093926D02*
X0051032Y0093926D01*
X0053710Y0090935D02*
X0045890Y0090935D01*
X0045827Y0090436D02*
X0053773Y0090436D01*
X0053800Y0089938D02*
X0045800Y0089938D01*
X0045800Y0089439D02*
X0053800Y0089439D01*
X0053800Y0088941D02*
X0045800Y0088941D01*
X0045800Y0088442D02*
X0053800Y0088442D01*
X0053800Y0087944D02*
X0045800Y0087944D01*
X0045800Y0087445D02*
X0053800Y0087445D01*
X0053800Y0086947D02*
X0045800Y0086947D01*
X0045800Y0086448D02*
X0053800Y0086448D01*
X0053784Y0085950D02*
X0045816Y0085950D01*
X0045859Y0085451D02*
X0053741Y0085451D01*
X0053610Y0084953D02*
X0045990Y0084953D01*
X0046185Y0084454D02*
X0053415Y0084454D01*
X0053142Y0083956D02*
X0046458Y0083956D01*
X0046838Y0083457D02*
X0052762Y0083457D01*
X0052217Y0082959D02*
X0047383Y0082959D01*
X0048242Y0082460D02*
X0051358Y0082460D01*
X0055105Y0102191D02*
X0055800Y0102131D01*
X0056495Y0102191D01*
X0057168Y0102372D01*
X0057800Y0102667D01*
X0058371Y0103067D01*
X0058864Y0103560D01*
X0059264Y0104131D01*
X0059559Y0104763D01*
X0059739Y0105436D01*
X0059800Y0106131D01*
X0059800Y0110131D01*
X0059739Y0110825D01*
X0059559Y0111499D01*
X0059264Y0112131D01*
X0058864Y0112702D01*
X0058371Y0113195D01*
X0057800Y0113595D01*
X0057168Y0113889D01*
X0056495Y0114070D01*
X0055800Y0114131D01*
X0055105Y0114070D01*
X0054432Y0113889D01*
X0053800Y0113595D01*
X0053229Y0113195D01*
X0052736Y0112702D01*
X0052336Y0112131D01*
X0052041Y0111499D01*
X0051861Y0110825D01*
X0051800Y0110131D01*
X0051800Y0106131D01*
X0051861Y0105436D01*
X0052041Y0104763D01*
X0052336Y0104131D01*
X0052736Y0103560D01*
X0053229Y0103067D01*
X0053800Y0102667D01*
X0054432Y0102372D01*
X0055105Y0102191D01*
X0054370Y0102401D02*
X0057230Y0102401D01*
X0058132Y0102899D02*
X0053468Y0102899D01*
X0052898Y0103398D02*
X0058702Y0103398D01*
X0059100Y0103896D02*
X0052500Y0103896D01*
X0052213Y0104395D02*
X0059387Y0104395D01*
X0059594Y0104893D02*
X0052006Y0104893D01*
X0051873Y0105392D02*
X0059727Y0105392D01*
X0059779Y0105890D02*
X0051821Y0105890D01*
X0051800Y0106389D02*
X0059800Y0106389D01*
X0059800Y0106887D02*
X0051800Y0106887D01*
X0051800Y0107386D02*
X0059800Y0107386D01*
X0059800Y0107884D02*
X0051800Y0107884D01*
X0051800Y0108383D02*
X0059800Y0108383D01*
X0059800Y0108881D02*
X0051800Y0108881D01*
X0051800Y0109380D02*
X0059800Y0109380D01*
X0059800Y0109878D02*
X0051800Y0109878D01*
X0051822Y0110377D02*
X0059778Y0110377D01*
X0059726Y0110875D02*
X0051874Y0110875D01*
X0052008Y0111374D02*
X0059592Y0111374D01*
X0059385Y0111872D02*
X0052215Y0111872D01*
X0052504Y0112371D02*
X0059096Y0112371D01*
X0058697Y0112870D02*
X0052903Y0112870D01*
X0053476Y0113368D02*
X0058124Y0113368D01*
X0057217Y0113867D02*
X0054383Y0113867D01*
X0045559Y0111499D02*
X0045264Y0112131D01*
X0044864Y0112702D01*
X0044371Y0113195D01*
X0043800Y0113595D01*
X0043168Y0113889D01*
X0042495Y0114070D01*
X0041800Y0114131D01*
X0041105Y0114070D01*
X0040432Y0113889D01*
X0039800Y0113595D01*
X0039229Y0113195D01*
X0038736Y0112702D01*
X0038336Y0112131D01*
X0038041Y0111499D01*
X0037861Y0110825D01*
X0037800Y0110131D01*
X0037800Y0106131D01*
X0037861Y0105436D01*
X0038041Y0104763D01*
X0038336Y0104131D01*
X0038736Y0103560D01*
X0039229Y0103067D01*
X0039800Y0102667D01*
X0040432Y0102372D01*
X0041105Y0102191D01*
X0041800Y0102131D01*
X0042495Y0102191D01*
X0043168Y0102372D01*
X0043800Y0102667D01*
X0044371Y0103067D01*
X0044864Y0103560D01*
X0045264Y0104131D01*
X0045559Y0104763D01*
X0045739Y0105436D01*
X0045800Y0106131D01*
X0045800Y0110131D01*
X0045739Y0110825D01*
X0045559Y0111499D01*
X0045592Y0111374D02*
X0038008Y0111374D01*
X0037874Y0110875D02*
X0045726Y0110875D01*
X0045778Y0110377D02*
X0037822Y0110377D01*
X0037800Y0109878D02*
X0045800Y0109878D01*
X0045800Y0109380D02*
X0037800Y0109380D01*
X0037800Y0108881D02*
X0045800Y0108881D01*
X0045800Y0108383D02*
X0037800Y0108383D01*
X0037800Y0107884D02*
X0045800Y0107884D01*
X0045800Y0107386D02*
X0037800Y0107386D01*
X0037800Y0106887D02*
X0045800Y0106887D01*
X0045800Y0106389D02*
X0037800Y0106389D01*
X0037821Y0105890D02*
X0045779Y0105890D01*
X0045727Y0105392D02*
X0037873Y0105392D01*
X0038006Y0104893D02*
X0045594Y0104893D01*
X0045387Y0104395D02*
X0038213Y0104395D01*
X0038500Y0103896D02*
X0045100Y0103896D01*
X0044702Y0103398D02*
X0038898Y0103398D01*
X0039468Y0102899D02*
X0044132Y0102899D01*
X0043230Y0102401D02*
X0040370Y0102401D01*
X0038215Y0111872D02*
X0045385Y0111872D01*
X0045096Y0112371D02*
X0038504Y0112371D01*
X0038903Y0112870D02*
X0044697Y0112870D01*
X0044124Y0113368D02*
X0039476Y0113368D01*
X0040383Y0113867D02*
X0043217Y0113867D01*
X0031788Y0221679D02*
X0032257Y0221821D01*
X0032689Y0222052D01*
X0033068Y0222363D01*
X0033379Y0222742D01*
X0033610Y0223174D01*
X0033752Y0223643D01*
X0033800Y0224131D01*
X0033752Y0224618D01*
X0033610Y0225087D01*
X0033379Y0225520D01*
X0033068Y0225898D01*
X0032689Y0226209D01*
X0032257Y0226440D01*
X0031788Y0226583D01*
X0031300Y0226631D01*
X0024300Y0226631D01*
X0023812Y0226583D01*
X0023343Y0226440D01*
X0022911Y0226209D01*
X0022532Y0225898D01*
X0022221Y0225520D01*
X0021990Y0225087D01*
X0021848Y0224618D01*
X0021800Y0224131D01*
X0021848Y0223643D01*
X0021990Y0223174D01*
X0022221Y0222742D01*
X0022532Y0222363D01*
X0022911Y0222052D01*
X0023343Y0221821D01*
X0023812Y0221679D01*
X0024300Y0221631D01*
X0031300Y0221631D01*
X0031788Y0221679D01*
X0032673Y0222043D02*
X0022927Y0222043D01*
X0022385Y0222542D02*
X0033215Y0222542D01*
X0033538Y0223041D02*
X0022062Y0223041D01*
X0021880Y0223539D02*
X0033720Y0223539D01*
X0033791Y0224038D02*
X0021809Y0224038D01*
X0021840Y0224536D02*
X0033760Y0224536D01*
X0033626Y0225035D02*
X0021974Y0225035D01*
X0022232Y0225533D02*
X0033368Y0225533D01*
X0032906Y0226032D02*
X0022694Y0226032D01*
X0023639Y0226530D02*
X0031961Y0226530D01*
X0031788Y0229679D02*
X0032257Y0229821D01*
X0032689Y0230052D01*
X0033068Y0230363D01*
X0033379Y0230742D01*
X0033610Y0231174D01*
X0033752Y0231643D01*
X0033800Y0232131D01*
X0033752Y0232618D01*
X0033610Y0233087D01*
X0033379Y0233520D01*
X0033068Y0233898D01*
X0032689Y0234209D01*
X0032257Y0234440D01*
X0031788Y0234583D01*
X0031300Y0234631D01*
X0024300Y0234631D01*
X0023812Y0234583D01*
X0023343Y0234440D01*
X0022911Y0234209D01*
X0022532Y0233898D01*
X0022221Y0233520D01*
X0021990Y0233087D01*
X0021848Y0232618D01*
X0021800Y0232131D01*
X0021848Y0231643D01*
X0021990Y0231174D01*
X0022221Y0230742D01*
X0022532Y0230363D01*
X0022911Y0230052D01*
X0023343Y0229821D01*
X0023812Y0229679D01*
X0024300Y0229631D01*
X0031300Y0229631D01*
X0031788Y0229679D01*
X0032628Y0230020D02*
X0022972Y0230020D01*
X0022405Y0230518D02*
X0033195Y0230518D01*
X0033526Y0231017D02*
X0022074Y0231017D01*
X0021887Y0231515D02*
X0033713Y0231515D01*
X0033788Y0232014D02*
X0021812Y0232014D01*
X0021838Y0232512D02*
X0033762Y0232512D01*
X0033633Y0233011D02*
X0021967Y0233011D01*
X0022216Y0233509D02*
X0033384Y0233509D01*
X0032935Y0234008D02*
X0022665Y0234008D01*
X0023560Y0234506D02*
X0032040Y0234506D01*
X0031788Y0237679D02*
X0032257Y0237821D01*
X0032689Y0238052D01*
X0033068Y0238363D01*
X0033379Y0238742D01*
X0033610Y0239174D01*
X0033752Y0239643D01*
X0033800Y0240131D01*
X0033752Y0240618D01*
X0033610Y0241087D01*
X0033379Y0241520D01*
X0033068Y0241898D01*
X0032689Y0242209D01*
X0032257Y0242440D01*
X0031788Y0242583D01*
X0031300Y0242631D01*
X0024300Y0242631D01*
X0023812Y0242583D01*
X0023343Y0242440D01*
X0022911Y0242209D01*
X0022532Y0241898D01*
X0022221Y0241520D01*
X0021990Y0241087D01*
X0021848Y0240618D01*
X0021800Y0240131D01*
X0021848Y0239643D01*
X0021990Y0239174D01*
X0022221Y0238742D01*
X0022532Y0238363D01*
X0022911Y0238052D01*
X0023343Y0237821D01*
X0023812Y0237679D01*
X0024300Y0237631D01*
X0031300Y0237631D01*
X0031788Y0237679D01*
X0032584Y0237996D02*
X0023016Y0237996D01*
X0022424Y0238494D02*
X0033176Y0238494D01*
X0033513Y0238993D02*
X0022087Y0238993D01*
X0021894Y0239491D02*
X0033706Y0239491D01*
X0033786Y0239990D02*
X0021814Y0239990D01*
X0021835Y0240488D02*
X0033765Y0240488D01*
X0033640Y0240987D02*
X0021960Y0240987D01*
X0022203Y0241485D02*
X0033397Y0241485D01*
X0032964Y0241984D02*
X0022636Y0241984D01*
X0023482Y0242482D02*
X0032118Y0242482D01*
X0031788Y0245679D02*
X0032257Y0245821D01*
X0032689Y0246052D01*
X0033068Y0246363D01*
X0033379Y0246742D01*
X0033610Y0247174D01*
X0033752Y0247643D01*
X0033800Y0248131D01*
X0033752Y0248618D01*
X0033610Y0249087D01*
X0033379Y0249520D01*
X0033068Y0249898D01*
X0032689Y0250209D01*
X0032257Y0250440D01*
X0031788Y0250583D01*
X0031300Y0250631D01*
X0024300Y0250631D01*
X0023812Y0250583D01*
X0023343Y0250440D01*
X0022911Y0250209D01*
X0022532Y0249898D01*
X0022221Y0249520D01*
X0021990Y0249087D01*
X0021848Y0248618D01*
X0021800Y0248131D01*
X0021848Y0247643D01*
X0021990Y0247174D01*
X0022221Y0246742D01*
X0022532Y0246363D01*
X0022911Y0246052D01*
X0023343Y0245821D01*
X0023812Y0245679D01*
X0024300Y0245631D01*
X0031300Y0245631D01*
X0031788Y0245679D01*
X0032539Y0245972D02*
X0023061Y0245972D01*
X0022444Y0246471D02*
X0033156Y0246471D01*
X0033500Y0246969D02*
X0022100Y0246969D01*
X0021901Y0247468D02*
X0033699Y0247468D01*
X0033784Y0247966D02*
X0021816Y0247966D01*
X0021833Y0248465D02*
X0033767Y0248465D01*
X0033647Y0248963D02*
X0021953Y0248963D01*
X0022190Y0249462D02*
X0033410Y0249462D01*
X0032993Y0249960D02*
X0022607Y0249960D01*
X0023403Y0250459D02*
X0032197Y0250459D01*
X0031788Y0253679D02*
X0032257Y0253821D01*
X0032689Y0254052D01*
X0033068Y0254363D01*
X0033379Y0254742D01*
X0033610Y0255174D01*
X0033752Y0255643D01*
X0033800Y0256131D01*
X0033752Y0256618D01*
X0033610Y0257087D01*
X0033379Y0257520D01*
X0033068Y0257898D01*
X0032689Y0258209D01*
X0032257Y0258440D01*
X0031788Y0258583D01*
X0031300Y0258631D01*
X0024300Y0258631D01*
X0023812Y0258583D01*
X0023343Y0258440D01*
X0022911Y0258209D01*
X0022532Y0257898D01*
X0022221Y0257520D01*
X0021990Y0257087D01*
X0021848Y0256618D01*
X0021800Y0256131D01*
X0021848Y0255643D01*
X0021990Y0255174D01*
X0022221Y0254742D01*
X0022532Y0254363D01*
X0022911Y0254052D01*
X0023343Y0253821D01*
X0023812Y0253679D01*
X0024300Y0253631D01*
X0031300Y0253631D01*
X0031788Y0253679D01*
X0032495Y0253948D02*
X0023105Y0253948D01*
X0022463Y0254447D02*
X0033137Y0254447D01*
X0033487Y0254945D02*
X0022113Y0254945D01*
X0021908Y0255444D02*
X0033692Y0255444D01*
X0033781Y0255942D02*
X0021819Y0255942D01*
X0021831Y0256441D02*
X0033769Y0256441D01*
X0033655Y0256939D02*
X0021945Y0256939D01*
X0022178Y0257438D02*
X0033422Y0257438D01*
X0033022Y0257936D02*
X0022578Y0257936D01*
X0023333Y0258435D02*
X0032267Y0258435D01*
X0031788Y0261679D02*
X0032257Y0261821D01*
X0032689Y0262052D01*
X0033068Y0262363D01*
X0033379Y0262742D01*
X0033610Y0263174D01*
X0033752Y0263643D01*
X0033800Y0264131D01*
X0033752Y0264618D01*
X0033610Y0265087D01*
X0033379Y0265520D01*
X0033068Y0265898D01*
X0032689Y0266209D01*
X0032257Y0266440D01*
X0031788Y0266583D01*
X0031300Y0266631D01*
X0024300Y0266631D01*
X0023812Y0266583D01*
X0023343Y0266440D01*
X0022911Y0266209D01*
X0022532Y0265898D01*
X0022221Y0265520D01*
X0021990Y0265087D01*
X0021848Y0264618D01*
X0021800Y0264131D01*
X0021848Y0263643D01*
X0021990Y0263174D01*
X0022221Y0262742D01*
X0022532Y0262363D01*
X0022911Y0262052D01*
X0023343Y0261821D01*
X0023812Y0261679D01*
X0024300Y0261631D01*
X0031300Y0261631D01*
X0031788Y0261679D01*
X0032450Y0261924D02*
X0023150Y0261924D01*
X0022483Y0262423D02*
X0033117Y0262423D01*
X0033475Y0262921D02*
X0022125Y0262921D01*
X0021916Y0263420D02*
X0033684Y0263420D01*
X0033779Y0263918D02*
X0021821Y0263918D01*
X0021828Y0264417D02*
X0033772Y0264417D01*
X0033662Y0264915D02*
X0021938Y0264915D01*
X0022165Y0265414D02*
X0033435Y0265414D01*
X0033051Y0265912D02*
X0022549Y0265912D01*
X0023288Y0266411D02*
X0032312Y0266411D01*
X0107800Y0264131D02*
X0107848Y0263643D01*
X0107990Y0263174D01*
X0108221Y0262742D01*
X0108532Y0262363D01*
X0108911Y0262052D01*
X0109343Y0261821D01*
X0109812Y0261679D01*
X0110300Y0261631D01*
X0117300Y0261631D01*
X0117788Y0261679D01*
X0118257Y0261821D01*
X0118689Y0262052D01*
X0119068Y0262363D01*
X0119379Y0262742D01*
X0119610Y0263174D01*
X0119752Y0263643D01*
X0119800Y0264131D01*
X0119752Y0264618D01*
X0119610Y0265087D01*
X0119379Y0265520D01*
X0119068Y0265898D01*
X0118689Y0266209D01*
X0118257Y0266440D01*
X0117788Y0266583D01*
X0117300Y0266631D01*
X0110300Y0266631D01*
X0109812Y0266583D01*
X0109343Y0266440D01*
X0108911Y0266209D01*
X0108532Y0265898D01*
X0108221Y0265520D01*
X0107990Y0265087D01*
X0107848Y0264618D01*
X0107800Y0264131D01*
X0107821Y0263918D02*
X0119779Y0263918D01*
X0119772Y0264417D02*
X0107828Y0264417D01*
X0107938Y0264915D02*
X0119662Y0264915D01*
X0119435Y0265414D02*
X0108165Y0265414D01*
X0108549Y0265912D02*
X0119051Y0265912D01*
X0118312Y0266411D02*
X0109288Y0266411D01*
X0107916Y0263420D02*
X0119684Y0263420D01*
X0119475Y0262921D02*
X0108125Y0262921D01*
X0108483Y0262423D02*
X0119117Y0262423D01*
X0118450Y0261924D02*
X0109150Y0261924D01*
X0109812Y0258583D02*
X0109343Y0258440D01*
X0108911Y0258209D01*
X0108532Y0257898D01*
X0108221Y0257520D01*
X0107990Y0257087D01*
X0107848Y0256618D01*
X0107800Y0256131D01*
X0107848Y0255643D01*
X0107990Y0255174D01*
X0108221Y0254742D01*
X0108532Y0254363D01*
X0108911Y0254052D01*
X0109343Y0253821D01*
X0109812Y0253679D01*
X0110300Y0253631D01*
X0117300Y0253631D01*
X0117788Y0253679D01*
X0118257Y0253821D01*
X0118689Y0254052D01*
X0119068Y0254363D01*
X0119379Y0254742D01*
X0119610Y0255174D01*
X0119752Y0255643D01*
X0119800Y0256131D01*
X0119752Y0256618D01*
X0119610Y0257087D01*
X0119379Y0257520D01*
X0119068Y0257898D01*
X0118689Y0258209D01*
X0118257Y0258440D01*
X0117788Y0258583D01*
X0117300Y0258631D01*
X0110300Y0258631D01*
X0109812Y0258583D01*
X0109333Y0258435D02*
X0118267Y0258435D01*
X0119022Y0257936D02*
X0108578Y0257936D01*
X0108178Y0257438D02*
X0119422Y0257438D01*
X0119655Y0256939D02*
X0107945Y0256939D01*
X0107831Y0256441D02*
X0119769Y0256441D01*
X0119781Y0255942D02*
X0107819Y0255942D01*
X0107908Y0255444D02*
X0119692Y0255444D01*
X0119487Y0254945D02*
X0108113Y0254945D01*
X0108463Y0254447D02*
X0119137Y0254447D01*
X0118495Y0253948D02*
X0109105Y0253948D01*
X0109812Y0250583D02*
X0109343Y0250440D01*
X0108911Y0250209D01*
X0108532Y0249898D01*
X0108221Y0249520D01*
X0107990Y0249087D01*
X0107848Y0248618D01*
X0107800Y0248131D01*
X0107848Y0247643D01*
X0107990Y0247174D01*
X0108221Y0246742D01*
X0108532Y0246363D01*
X0108911Y0246052D01*
X0109343Y0245821D01*
X0109812Y0245679D01*
X0110300Y0245631D01*
X0117300Y0245631D01*
X0117788Y0245679D01*
X0118257Y0245821D01*
X0118689Y0246052D01*
X0119068Y0246363D01*
X0119379Y0246742D01*
X0119610Y0247174D01*
X0119752Y0247643D01*
X0119800Y0248131D01*
X0119752Y0248618D01*
X0119610Y0249087D01*
X0119379Y0249520D01*
X0119068Y0249898D01*
X0118689Y0250209D01*
X0118257Y0250440D01*
X0117788Y0250583D01*
X0117300Y0250631D01*
X0110300Y0250631D01*
X0109812Y0250583D01*
X0109403Y0250459D02*
X0118197Y0250459D01*
X0118993Y0249960D02*
X0108607Y0249960D01*
X0108190Y0249462D02*
X0119410Y0249462D01*
X0119647Y0248963D02*
X0107953Y0248963D01*
X0107833Y0248465D02*
X0119767Y0248465D01*
X0119784Y0247966D02*
X0107816Y0247966D01*
X0107901Y0247468D02*
X0119699Y0247468D01*
X0119500Y0246969D02*
X0108100Y0246969D01*
X0108444Y0246471D02*
X0119156Y0246471D01*
X0118539Y0245972D02*
X0109061Y0245972D01*
X0109812Y0242583D02*
X0109343Y0242440D01*
X0108911Y0242209D01*
X0108532Y0241898D01*
X0108221Y0241520D01*
X0107990Y0241087D01*
X0107848Y0240618D01*
X0107800Y0240131D01*
X0107848Y0239643D01*
X0107990Y0239174D01*
X0108221Y0238742D01*
X0108532Y0238363D01*
X0108911Y0238052D01*
X0109343Y0237821D01*
X0109812Y0237679D01*
X0110300Y0237631D01*
X0117300Y0237631D01*
X0117788Y0237679D01*
X0118257Y0237821D01*
X0118689Y0238052D01*
X0119068Y0238363D01*
X0119379Y0238742D01*
X0119610Y0239174D01*
X0119752Y0239643D01*
X0119800Y0240131D01*
X0119752Y0240618D01*
X0119610Y0241087D01*
X0119379Y0241520D01*
X0119068Y0241898D01*
X0118689Y0242209D01*
X0118257Y0242440D01*
X0117788Y0242583D01*
X0117300Y0242631D01*
X0110300Y0242631D01*
X0109812Y0242583D01*
X0109482Y0242482D02*
X0118118Y0242482D01*
X0118964Y0241984D02*
X0108636Y0241984D01*
X0108203Y0241485D02*
X0119397Y0241485D01*
X0119640Y0240987D02*
X0107960Y0240987D01*
X0107835Y0240488D02*
X0119765Y0240488D01*
X0119786Y0239990D02*
X0107814Y0239990D01*
X0107894Y0239491D02*
X0119706Y0239491D01*
X0119513Y0238993D02*
X0108087Y0238993D01*
X0108424Y0238494D02*
X0119176Y0238494D01*
X0118584Y0237996D02*
X0109016Y0237996D01*
X0109812Y0234583D02*
X0109343Y0234440D01*
X0108911Y0234209D01*
X0108532Y0233898D01*
X0108221Y0233520D01*
X0107990Y0233087D01*
X0107848Y0232618D01*
X0107800Y0232131D01*
X0107848Y0231643D01*
X0107990Y0231174D01*
X0108221Y0230742D01*
X0108532Y0230363D01*
X0108911Y0230052D01*
X0109343Y0229821D01*
X0109812Y0229679D01*
X0110300Y0229631D01*
X0117300Y0229631D01*
X0117788Y0229679D01*
X0118257Y0229821D01*
X0118689Y0230052D01*
X0119068Y0230363D01*
X0119379Y0230742D01*
X0119610Y0231174D01*
X0119752Y0231643D01*
X0119800Y0232131D01*
X0119752Y0232618D01*
X0119610Y0233087D01*
X0119379Y0233520D01*
X0119068Y0233898D01*
X0118689Y0234209D01*
X0118257Y0234440D01*
X0117788Y0234583D01*
X0117300Y0234631D01*
X0110300Y0234631D01*
X0109812Y0234583D01*
X0109560Y0234506D02*
X0118040Y0234506D01*
X0118935Y0234008D02*
X0108665Y0234008D01*
X0108216Y0233509D02*
X0119384Y0233509D01*
X0119633Y0233011D02*
X0107967Y0233011D01*
X0107838Y0232512D02*
X0119762Y0232512D01*
X0119788Y0232014D02*
X0107812Y0232014D01*
X0107887Y0231515D02*
X0119713Y0231515D01*
X0119526Y0231017D02*
X0108074Y0231017D01*
X0108405Y0230518D02*
X0119195Y0230518D01*
X0118628Y0230020D02*
X0108972Y0230020D01*
X0109812Y0226583D02*
X0109343Y0226440D01*
X0108911Y0226209D01*
X0108532Y0225898D01*
X0108221Y0225520D01*
X0107990Y0225087D01*
X0107848Y0224618D01*
X0107800Y0224131D01*
X0107848Y0223643D01*
X0107990Y0223174D01*
X0108221Y0222742D01*
X0108532Y0222363D01*
X0108911Y0222052D01*
X0109343Y0221821D01*
X0109812Y0221679D01*
X0110300Y0221631D01*
X0117300Y0221631D01*
X0117788Y0221679D01*
X0118257Y0221821D01*
X0118689Y0222052D01*
X0119068Y0222363D01*
X0119379Y0222742D01*
X0119610Y0223174D01*
X0119752Y0223643D01*
X0119800Y0224131D01*
X0119752Y0224618D01*
X0119610Y0225087D01*
X0119379Y0225520D01*
X0119068Y0225898D01*
X0118689Y0226209D01*
X0118257Y0226440D01*
X0117788Y0226583D01*
X0117300Y0226631D01*
X0110300Y0226631D01*
X0109812Y0226583D01*
X0109639Y0226530D02*
X0117961Y0226530D01*
X0118906Y0226032D02*
X0108694Y0226032D01*
X0108232Y0225533D02*
X0119368Y0225533D01*
X0119626Y0225035D02*
X0107974Y0225035D01*
X0107840Y0224536D02*
X0119760Y0224536D01*
X0119791Y0224038D02*
X0107809Y0224038D01*
X0107880Y0223539D02*
X0119720Y0223539D01*
X0119538Y0223041D02*
X0108062Y0223041D01*
X0108385Y0222542D02*
X0119215Y0222542D01*
X0118673Y0222043D02*
X0108927Y0222043D01*
X0195800Y0224131D02*
X0195848Y0223643D01*
X0195990Y0223174D01*
X0196221Y0222742D01*
X0196532Y0222363D01*
X0196911Y0222052D01*
X0197343Y0221821D01*
X0197812Y0221679D01*
X0198300Y0221631D01*
X0205300Y0221631D01*
X0205788Y0221679D01*
X0206257Y0221821D01*
X0206689Y0222052D01*
X0207068Y0222363D01*
X0207379Y0222742D01*
X0207610Y0223174D01*
X0207752Y0223643D01*
X0207800Y0224131D01*
X0207752Y0224618D01*
X0207610Y0225087D01*
X0207379Y0225520D01*
X0207068Y0225898D01*
X0206689Y0226209D01*
X0206257Y0226440D01*
X0205788Y0226583D01*
X0205300Y0226631D01*
X0198300Y0226631D01*
X0197812Y0226583D01*
X0197343Y0226440D01*
X0196911Y0226209D01*
X0196532Y0225898D01*
X0196221Y0225520D01*
X0195990Y0225087D01*
X0195848Y0224618D01*
X0195800Y0224131D01*
X0195809Y0224038D02*
X0207791Y0224038D01*
X0207760Y0224536D02*
X0195840Y0224536D01*
X0195974Y0225035D02*
X0207626Y0225035D01*
X0207368Y0225533D02*
X0196232Y0225533D01*
X0196694Y0226032D02*
X0206906Y0226032D01*
X0205961Y0226530D02*
X0197639Y0226530D01*
X0197812Y0229679D02*
X0198300Y0229631D01*
X0205300Y0229631D01*
X0205788Y0229679D01*
X0206257Y0229821D01*
X0206689Y0230052D01*
X0207068Y0230363D01*
X0207379Y0230742D01*
X0207610Y0231174D01*
X0207752Y0231643D01*
X0207800Y0232131D01*
X0207752Y0232618D01*
X0207610Y0233087D01*
X0207379Y0233520D01*
X0207068Y0233898D01*
X0206689Y0234209D01*
X0206257Y0234440D01*
X0205788Y0234583D01*
X0205300Y0234631D01*
X0198300Y0234631D01*
X0197812Y0234583D01*
X0197343Y0234440D01*
X0196911Y0234209D01*
X0196532Y0233898D01*
X0196221Y0233520D01*
X0195990Y0233087D01*
X0195848Y0232618D01*
X0195800Y0232131D01*
X0195848Y0231643D01*
X0195990Y0231174D01*
X0196221Y0230742D01*
X0196532Y0230363D01*
X0196911Y0230052D01*
X0197343Y0229821D01*
X0197812Y0229679D01*
X0196972Y0230020D02*
X0206628Y0230020D01*
X0207195Y0230518D02*
X0196405Y0230518D01*
X0196074Y0231017D02*
X0207526Y0231017D01*
X0207713Y0231515D02*
X0195887Y0231515D01*
X0195812Y0232014D02*
X0207788Y0232014D01*
X0207762Y0232512D02*
X0195838Y0232512D01*
X0195967Y0233011D02*
X0207633Y0233011D01*
X0207384Y0233509D02*
X0196216Y0233509D01*
X0196665Y0234008D02*
X0206935Y0234008D01*
X0206040Y0234506D02*
X0197560Y0234506D01*
X0197812Y0237679D02*
X0198300Y0237631D01*
X0205300Y0237631D01*
X0205788Y0237679D01*
X0206257Y0237821D01*
X0206689Y0238052D01*
X0207068Y0238363D01*
X0207379Y0238742D01*
X0207610Y0239174D01*
X0207752Y0239643D01*
X0207800Y0240131D01*
X0207752Y0240618D01*
X0207610Y0241087D01*
X0207379Y0241520D01*
X0207068Y0241898D01*
X0206689Y0242209D01*
X0206257Y0242440D01*
X0205788Y0242583D01*
X0205300Y0242631D01*
X0198300Y0242631D01*
X0197812Y0242583D01*
X0197343Y0242440D01*
X0196911Y0242209D01*
X0196532Y0241898D01*
X0196221Y0241520D01*
X0195990Y0241087D01*
X0195848Y0240618D01*
X0195800Y0240131D01*
X0195848Y0239643D01*
X0195990Y0239174D01*
X0196221Y0238742D01*
X0196532Y0238363D01*
X0196911Y0238052D01*
X0197343Y0237821D01*
X0197812Y0237679D01*
X0197016Y0237996D02*
X0206584Y0237996D01*
X0207176Y0238494D02*
X0196424Y0238494D01*
X0196087Y0238993D02*
X0207513Y0238993D01*
X0207706Y0239491D02*
X0195894Y0239491D01*
X0195814Y0239990D02*
X0207786Y0239990D01*
X0207765Y0240488D02*
X0195835Y0240488D01*
X0195960Y0240987D02*
X0207640Y0240987D01*
X0207397Y0241485D02*
X0196203Y0241485D01*
X0196636Y0241984D02*
X0206964Y0241984D01*
X0206118Y0242482D02*
X0197482Y0242482D01*
X0197812Y0245679D02*
X0198300Y0245631D01*
X0205300Y0245631D01*
X0205788Y0245679D01*
X0206257Y0245821D01*
X0206689Y0246052D01*
X0207068Y0246363D01*
X0207379Y0246742D01*
X0207610Y0247174D01*
X0207752Y0247643D01*
X0207800Y0248131D01*
X0207752Y0248618D01*
X0207610Y0249087D01*
X0207379Y0249520D01*
X0207068Y0249898D01*
X0206689Y0250209D01*
X0206257Y0250440D01*
X0205788Y0250583D01*
X0205300Y0250631D01*
X0198300Y0250631D01*
X0197812Y0250583D01*
X0197343Y0250440D01*
X0196911Y0250209D01*
X0196532Y0249898D01*
X0196221Y0249520D01*
X0195990Y0249087D01*
X0195848Y0248618D01*
X0195800Y0248131D01*
X0195848Y0247643D01*
X0195990Y0247174D01*
X0196221Y0246742D01*
X0196532Y0246363D01*
X0196911Y0246052D01*
X0197343Y0245821D01*
X0197812Y0245679D01*
X0197061Y0245972D02*
X0206539Y0245972D01*
X0207156Y0246471D02*
X0196444Y0246471D01*
X0196100Y0246969D02*
X0207500Y0246969D01*
X0207699Y0247468D02*
X0195901Y0247468D01*
X0195816Y0247966D02*
X0207784Y0247966D01*
X0207767Y0248465D02*
X0195833Y0248465D01*
X0195953Y0248963D02*
X0207647Y0248963D01*
X0207410Y0249462D02*
X0196190Y0249462D01*
X0196607Y0249960D02*
X0206993Y0249960D01*
X0206197Y0250459D02*
X0197403Y0250459D01*
X0197812Y0253679D02*
X0198300Y0253631D01*
X0205300Y0253631D01*
X0205788Y0253679D01*
X0206257Y0253821D01*
X0206689Y0254052D01*
X0207068Y0254363D01*
X0207379Y0254742D01*
X0207610Y0255174D01*
X0207752Y0255643D01*
X0207800Y0256131D01*
X0207752Y0256618D01*
X0207610Y0257087D01*
X0207379Y0257520D01*
X0207068Y0257898D01*
X0206689Y0258209D01*
X0206257Y0258440D01*
X0205788Y0258583D01*
X0205300Y0258631D01*
X0198300Y0258631D01*
X0197812Y0258583D01*
X0197343Y0258440D01*
X0196911Y0258209D01*
X0196532Y0257898D01*
X0196221Y0257520D01*
X0195990Y0257087D01*
X0195848Y0256618D01*
X0195800Y0256131D01*
X0195848Y0255643D01*
X0195990Y0255174D01*
X0196221Y0254742D01*
X0196532Y0254363D01*
X0196911Y0254052D01*
X0197343Y0253821D01*
X0197812Y0253679D01*
X0197105Y0253948D02*
X0206495Y0253948D01*
X0207137Y0254447D02*
X0196463Y0254447D01*
X0196113Y0254945D02*
X0207487Y0254945D01*
X0207692Y0255444D02*
X0195908Y0255444D01*
X0195819Y0255942D02*
X0207781Y0255942D01*
X0207769Y0256441D02*
X0195831Y0256441D01*
X0195945Y0256939D02*
X0207655Y0256939D01*
X0207422Y0257438D02*
X0196178Y0257438D01*
X0196578Y0257936D02*
X0207022Y0257936D01*
X0206267Y0258435D02*
X0197333Y0258435D01*
X0197812Y0261679D02*
X0198300Y0261631D01*
X0205300Y0261631D01*
X0205788Y0261679D01*
X0206257Y0261821D01*
X0206689Y0262052D01*
X0207068Y0262363D01*
X0207379Y0262742D01*
X0207610Y0263174D01*
X0207752Y0263643D01*
X0207800Y0264131D01*
X0207752Y0264618D01*
X0207610Y0265087D01*
X0207379Y0265520D01*
X0207068Y0265898D01*
X0206689Y0266209D01*
X0206257Y0266440D01*
X0205788Y0266583D01*
X0205300Y0266631D01*
X0198300Y0266631D01*
X0197812Y0266583D01*
X0197343Y0266440D01*
X0196911Y0266209D01*
X0196532Y0265898D01*
X0196221Y0265520D01*
X0195990Y0265087D01*
X0195848Y0264618D01*
X0195800Y0264131D01*
X0195848Y0263643D01*
X0195990Y0263174D01*
X0196221Y0262742D01*
X0196532Y0262363D01*
X0196911Y0262052D01*
X0197343Y0261821D01*
X0197812Y0261679D01*
X0197150Y0261924D02*
X0206450Y0261924D01*
X0207117Y0262423D02*
X0196483Y0262423D01*
X0196125Y0262921D02*
X0207475Y0262921D01*
X0207684Y0263420D02*
X0195916Y0263420D01*
X0195821Y0263918D02*
X0207779Y0263918D01*
X0207772Y0264417D02*
X0195828Y0264417D01*
X0195938Y0264915D02*
X0207662Y0264915D01*
X0207435Y0265414D02*
X0196165Y0265414D01*
X0196549Y0265912D02*
X0207051Y0265912D01*
X0206312Y0266411D02*
X0197288Y0266411D01*
X0195880Y0223539D02*
X0207720Y0223539D01*
X0207538Y0223041D02*
X0196062Y0223041D01*
X0196385Y0222542D02*
X0207215Y0222542D01*
X0206673Y0222043D02*
X0196927Y0222043D01*
X0325861Y0110825D02*
X0325800Y0110131D01*
X0325800Y0106131D01*
X0325861Y0105436D01*
X0326041Y0104763D01*
X0326336Y0104131D01*
X0326736Y0103560D01*
X0327229Y0103067D01*
X0327800Y0102667D01*
X0328432Y0102372D01*
X0329105Y0102191D01*
X0329800Y0102131D01*
X0330495Y0102191D01*
X0331168Y0102372D01*
X0331800Y0102667D01*
X0332371Y0103067D01*
X0332864Y0103560D01*
X0333264Y0104131D01*
X0333559Y0104763D01*
X0333739Y0105436D01*
X0333800Y0106131D01*
X0333800Y0110131D01*
X0333739Y0110825D01*
X0333559Y0111499D01*
X0333264Y0112131D01*
X0332864Y0112702D01*
X0332371Y0113195D01*
X0331800Y0113595D01*
X0331168Y0113889D01*
X0330495Y0114070D01*
X0329800Y0114131D01*
X0329105Y0114070D01*
X0328432Y0113889D01*
X0327800Y0113595D01*
X0327229Y0113195D01*
X0326736Y0112702D01*
X0326336Y0112131D01*
X0326041Y0111499D01*
X0325861Y0110825D01*
X0325874Y0110875D02*
X0333726Y0110875D01*
X0333778Y0110377D02*
X0325822Y0110377D01*
X0325800Y0109878D02*
X0333800Y0109878D01*
X0333800Y0109380D02*
X0325800Y0109380D01*
X0325800Y0108881D02*
X0333800Y0108881D01*
X0333800Y0108383D02*
X0325800Y0108383D01*
X0325800Y0107884D02*
X0333800Y0107884D01*
X0333800Y0107386D02*
X0325800Y0107386D01*
X0325800Y0106887D02*
X0333800Y0106887D01*
X0333800Y0106389D02*
X0325800Y0106389D01*
X0325821Y0105890D02*
X0333779Y0105890D01*
X0333727Y0105392D02*
X0325873Y0105392D01*
X0326006Y0104893D02*
X0333594Y0104893D01*
X0333387Y0104395D02*
X0326213Y0104395D01*
X0326500Y0103896D02*
X0333100Y0103896D01*
X0332702Y0103398D02*
X0326898Y0103398D01*
X0327468Y0102899D02*
X0332132Y0102899D01*
X0331230Y0102401D02*
X0328370Y0102401D01*
X0326008Y0111374D02*
X0333592Y0111374D01*
X0333385Y0111872D02*
X0326215Y0111872D01*
X0326504Y0112371D02*
X0333096Y0112371D01*
X0332697Y0112870D02*
X0326903Y0112870D01*
X0327476Y0113368D02*
X0332124Y0113368D01*
X0331217Y0113867D02*
X0328383Y0113867D01*
X0339861Y0110825D02*
X0339800Y0110131D01*
X0339800Y0106131D01*
X0339861Y0105436D01*
X0340041Y0104763D01*
X0340336Y0104131D01*
X0340736Y0103560D01*
X0341229Y0103067D01*
X0341800Y0102667D01*
X0342432Y0102372D01*
X0343105Y0102191D01*
X0343800Y0102131D01*
X0344495Y0102191D01*
X0345168Y0102372D01*
X0345800Y0102667D01*
X0346371Y0103067D01*
X0346864Y0103560D01*
X0347264Y0104131D01*
X0347559Y0104763D01*
X0347739Y0105436D01*
X0347800Y0106131D01*
X0347800Y0110131D01*
X0347739Y0110825D01*
X0347559Y0111499D01*
X0347264Y0112131D01*
X0346864Y0112702D01*
X0346371Y0113195D01*
X0345800Y0113595D01*
X0345168Y0113889D01*
X0344495Y0114070D01*
X0343800Y0114131D01*
X0343105Y0114070D01*
X0342432Y0113889D01*
X0341800Y0113595D01*
X0341229Y0113195D01*
X0340736Y0112702D01*
X0340336Y0112131D01*
X0340041Y0111499D01*
X0339861Y0110825D01*
X0339874Y0110875D02*
X0347726Y0110875D01*
X0347778Y0110377D02*
X0339822Y0110377D01*
X0339800Y0109878D02*
X0347800Y0109878D01*
X0347800Y0109380D02*
X0339800Y0109380D01*
X0339800Y0108881D02*
X0347800Y0108881D01*
X0347800Y0108383D02*
X0339800Y0108383D01*
X0339800Y0107884D02*
X0347800Y0107884D01*
X0347800Y0107386D02*
X0339800Y0107386D01*
X0339800Y0106887D02*
X0347800Y0106887D01*
X0347800Y0106389D02*
X0339800Y0106389D01*
X0339821Y0105890D02*
X0347779Y0105890D01*
X0347727Y0105392D02*
X0339873Y0105392D01*
X0340006Y0104893D02*
X0347594Y0104893D01*
X0347387Y0104395D02*
X0340213Y0104395D01*
X0340500Y0103896D02*
X0347100Y0103896D01*
X0346702Y0103398D02*
X0340898Y0103398D01*
X0341468Y0102899D02*
X0346132Y0102899D01*
X0345230Y0102401D02*
X0342370Y0102401D01*
X0340008Y0111374D02*
X0347592Y0111374D01*
X0347385Y0111872D02*
X0340215Y0111872D01*
X0340504Y0112371D02*
X0347096Y0112371D01*
X0346697Y0112870D02*
X0340903Y0112870D01*
X0341476Y0113368D02*
X0346124Y0113368D01*
X0345217Y0113867D02*
X0342383Y0113867D01*
X0353861Y0110825D02*
X0353800Y0110131D01*
X0353800Y0106131D01*
X0353861Y0105436D01*
X0354041Y0104763D01*
X0354336Y0104131D01*
X0354736Y0103560D01*
X0355229Y0103067D01*
X0355800Y0102667D01*
X0356432Y0102372D01*
X0357105Y0102191D01*
X0357800Y0102131D01*
X0358495Y0102191D01*
X0359168Y0102372D01*
X0359800Y0102667D01*
X0360371Y0103067D01*
X0360864Y0103560D01*
X0361264Y0104131D01*
X0361559Y0104763D01*
X0361739Y0105436D01*
X0361800Y0106131D01*
X0361800Y0110131D01*
X0361739Y0110825D01*
X0361559Y0111499D01*
X0361264Y0112131D01*
X0360864Y0112702D01*
X0360371Y0113195D01*
X0359800Y0113595D01*
X0359168Y0113889D01*
X0358495Y0114070D01*
X0357800Y0114131D01*
X0357105Y0114070D01*
X0356432Y0113889D01*
X0355800Y0113595D01*
X0355229Y0113195D01*
X0354736Y0112702D01*
X0354336Y0112131D01*
X0354041Y0111499D01*
X0353861Y0110825D01*
X0353874Y0110875D02*
X0361726Y0110875D01*
X0361778Y0110377D02*
X0353822Y0110377D01*
X0353800Y0109878D02*
X0361800Y0109878D01*
X0361800Y0109380D02*
X0353800Y0109380D01*
X0353800Y0108881D02*
X0361800Y0108881D01*
X0361800Y0108383D02*
X0353800Y0108383D01*
X0353800Y0107884D02*
X0361800Y0107884D01*
X0361800Y0107386D02*
X0353800Y0107386D01*
X0353800Y0106887D02*
X0361800Y0106887D01*
X0361800Y0106389D02*
X0353800Y0106389D01*
X0353821Y0105890D02*
X0361779Y0105890D01*
X0361727Y0105392D02*
X0353873Y0105392D01*
X0354006Y0104893D02*
X0361594Y0104893D01*
X0361387Y0104395D02*
X0354213Y0104395D01*
X0354500Y0103896D02*
X0361100Y0103896D01*
X0360702Y0103398D02*
X0354898Y0103398D01*
X0355468Y0102899D02*
X0360132Y0102899D01*
X0359230Y0102401D02*
X0356370Y0102401D01*
X0354008Y0111374D02*
X0361592Y0111374D01*
X0361385Y0111872D02*
X0354215Y0111872D01*
X0354504Y0112371D02*
X0361096Y0112371D01*
X0360697Y0112870D02*
X0354903Y0112870D01*
X0355476Y0113368D02*
X0360124Y0113368D01*
X0359217Y0113867D02*
X0356383Y0113867D01*
X0352495Y0094070D02*
X0351800Y0094131D01*
X0351105Y0094070D01*
X0350432Y0093889D01*
X0349800Y0093595D01*
X0349229Y0093195D01*
X0348736Y0092702D01*
X0348336Y0092131D01*
X0348041Y0091499D01*
X0347861Y0090825D01*
X0347800Y0090131D01*
X0347800Y0086131D01*
X0347861Y0085436D01*
X0348041Y0084763D01*
X0348336Y0084131D01*
X0348736Y0083560D01*
X0349229Y0083067D01*
X0349800Y0082667D01*
X0350432Y0082372D01*
X0351105Y0082191D01*
X0351800Y0082131D01*
X0352495Y0082191D01*
X0353168Y0082372D01*
X0353800Y0082667D01*
X0354371Y0083067D01*
X0354864Y0083560D01*
X0355264Y0084131D01*
X0355559Y0084763D01*
X0355739Y0085436D01*
X0355800Y0086131D01*
X0355800Y0090131D01*
X0355739Y0090825D01*
X0355559Y0091499D01*
X0355264Y0092131D01*
X0354864Y0092702D01*
X0354371Y0093195D01*
X0353800Y0093595D01*
X0353168Y0093889D01*
X0352495Y0094070D01*
X0353032Y0093926D02*
X0350568Y0093926D01*
X0349561Y0093428D02*
X0354039Y0093428D01*
X0354637Y0092929D02*
X0348963Y0092929D01*
X0348546Y0092431D02*
X0355054Y0092431D01*
X0355357Y0091932D02*
X0348243Y0091932D01*
X0348024Y0091434D02*
X0355576Y0091434D01*
X0355710Y0090935D02*
X0347890Y0090935D01*
X0347827Y0090436D02*
X0355773Y0090436D01*
X0355800Y0089938D02*
X0347800Y0089938D01*
X0347800Y0089439D02*
X0355800Y0089439D01*
X0355800Y0088941D02*
X0347800Y0088941D01*
X0347800Y0088442D02*
X0355800Y0088442D01*
X0355800Y0087944D02*
X0347800Y0087944D01*
X0347800Y0087445D02*
X0355800Y0087445D01*
X0355800Y0086947D02*
X0347800Y0086947D01*
X0347800Y0086448D02*
X0355800Y0086448D01*
X0355784Y0085950D02*
X0347816Y0085950D01*
X0347859Y0085451D02*
X0355741Y0085451D01*
X0355610Y0084953D02*
X0347990Y0084953D01*
X0348185Y0084454D02*
X0355415Y0084454D01*
X0355142Y0083956D02*
X0348458Y0083956D01*
X0348838Y0083457D02*
X0354762Y0083457D01*
X0354217Y0082959D02*
X0349383Y0082959D01*
X0350242Y0082460D02*
X0353358Y0082460D01*
X0341739Y0085436D02*
X0341800Y0086131D01*
X0341800Y0090131D01*
X0341739Y0090825D01*
X0341559Y0091499D01*
X0341264Y0092131D01*
X0340864Y0092702D01*
X0340371Y0093195D01*
X0339800Y0093595D01*
X0339168Y0093889D01*
X0338495Y0094070D01*
X0337800Y0094131D01*
X0337105Y0094070D01*
X0336432Y0093889D01*
X0335800Y0093595D01*
X0335229Y0093195D01*
X0334736Y0092702D01*
X0334336Y0092131D01*
X0334041Y0091499D01*
X0333861Y0090825D01*
X0333800Y0090131D01*
X0333800Y0086131D01*
X0333861Y0085436D01*
X0334041Y0084763D01*
X0334336Y0084131D01*
X0334736Y0083560D01*
X0335229Y0083067D01*
X0335800Y0082667D01*
X0336432Y0082372D01*
X0337105Y0082191D01*
X0337800Y0082131D01*
X0338495Y0082191D01*
X0339168Y0082372D01*
X0339800Y0082667D01*
X0340371Y0083067D01*
X0340864Y0083560D01*
X0341264Y0084131D01*
X0341559Y0084763D01*
X0341739Y0085436D01*
X0341741Y0085451D02*
X0333859Y0085451D01*
X0333816Y0085950D02*
X0341784Y0085950D01*
X0341800Y0086448D02*
X0333800Y0086448D01*
X0333800Y0086947D02*
X0341800Y0086947D01*
X0341800Y0087445D02*
X0333800Y0087445D01*
X0333800Y0087944D02*
X0341800Y0087944D01*
X0341800Y0088442D02*
X0333800Y0088442D01*
X0333800Y0088941D02*
X0341800Y0088941D01*
X0341800Y0089439D02*
X0333800Y0089439D01*
X0333800Y0089938D02*
X0341800Y0089938D01*
X0341773Y0090436D02*
X0333827Y0090436D01*
X0333890Y0090935D02*
X0341710Y0090935D01*
X0341576Y0091434D02*
X0334024Y0091434D01*
X0334243Y0091932D02*
X0341357Y0091932D01*
X0341054Y0092431D02*
X0334546Y0092431D01*
X0334963Y0092929D02*
X0340637Y0092929D01*
X0340039Y0093428D02*
X0335561Y0093428D01*
X0336568Y0093926D02*
X0339032Y0093926D01*
X0341610Y0084953D02*
X0333990Y0084953D01*
X0334185Y0084454D02*
X0341415Y0084454D01*
X0341142Y0083956D02*
X0334458Y0083956D01*
X0334838Y0083457D02*
X0340762Y0083457D01*
X0340217Y0082959D02*
X0335383Y0082959D01*
X0336242Y0082460D02*
X0339358Y0082460D01*
X0433861Y0105436D02*
X0434041Y0104763D01*
X0434336Y0104131D01*
X0434736Y0103560D01*
X0435229Y0103067D01*
X0435800Y0102667D01*
X0436432Y0102372D01*
X0437105Y0102191D01*
X0437800Y0102131D01*
X0438495Y0102191D01*
X0439168Y0102372D01*
X0439800Y0102667D01*
X0440371Y0103067D01*
X0440864Y0103560D01*
X0441264Y0104131D01*
X0441559Y0104763D01*
X0441739Y0105436D01*
X0441800Y0106131D01*
X0441800Y0110131D01*
X0441739Y0110825D01*
X0441559Y0111499D01*
X0441264Y0112131D01*
X0440864Y0112702D01*
X0440371Y0113195D01*
X0439800Y0113595D01*
X0439168Y0113889D01*
X0438495Y0114070D01*
X0437800Y0114131D01*
X0437105Y0114070D01*
X0436432Y0113889D01*
X0435800Y0113595D01*
X0435229Y0113195D01*
X0434736Y0112702D01*
X0434336Y0112131D01*
X0434041Y0111499D01*
X0433861Y0110825D01*
X0433800Y0110131D01*
X0433800Y0106131D01*
X0433861Y0105436D01*
X0433873Y0105392D02*
X0441727Y0105392D01*
X0441779Y0105890D02*
X0433821Y0105890D01*
X0433800Y0106389D02*
X0441800Y0106389D01*
X0441800Y0106887D02*
X0433800Y0106887D01*
X0433800Y0107386D02*
X0441800Y0107386D01*
X0441800Y0107884D02*
X0433800Y0107884D01*
X0433800Y0108383D02*
X0441800Y0108383D01*
X0441800Y0108881D02*
X0433800Y0108881D01*
X0433800Y0109380D02*
X0441800Y0109380D01*
X0441800Y0109878D02*
X0433800Y0109878D01*
X0433822Y0110377D02*
X0441778Y0110377D01*
X0441726Y0110875D02*
X0433874Y0110875D01*
X0434008Y0111374D02*
X0441592Y0111374D01*
X0441385Y0111872D02*
X0434215Y0111872D01*
X0434504Y0112371D02*
X0441096Y0112371D01*
X0440697Y0112870D02*
X0434903Y0112870D01*
X0435476Y0113368D02*
X0440124Y0113368D01*
X0439217Y0113867D02*
X0436383Y0113867D01*
X0434006Y0104893D02*
X0441594Y0104893D01*
X0441387Y0104395D02*
X0434213Y0104395D01*
X0434500Y0103896D02*
X0441100Y0103896D01*
X0440702Y0103398D02*
X0434898Y0103398D01*
X0435468Y0102899D02*
X0440132Y0102899D01*
X0439230Y0102401D02*
X0436370Y0102401D01*
X0443229Y0093195D02*
X0442736Y0092702D01*
X0442336Y0092131D01*
X0442041Y0091499D01*
X0441861Y0090825D01*
X0441800Y0090131D01*
X0441800Y0086131D01*
X0441861Y0085436D01*
X0442041Y0084763D01*
X0442336Y0084131D01*
X0442736Y0083560D01*
X0443229Y0083067D01*
X0443800Y0082667D01*
X0444432Y0082372D01*
X0445105Y0082191D01*
X0445800Y0082131D01*
X0446495Y0082191D01*
X0447168Y0082372D01*
X0447800Y0082667D01*
X0448371Y0083067D01*
X0448864Y0083560D01*
X0449264Y0084131D01*
X0449559Y0084763D01*
X0449739Y0085436D01*
X0449800Y0086131D01*
X0449800Y0090131D01*
X0449739Y0090825D01*
X0449559Y0091499D01*
X0449264Y0092131D01*
X0448864Y0092702D01*
X0448371Y0093195D01*
X0447800Y0093595D01*
X0447168Y0093889D01*
X0446495Y0094070D01*
X0445800Y0094131D01*
X0445105Y0094070D01*
X0444432Y0093889D01*
X0443800Y0093595D01*
X0443229Y0093195D01*
X0442963Y0092929D02*
X0448637Y0092929D01*
X0449054Y0092431D02*
X0442546Y0092431D01*
X0442243Y0091932D02*
X0449357Y0091932D01*
X0449576Y0091434D02*
X0442024Y0091434D01*
X0441890Y0090935D02*
X0449710Y0090935D01*
X0449773Y0090436D02*
X0441827Y0090436D01*
X0441800Y0089938D02*
X0449800Y0089938D01*
X0449800Y0089439D02*
X0441800Y0089439D01*
X0441800Y0088941D02*
X0449800Y0088941D01*
X0449800Y0088442D02*
X0441800Y0088442D01*
X0441800Y0087944D02*
X0449800Y0087944D01*
X0449800Y0087445D02*
X0441800Y0087445D01*
X0441800Y0086947D02*
X0449800Y0086947D01*
X0449800Y0086448D02*
X0441800Y0086448D01*
X0441816Y0085950D02*
X0449784Y0085950D01*
X0449741Y0085451D02*
X0441859Y0085451D01*
X0441990Y0084953D02*
X0449610Y0084953D01*
X0449415Y0084454D02*
X0442185Y0084454D01*
X0442458Y0083956D02*
X0449142Y0083956D01*
X0448762Y0083457D02*
X0442838Y0083457D01*
X0443383Y0082959D02*
X0448217Y0082959D01*
X0447358Y0082460D02*
X0444242Y0082460D01*
X0443561Y0093428D02*
X0448039Y0093428D01*
X0447032Y0093926D02*
X0444568Y0093926D01*
X0449800Y0102667D02*
X0450432Y0102372D01*
X0451105Y0102191D01*
X0451800Y0102131D01*
X0452495Y0102191D01*
X0453168Y0102372D01*
X0453800Y0102667D01*
X0454371Y0103067D01*
X0454864Y0103560D01*
X0455264Y0104131D01*
X0455559Y0104763D01*
X0455739Y0105436D01*
X0455800Y0106131D01*
X0455800Y0110131D01*
X0455739Y0110825D01*
X0455559Y0111499D01*
X0455264Y0112131D01*
X0454864Y0112702D01*
X0454371Y0113195D01*
X0453800Y0113595D01*
X0453168Y0113889D01*
X0452495Y0114070D01*
X0451800Y0114131D01*
X0451105Y0114070D01*
X0450432Y0113889D01*
X0449800Y0113595D01*
X0449229Y0113195D01*
X0448736Y0112702D01*
X0448336Y0112131D01*
X0448041Y0111499D01*
X0447861Y0110825D01*
X0447800Y0110131D01*
X0447800Y0106131D01*
X0447861Y0105436D01*
X0448041Y0104763D01*
X0448336Y0104131D01*
X0448736Y0103560D01*
X0449229Y0103067D01*
X0449800Y0102667D01*
X0449468Y0102899D02*
X0454132Y0102899D01*
X0454702Y0103398D02*
X0448898Y0103398D01*
X0448500Y0103896D02*
X0455100Y0103896D01*
X0455387Y0104395D02*
X0448213Y0104395D01*
X0448006Y0104893D02*
X0455594Y0104893D01*
X0455727Y0105392D02*
X0447873Y0105392D01*
X0447821Y0105890D02*
X0455779Y0105890D01*
X0455800Y0106389D02*
X0447800Y0106389D01*
X0447800Y0106887D02*
X0455800Y0106887D01*
X0455800Y0107386D02*
X0447800Y0107386D01*
X0447800Y0107884D02*
X0455800Y0107884D01*
X0455800Y0108383D02*
X0447800Y0108383D01*
X0447800Y0108881D02*
X0455800Y0108881D01*
X0455800Y0109380D02*
X0447800Y0109380D01*
X0447800Y0109878D02*
X0455800Y0109878D01*
X0455778Y0110377D02*
X0447822Y0110377D01*
X0447874Y0110875D02*
X0455726Y0110875D01*
X0455592Y0111374D02*
X0448008Y0111374D01*
X0448215Y0111872D02*
X0455385Y0111872D01*
X0455096Y0112371D02*
X0448504Y0112371D01*
X0448903Y0112870D02*
X0454697Y0112870D01*
X0454124Y0113368D02*
X0449476Y0113368D01*
X0450383Y0113867D02*
X0453217Y0113867D01*
X0462041Y0111499D02*
X0461861Y0110825D01*
X0461800Y0110131D01*
X0461800Y0106131D01*
X0461861Y0105436D01*
X0462041Y0104763D01*
X0462336Y0104131D01*
X0462736Y0103560D01*
X0463229Y0103067D01*
X0463800Y0102667D01*
X0464432Y0102372D01*
X0465105Y0102191D01*
X0465800Y0102131D01*
X0466495Y0102191D01*
X0467168Y0102372D01*
X0467800Y0102667D01*
X0468371Y0103067D01*
X0468864Y0103560D01*
X0469264Y0104131D01*
X0469559Y0104763D01*
X0469739Y0105436D01*
X0469800Y0106131D01*
X0469800Y0110131D01*
X0469739Y0110825D01*
X0469559Y0111499D01*
X0469264Y0112131D01*
X0468864Y0112702D01*
X0468371Y0113195D01*
X0467800Y0113595D01*
X0467168Y0113889D01*
X0466495Y0114070D01*
X0465800Y0114131D01*
X0465105Y0114070D01*
X0464432Y0113889D01*
X0463800Y0113595D01*
X0463229Y0113195D01*
X0462736Y0112702D01*
X0462336Y0112131D01*
X0462041Y0111499D01*
X0462008Y0111374D02*
X0469592Y0111374D01*
X0469726Y0110875D02*
X0461874Y0110875D01*
X0461822Y0110377D02*
X0469778Y0110377D01*
X0469800Y0109878D02*
X0461800Y0109878D01*
X0461800Y0109380D02*
X0469800Y0109380D01*
X0469800Y0108881D02*
X0461800Y0108881D01*
X0461800Y0108383D02*
X0469800Y0108383D01*
X0469800Y0107884D02*
X0461800Y0107884D01*
X0461800Y0107386D02*
X0469800Y0107386D01*
X0469800Y0106887D02*
X0461800Y0106887D01*
X0461800Y0106389D02*
X0469800Y0106389D01*
X0469779Y0105890D02*
X0461821Y0105890D01*
X0461873Y0105392D02*
X0469727Y0105392D01*
X0469594Y0104893D02*
X0462006Y0104893D01*
X0462213Y0104395D02*
X0469387Y0104395D01*
X0469100Y0103896D02*
X0462500Y0103896D01*
X0462898Y0103398D02*
X0468702Y0103398D01*
X0468132Y0102899D02*
X0463468Y0102899D01*
X0464370Y0102401D02*
X0467230Y0102401D01*
X0469385Y0111872D02*
X0462215Y0111872D01*
X0462504Y0112371D02*
X0469096Y0112371D01*
X0468697Y0112870D02*
X0462903Y0112870D01*
X0463476Y0113368D02*
X0468124Y0113368D01*
X0467217Y0113867D02*
X0464383Y0113867D01*
X0453230Y0102401D02*
X0450370Y0102401D01*
X0457229Y0093195D02*
X0456736Y0092702D01*
X0456336Y0092131D01*
X0456041Y0091499D01*
X0455861Y0090825D01*
X0455800Y0090131D01*
X0455800Y0086131D01*
X0455861Y0085436D01*
X0456041Y0084763D01*
X0456336Y0084131D01*
X0456736Y0083560D01*
X0457229Y0083067D01*
X0457800Y0082667D01*
X0458432Y0082372D01*
X0459105Y0082191D01*
X0459800Y0082131D01*
X0460495Y0082191D01*
X0461168Y0082372D01*
X0461800Y0082667D01*
X0462371Y0083067D01*
X0462864Y0083560D01*
X0463264Y0084131D01*
X0463559Y0084763D01*
X0463739Y0085436D01*
X0463800Y0086131D01*
X0463800Y0090131D01*
X0463739Y0090825D01*
X0463559Y0091499D01*
X0463264Y0092131D01*
X0462864Y0092702D01*
X0462371Y0093195D01*
X0461800Y0093595D01*
X0461168Y0093889D01*
X0460495Y0094070D01*
X0459800Y0094131D01*
X0459105Y0094070D01*
X0458432Y0093889D01*
X0457800Y0093595D01*
X0457229Y0093195D01*
X0456963Y0092929D02*
X0462637Y0092929D01*
X0463054Y0092431D02*
X0456546Y0092431D01*
X0456243Y0091932D02*
X0463357Y0091932D01*
X0463576Y0091434D02*
X0456024Y0091434D01*
X0455890Y0090935D02*
X0463710Y0090935D01*
X0463773Y0090436D02*
X0455827Y0090436D01*
X0455800Y0089938D02*
X0463800Y0089938D01*
X0463800Y0089439D02*
X0455800Y0089439D01*
X0455800Y0088941D02*
X0463800Y0088941D01*
X0463800Y0088442D02*
X0455800Y0088442D01*
X0455800Y0087944D02*
X0463800Y0087944D01*
X0463800Y0087445D02*
X0455800Y0087445D01*
X0455800Y0086947D02*
X0463800Y0086947D01*
X0463800Y0086448D02*
X0455800Y0086448D01*
X0455816Y0085950D02*
X0463784Y0085950D01*
X0463741Y0085451D02*
X0455859Y0085451D01*
X0455990Y0084953D02*
X0463610Y0084953D01*
X0463415Y0084454D02*
X0456185Y0084454D01*
X0456458Y0083956D02*
X0463142Y0083956D01*
X0462762Y0083457D02*
X0456838Y0083457D01*
X0457383Y0082959D02*
X0462217Y0082959D01*
X0461358Y0082460D02*
X0458242Y0082460D01*
X0457561Y0093428D02*
X0462039Y0093428D01*
X0461032Y0093926D02*
X0458568Y0093926D01*
X0519861Y0105436D02*
X0520041Y0104763D01*
X0520336Y0104131D01*
X0520736Y0103560D01*
X0521229Y0103067D01*
X0521800Y0102667D01*
X0522432Y0102372D01*
X0523105Y0102191D01*
X0523800Y0102131D01*
X0524495Y0102191D01*
X0525168Y0102372D01*
X0525800Y0102667D01*
X0526371Y0103067D01*
X0526864Y0103560D01*
X0527264Y0104131D01*
X0527559Y0104763D01*
X0527739Y0105436D01*
X0527800Y0106131D01*
X0527800Y0110131D01*
X0527739Y0110825D01*
X0527559Y0111499D01*
X0527264Y0112131D01*
X0526864Y0112702D01*
X0526371Y0113195D01*
X0525800Y0113595D01*
X0525168Y0113889D01*
X0524495Y0114070D01*
X0523800Y0114131D01*
X0523105Y0114070D01*
X0522432Y0113889D01*
X0521800Y0113595D01*
X0521229Y0113195D01*
X0520736Y0112702D01*
X0520336Y0112131D01*
X0520041Y0111499D01*
X0519861Y0110825D01*
X0519800Y0110131D01*
X0519800Y0106131D01*
X0519861Y0105436D01*
X0519873Y0105392D02*
X0527727Y0105392D01*
X0527779Y0105890D02*
X0519821Y0105890D01*
X0519800Y0106389D02*
X0527800Y0106389D01*
X0527800Y0106887D02*
X0519800Y0106887D01*
X0519800Y0107386D02*
X0527800Y0107386D01*
X0527800Y0107884D02*
X0519800Y0107884D01*
X0519800Y0108383D02*
X0527800Y0108383D01*
X0527800Y0108881D02*
X0519800Y0108881D01*
X0519800Y0109380D02*
X0527800Y0109380D01*
X0527800Y0109878D02*
X0519800Y0109878D01*
X0519822Y0110377D02*
X0527778Y0110377D01*
X0527726Y0110875D02*
X0519874Y0110875D01*
X0520008Y0111374D02*
X0527592Y0111374D01*
X0527385Y0111872D02*
X0520215Y0111872D01*
X0520504Y0112371D02*
X0527096Y0112371D01*
X0526697Y0112870D02*
X0520903Y0112870D01*
X0521476Y0113368D02*
X0526124Y0113368D01*
X0525217Y0113867D02*
X0522383Y0113867D01*
X0520006Y0104893D02*
X0527594Y0104893D01*
X0527387Y0104395D02*
X0520213Y0104395D01*
X0520500Y0103896D02*
X0527100Y0103896D01*
X0526702Y0103398D02*
X0520898Y0103398D01*
X0521468Y0102899D02*
X0526132Y0102899D01*
X0525230Y0102401D02*
X0522370Y0102401D01*
X0529229Y0093195D02*
X0528736Y0092702D01*
X0528336Y0092131D01*
X0528041Y0091499D01*
X0527861Y0090825D01*
X0527800Y0090131D01*
X0527800Y0086131D01*
X0527861Y0085436D01*
X0528041Y0084763D01*
X0528336Y0084131D01*
X0528736Y0083560D01*
X0529229Y0083067D01*
X0529800Y0082667D01*
X0530432Y0082372D01*
X0531105Y0082191D01*
X0531800Y0082131D01*
X0532495Y0082191D01*
X0533168Y0082372D01*
X0533800Y0082667D01*
X0534371Y0083067D01*
X0534864Y0083560D01*
X0535264Y0084131D01*
X0535559Y0084763D01*
X0535739Y0085436D01*
X0535800Y0086131D01*
X0535800Y0090131D01*
X0535739Y0090825D01*
X0535559Y0091499D01*
X0535264Y0092131D01*
X0534864Y0092702D01*
X0534371Y0093195D01*
X0533800Y0093595D01*
X0533168Y0093889D01*
X0532495Y0094070D01*
X0531800Y0094131D01*
X0531105Y0094070D01*
X0530432Y0093889D01*
X0529800Y0093595D01*
X0529229Y0093195D01*
X0528963Y0092929D02*
X0534637Y0092929D01*
X0535054Y0092431D02*
X0528546Y0092431D01*
X0528243Y0091932D02*
X0535357Y0091932D01*
X0535576Y0091434D02*
X0528024Y0091434D01*
X0527890Y0090935D02*
X0535710Y0090935D01*
X0535773Y0090436D02*
X0527827Y0090436D01*
X0527800Y0089938D02*
X0535800Y0089938D01*
X0535800Y0089439D02*
X0527800Y0089439D01*
X0527800Y0088941D02*
X0535800Y0088941D01*
X0535800Y0088442D02*
X0527800Y0088442D01*
X0527800Y0087944D02*
X0535800Y0087944D01*
X0535800Y0087445D02*
X0527800Y0087445D01*
X0527800Y0086947D02*
X0535800Y0086947D01*
X0535800Y0086448D02*
X0527800Y0086448D01*
X0527816Y0085950D02*
X0535784Y0085950D01*
X0535741Y0085451D02*
X0527859Y0085451D01*
X0527990Y0084953D02*
X0535610Y0084953D01*
X0535415Y0084454D02*
X0528185Y0084454D01*
X0528458Y0083956D02*
X0535142Y0083956D01*
X0534762Y0083457D02*
X0528838Y0083457D01*
X0529383Y0082959D02*
X0534217Y0082959D01*
X0533358Y0082460D02*
X0530242Y0082460D01*
X0529561Y0093428D02*
X0534039Y0093428D01*
X0533032Y0093926D02*
X0530568Y0093926D01*
X0535800Y0102667D02*
X0536432Y0102372D01*
X0537105Y0102191D01*
X0537800Y0102131D01*
X0538495Y0102191D01*
X0539168Y0102372D01*
X0539800Y0102667D01*
X0540371Y0103067D01*
X0540864Y0103560D01*
X0541264Y0104131D01*
X0541559Y0104763D01*
X0541739Y0105436D01*
X0541800Y0106131D01*
X0541800Y0110131D01*
X0541739Y0110825D01*
X0541559Y0111499D01*
X0541264Y0112131D01*
X0540864Y0112702D01*
X0540371Y0113195D01*
X0539800Y0113595D01*
X0539168Y0113889D01*
X0538495Y0114070D01*
X0537800Y0114131D01*
X0537105Y0114070D01*
X0536432Y0113889D01*
X0535800Y0113595D01*
X0535229Y0113195D01*
X0534736Y0112702D01*
X0534336Y0112131D01*
X0534041Y0111499D01*
X0533861Y0110825D01*
X0533800Y0110131D01*
X0533800Y0106131D01*
X0533861Y0105436D01*
X0534041Y0104763D01*
X0534336Y0104131D01*
X0534736Y0103560D01*
X0535229Y0103067D01*
X0535800Y0102667D01*
X0535468Y0102899D02*
X0540132Y0102899D01*
X0540702Y0103398D02*
X0534898Y0103398D01*
X0534500Y0103896D02*
X0541100Y0103896D01*
X0541387Y0104395D02*
X0534213Y0104395D01*
X0534006Y0104893D02*
X0541594Y0104893D01*
X0541727Y0105392D02*
X0533873Y0105392D01*
X0533821Y0105890D02*
X0541779Y0105890D01*
X0541800Y0106389D02*
X0533800Y0106389D01*
X0533800Y0106887D02*
X0541800Y0106887D01*
X0541800Y0107386D02*
X0533800Y0107386D01*
X0533800Y0107884D02*
X0541800Y0107884D01*
X0541800Y0108383D02*
X0533800Y0108383D01*
X0533800Y0108881D02*
X0541800Y0108881D01*
X0541800Y0109380D02*
X0533800Y0109380D01*
X0533800Y0109878D02*
X0541800Y0109878D01*
X0541778Y0110377D02*
X0533822Y0110377D01*
X0533874Y0110875D02*
X0541726Y0110875D01*
X0541592Y0111374D02*
X0534008Y0111374D01*
X0534215Y0111872D02*
X0541385Y0111872D01*
X0541096Y0112371D02*
X0534504Y0112371D01*
X0534903Y0112870D02*
X0540697Y0112870D01*
X0540124Y0113368D02*
X0535476Y0113368D01*
X0536383Y0113867D02*
X0539217Y0113867D01*
X0548041Y0111499D02*
X0547861Y0110825D01*
X0547800Y0110131D01*
X0547800Y0106131D01*
X0547861Y0105436D01*
X0548041Y0104763D01*
X0548336Y0104131D01*
X0548736Y0103560D01*
X0549229Y0103067D01*
X0549800Y0102667D01*
X0550432Y0102372D01*
X0551105Y0102191D01*
X0551800Y0102131D01*
X0552495Y0102191D01*
X0553168Y0102372D01*
X0553800Y0102667D01*
X0554371Y0103067D01*
X0554864Y0103560D01*
X0555264Y0104131D01*
X0555559Y0104763D01*
X0555739Y0105436D01*
X0555800Y0106131D01*
X0555800Y0110131D01*
X0555739Y0110825D01*
X0555559Y0111499D01*
X0555264Y0112131D01*
X0554864Y0112702D01*
X0554371Y0113195D01*
X0553800Y0113595D01*
X0553168Y0113889D01*
X0552495Y0114070D01*
X0551800Y0114131D01*
X0551105Y0114070D01*
X0550432Y0113889D01*
X0549800Y0113595D01*
X0549229Y0113195D01*
X0548736Y0112702D01*
X0548336Y0112131D01*
X0548041Y0111499D01*
X0548008Y0111374D02*
X0555592Y0111374D01*
X0555726Y0110875D02*
X0547874Y0110875D01*
X0547822Y0110377D02*
X0555778Y0110377D01*
X0555800Y0109878D02*
X0547800Y0109878D01*
X0547800Y0109380D02*
X0555800Y0109380D01*
X0555800Y0108881D02*
X0547800Y0108881D01*
X0547800Y0108383D02*
X0555800Y0108383D01*
X0555800Y0107884D02*
X0547800Y0107884D01*
X0547800Y0107386D02*
X0555800Y0107386D01*
X0555800Y0106887D02*
X0547800Y0106887D01*
X0547800Y0106389D02*
X0555800Y0106389D01*
X0555779Y0105890D02*
X0547821Y0105890D01*
X0547873Y0105392D02*
X0555727Y0105392D01*
X0555594Y0104893D02*
X0548006Y0104893D01*
X0548213Y0104395D02*
X0555387Y0104395D01*
X0555100Y0103896D02*
X0548500Y0103896D01*
X0548898Y0103398D02*
X0554702Y0103398D01*
X0554132Y0102899D02*
X0549468Y0102899D01*
X0550370Y0102401D02*
X0553230Y0102401D01*
X0555385Y0111872D02*
X0548215Y0111872D01*
X0548504Y0112371D02*
X0555096Y0112371D01*
X0554697Y0112870D02*
X0548903Y0112870D01*
X0549476Y0113368D02*
X0554124Y0113368D01*
X0553217Y0113867D02*
X0550383Y0113867D01*
X0539230Y0102401D02*
X0536370Y0102401D01*
X0543229Y0093195D02*
X0542736Y0092702D01*
X0542336Y0092131D01*
X0542041Y0091499D01*
X0541861Y0090825D01*
X0541800Y0090131D01*
X0541800Y0086131D01*
X0541861Y0085436D01*
X0542041Y0084763D01*
X0542336Y0084131D01*
X0542736Y0083560D01*
X0543229Y0083067D01*
X0543800Y0082667D01*
X0544432Y0082372D01*
X0545105Y0082191D01*
X0545800Y0082131D01*
X0546495Y0082191D01*
X0547168Y0082372D01*
X0547800Y0082667D01*
X0548371Y0083067D01*
X0548864Y0083560D01*
X0549264Y0084131D01*
X0549559Y0084763D01*
X0549739Y0085436D01*
X0549800Y0086131D01*
X0549800Y0090131D01*
X0549739Y0090825D01*
X0549559Y0091499D01*
X0549264Y0092131D01*
X0548864Y0092702D01*
X0548371Y0093195D01*
X0547800Y0093595D01*
X0547168Y0093889D01*
X0546495Y0094070D01*
X0545800Y0094131D01*
X0545105Y0094070D01*
X0544432Y0093889D01*
X0543800Y0093595D01*
X0543229Y0093195D01*
X0542963Y0092929D02*
X0548637Y0092929D01*
X0549054Y0092431D02*
X0542546Y0092431D01*
X0542243Y0091932D02*
X0549357Y0091932D01*
X0549576Y0091434D02*
X0542024Y0091434D01*
X0541890Y0090935D02*
X0549710Y0090935D01*
X0549773Y0090436D02*
X0541827Y0090436D01*
X0541800Y0089938D02*
X0549800Y0089938D01*
X0549800Y0089439D02*
X0541800Y0089439D01*
X0541800Y0088941D02*
X0549800Y0088941D01*
X0549800Y0088442D02*
X0541800Y0088442D01*
X0541800Y0087944D02*
X0549800Y0087944D01*
X0549800Y0087445D02*
X0541800Y0087445D01*
X0541800Y0086947D02*
X0549800Y0086947D01*
X0549800Y0086448D02*
X0541800Y0086448D01*
X0541816Y0085950D02*
X0549784Y0085950D01*
X0549741Y0085451D02*
X0541859Y0085451D01*
X0541990Y0084953D02*
X0549610Y0084953D01*
X0549415Y0084454D02*
X0542185Y0084454D01*
X0542458Y0083956D02*
X0549142Y0083956D01*
X0548762Y0083457D02*
X0542838Y0083457D01*
X0543383Y0082959D02*
X0548217Y0082959D01*
X0547358Y0082460D02*
X0544242Y0082460D01*
X0543561Y0093428D02*
X0548039Y0093428D01*
X0547032Y0093926D02*
X0544568Y0093926D01*
X0563812Y0221679D02*
X0564300Y0221631D01*
X0571300Y0221631D01*
X0571788Y0221679D01*
X0572257Y0221821D01*
X0572689Y0222052D01*
X0573068Y0222363D01*
X0573379Y0222742D01*
X0573610Y0223174D01*
X0573752Y0223643D01*
X0573800Y0224131D01*
X0573752Y0224618D01*
X0573610Y0225087D01*
X0573379Y0225520D01*
X0573068Y0225898D01*
X0572689Y0226209D01*
X0572257Y0226440D01*
X0571788Y0226583D01*
X0571300Y0226631D01*
X0564300Y0226631D01*
X0563812Y0226583D01*
X0563343Y0226440D01*
X0562911Y0226209D01*
X0562532Y0225898D01*
X0562221Y0225520D01*
X0561990Y0225087D01*
X0561848Y0224618D01*
X0561800Y0224131D01*
X0561848Y0223643D01*
X0561990Y0223174D01*
X0562221Y0222742D01*
X0562532Y0222363D01*
X0562911Y0222052D01*
X0563343Y0221821D01*
X0563812Y0221679D01*
X0562927Y0222043D02*
X0572673Y0222043D01*
X0573215Y0222542D02*
X0562385Y0222542D01*
X0562062Y0223041D02*
X0573538Y0223041D01*
X0573720Y0223539D02*
X0561880Y0223539D01*
X0561809Y0224038D02*
X0573791Y0224038D01*
X0573760Y0224536D02*
X0561840Y0224536D01*
X0561974Y0225035D02*
X0573626Y0225035D01*
X0573368Y0225533D02*
X0562232Y0225533D01*
X0562694Y0226032D02*
X0572906Y0226032D01*
X0571961Y0226530D02*
X0563639Y0226530D01*
X0563812Y0229679D02*
X0564300Y0229631D01*
X0571300Y0229631D01*
X0571788Y0229679D01*
X0572257Y0229821D01*
X0572689Y0230052D01*
X0573068Y0230363D01*
X0573379Y0230742D01*
X0573610Y0231174D01*
X0573752Y0231643D01*
X0573800Y0232131D01*
X0573752Y0232618D01*
X0573610Y0233087D01*
X0573379Y0233520D01*
X0573068Y0233898D01*
X0572689Y0234209D01*
X0572257Y0234440D01*
X0571788Y0234583D01*
X0571300Y0234631D01*
X0564300Y0234631D01*
X0563812Y0234583D01*
X0563343Y0234440D01*
X0562911Y0234209D01*
X0562532Y0233898D01*
X0562221Y0233520D01*
X0561990Y0233087D01*
X0561848Y0232618D01*
X0561800Y0232131D01*
X0561848Y0231643D01*
X0561990Y0231174D01*
X0562221Y0230742D01*
X0562532Y0230363D01*
X0562911Y0230052D01*
X0563343Y0229821D01*
X0563812Y0229679D01*
X0562972Y0230020D02*
X0572628Y0230020D01*
X0573195Y0230518D02*
X0562405Y0230518D01*
X0562074Y0231017D02*
X0573526Y0231017D01*
X0573713Y0231515D02*
X0561887Y0231515D01*
X0561812Y0232014D02*
X0573788Y0232014D01*
X0573762Y0232512D02*
X0561838Y0232512D01*
X0561967Y0233011D02*
X0573633Y0233011D01*
X0573384Y0233509D02*
X0562216Y0233509D01*
X0562665Y0234008D02*
X0572935Y0234008D01*
X0572040Y0234506D02*
X0563560Y0234506D01*
X0563812Y0237679D02*
X0564300Y0237631D01*
X0571300Y0237631D01*
X0571788Y0237679D01*
X0572257Y0237821D01*
X0572689Y0238052D01*
X0573068Y0238363D01*
X0573379Y0238742D01*
X0573610Y0239174D01*
X0573752Y0239643D01*
X0573800Y0240131D01*
X0573752Y0240618D01*
X0573610Y0241087D01*
X0573379Y0241520D01*
X0573068Y0241898D01*
X0572689Y0242209D01*
X0572257Y0242440D01*
X0571788Y0242583D01*
X0571300Y0242631D01*
X0564300Y0242631D01*
X0563812Y0242583D01*
X0563343Y0242440D01*
X0562911Y0242209D01*
X0562532Y0241898D01*
X0562221Y0241520D01*
X0561990Y0241087D01*
X0561848Y0240618D01*
X0561800Y0240131D01*
X0561848Y0239643D01*
X0561990Y0239174D01*
X0562221Y0238742D01*
X0562532Y0238363D01*
X0562911Y0238052D01*
X0563343Y0237821D01*
X0563812Y0237679D01*
X0563016Y0237996D02*
X0572584Y0237996D01*
X0573176Y0238494D02*
X0562424Y0238494D01*
X0562087Y0238993D02*
X0573513Y0238993D01*
X0573706Y0239491D02*
X0561894Y0239491D01*
X0561814Y0239990D02*
X0573786Y0239990D01*
X0573765Y0240488D02*
X0561835Y0240488D01*
X0561960Y0240987D02*
X0573640Y0240987D01*
X0573397Y0241485D02*
X0562203Y0241485D01*
X0562636Y0241984D02*
X0572964Y0241984D01*
X0572118Y0242482D02*
X0563482Y0242482D01*
X0563812Y0245679D02*
X0564300Y0245631D01*
X0571300Y0245631D01*
X0571788Y0245679D01*
X0572257Y0245821D01*
X0572689Y0246052D01*
X0573068Y0246363D01*
X0573379Y0246742D01*
X0573610Y0247174D01*
X0573752Y0247643D01*
X0573800Y0248131D01*
X0573752Y0248618D01*
X0573610Y0249087D01*
X0573379Y0249520D01*
X0573068Y0249898D01*
X0572689Y0250209D01*
X0572257Y0250440D01*
X0571788Y0250583D01*
X0571300Y0250631D01*
X0564300Y0250631D01*
X0563812Y0250583D01*
X0563343Y0250440D01*
X0562911Y0250209D01*
X0562532Y0249898D01*
X0562221Y0249520D01*
X0561990Y0249087D01*
X0561848Y0248618D01*
X0561800Y0248131D01*
X0561848Y0247643D01*
X0561990Y0247174D01*
X0562221Y0246742D01*
X0562532Y0246363D01*
X0562911Y0246052D01*
X0563343Y0245821D01*
X0563812Y0245679D01*
X0563061Y0245972D02*
X0572539Y0245972D01*
X0573156Y0246471D02*
X0562444Y0246471D01*
X0562100Y0246969D02*
X0573500Y0246969D01*
X0573699Y0247468D02*
X0561901Y0247468D01*
X0561816Y0247966D02*
X0573784Y0247966D01*
X0573767Y0248465D02*
X0561833Y0248465D01*
X0561953Y0248963D02*
X0573647Y0248963D01*
X0573410Y0249462D02*
X0562190Y0249462D01*
X0562607Y0249960D02*
X0572993Y0249960D01*
X0572197Y0250459D02*
X0563403Y0250459D01*
X0563812Y0253679D02*
X0564300Y0253631D01*
X0571300Y0253631D01*
X0571788Y0253679D01*
X0572257Y0253821D01*
X0572689Y0254052D01*
X0573068Y0254363D01*
X0573379Y0254742D01*
X0573610Y0255174D01*
X0573752Y0255643D01*
X0573800Y0256131D01*
X0573752Y0256618D01*
X0573610Y0257087D01*
X0573379Y0257520D01*
X0573068Y0257898D01*
X0572689Y0258209D01*
X0572257Y0258440D01*
X0571788Y0258583D01*
X0571300Y0258631D01*
X0564300Y0258631D01*
X0563812Y0258583D01*
X0563343Y0258440D01*
X0562911Y0258209D01*
X0562532Y0257898D01*
X0562221Y0257520D01*
X0561990Y0257087D01*
X0561848Y0256618D01*
X0561800Y0256131D01*
X0561848Y0255643D01*
X0561990Y0255174D01*
X0562221Y0254742D01*
X0562532Y0254363D01*
X0562911Y0254052D01*
X0563343Y0253821D01*
X0563812Y0253679D01*
X0563105Y0253948D02*
X0572495Y0253948D01*
X0573137Y0254447D02*
X0562463Y0254447D01*
X0562113Y0254945D02*
X0573487Y0254945D01*
X0573692Y0255444D02*
X0561908Y0255444D01*
X0561819Y0255942D02*
X0573781Y0255942D01*
X0573769Y0256441D02*
X0561831Y0256441D01*
X0561945Y0256939D02*
X0573655Y0256939D01*
X0573422Y0257438D02*
X0562178Y0257438D01*
X0562578Y0257936D02*
X0573022Y0257936D01*
X0572267Y0258435D02*
X0563333Y0258435D01*
X0563812Y0261679D02*
X0564300Y0261631D01*
X0571300Y0261631D01*
X0571788Y0261679D01*
X0572257Y0261821D01*
X0572689Y0262052D01*
X0573068Y0262363D01*
X0573379Y0262742D01*
X0573610Y0263174D01*
X0573752Y0263643D01*
X0573800Y0264131D01*
X0573752Y0264618D01*
X0573610Y0265087D01*
X0573379Y0265520D01*
X0573068Y0265898D01*
X0572689Y0266209D01*
X0572257Y0266440D01*
X0571788Y0266583D01*
X0571300Y0266631D01*
X0564300Y0266631D01*
X0563812Y0266583D01*
X0563343Y0266440D01*
X0562911Y0266209D01*
X0562532Y0265898D01*
X0562221Y0265520D01*
X0561990Y0265087D01*
X0561848Y0264618D01*
X0561800Y0264131D01*
X0561848Y0263643D01*
X0561990Y0263174D01*
X0562221Y0262742D01*
X0562532Y0262363D01*
X0562911Y0262052D01*
X0563343Y0261821D01*
X0563812Y0261679D01*
X0563150Y0261924D02*
X0572450Y0261924D01*
X0573117Y0262423D02*
X0562483Y0262423D01*
X0562125Y0262921D02*
X0573475Y0262921D01*
X0573684Y0263420D02*
X0561916Y0263420D01*
X0561821Y0263918D02*
X0573779Y0263918D01*
X0573772Y0264417D02*
X0561828Y0264417D01*
X0561938Y0264915D02*
X0573662Y0264915D01*
X0573435Y0265414D02*
X0562165Y0265414D01*
X0562549Y0265912D02*
X0573051Y0265912D01*
X0572312Y0266411D02*
X0563288Y0266411D01*
X0495800Y0264131D02*
X0495752Y0264618D01*
X0495610Y0265087D01*
X0495379Y0265520D01*
X0495068Y0265898D01*
X0494689Y0266209D01*
X0494257Y0266440D01*
X0493788Y0266583D01*
X0493300Y0266631D01*
X0486300Y0266631D01*
X0485812Y0266583D01*
X0485343Y0266440D01*
X0484911Y0266209D01*
X0484532Y0265898D01*
X0484221Y0265520D01*
X0483990Y0265087D01*
X0483848Y0264618D01*
X0483800Y0264131D01*
X0483848Y0263643D01*
X0483990Y0263174D01*
X0484221Y0262742D01*
X0484532Y0262363D01*
X0484911Y0262052D01*
X0485343Y0261821D01*
X0485812Y0261679D01*
X0486300Y0261631D01*
X0493300Y0261631D01*
X0493788Y0261679D01*
X0494257Y0261821D01*
X0494689Y0262052D01*
X0495068Y0262363D01*
X0495379Y0262742D01*
X0495610Y0263174D01*
X0495752Y0263643D01*
X0495800Y0264131D01*
X0495779Y0263918D02*
X0483821Y0263918D01*
X0483828Y0264417D02*
X0495772Y0264417D01*
X0495662Y0264915D02*
X0483938Y0264915D01*
X0484165Y0265414D02*
X0495435Y0265414D01*
X0495051Y0265912D02*
X0484549Y0265912D01*
X0485288Y0266411D02*
X0494312Y0266411D01*
X0495684Y0263420D02*
X0483916Y0263420D01*
X0484125Y0262921D02*
X0495475Y0262921D01*
X0495117Y0262423D02*
X0484483Y0262423D01*
X0485150Y0261924D02*
X0494450Y0261924D01*
X0493788Y0258583D02*
X0493300Y0258631D01*
X0486300Y0258631D01*
X0485812Y0258583D01*
X0485343Y0258440D01*
X0484911Y0258209D01*
X0484532Y0257898D01*
X0484221Y0257520D01*
X0483990Y0257087D01*
X0483848Y0256618D01*
X0483800Y0256131D01*
X0483848Y0255643D01*
X0483990Y0255174D01*
X0484221Y0254742D01*
X0484532Y0254363D01*
X0484911Y0254052D01*
X0485343Y0253821D01*
X0485812Y0253679D01*
X0486300Y0253631D01*
X0493300Y0253631D01*
X0493788Y0253679D01*
X0494257Y0253821D01*
X0494689Y0254052D01*
X0495068Y0254363D01*
X0495379Y0254742D01*
X0495610Y0255174D01*
X0495752Y0255643D01*
X0495800Y0256131D01*
X0495752Y0256618D01*
X0495610Y0257087D01*
X0495379Y0257520D01*
X0495068Y0257898D01*
X0494689Y0258209D01*
X0494257Y0258440D01*
X0493788Y0258583D01*
X0494267Y0258435D02*
X0485333Y0258435D01*
X0484578Y0257936D02*
X0495022Y0257936D01*
X0495422Y0257438D02*
X0484178Y0257438D01*
X0483945Y0256939D02*
X0495655Y0256939D01*
X0495769Y0256441D02*
X0483831Y0256441D01*
X0483819Y0255942D02*
X0495781Y0255942D01*
X0495692Y0255444D02*
X0483908Y0255444D01*
X0484113Y0254945D02*
X0495487Y0254945D01*
X0495137Y0254447D02*
X0484463Y0254447D01*
X0485105Y0253948D02*
X0494495Y0253948D01*
X0493788Y0250583D02*
X0493300Y0250631D01*
X0486300Y0250631D01*
X0485812Y0250583D01*
X0485343Y0250440D01*
X0484911Y0250209D01*
X0484532Y0249898D01*
X0484221Y0249520D01*
X0483990Y0249087D01*
X0483848Y0248618D01*
X0483800Y0248131D01*
X0483848Y0247643D01*
X0483990Y0247174D01*
X0484221Y0246742D01*
X0484532Y0246363D01*
X0484911Y0246052D01*
X0485343Y0245821D01*
X0485812Y0245679D01*
X0486300Y0245631D01*
X0493300Y0245631D01*
X0493788Y0245679D01*
X0494257Y0245821D01*
X0494689Y0246052D01*
X0495068Y0246363D01*
X0495379Y0246742D01*
X0495610Y0247174D01*
X0495752Y0247643D01*
X0495800Y0248131D01*
X0495752Y0248618D01*
X0495610Y0249087D01*
X0495379Y0249520D01*
X0495068Y0249898D01*
X0494689Y0250209D01*
X0494257Y0250440D01*
X0493788Y0250583D01*
X0494197Y0250459D02*
X0485403Y0250459D01*
X0484607Y0249960D02*
X0494993Y0249960D01*
X0495410Y0249462D02*
X0484190Y0249462D01*
X0483953Y0248963D02*
X0495647Y0248963D01*
X0495767Y0248465D02*
X0483833Y0248465D01*
X0483816Y0247966D02*
X0495784Y0247966D01*
X0495699Y0247468D02*
X0483901Y0247468D01*
X0484100Y0246969D02*
X0495500Y0246969D01*
X0495156Y0246471D02*
X0484444Y0246471D01*
X0485061Y0245972D02*
X0494539Y0245972D01*
X0493788Y0242583D02*
X0493300Y0242631D01*
X0486300Y0242631D01*
X0485812Y0242583D01*
X0485343Y0242440D01*
X0484911Y0242209D01*
X0484532Y0241898D01*
X0484221Y0241520D01*
X0483990Y0241087D01*
X0483848Y0240618D01*
X0483800Y0240131D01*
X0483848Y0239643D01*
X0483990Y0239174D01*
X0484221Y0238742D01*
X0484532Y0238363D01*
X0484911Y0238052D01*
X0485343Y0237821D01*
X0485812Y0237679D01*
X0486300Y0237631D01*
X0493300Y0237631D01*
X0493788Y0237679D01*
X0494257Y0237821D01*
X0494689Y0238052D01*
X0495068Y0238363D01*
X0495379Y0238742D01*
X0495610Y0239174D01*
X0495752Y0239643D01*
X0495800Y0240131D01*
X0495752Y0240618D01*
X0495610Y0241087D01*
X0495379Y0241520D01*
X0495068Y0241898D01*
X0494689Y0242209D01*
X0494257Y0242440D01*
X0493788Y0242583D01*
X0494118Y0242482D02*
X0485482Y0242482D01*
X0484636Y0241984D02*
X0494964Y0241984D01*
X0495397Y0241485D02*
X0484203Y0241485D01*
X0483960Y0240987D02*
X0495640Y0240987D01*
X0495765Y0240488D02*
X0483835Y0240488D01*
X0483814Y0239990D02*
X0495786Y0239990D01*
X0495706Y0239491D02*
X0483894Y0239491D01*
X0484087Y0238993D02*
X0495513Y0238993D01*
X0495176Y0238494D02*
X0484424Y0238494D01*
X0485016Y0237996D02*
X0494584Y0237996D01*
X0493788Y0234583D02*
X0493300Y0234631D01*
X0486300Y0234631D01*
X0485812Y0234583D01*
X0485343Y0234440D01*
X0484911Y0234209D01*
X0484532Y0233898D01*
X0484221Y0233520D01*
X0483990Y0233087D01*
X0483848Y0232618D01*
X0483800Y0232131D01*
X0483848Y0231643D01*
X0483990Y0231174D01*
X0484221Y0230742D01*
X0484532Y0230363D01*
X0484911Y0230052D01*
X0485343Y0229821D01*
X0485812Y0229679D01*
X0486300Y0229631D01*
X0493300Y0229631D01*
X0493788Y0229679D01*
X0494257Y0229821D01*
X0494689Y0230052D01*
X0495068Y0230363D01*
X0495379Y0230742D01*
X0495610Y0231174D01*
X0495752Y0231643D01*
X0495800Y0232131D01*
X0495752Y0232618D01*
X0495610Y0233087D01*
X0495379Y0233520D01*
X0495068Y0233898D01*
X0494689Y0234209D01*
X0494257Y0234440D01*
X0493788Y0234583D01*
X0494040Y0234506D02*
X0485560Y0234506D01*
X0484665Y0234008D02*
X0494935Y0234008D01*
X0495384Y0233509D02*
X0484216Y0233509D01*
X0483967Y0233011D02*
X0495633Y0233011D01*
X0495762Y0232512D02*
X0483838Y0232512D01*
X0483812Y0232014D02*
X0495788Y0232014D01*
X0495713Y0231515D02*
X0483887Y0231515D01*
X0484074Y0231017D02*
X0495526Y0231017D01*
X0495195Y0230518D02*
X0484405Y0230518D01*
X0484972Y0230020D02*
X0494628Y0230020D01*
X0493788Y0226583D02*
X0493300Y0226631D01*
X0486300Y0226631D01*
X0485812Y0226583D01*
X0485343Y0226440D01*
X0484911Y0226209D01*
X0484532Y0225898D01*
X0484221Y0225520D01*
X0483990Y0225087D01*
X0483848Y0224618D01*
X0483800Y0224131D01*
X0483848Y0223643D01*
X0483990Y0223174D01*
X0484221Y0222742D01*
X0484532Y0222363D01*
X0484911Y0222052D01*
X0485343Y0221821D01*
X0485812Y0221679D01*
X0486300Y0221631D01*
X0493300Y0221631D01*
X0493788Y0221679D01*
X0494257Y0221821D01*
X0494689Y0222052D01*
X0495068Y0222363D01*
X0495379Y0222742D01*
X0495610Y0223174D01*
X0495752Y0223643D01*
X0495800Y0224131D01*
X0495752Y0224618D01*
X0495610Y0225087D01*
X0495379Y0225520D01*
X0495068Y0225898D01*
X0494689Y0226209D01*
X0494257Y0226440D01*
X0493788Y0226583D01*
X0493961Y0226530D02*
X0485639Y0226530D01*
X0484694Y0226032D02*
X0494906Y0226032D01*
X0495368Y0225533D02*
X0484232Y0225533D01*
X0483974Y0225035D02*
X0495626Y0225035D01*
X0495760Y0224536D02*
X0483840Y0224536D01*
X0483809Y0224038D02*
X0495791Y0224038D01*
X0495720Y0223539D02*
X0483880Y0223539D01*
X0484062Y0223041D02*
X0495538Y0223041D01*
X0495215Y0222542D02*
X0484385Y0222542D01*
X0484927Y0222043D02*
X0494673Y0222043D01*
X0395800Y0224131D02*
X0395752Y0224618D01*
X0395610Y0225087D01*
X0395379Y0225520D01*
X0395068Y0225898D01*
X0394689Y0226209D01*
X0394257Y0226440D01*
X0393788Y0226583D01*
X0393300Y0226631D01*
X0386300Y0226631D01*
X0385812Y0226583D01*
X0385343Y0226440D01*
X0384911Y0226209D01*
X0384532Y0225898D01*
X0384221Y0225520D01*
X0383990Y0225087D01*
X0383848Y0224618D01*
X0383800Y0224131D01*
X0383848Y0223643D01*
X0383990Y0223174D01*
X0384221Y0222742D01*
X0384532Y0222363D01*
X0384911Y0222052D01*
X0385343Y0221821D01*
X0385812Y0221679D01*
X0386300Y0221631D01*
X0393300Y0221631D01*
X0393788Y0221679D01*
X0394257Y0221821D01*
X0394689Y0222052D01*
X0395068Y0222363D01*
X0395379Y0222742D01*
X0395610Y0223174D01*
X0395752Y0223643D01*
X0395800Y0224131D01*
X0395791Y0224038D02*
X0383809Y0224038D01*
X0383840Y0224536D02*
X0395760Y0224536D01*
X0395626Y0225035D02*
X0383974Y0225035D01*
X0384232Y0225533D02*
X0395368Y0225533D01*
X0394906Y0226032D02*
X0384694Y0226032D01*
X0385639Y0226530D02*
X0393961Y0226530D01*
X0393788Y0229679D02*
X0394257Y0229821D01*
X0394689Y0230052D01*
X0395068Y0230363D01*
X0395379Y0230742D01*
X0395610Y0231174D01*
X0395752Y0231643D01*
X0395800Y0232131D01*
X0395752Y0232618D01*
X0395610Y0233087D01*
X0395379Y0233520D01*
X0395068Y0233898D01*
X0394689Y0234209D01*
X0394257Y0234440D01*
X0393788Y0234583D01*
X0393300Y0234631D01*
X0386300Y0234631D01*
X0385812Y0234583D01*
X0385343Y0234440D01*
X0384911Y0234209D01*
X0384532Y0233898D01*
X0384221Y0233520D01*
X0383990Y0233087D01*
X0383848Y0232618D01*
X0383800Y0232131D01*
X0383848Y0231643D01*
X0383990Y0231174D01*
X0384221Y0230742D01*
X0384532Y0230363D01*
X0384911Y0230052D01*
X0385343Y0229821D01*
X0385812Y0229679D01*
X0386300Y0229631D01*
X0393300Y0229631D01*
X0393788Y0229679D01*
X0394628Y0230020D02*
X0384972Y0230020D01*
X0384405Y0230518D02*
X0395195Y0230518D01*
X0395526Y0231017D02*
X0384074Y0231017D01*
X0383887Y0231515D02*
X0395713Y0231515D01*
X0395788Y0232014D02*
X0383812Y0232014D01*
X0383838Y0232512D02*
X0395762Y0232512D01*
X0395633Y0233011D02*
X0383967Y0233011D01*
X0384216Y0233509D02*
X0395384Y0233509D01*
X0394935Y0234008D02*
X0384665Y0234008D01*
X0385560Y0234506D02*
X0394040Y0234506D01*
X0393788Y0237679D02*
X0394257Y0237821D01*
X0394689Y0238052D01*
X0395068Y0238363D01*
X0395379Y0238742D01*
X0395610Y0239174D01*
X0395752Y0239643D01*
X0395800Y0240131D01*
X0395752Y0240618D01*
X0395610Y0241087D01*
X0395379Y0241520D01*
X0395068Y0241898D01*
X0394689Y0242209D01*
X0394257Y0242440D01*
X0393788Y0242583D01*
X0393300Y0242631D01*
X0386300Y0242631D01*
X0385812Y0242583D01*
X0385343Y0242440D01*
X0384911Y0242209D01*
X0384532Y0241898D01*
X0384221Y0241520D01*
X0383990Y0241087D01*
X0383848Y0240618D01*
X0383800Y0240131D01*
X0383848Y0239643D01*
X0383990Y0239174D01*
X0384221Y0238742D01*
X0384532Y0238363D01*
X0384911Y0238052D01*
X0385343Y0237821D01*
X0385812Y0237679D01*
X0386300Y0237631D01*
X0393300Y0237631D01*
X0393788Y0237679D01*
X0394584Y0237996D02*
X0385016Y0237996D01*
X0384424Y0238494D02*
X0395176Y0238494D01*
X0395513Y0238993D02*
X0384087Y0238993D01*
X0383894Y0239491D02*
X0395706Y0239491D01*
X0395786Y0239990D02*
X0383814Y0239990D01*
X0383835Y0240488D02*
X0395765Y0240488D01*
X0395640Y0240987D02*
X0383960Y0240987D01*
X0384203Y0241485D02*
X0395397Y0241485D01*
X0394964Y0241984D02*
X0384636Y0241984D01*
X0385482Y0242482D02*
X0394118Y0242482D01*
X0393788Y0245679D02*
X0394257Y0245821D01*
X0394689Y0246052D01*
X0395068Y0246363D01*
X0395379Y0246742D01*
X0395610Y0247174D01*
X0395752Y0247643D01*
X0395800Y0248131D01*
X0395752Y0248618D01*
X0395610Y0249087D01*
X0395379Y0249520D01*
X0395068Y0249898D01*
X0394689Y0250209D01*
X0394257Y0250440D01*
X0393788Y0250583D01*
X0393300Y0250631D01*
X0386300Y0250631D01*
X0385812Y0250583D01*
X0385343Y0250440D01*
X0384911Y0250209D01*
X0384532Y0249898D01*
X0384221Y0249520D01*
X0383990Y0249087D01*
X0383848Y0248618D01*
X0383800Y0248131D01*
X0383848Y0247643D01*
X0383990Y0247174D01*
X0384221Y0246742D01*
X0384532Y0246363D01*
X0384911Y0246052D01*
X0385343Y0245821D01*
X0385812Y0245679D01*
X0386300Y0245631D01*
X0393300Y0245631D01*
X0393788Y0245679D01*
X0394539Y0245972D02*
X0385061Y0245972D01*
X0384444Y0246471D02*
X0395156Y0246471D01*
X0395500Y0246969D02*
X0384100Y0246969D01*
X0383901Y0247468D02*
X0395699Y0247468D01*
X0395784Y0247966D02*
X0383816Y0247966D01*
X0383833Y0248465D02*
X0395767Y0248465D01*
X0395647Y0248963D02*
X0383953Y0248963D01*
X0384190Y0249462D02*
X0395410Y0249462D01*
X0394993Y0249960D02*
X0384607Y0249960D01*
X0385403Y0250459D02*
X0394197Y0250459D01*
X0393788Y0253679D02*
X0394257Y0253821D01*
X0394689Y0254052D01*
X0395068Y0254363D01*
X0395379Y0254742D01*
X0395610Y0255174D01*
X0395752Y0255643D01*
X0395800Y0256131D01*
X0395752Y0256618D01*
X0395610Y0257087D01*
X0395379Y0257520D01*
X0395068Y0257898D01*
X0394689Y0258209D01*
X0394257Y0258440D01*
X0393788Y0258583D01*
X0393300Y0258631D01*
X0386300Y0258631D01*
X0385812Y0258583D01*
X0385343Y0258440D01*
X0384911Y0258209D01*
X0384532Y0257898D01*
X0384221Y0257520D01*
X0383990Y0257087D01*
X0383848Y0256618D01*
X0383800Y0256131D01*
X0383848Y0255643D01*
X0383990Y0255174D01*
X0384221Y0254742D01*
X0384532Y0254363D01*
X0384911Y0254052D01*
X0385343Y0253821D01*
X0385812Y0253679D01*
X0386300Y0253631D01*
X0393300Y0253631D01*
X0393788Y0253679D01*
X0394495Y0253948D02*
X0385105Y0253948D01*
X0384463Y0254447D02*
X0395137Y0254447D01*
X0395487Y0254945D02*
X0384113Y0254945D01*
X0383908Y0255444D02*
X0395692Y0255444D01*
X0395781Y0255942D02*
X0383819Y0255942D01*
X0383831Y0256441D02*
X0395769Y0256441D01*
X0395655Y0256939D02*
X0383945Y0256939D01*
X0384178Y0257438D02*
X0395422Y0257438D01*
X0395022Y0257936D02*
X0384578Y0257936D01*
X0385333Y0258435D02*
X0394267Y0258435D01*
X0393788Y0261679D02*
X0394257Y0261821D01*
X0394689Y0262052D01*
X0395068Y0262363D01*
X0395379Y0262742D01*
X0395610Y0263174D01*
X0395752Y0263643D01*
X0395800Y0264131D01*
X0395752Y0264618D01*
X0395610Y0265087D01*
X0395379Y0265520D01*
X0395068Y0265898D01*
X0394689Y0266209D01*
X0394257Y0266440D01*
X0393788Y0266583D01*
X0393300Y0266631D01*
X0386300Y0266631D01*
X0385812Y0266583D01*
X0385343Y0266440D01*
X0384911Y0266209D01*
X0384532Y0265898D01*
X0384221Y0265520D01*
X0383990Y0265087D01*
X0383848Y0264618D01*
X0383800Y0264131D01*
X0383848Y0263643D01*
X0383990Y0263174D01*
X0384221Y0262742D01*
X0384532Y0262363D01*
X0384911Y0262052D01*
X0385343Y0261821D01*
X0385812Y0261679D01*
X0386300Y0261631D01*
X0393300Y0261631D01*
X0393788Y0261679D01*
X0394450Y0261924D02*
X0385150Y0261924D01*
X0384483Y0262423D02*
X0395117Y0262423D01*
X0395475Y0262921D02*
X0384125Y0262921D01*
X0383916Y0263420D02*
X0395684Y0263420D01*
X0395779Y0263918D02*
X0383821Y0263918D01*
X0383828Y0264417D02*
X0395772Y0264417D01*
X0395662Y0264915D02*
X0383938Y0264915D01*
X0384165Y0265414D02*
X0395435Y0265414D01*
X0395051Y0265912D02*
X0384549Y0265912D01*
X0385288Y0266411D02*
X0394312Y0266411D01*
X0395720Y0223539D02*
X0383880Y0223539D01*
X0384062Y0223041D02*
X0395538Y0223041D01*
X0395215Y0222542D02*
X0384385Y0222542D01*
X0384927Y0222043D02*
X0394673Y0222043D01*
D25*
X0387800Y0059477D03*
X0387800Y0052784D03*
X0379800Y0052784D03*
X0379800Y0059477D03*
X0371800Y0059477D03*
X0371800Y0052784D03*
X0363800Y0052784D03*
X0363800Y0059477D03*
X0355800Y0059477D03*
X0355800Y0052784D03*
X0347800Y0052784D03*
X0347800Y0059477D03*
X0339800Y0059477D03*
X0339800Y0052784D03*
X0331800Y0052784D03*
X0331800Y0059477D03*
X0261800Y0059477D03*
X0261800Y0052784D03*
X0253800Y0052784D03*
X0253800Y0059477D03*
X0245800Y0059477D03*
X0245800Y0052784D03*
X0237800Y0052784D03*
X0237800Y0059477D03*
X0229800Y0059477D03*
X0229800Y0052784D03*
X0221800Y0052784D03*
X0221800Y0059477D03*
X0213800Y0059477D03*
X0213800Y0052784D03*
X0205800Y0052784D03*
X0205800Y0059477D03*
X0173800Y0059477D03*
X0173800Y0052784D03*
X0165800Y0052784D03*
X0165800Y0059477D03*
X0157800Y0059477D03*
X0157800Y0052784D03*
X0149800Y0052784D03*
X0149800Y0059477D03*
X0141800Y0059477D03*
X0141800Y0052784D03*
X0133800Y0052784D03*
X0133800Y0059477D03*
X0125800Y0059477D03*
X0125800Y0052784D03*
X0117800Y0052784D03*
X0117800Y0059477D03*
X0099800Y0059477D03*
X0099800Y0052784D03*
X0091800Y0052784D03*
X0091800Y0059477D03*
X0083800Y0059477D03*
X0083800Y0052784D03*
X0075800Y0052784D03*
X0075800Y0059477D03*
X0067800Y0059477D03*
X0067800Y0052784D03*
X0059800Y0052784D03*
X0059800Y0059477D03*
X0051800Y0059477D03*
X0051800Y0052784D03*
X0043800Y0052784D03*
X0043800Y0059477D03*
X0409800Y0059477D03*
X0409800Y0052784D03*
X0417800Y0052784D03*
X0417800Y0059477D03*
X0425800Y0059477D03*
X0425800Y0052784D03*
X0433800Y0052784D03*
X0433800Y0059477D03*
X0441800Y0059477D03*
X0441800Y0052784D03*
X0449800Y0052784D03*
X0449800Y0059477D03*
X0457800Y0059477D03*
X0457800Y0052784D03*
X0465800Y0052784D03*
X0465800Y0059477D03*
X0487800Y0059477D03*
X0487800Y0052784D03*
X0495800Y0052784D03*
X0495800Y0059477D03*
X0503800Y0059477D03*
X0503800Y0052784D03*
X0511800Y0052784D03*
X0511800Y0059477D03*
X0519800Y0059477D03*
X0519800Y0052784D03*
X0527800Y0052784D03*
X0527800Y0059477D03*
X0535800Y0059477D03*
X0535800Y0052784D03*
X0543800Y0052784D03*
X0543800Y0059477D03*
D26*
X0560855Y0033296D03*
X0560855Y0285265D03*
X0560855Y0348257D03*
X0560855Y0600225D03*
X0033296Y0600225D03*
X0033296Y0348257D03*
X0033296Y0285265D03*
X0033296Y0033296D03*
M02*
