G75*
%MOIN*%
%OFA0B0*%
%FSLAX25Y25*%
%IPPOS*%
%LPD*%
%AMOC8*
5,1,8,0,0,1.08239X$1,22.5*
%
%ADD10C,0.01600*%
%ADD11C,0.00300*%
%ADD12C,0.00600*%
%ADD13C,0.01000*%
%ADD14C,0.00400*%
%ADD15C,0.00800*%
%ADD16C,0.00200*%
D10*
X0001800Y0021485D02*
X0001800Y0297076D01*
X0001806Y0297552D01*
X0001823Y0298027D01*
X0001852Y0298502D01*
X0001892Y0298976D01*
X0001944Y0299449D01*
X0002007Y0299920D01*
X0002081Y0300390D01*
X0002167Y0300858D01*
X0002264Y0301324D01*
X0002372Y0301787D01*
X0002491Y0302247D01*
X0002622Y0302705D01*
X0002763Y0303159D01*
X0002916Y0303610D01*
X0003079Y0304056D01*
X0003253Y0304499D01*
X0003438Y0304937D01*
X0003633Y0305371D01*
X0003839Y0305800D01*
X0004055Y0306224D01*
X0004281Y0306643D01*
X0004517Y0307056D01*
X0004763Y0307463D01*
X0005019Y0307864D01*
X0005285Y0308258D01*
X0005560Y0308647D01*
X0005844Y0309028D01*
X0006137Y0309402D01*
X0006439Y0309770D01*
X0006751Y0310130D01*
X0007070Y0310482D01*
X0007398Y0310826D01*
X0007735Y0311163D01*
X0008079Y0311491D01*
X0008431Y0311810D01*
X0008791Y0312122D01*
X0009159Y0312424D01*
X0009533Y0312717D01*
X0009914Y0313001D01*
X0010303Y0313276D01*
X0010697Y0313542D01*
X0011098Y0313798D01*
X0011505Y0314044D01*
X0011918Y0314280D01*
X0012337Y0314506D01*
X0012761Y0314722D01*
X0013190Y0314928D01*
X0013624Y0315123D01*
X0014062Y0315308D01*
X0014505Y0315482D01*
X0014951Y0315645D01*
X0015402Y0315798D01*
X0015856Y0315939D01*
X0016314Y0316070D01*
X0016774Y0316189D01*
X0017237Y0316297D01*
X0017703Y0316394D01*
X0018171Y0316480D01*
X0018641Y0316554D01*
X0019112Y0316617D01*
X0019585Y0316669D01*
X0020059Y0316709D01*
X0020534Y0316738D01*
X0021009Y0316755D01*
X0021485Y0316761D01*
X0572666Y0316761D01*
X0573142Y0316755D01*
X0573617Y0316738D01*
X0574092Y0316709D01*
X0574566Y0316669D01*
X0575039Y0316617D01*
X0575510Y0316554D01*
X0575980Y0316480D01*
X0576448Y0316394D01*
X0576914Y0316297D01*
X0577377Y0316189D01*
X0577837Y0316070D01*
X0578295Y0315939D01*
X0578749Y0315798D01*
X0579200Y0315645D01*
X0579646Y0315482D01*
X0580089Y0315308D01*
X0580527Y0315123D01*
X0580961Y0314928D01*
X0581390Y0314722D01*
X0581814Y0314506D01*
X0582233Y0314280D01*
X0582646Y0314044D01*
X0583053Y0313798D01*
X0583454Y0313542D01*
X0583848Y0313276D01*
X0584237Y0313001D01*
X0584618Y0312717D01*
X0584992Y0312424D01*
X0585360Y0312122D01*
X0585720Y0311810D01*
X0586072Y0311491D01*
X0586416Y0311163D01*
X0586753Y0310826D01*
X0587081Y0310482D01*
X0587400Y0310130D01*
X0587712Y0309770D01*
X0588014Y0309402D01*
X0588307Y0309028D01*
X0588591Y0308647D01*
X0588866Y0308258D01*
X0589132Y0307864D01*
X0589388Y0307463D01*
X0589634Y0307056D01*
X0589870Y0306643D01*
X0590096Y0306224D01*
X0590312Y0305800D01*
X0590518Y0305371D01*
X0590713Y0304937D01*
X0590898Y0304499D01*
X0591072Y0304056D01*
X0591235Y0303610D01*
X0591388Y0303159D01*
X0591529Y0302705D01*
X0591660Y0302247D01*
X0591779Y0301787D01*
X0591887Y0301324D01*
X0591984Y0300858D01*
X0592070Y0300390D01*
X0592144Y0299920D01*
X0592207Y0299449D01*
X0592259Y0298976D01*
X0592299Y0298502D01*
X0592328Y0298027D01*
X0592345Y0297552D01*
X0592351Y0297076D01*
X0592351Y0021485D01*
X0592345Y0021009D01*
X0592328Y0020534D01*
X0592299Y0020059D01*
X0592259Y0019585D01*
X0592207Y0019112D01*
X0592144Y0018641D01*
X0592070Y0018171D01*
X0591984Y0017703D01*
X0591887Y0017237D01*
X0591779Y0016774D01*
X0591660Y0016314D01*
X0591529Y0015856D01*
X0591388Y0015402D01*
X0591235Y0014951D01*
X0591072Y0014505D01*
X0590898Y0014062D01*
X0590713Y0013624D01*
X0590518Y0013190D01*
X0590312Y0012761D01*
X0590096Y0012337D01*
X0589870Y0011918D01*
X0589634Y0011505D01*
X0589388Y0011098D01*
X0589132Y0010697D01*
X0588866Y0010303D01*
X0588591Y0009914D01*
X0588307Y0009533D01*
X0588014Y0009159D01*
X0587712Y0008791D01*
X0587400Y0008431D01*
X0587081Y0008079D01*
X0586753Y0007735D01*
X0586416Y0007398D01*
X0586072Y0007070D01*
X0585720Y0006751D01*
X0585360Y0006439D01*
X0584992Y0006137D01*
X0584618Y0005844D01*
X0584237Y0005560D01*
X0583848Y0005285D01*
X0583454Y0005019D01*
X0583053Y0004763D01*
X0582646Y0004517D01*
X0582233Y0004281D01*
X0581814Y0004055D01*
X0581390Y0003839D01*
X0580961Y0003633D01*
X0580527Y0003438D01*
X0580089Y0003253D01*
X0579646Y0003079D01*
X0579200Y0002916D01*
X0578749Y0002763D01*
X0578295Y0002622D01*
X0577837Y0002491D01*
X0577377Y0002372D01*
X0576914Y0002264D01*
X0576448Y0002167D01*
X0575980Y0002081D01*
X0575510Y0002007D01*
X0575039Y0001944D01*
X0574566Y0001892D01*
X0574092Y0001852D01*
X0573617Y0001823D01*
X0573142Y0001806D01*
X0572666Y0001800D01*
X0021485Y0001800D01*
X0021009Y0001806D01*
X0020534Y0001823D01*
X0020059Y0001852D01*
X0019585Y0001892D01*
X0019112Y0001944D01*
X0018641Y0002007D01*
X0018171Y0002081D01*
X0017703Y0002167D01*
X0017237Y0002264D01*
X0016774Y0002372D01*
X0016314Y0002491D01*
X0015856Y0002622D01*
X0015402Y0002763D01*
X0014951Y0002916D01*
X0014505Y0003079D01*
X0014062Y0003253D01*
X0013624Y0003438D01*
X0013190Y0003633D01*
X0012761Y0003839D01*
X0012337Y0004055D01*
X0011918Y0004281D01*
X0011505Y0004517D01*
X0011098Y0004763D01*
X0010697Y0005019D01*
X0010303Y0005285D01*
X0009914Y0005560D01*
X0009533Y0005844D01*
X0009159Y0006137D01*
X0008791Y0006439D01*
X0008431Y0006751D01*
X0008079Y0007070D01*
X0007735Y0007398D01*
X0007398Y0007735D01*
X0007070Y0008079D01*
X0006751Y0008431D01*
X0006439Y0008791D01*
X0006137Y0009159D01*
X0005844Y0009533D01*
X0005560Y0009914D01*
X0005285Y0010303D01*
X0005019Y0010697D01*
X0004763Y0011098D01*
X0004517Y0011505D01*
X0004281Y0011918D01*
X0004055Y0012337D01*
X0003839Y0012761D01*
X0003633Y0013190D01*
X0003438Y0013624D01*
X0003253Y0014062D01*
X0003079Y0014505D01*
X0002916Y0014951D01*
X0002763Y0015402D01*
X0002622Y0015856D01*
X0002491Y0016314D01*
X0002372Y0016774D01*
X0002264Y0017237D01*
X0002167Y0017703D01*
X0002081Y0018171D01*
X0002007Y0018641D01*
X0001944Y0019112D01*
X0001892Y0019585D01*
X0001852Y0020059D01*
X0001823Y0020534D01*
X0001806Y0021009D01*
X0001800Y0021485D01*
X0001800Y0336446D02*
X0001800Y0612036D01*
X0001806Y0612512D01*
X0001823Y0612987D01*
X0001852Y0613462D01*
X0001892Y0613936D01*
X0001944Y0614409D01*
X0002007Y0614880D01*
X0002081Y0615350D01*
X0002167Y0615818D01*
X0002264Y0616284D01*
X0002372Y0616747D01*
X0002491Y0617207D01*
X0002622Y0617665D01*
X0002763Y0618119D01*
X0002916Y0618570D01*
X0003079Y0619016D01*
X0003253Y0619459D01*
X0003438Y0619897D01*
X0003633Y0620331D01*
X0003839Y0620760D01*
X0004055Y0621184D01*
X0004281Y0621603D01*
X0004517Y0622016D01*
X0004763Y0622423D01*
X0005019Y0622824D01*
X0005285Y0623218D01*
X0005560Y0623607D01*
X0005844Y0623988D01*
X0006137Y0624362D01*
X0006439Y0624730D01*
X0006751Y0625090D01*
X0007070Y0625442D01*
X0007398Y0625786D01*
X0007735Y0626123D01*
X0008079Y0626451D01*
X0008431Y0626770D01*
X0008791Y0627082D01*
X0009159Y0627384D01*
X0009533Y0627677D01*
X0009914Y0627961D01*
X0010303Y0628236D01*
X0010697Y0628502D01*
X0011098Y0628758D01*
X0011505Y0629004D01*
X0011918Y0629240D01*
X0012337Y0629466D01*
X0012761Y0629682D01*
X0013190Y0629888D01*
X0013624Y0630083D01*
X0014062Y0630268D01*
X0014505Y0630442D01*
X0014951Y0630605D01*
X0015402Y0630758D01*
X0015856Y0630899D01*
X0016314Y0631030D01*
X0016774Y0631149D01*
X0017237Y0631257D01*
X0017703Y0631354D01*
X0018171Y0631440D01*
X0018641Y0631514D01*
X0019112Y0631577D01*
X0019585Y0631629D01*
X0020059Y0631669D01*
X0020534Y0631698D01*
X0021009Y0631715D01*
X0021485Y0631721D01*
X0572666Y0631721D01*
X0573142Y0631715D01*
X0573617Y0631698D01*
X0574092Y0631669D01*
X0574566Y0631629D01*
X0575039Y0631577D01*
X0575510Y0631514D01*
X0575980Y0631440D01*
X0576448Y0631354D01*
X0576914Y0631257D01*
X0577377Y0631149D01*
X0577837Y0631030D01*
X0578295Y0630899D01*
X0578749Y0630758D01*
X0579200Y0630605D01*
X0579646Y0630442D01*
X0580089Y0630268D01*
X0580527Y0630083D01*
X0580961Y0629888D01*
X0581390Y0629682D01*
X0581814Y0629466D01*
X0582233Y0629240D01*
X0582646Y0629004D01*
X0583053Y0628758D01*
X0583454Y0628502D01*
X0583848Y0628236D01*
X0584237Y0627961D01*
X0584618Y0627677D01*
X0584992Y0627384D01*
X0585360Y0627082D01*
X0585720Y0626770D01*
X0586072Y0626451D01*
X0586416Y0626123D01*
X0586753Y0625786D01*
X0587081Y0625442D01*
X0587400Y0625090D01*
X0587712Y0624730D01*
X0588014Y0624362D01*
X0588307Y0623988D01*
X0588591Y0623607D01*
X0588866Y0623218D01*
X0589132Y0622824D01*
X0589388Y0622423D01*
X0589634Y0622016D01*
X0589870Y0621603D01*
X0590096Y0621184D01*
X0590312Y0620760D01*
X0590518Y0620331D01*
X0590713Y0619897D01*
X0590898Y0619459D01*
X0591072Y0619016D01*
X0591235Y0618570D01*
X0591388Y0618119D01*
X0591529Y0617665D01*
X0591660Y0617207D01*
X0591779Y0616747D01*
X0591887Y0616284D01*
X0591984Y0615818D01*
X0592070Y0615350D01*
X0592144Y0614880D01*
X0592207Y0614409D01*
X0592259Y0613936D01*
X0592299Y0613462D01*
X0592328Y0612987D01*
X0592345Y0612512D01*
X0592351Y0612036D01*
X0592351Y0336446D01*
X0592345Y0335970D01*
X0592328Y0335495D01*
X0592299Y0335020D01*
X0592259Y0334546D01*
X0592207Y0334073D01*
X0592144Y0333602D01*
X0592070Y0333132D01*
X0591984Y0332664D01*
X0591887Y0332198D01*
X0591779Y0331735D01*
X0591660Y0331275D01*
X0591529Y0330817D01*
X0591388Y0330363D01*
X0591235Y0329912D01*
X0591072Y0329466D01*
X0590898Y0329023D01*
X0590713Y0328585D01*
X0590518Y0328151D01*
X0590312Y0327722D01*
X0590096Y0327298D01*
X0589870Y0326879D01*
X0589634Y0326466D01*
X0589388Y0326059D01*
X0589132Y0325658D01*
X0588866Y0325264D01*
X0588591Y0324875D01*
X0588307Y0324494D01*
X0588014Y0324120D01*
X0587712Y0323752D01*
X0587400Y0323392D01*
X0587081Y0323040D01*
X0586753Y0322696D01*
X0586416Y0322359D01*
X0586072Y0322031D01*
X0585720Y0321712D01*
X0585360Y0321400D01*
X0584992Y0321098D01*
X0584618Y0320805D01*
X0584237Y0320521D01*
X0583848Y0320246D01*
X0583454Y0319980D01*
X0583053Y0319724D01*
X0582646Y0319478D01*
X0582233Y0319242D01*
X0581814Y0319016D01*
X0581390Y0318800D01*
X0580961Y0318594D01*
X0580527Y0318399D01*
X0580089Y0318214D01*
X0579646Y0318040D01*
X0579200Y0317877D01*
X0578749Y0317724D01*
X0578295Y0317583D01*
X0577837Y0317452D01*
X0577377Y0317333D01*
X0576914Y0317225D01*
X0576448Y0317128D01*
X0575980Y0317042D01*
X0575510Y0316968D01*
X0575039Y0316905D01*
X0574566Y0316853D01*
X0574092Y0316813D01*
X0573617Y0316784D01*
X0573142Y0316767D01*
X0572666Y0316761D01*
X0021485Y0316761D02*
X0021009Y0316767D01*
X0020534Y0316784D01*
X0020059Y0316813D01*
X0019585Y0316853D01*
X0019112Y0316905D01*
X0018641Y0316968D01*
X0018171Y0317042D01*
X0017703Y0317128D01*
X0017237Y0317225D01*
X0016774Y0317333D01*
X0016314Y0317452D01*
X0015856Y0317583D01*
X0015402Y0317724D01*
X0014951Y0317877D01*
X0014505Y0318040D01*
X0014062Y0318214D01*
X0013624Y0318399D01*
X0013190Y0318594D01*
X0012761Y0318800D01*
X0012337Y0319016D01*
X0011918Y0319242D01*
X0011505Y0319478D01*
X0011098Y0319724D01*
X0010697Y0319980D01*
X0010303Y0320246D01*
X0009914Y0320521D01*
X0009533Y0320805D01*
X0009159Y0321098D01*
X0008791Y0321400D01*
X0008431Y0321712D01*
X0008079Y0322031D01*
X0007735Y0322359D01*
X0007398Y0322696D01*
X0007070Y0323040D01*
X0006751Y0323392D01*
X0006439Y0323752D01*
X0006137Y0324120D01*
X0005844Y0324494D01*
X0005560Y0324875D01*
X0005285Y0325264D01*
X0005019Y0325658D01*
X0004763Y0326059D01*
X0004517Y0326466D01*
X0004281Y0326879D01*
X0004055Y0327298D01*
X0003839Y0327722D01*
X0003633Y0328151D01*
X0003438Y0328585D01*
X0003253Y0329023D01*
X0003079Y0329466D01*
X0002916Y0329912D01*
X0002763Y0330363D01*
X0002622Y0330817D01*
X0002491Y0331275D01*
X0002372Y0331735D01*
X0002264Y0332198D01*
X0002167Y0332664D01*
X0002081Y0333132D01*
X0002007Y0333602D01*
X0001944Y0334073D01*
X0001892Y0334546D01*
X0001852Y0335020D01*
X0001823Y0335495D01*
X0001806Y0335970D01*
X0001800Y0336446D01*
D11*
X0007847Y0265483D02*
X0008914Y0264950D01*
X0009982Y0263882D01*
X0008380Y0263882D01*
X0007847Y0263348D01*
X0007847Y0262814D01*
X0008380Y0262281D01*
X0009448Y0262281D01*
X0009982Y0262814D01*
X0009982Y0263882D01*
X0011069Y0265483D02*
X0013205Y0265483D01*
X0012137Y0265483D02*
X0012137Y0262281D01*
X0014292Y0262814D02*
X0014292Y0265483D01*
X0016427Y0265483D02*
X0016427Y0262814D01*
X0015893Y0262281D01*
X0014826Y0262281D01*
X0014292Y0262814D01*
X0017515Y0262814D02*
X0018049Y0262281D01*
X0019116Y0262281D01*
X0019650Y0262814D01*
X0019650Y0264950D01*
X0019116Y0265483D01*
X0018049Y0265483D01*
X0017515Y0264950D01*
X0018049Y0257483D02*
X0019116Y0257483D01*
X0019650Y0256950D01*
X0019650Y0254814D01*
X0019116Y0254281D01*
X0018049Y0254281D01*
X0017515Y0254814D01*
X0016427Y0254814D02*
X0015893Y0254281D01*
X0014826Y0254281D01*
X0014292Y0254814D01*
X0014292Y0257483D01*
X0013205Y0257483D02*
X0011069Y0257483D01*
X0012137Y0257483D02*
X0012137Y0254281D01*
X0009982Y0254281D02*
X0007847Y0254281D01*
X0008914Y0254281D02*
X0008914Y0257483D01*
X0009982Y0256416D01*
X0006759Y0256950D02*
X0006225Y0257483D01*
X0005158Y0257483D01*
X0004624Y0256950D01*
X0004624Y0256416D01*
X0006759Y0254281D01*
X0004624Y0254281D01*
X0007847Y0249483D02*
X0009982Y0249483D01*
X0009982Y0247882D01*
X0008914Y0248416D01*
X0008380Y0248416D01*
X0007847Y0247882D01*
X0007847Y0246814D01*
X0008380Y0246281D01*
X0009448Y0246281D01*
X0009982Y0246814D01*
X0012137Y0246281D02*
X0012137Y0249483D01*
X0013205Y0249483D02*
X0011069Y0249483D01*
X0014292Y0249483D02*
X0014292Y0246814D01*
X0014826Y0246281D01*
X0015893Y0246281D01*
X0016427Y0246814D01*
X0016427Y0249483D01*
X0017515Y0248950D02*
X0018049Y0249483D01*
X0019116Y0249483D01*
X0019650Y0248950D01*
X0019650Y0246814D01*
X0019116Y0246281D01*
X0018049Y0246281D01*
X0017515Y0246814D01*
X0018049Y0241483D02*
X0019116Y0241483D01*
X0019650Y0240950D01*
X0019650Y0238814D01*
X0019116Y0238281D01*
X0018049Y0238281D01*
X0017515Y0238814D01*
X0016427Y0238814D02*
X0015893Y0238281D01*
X0014826Y0238281D01*
X0014292Y0238814D01*
X0014292Y0241483D01*
X0013205Y0241483D02*
X0011069Y0241483D01*
X0012137Y0241483D02*
X0012137Y0238281D01*
X0009982Y0238281D02*
X0007847Y0238281D01*
X0008914Y0238281D02*
X0008914Y0241483D01*
X0009982Y0240416D01*
X0006759Y0240416D02*
X0005691Y0241483D01*
X0005691Y0238281D01*
X0004624Y0238281D02*
X0006759Y0238281D01*
X0007847Y0233483D02*
X0007847Y0232950D01*
X0009982Y0230814D01*
X0009982Y0230281D01*
X0012137Y0230281D02*
X0012137Y0233483D01*
X0013205Y0233483D02*
X0011069Y0233483D01*
X0009982Y0233483D02*
X0007847Y0233483D01*
X0014292Y0233483D02*
X0014292Y0230814D01*
X0014826Y0230281D01*
X0015893Y0230281D01*
X0016427Y0230814D01*
X0016427Y0233483D01*
X0017515Y0232950D02*
X0018049Y0233483D01*
X0019116Y0233483D01*
X0019650Y0232950D01*
X0019650Y0230814D01*
X0019116Y0230281D01*
X0018049Y0230281D01*
X0017515Y0230814D01*
X0018049Y0225483D02*
X0019116Y0225483D01*
X0019650Y0224950D01*
X0019650Y0222814D01*
X0019116Y0222281D01*
X0018049Y0222281D01*
X0017515Y0222814D01*
X0016427Y0222814D02*
X0015893Y0222281D01*
X0014826Y0222281D01*
X0014292Y0222814D01*
X0014292Y0225483D01*
X0013205Y0225483D02*
X0011069Y0225483D01*
X0012137Y0225483D02*
X0012137Y0222281D01*
X0009982Y0222281D02*
X0007847Y0222281D01*
X0008914Y0222281D02*
X0008914Y0225483D01*
X0009982Y0224416D01*
X0016427Y0225483D02*
X0016427Y0222814D01*
X0017515Y0224950D02*
X0018049Y0225483D01*
X0016427Y0238814D02*
X0016427Y0241483D01*
X0017515Y0240950D02*
X0018049Y0241483D01*
X0016427Y0254814D02*
X0016427Y0257483D01*
X0017515Y0256950D02*
X0018049Y0257483D01*
X0090624Y0256950D02*
X0092759Y0254814D01*
X0092225Y0254281D01*
X0091158Y0254281D01*
X0090624Y0254814D01*
X0090624Y0256950D01*
X0091158Y0257483D01*
X0092225Y0257483D01*
X0092759Y0256950D01*
X0092759Y0254814D01*
X0093847Y0254281D02*
X0095982Y0254281D01*
X0094914Y0254281D02*
X0094914Y0257483D01*
X0095982Y0256416D01*
X0097069Y0257483D02*
X0099205Y0257483D01*
X0098137Y0257483D02*
X0098137Y0254281D01*
X0100292Y0254814D02*
X0100292Y0257483D01*
X0102427Y0257483D02*
X0102427Y0254814D01*
X0101893Y0254281D01*
X0100826Y0254281D01*
X0100292Y0254814D01*
X0103515Y0254814D02*
X0104049Y0254281D01*
X0105116Y0254281D01*
X0105650Y0254814D01*
X0105650Y0256950D01*
X0105116Y0257483D01*
X0104049Y0257483D01*
X0103515Y0256950D01*
X0104049Y0262281D02*
X0103515Y0262814D01*
X0104049Y0262281D02*
X0105116Y0262281D01*
X0105650Y0262814D01*
X0105650Y0264950D01*
X0105116Y0265483D01*
X0104049Y0265483D01*
X0103515Y0264950D01*
X0102427Y0265483D02*
X0102427Y0262814D01*
X0101893Y0262281D01*
X0100826Y0262281D01*
X0100292Y0262814D01*
X0100292Y0265483D01*
X0099205Y0265483D02*
X0097069Y0265483D01*
X0098137Y0265483D02*
X0098137Y0262281D01*
X0095982Y0263882D02*
X0093847Y0263882D01*
X0094380Y0262281D02*
X0094380Y0265483D01*
X0095982Y0263882D01*
X0095448Y0249483D02*
X0094380Y0249483D01*
X0093847Y0248950D01*
X0093847Y0248416D01*
X0094380Y0247882D01*
X0093847Y0247348D01*
X0093847Y0246814D01*
X0094380Y0246281D01*
X0095448Y0246281D01*
X0095982Y0246814D01*
X0094914Y0247882D02*
X0094380Y0247882D01*
X0095448Y0249483D02*
X0095982Y0248950D01*
X0097069Y0249483D02*
X0099205Y0249483D01*
X0098137Y0249483D02*
X0098137Y0246281D01*
X0100292Y0246814D02*
X0100292Y0249483D01*
X0102427Y0249483D02*
X0102427Y0246814D01*
X0101893Y0246281D01*
X0100826Y0246281D01*
X0100292Y0246814D01*
X0103515Y0246814D02*
X0104049Y0246281D01*
X0105116Y0246281D01*
X0105650Y0246814D01*
X0105650Y0248950D01*
X0105116Y0249483D01*
X0104049Y0249483D01*
X0103515Y0248950D01*
X0104049Y0241483D02*
X0105116Y0241483D01*
X0105650Y0240950D01*
X0105650Y0238814D01*
X0105116Y0238281D01*
X0104049Y0238281D01*
X0103515Y0238814D01*
X0102427Y0238814D02*
X0102427Y0241483D01*
X0103515Y0240950D02*
X0104049Y0241483D01*
X0102427Y0238814D02*
X0101893Y0238281D01*
X0100826Y0238281D01*
X0100292Y0238814D01*
X0100292Y0241483D01*
X0099205Y0241483D02*
X0097069Y0241483D01*
X0098137Y0241483D02*
X0098137Y0238281D01*
X0095982Y0238814D02*
X0095448Y0238281D01*
X0094380Y0238281D01*
X0093847Y0238814D01*
X0093847Y0240950D01*
X0094380Y0241483D01*
X0095448Y0241483D01*
X0095982Y0240950D01*
X0095982Y0240416D01*
X0095448Y0239882D01*
X0093847Y0239882D01*
X0094380Y0233483D02*
X0093847Y0232950D01*
X0093847Y0232416D01*
X0094380Y0231882D01*
X0095448Y0231882D01*
X0095982Y0232416D01*
X0095982Y0232950D01*
X0095448Y0233483D01*
X0094380Y0233483D01*
X0094380Y0231882D02*
X0093847Y0231348D01*
X0093847Y0230814D01*
X0094380Y0230281D01*
X0095448Y0230281D01*
X0095982Y0230814D01*
X0095982Y0231348D01*
X0095448Y0231882D01*
X0097069Y0233483D02*
X0099205Y0233483D01*
X0098137Y0233483D02*
X0098137Y0230281D01*
X0100292Y0230814D02*
X0100292Y0233483D01*
X0102427Y0233483D02*
X0102427Y0230814D01*
X0101893Y0230281D01*
X0100826Y0230281D01*
X0100292Y0230814D01*
X0103515Y0230814D02*
X0104049Y0230281D01*
X0105116Y0230281D01*
X0105650Y0230814D01*
X0105650Y0232950D01*
X0105116Y0233483D01*
X0104049Y0233483D01*
X0103515Y0232950D01*
X0104049Y0225483D02*
X0105116Y0225483D01*
X0105650Y0224950D01*
X0105650Y0222814D01*
X0105116Y0222281D01*
X0104049Y0222281D01*
X0103515Y0222814D01*
X0102427Y0222814D02*
X0101893Y0222281D01*
X0100826Y0222281D01*
X0100292Y0222814D01*
X0100292Y0225483D01*
X0099205Y0225483D02*
X0097069Y0225483D01*
X0098137Y0225483D02*
X0098137Y0222281D01*
X0095982Y0222281D02*
X0093847Y0224416D01*
X0093847Y0224950D01*
X0094380Y0225483D01*
X0095448Y0225483D01*
X0095982Y0224950D01*
X0095982Y0222281D02*
X0093847Y0222281D01*
X0102427Y0222814D02*
X0102427Y0225483D01*
X0103515Y0224950D02*
X0104049Y0225483D01*
X0125603Y0101483D02*
X0126671Y0101483D01*
X0127205Y0100950D01*
X0127205Y0100416D01*
X0126671Y0099882D01*
X0125069Y0099882D01*
X0125069Y0098814D02*
X0125069Y0100950D01*
X0125603Y0101483D01*
X0125069Y0098814D02*
X0125603Y0098281D01*
X0126671Y0098281D01*
X0127205Y0098814D01*
X0128292Y0098281D02*
X0129360Y0099348D01*
X0128826Y0099348D02*
X0130427Y0099348D01*
X0130427Y0098281D02*
X0130427Y0101483D01*
X0128826Y0101483D01*
X0128292Y0100950D01*
X0128292Y0099882D01*
X0128826Y0099348D01*
X0131515Y0099348D02*
X0131515Y0098814D01*
X0132049Y0098281D01*
X0133650Y0098281D01*
X0133650Y0101483D01*
X0132049Y0101483D01*
X0131515Y0100950D01*
X0131515Y0100416D01*
X0132049Y0099882D01*
X0133650Y0099882D01*
X0132049Y0099882D02*
X0131515Y0099348D01*
X0139069Y0099348D02*
X0139069Y0098814D01*
X0139603Y0098281D01*
X0140671Y0098281D01*
X0141205Y0098814D01*
X0141205Y0099348D01*
X0140671Y0099882D01*
X0139603Y0099882D01*
X0139069Y0099348D01*
X0139603Y0099882D02*
X0139069Y0100416D01*
X0139069Y0100950D01*
X0139603Y0101483D01*
X0140671Y0101483D01*
X0141205Y0100950D01*
X0141205Y0100416D01*
X0140671Y0099882D01*
X0142292Y0099882D02*
X0142826Y0099348D01*
X0144427Y0099348D01*
X0144427Y0098281D02*
X0144427Y0101483D01*
X0142826Y0101483D01*
X0142292Y0100950D01*
X0142292Y0099882D01*
X0143360Y0099348D02*
X0142292Y0098281D01*
X0145515Y0098814D02*
X0146049Y0098281D01*
X0147650Y0098281D01*
X0147650Y0101483D01*
X0146049Y0101483D01*
X0145515Y0100950D01*
X0145515Y0100416D01*
X0146049Y0099882D01*
X0147650Y0099882D01*
X0146049Y0099882D02*
X0145515Y0099348D01*
X0145515Y0098814D01*
X0153069Y0098814D02*
X0153603Y0098281D01*
X0154671Y0098281D01*
X0155205Y0098814D01*
X0155205Y0099882D02*
X0154137Y0100416D01*
X0153603Y0100416D01*
X0153069Y0099882D01*
X0153069Y0098814D01*
X0155205Y0099882D02*
X0155205Y0101483D01*
X0153069Y0101483D01*
X0156292Y0100950D02*
X0156826Y0101483D01*
X0158427Y0101483D01*
X0158427Y0098281D01*
X0158427Y0099348D02*
X0156826Y0099348D01*
X0156292Y0099882D01*
X0156292Y0100950D01*
X0157360Y0099348D02*
X0156292Y0098281D01*
X0159515Y0098814D02*
X0160049Y0098281D01*
X0161650Y0098281D01*
X0161650Y0101483D01*
X0160049Y0101483D01*
X0159515Y0100950D01*
X0159515Y0100416D01*
X0160049Y0099882D01*
X0161650Y0099882D01*
X0160049Y0099882D02*
X0159515Y0099348D01*
X0159515Y0098814D01*
X0153650Y0081483D02*
X0152049Y0081483D01*
X0151515Y0080950D01*
X0151515Y0080416D01*
X0152049Y0079882D01*
X0153650Y0079882D01*
X0153650Y0078281D02*
X0152049Y0078281D01*
X0151515Y0078814D01*
X0151515Y0079348D01*
X0152049Y0079882D01*
X0150427Y0079348D02*
X0148826Y0079348D01*
X0148292Y0079882D01*
X0148292Y0080950D01*
X0148826Y0081483D01*
X0150427Y0081483D01*
X0150427Y0078281D01*
X0149360Y0079348D02*
X0148292Y0078281D01*
X0147205Y0079882D02*
X0145069Y0079882D01*
X0145603Y0078281D02*
X0145603Y0081483D01*
X0147205Y0079882D01*
X0141650Y0079882D02*
X0140049Y0079882D01*
X0139515Y0079348D01*
X0139515Y0078814D01*
X0140049Y0078281D01*
X0141650Y0078281D01*
X0141650Y0081483D01*
X0140049Y0081483D01*
X0139515Y0080950D01*
X0139515Y0080416D01*
X0140049Y0079882D01*
X0138427Y0079348D02*
X0136826Y0079348D01*
X0136292Y0079882D01*
X0136292Y0080950D01*
X0136826Y0081483D01*
X0138427Y0081483D01*
X0138427Y0078281D01*
X0137360Y0079348D02*
X0136292Y0078281D01*
X0135205Y0078814D02*
X0134671Y0078281D01*
X0133603Y0078281D01*
X0133069Y0078814D01*
X0133069Y0079348D01*
X0133603Y0079882D01*
X0134137Y0079882D01*
X0133603Y0079882D02*
X0133069Y0080416D01*
X0133069Y0080950D01*
X0133603Y0081483D01*
X0134671Y0081483D01*
X0135205Y0080950D01*
X0153650Y0081483D02*
X0153650Y0078281D01*
X0232738Y0099314D02*
X0233271Y0098781D01*
X0234339Y0098781D01*
X0234873Y0099314D01*
X0234873Y0100382D02*
X0233805Y0100916D01*
X0233271Y0100916D01*
X0232738Y0100382D01*
X0232738Y0099314D01*
X0234873Y0100382D02*
X0234873Y0101983D01*
X0232738Y0101983D01*
X0237028Y0101983D02*
X0237028Y0098781D01*
X0238096Y0098781D02*
X0235960Y0098781D01*
X0238096Y0100916D02*
X0237028Y0101983D01*
X0239183Y0101450D02*
X0239183Y0100382D01*
X0239717Y0099848D01*
X0241318Y0099848D01*
X0241318Y0098781D02*
X0241318Y0101983D01*
X0239717Y0101983D01*
X0239183Y0101450D01*
X0240251Y0099848D02*
X0239183Y0098781D01*
X0242406Y0099314D02*
X0242940Y0098781D01*
X0244541Y0098781D01*
X0244541Y0101983D01*
X0242940Y0101983D01*
X0242406Y0101450D01*
X0242406Y0100916D01*
X0242940Y0100382D01*
X0244541Y0100382D01*
X0242940Y0100382D02*
X0242406Y0099848D01*
X0242406Y0099314D01*
X0247847Y0099882D02*
X0249982Y0099882D01*
X0248380Y0101483D01*
X0248380Y0098281D01*
X0251069Y0098281D02*
X0253205Y0098281D01*
X0252137Y0098281D02*
X0252137Y0101483D01*
X0253205Y0100416D01*
X0254292Y0100950D02*
X0254826Y0101483D01*
X0256427Y0101483D01*
X0256427Y0098281D01*
X0256427Y0099348D02*
X0254826Y0099348D01*
X0254292Y0099882D01*
X0254292Y0100950D01*
X0255360Y0099348D02*
X0254292Y0098281D01*
X0257515Y0098814D02*
X0258049Y0098281D01*
X0259650Y0098281D01*
X0259650Y0101483D01*
X0258049Y0101483D01*
X0257515Y0100950D01*
X0257515Y0100416D01*
X0258049Y0099882D01*
X0259650Y0099882D01*
X0258049Y0099882D02*
X0257515Y0099348D01*
X0257515Y0098814D01*
X0263847Y0098814D02*
X0264380Y0098281D01*
X0265448Y0098281D01*
X0265982Y0098814D01*
X0267069Y0098281D02*
X0269205Y0098281D01*
X0268137Y0098281D02*
X0268137Y0101483D01*
X0269205Y0100416D01*
X0270292Y0100950D02*
X0270292Y0099882D01*
X0270826Y0099348D01*
X0272427Y0099348D01*
X0272427Y0098281D02*
X0272427Y0101483D01*
X0270826Y0101483D01*
X0270292Y0100950D01*
X0271360Y0099348D02*
X0270292Y0098281D01*
X0273515Y0098814D02*
X0274049Y0098281D01*
X0275650Y0098281D01*
X0275650Y0101483D01*
X0274049Y0101483D01*
X0273515Y0100950D01*
X0273515Y0100416D01*
X0274049Y0099882D01*
X0275650Y0099882D01*
X0274049Y0099882D02*
X0273515Y0099348D01*
X0273515Y0098814D01*
X0265982Y0100950D02*
X0265448Y0101483D01*
X0264380Y0101483D01*
X0263847Y0100950D01*
X0263847Y0100416D01*
X0264380Y0099882D01*
X0263847Y0099348D01*
X0263847Y0098814D01*
X0264380Y0099882D02*
X0264914Y0099882D01*
X0265318Y0081983D02*
X0263717Y0081983D01*
X0263183Y0081450D01*
X0263183Y0080382D01*
X0263717Y0079848D01*
X0265318Y0079848D01*
X0265318Y0078781D02*
X0265318Y0081983D01*
X0266406Y0081450D02*
X0266406Y0080916D01*
X0266940Y0080382D01*
X0268541Y0080382D01*
X0268541Y0078781D02*
X0266940Y0078781D01*
X0266406Y0079314D01*
X0266406Y0079848D01*
X0266940Y0080382D01*
X0266406Y0081450D02*
X0266940Y0081983D01*
X0268541Y0081983D01*
X0268541Y0078781D01*
X0264251Y0079848D02*
X0263183Y0078781D01*
X0262096Y0078781D02*
X0259960Y0078781D01*
X0261028Y0078781D02*
X0261028Y0081983D01*
X0262096Y0080916D01*
X0258873Y0080916D02*
X0257805Y0081983D01*
X0257805Y0078781D01*
X0256738Y0078781D02*
X0258873Y0078781D01*
X0251650Y0078281D02*
X0250049Y0078281D01*
X0249515Y0078814D01*
X0249515Y0079348D01*
X0250049Y0079882D01*
X0251650Y0079882D01*
X0251650Y0078281D02*
X0251650Y0081483D01*
X0250049Y0081483D01*
X0249515Y0080950D01*
X0249515Y0080416D01*
X0250049Y0079882D01*
X0248427Y0079348D02*
X0246826Y0079348D01*
X0246292Y0079882D01*
X0246292Y0080950D01*
X0246826Y0081483D01*
X0248427Y0081483D01*
X0248427Y0078281D01*
X0247360Y0079348D02*
X0246292Y0078281D01*
X0245205Y0078281D02*
X0243069Y0078281D01*
X0244137Y0078281D02*
X0244137Y0081483D01*
X0245205Y0080416D01*
X0241982Y0080950D02*
X0241448Y0081483D01*
X0240380Y0081483D01*
X0239847Y0080950D01*
X0241982Y0078814D01*
X0241448Y0078281D01*
X0240380Y0078281D01*
X0239847Y0078814D01*
X0239847Y0080950D01*
X0241982Y0080950D02*
X0241982Y0078814D01*
X0322738Y0099314D02*
X0323271Y0098781D01*
X0324339Y0098781D01*
X0324873Y0099314D01*
X0324873Y0099848D01*
X0324339Y0100382D01*
X0323271Y0100382D01*
X0322738Y0099848D01*
X0322738Y0099314D01*
X0323271Y0100382D02*
X0322738Y0100916D01*
X0322738Y0101450D01*
X0323271Y0101983D01*
X0324339Y0101983D01*
X0324873Y0101450D01*
X0324873Y0100916D01*
X0324339Y0100382D01*
X0325960Y0098781D02*
X0328096Y0098781D01*
X0327028Y0098781D02*
X0327028Y0101983D01*
X0328096Y0100916D01*
X0329183Y0101450D02*
X0329183Y0100382D01*
X0329717Y0099848D01*
X0331318Y0099848D01*
X0331318Y0098781D02*
X0331318Y0101983D01*
X0329717Y0101983D01*
X0329183Y0101450D01*
X0330251Y0099848D02*
X0329183Y0098781D01*
X0332406Y0099314D02*
X0332940Y0098781D01*
X0334541Y0098781D01*
X0334541Y0101983D01*
X0332940Y0101983D01*
X0332406Y0101450D01*
X0332406Y0100916D01*
X0332940Y0100382D01*
X0334541Y0100382D01*
X0332940Y0100382D02*
X0332406Y0099848D01*
X0332406Y0099314D01*
X0337847Y0100950D02*
X0339982Y0098814D01*
X0339982Y0098281D01*
X0341069Y0098281D02*
X0343205Y0098281D01*
X0342137Y0098281D02*
X0342137Y0101483D01*
X0343205Y0100416D01*
X0344292Y0100950D02*
X0344826Y0101483D01*
X0346427Y0101483D01*
X0346427Y0098281D01*
X0346427Y0099348D02*
X0344826Y0099348D01*
X0344292Y0099882D01*
X0344292Y0100950D01*
X0345360Y0099348D02*
X0344292Y0098281D01*
X0347515Y0098814D02*
X0348049Y0098281D01*
X0349650Y0098281D01*
X0349650Y0101483D01*
X0348049Y0101483D01*
X0347515Y0100950D01*
X0347515Y0100416D01*
X0348049Y0099882D01*
X0349650Y0099882D01*
X0348049Y0099882D02*
X0347515Y0099348D01*
X0347515Y0098814D01*
X0339982Y0101483D02*
X0337847Y0101483D01*
X0337847Y0100950D01*
X0355847Y0101483D02*
X0356914Y0100950D01*
X0357982Y0099882D01*
X0356380Y0099882D01*
X0355847Y0099348D01*
X0355847Y0098814D01*
X0356380Y0098281D01*
X0357448Y0098281D01*
X0357982Y0098814D01*
X0357982Y0099882D01*
X0359069Y0098281D02*
X0361205Y0098281D01*
X0360137Y0098281D02*
X0360137Y0101483D01*
X0361205Y0100416D01*
X0362292Y0100950D02*
X0362826Y0101483D01*
X0364427Y0101483D01*
X0364427Y0098281D01*
X0364427Y0099348D02*
X0362826Y0099348D01*
X0362292Y0099882D01*
X0362292Y0100950D01*
X0363360Y0099348D02*
X0362292Y0098281D01*
X0365515Y0098814D02*
X0366049Y0098281D01*
X0367650Y0098281D01*
X0367650Y0101483D01*
X0366049Y0101483D01*
X0365515Y0100950D01*
X0365515Y0100416D01*
X0366049Y0099882D01*
X0367650Y0099882D01*
X0366049Y0099882D02*
X0365515Y0099348D01*
X0365515Y0098814D01*
X0358541Y0081983D02*
X0356940Y0081983D01*
X0356406Y0081450D01*
X0356406Y0080916D01*
X0356940Y0080382D01*
X0358541Y0080382D01*
X0358541Y0078781D02*
X0356940Y0078781D01*
X0356406Y0079314D01*
X0356406Y0079848D01*
X0356940Y0080382D01*
X0355318Y0079848D02*
X0353717Y0079848D01*
X0353183Y0080382D01*
X0353183Y0081450D01*
X0353717Y0081983D01*
X0355318Y0081983D01*
X0355318Y0078781D01*
X0354251Y0079848D02*
X0353183Y0078781D01*
X0352096Y0078781D02*
X0349960Y0080916D01*
X0349960Y0081450D01*
X0350494Y0081983D01*
X0351562Y0081983D01*
X0352096Y0081450D01*
X0352096Y0078781D02*
X0349960Y0078781D01*
X0348873Y0079314D02*
X0346738Y0081450D01*
X0346738Y0079314D01*
X0347271Y0078781D01*
X0348339Y0078781D01*
X0348873Y0079314D01*
X0348873Y0081450D01*
X0348339Y0081983D01*
X0347271Y0081983D01*
X0346738Y0081450D01*
X0341650Y0081483D02*
X0340049Y0081483D01*
X0339515Y0080950D01*
X0339515Y0080416D01*
X0340049Y0079882D01*
X0341650Y0079882D01*
X0341650Y0078281D02*
X0340049Y0078281D01*
X0339515Y0078814D01*
X0339515Y0079348D01*
X0340049Y0079882D01*
X0338427Y0079348D02*
X0336826Y0079348D01*
X0336292Y0079882D01*
X0336292Y0080950D01*
X0336826Y0081483D01*
X0338427Y0081483D01*
X0338427Y0078281D01*
X0337360Y0079348D02*
X0336292Y0078281D01*
X0335205Y0078281D02*
X0333069Y0078281D01*
X0334137Y0078281D02*
X0334137Y0081483D01*
X0335205Y0080416D01*
X0331982Y0080416D02*
X0331448Y0079882D01*
X0329847Y0079882D01*
X0329847Y0078814D02*
X0329847Y0080950D01*
X0330380Y0081483D01*
X0331448Y0081483D01*
X0331982Y0080950D01*
X0331982Y0080416D01*
X0331982Y0078814D02*
X0331448Y0078281D01*
X0330380Y0078281D01*
X0329847Y0078814D01*
X0341650Y0078281D02*
X0341650Y0081483D01*
X0358541Y0081983D02*
X0358541Y0078781D01*
X0430738Y0099314D02*
X0431271Y0098781D01*
X0432339Y0098781D01*
X0432873Y0099314D01*
X0432873Y0100382D02*
X0431805Y0100916D01*
X0431271Y0100916D01*
X0430738Y0100382D01*
X0430738Y0099314D01*
X0432873Y0100382D02*
X0432873Y0101983D01*
X0430738Y0101983D01*
X0433960Y0101450D02*
X0434494Y0101983D01*
X0435562Y0101983D01*
X0436096Y0101450D01*
X0437183Y0101450D02*
X0437183Y0100382D01*
X0437717Y0099848D01*
X0439318Y0099848D01*
X0439318Y0098781D02*
X0439318Y0101983D01*
X0437717Y0101983D01*
X0437183Y0101450D01*
X0438251Y0099848D02*
X0437183Y0098781D01*
X0436096Y0098781D02*
X0433960Y0100916D01*
X0433960Y0101450D01*
X0433960Y0098781D02*
X0436096Y0098781D01*
X0440406Y0099314D02*
X0440940Y0098781D01*
X0442541Y0098781D01*
X0442541Y0101983D01*
X0440940Y0101983D01*
X0440406Y0101450D01*
X0440406Y0100916D01*
X0440940Y0100382D01*
X0442541Y0100382D01*
X0440940Y0100382D02*
X0440406Y0099848D01*
X0440406Y0099314D01*
X0445847Y0099882D02*
X0447982Y0099882D01*
X0446380Y0101483D01*
X0446380Y0098281D01*
X0449069Y0098281D02*
X0451205Y0098281D01*
X0449069Y0100416D01*
X0449069Y0100950D01*
X0449603Y0101483D01*
X0450671Y0101483D01*
X0451205Y0100950D01*
X0452292Y0100950D02*
X0452292Y0099882D01*
X0452826Y0099348D01*
X0454427Y0099348D01*
X0454427Y0098281D02*
X0454427Y0101483D01*
X0452826Y0101483D01*
X0452292Y0100950D01*
X0453360Y0099348D02*
X0452292Y0098281D01*
X0455515Y0098814D02*
X0456049Y0098281D01*
X0457650Y0098281D01*
X0457650Y0101483D01*
X0456049Y0101483D01*
X0455515Y0100950D01*
X0455515Y0100416D01*
X0456049Y0099882D01*
X0457650Y0099882D01*
X0456049Y0099882D02*
X0455515Y0099348D01*
X0455515Y0098814D01*
X0461847Y0098814D02*
X0462380Y0098281D01*
X0463448Y0098281D01*
X0463982Y0098814D01*
X0465069Y0098281D02*
X0467205Y0098281D01*
X0465069Y0100416D01*
X0465069Y0100950D01*
X0465603Y0101483D01*
X0466671Y0101483D01*
X0467205Y0100950D01*
X0468292Y0100950D02*
X0468292Y0099882D01*
X0468826Y0099348D01*
X0470427Y0099348D01*
X0470427Y0098281D02*
X0470427Y0101483D01*
X0468826Y0101483D01*
X0468292Y0100950D01*
X0469360Y0099348D02*
X0468292Y0098281D01*
X0471515Y0098814D02*
X0472049Y0098281D01*
X0473650Y0098281D01*
X0473650Y0101483D01*
X0472049Y0101483D01*
X0471515Y0100950D01*
X0471515Y0100416D01*
X0472049Y0099882D01*
X0473650Y0099882D01*
X0472049Y0099882D02*
X0471515Y0099348D01*
X0471515Y0098814D01*
X0463982Y0100950D02*
X0463448Y0101483D01*
X0462380Y0101483D01*
X0461847Y0100950D01*
X0461847Y0100416D01*
X0462380Y0099882D01*
X0461847Y0099348D01*
X0461847Y0098814D01*
X0462380Y0099882D02*
X0462914Y0099882D01*
X0463318Y0081983D02*
X0461717Y0081983D01*
X0461183Y0081450D01*
X0461183Y0080382D01*
X0461717Y0079848D01*
X0463318Y0079848D01*
X0463318Y0078781D02*
X0463318Y0081983D01*
X0464406Y0081450D02*
X0464406Y0080916D01*
X0464940Y0080382D01*
X0466541Y0080382D01*
X0466541Y0078781D02*
X0464940Y0078781D01*
X0464406Y0079314D01*
X0464406Y0079848D01*
X0464940Y0080382D01*
X0464406Y0081450D02*
X0464940Y0081983D01*
X0466541Y0081983D01*
X0466541Y0078781D01*
X0462251Y0079848D02*
X0461183Y0078781D01*
X0460096Y0078781D02*
X0457960Y0080916D01*
X0457960Y0081450D01*
X0458494Y0081983D01*
X0459562Y0081983D01*
X0460096Y0081450D01*
X0460096Y0078781D02*
X0457960Y0078781D01*
X0456873Y0078781D02*
X0454738Y0080916D01*
X0454738Y0081450D01*
X0455271Y0081983D01*
X0456339Y0081983D01*
X0456873Y0081450D01*
X0456873Y0078781D02*
X0454738Y0078781D01*
X0449650Y0078281D02*
X0448049Y0078281D01*
X0447515Y0078814D01*
X0447515Y0079348D01*
X0448049Y0079882D01*
X0449650Y0079882D01*
X0449650Y0078281D02*
X0449650Y0081483D01*
X0448049Y0081483D01*
X0447515Y0080950D01*
X0447515Y0080416D01*
X0448049Y0079882D01*
X0446427Y0079348D02*
X0444826Y0079348D01*
X0444292Y0079882D01*
X0444292Y0080950D01*
X0444826Y0081483D01*
X0446427Y0081483D01*
X0446427Y0078281D01*
X0445360Y0079348D02*
X0444292Y0078281D01*
X0443205Y0078281D02*
X0441069Y0080416D01*
X0441069Y0080950D01*
X0441603Y0081483D01*
X0442671Y0081483D01*
X0443205Y0080950D01*
X0443205Y0078281D02*
X0441069Y0078281D01*
X0439982Y0078281D02*
X0437847Y0078281D01*
X0438914Y0078281D02*
X0438914Y0081483D01*
X0439982Y0080416D01*
X0516738Y0099314D02*
X0517271Y0098781D01*
X0518339Y0098781D01*
X0518873Y0099314D01*
X0516738Y0101450D01*
X0516738Y0099314D01*
X0518873Y0099314D02*
X0518873Y0101450D01*
X0518339Y0101983D01*
X0517271Y0101983D01*
X0516738Y0101450D01*
X0519960Y0101450D02*
X0519960Y0100916D01*
X0520494Y0100382D01*
X0519960Y0099848D01*
X0519960Y0099314D01*
X0520494Y0098781D01*
X0521562Y0098781D01*
X0522096Y0099314D01*
X0523183Y0098781D02*
X0524251Y0099848D01*
X0523717Y0099848D02*
X0525318Y0099848D01*
X0525318Y0098781D02*
X0525318Y0101983D01*
X0523717Y0101983D01*
X0523183Y0101450D01*
X0523183Y0100382D01*
X0523717Y0099848D01*
X0522096Y0101450D02*
X0521562Y0101983D01*
X0520494Y0101983D01*
X0519960Y0101450D01*
X0520494Y0100382D02*
X0521028Y0100382D01*
X0526406Y0099848D02*
X0526406Y0099314D01*
X0526940Y0098781D01*
X0528541Y0098781D01*
X0528541Y0101983D01*
X0526940Y0101983D01*
X0526406Y0101450D01*
X0526406Y0100916D01*
X0526940Y0100382D01*
X0528541Y0100382D01*
X0526940Y0100382D02*
X0526406Y0099848D01*
X0531847Y0099882D02*
X0533448Y0099882D01*
X0533982Y0100416D01*
X0533982Y0100950D01*
X0533448Y0101483D01*
X0532380Y0101483D01*
X0531847Y0100950D01*
X0531847Y0098814D01*
X0532380Y0098281D01*
X0533448Y0098281D01*
X0533982Y0098814D01*
X0535069Y0098281D02*
X0537205Y0098281D01*
X0535069Y0100416D01*
X0535069Y0100950D01*
X0535603Y0101483D01*
X0536671Y0101483D01*
X0537205Y0100950D01*
X0538292Y0100950D02*
X0538292Y0099882D01*
X0538826Y0099348D01*
X0540427Y0099348D01*
X0540427Y0098281D02*
X0540427Y0101483D01*
X0538826Y0101483D01*
X0538292Y0100950D01*
X0539360Y0099348D02*
X0538292Y0098281D01*
X0541515Y0098814D02*
X0542049Y0098281D01*
X0543650Y0098281D01*
X0543650Y0101483D01*
X0542049Y0101483D01*
X0541515Y0100950D01*
X0541515Y0100416D01*
X0542049Y0099882D01*
X0543650Y0099882D01*
X0542049Y0099882D02*
X0541515Y0099348D01*
X0541515Y0098814D01*
X0547847Y0098814D02*
X0548380Y0098281D01*
X0549448Y0098281D01*
X0549982Y0098814D01*
X0549982Y0099348D01*
X0549448Y0099882D01*
X0548380Y0099882D01*
X0547847Y0099348D01*
X0547847Y0098814D01*
X0548380Y0099882D02*
X0547847Y0100416D01*
X0547847Y0100950D01*
X0548380Y0101483D01*
X0549448Y0101483D01*
X0549982Y0100950D01*
X0549982Y0100416D01*
X0549448Y0099882D01*
X0551069Y0100416D02*
X0551069Y0100950D01*
X0551603Y0101483D01*
X0552671Y0101483D01*
X0553205Y0100950D01*
X0554292Y0100950D02*
X0554292Y0099882D01*
X0554826Y0099348D01*
X0556427Y0099348D01*
X0556427Y0098281D02*
X0556427Y0101483D01*
X0554826Y0101483D01*
X0554292Y0100950D01*
X0555360Y0099348D02*
X0554292Y0098281D01*
X0553205Y0098281D02*
X0551069Y0100416D01*
X0551069Y0098281D02*
X0553205Y0098281D01*
X0557515Y0098814D02*
X0558049Y0098281D01*
X0559650Y0098281D01*
X0559650Y0101483D01*
X0558049Y0101483D01*
X0557515Y0100950D01*
X0557515Y0100416D01*
X0558049Y0099882D01*
X0559650Y0099882D01*
X0558049Y0099882D02*
X0557515Y0099348D01*
X0557515Y0098814D01*
X0554541Y0081983D02*
X0552940Y0081983D01*
X0552406Y0081450D01*
X0552406Y0080916D01*
X0552940Y0080382D01*
X0554541Y0080382D01*
X0554541Y0078781D02*
X0552940Y0078781D01*
X0552406Y0079314D01*
X0552406Y0079848D01*
X0552940Y0080382D01*
X0551318Y0079848D02*
X0549717Y0079848D01*
X0549183Y0080382D01*
X0549183Y0081450D01*
X0549717Y0081983D01*
X0551318Y0081983D01*
X0551318Y0078781D01*
X0550251Y0079848D02*
X0549183Y0078781D01*
X0548096Y0078781D02*
X0545960Y0080916D01*
X0545960Y0081450D01*
X0546494Y0081983D01*
X0547562Y0081983D01*
X0548096Y0081450D01*
X0548096Y0078781D02*
X0545960Y0078781D01*
X0544873Y0078781D02*
X0544873Y0079314D01*
X0542738Y0081450D01*
X0542738Y0081983D01*
X0544873Y0081983D01*
X0554541Y0081983D02*
X0554541Y0078781D01*
X0535650Y0078281D02*
X0534049Y0078281D01*
X0533515Y0078814D01*
X0533515Y0079348D01*
X0534049Y0079882D01*
X0535650Y0079882D01*
X0535650Y0078281D02*
X0535650Y0081483D01*
X0534049Y0081483D01*
X0533515Y0080950D01*
X0533515Y0080416D01*
X0534049Y0079882D01*
X0532427Y0079348D02*
X0530826Y0079348D01*
X0530292Y0079882D01*
X0530292Y0080950D01*
X0530826Y0081483D01*
X0532427Y0081483D01*
X0532427Y0078281D01*
X0531360Y0079348D02*
X0530292Y0078281D01*
X0529205Y0078281D02*
X0527069Y0080416D01*
X0527069Y0080950D01*
X0527603Y0081483D01*
X0528671Y0081483D01*
X0529205Y0080950D01*
X0529205Y0078281D02*
X0527069Y0078281D01*
X0525982Y0078814D02*
X0525448Y0078281D01*
X0524380Y0078281D01*
X0523847Y0078814D01*
X0523847Y0079348D01*
X0524380Y0079882D01*
X0525982Y0079882D01*
X0525982Y0078814D01*
X0525982Y0079882D02*
X0524914Y0080950D01*
X0523847Y0081483D01*
X0524601Y0338911D02*
X0524601Y0339528D01*
X0522132Y0341997D01*
X0522132Y0342614D01*
X0524601Y0342614D01*
X0524597Y0344911D02*
X0522746Y0344911D01*
X0521531Y0345528D02*
X0520914Y0344911D01*
X0519680Y0344911D01*
X0519063Y0345528D01*
X0519063Y0346762D01*
X0519680Y0347379D01*
X0520914Y0347379D01*
X0521531Y0346762D01*
X0521531Y0345528D01*
X0522746Y0347379D02*
X0524597Y0347379D01*
X0525214Y0346762D01*
X0525214Y0345528D01*
X0524597Y0344911D01*
X0526432Y0347379D02*
X0527049Y0347379D01*
X0528284Y0346145D01*
X0529498Y0346145D02*
X0531350Y0346145D01*
X0531967Y0345528D01*
X0531350Y0344911D01*
X0529498Y0344911D01*
X0529498Y0346762D01*
X0530115Y0347379D01*
X0531350Y0347379D01*
X0533181Y0348614D02*
X0533181Y0344911D01*
X0533798Y0342614D02*
X0535033Y0342614D01*
X0535650Y0341997D01*
X0533798Y0342614D02*
X0533181Y0341997D01*
X0533181Y0341379D01*
X0535650Y0338911D01*
X0533181Y0338911D01*
X0531967Y0339528D02*
X0529498Y0341997D01*
X0529498Y0339528D01*
X0530115Y0338911D01*
X0531350Y0338911D01*
X0531967Y0339528D01*
X0531967Y0341997D01*
X0531350Y0342614D01*
X0530115Y0342614D01*
X0529498Y0341997D01*
X0528284Y0341379D02*
X0527049Y0342614D01*
X0527049Y0338911D01*
X0525815Y0338911D02*
X0528284Y0338911D01*
X0528284Y0344911D02*
X0528284Y0347379D01*
X0528284Y0350911D02*
X0526432Y0350911D01*
X0525815Y0351528D01*
X0525815Y0352762D01*
X0526432Y0353379D01*
X0528284Y0353379D01*
X0528284Y0354614D02*
X0528284Y0350911D01*
X0529498Y0351528D02*
X0529498Y0352762D01*
X0530115Y0353379D01*
X0531350Y0353379D01*
X0531967Y0352762D01*
X0531967Y0351528D01*
X0531350Y0350911D01*
X0530115Y0350911D01*
X0529498Y0351528D01*
X0533181Y0350911D02*
X0534416Y0352145D01*
X0533798Y0352145D02*
X0535650Y0352145D01*
X0535650Y0350911D02*
X0535650Y0354614D01*
X0533798Y0354614D01*
X0533181Y0353997D01*
X0533181Y0352762D01*
X0533798Y0352145D01*
X0533181Y0348614D02*
X0534416Y0347379D01*
X0535650Y0348614D01*
X0535650Y0344911D01*
X0524601Y0351528D02*
X0524601Y0352762D01*
X0523983Y0353379D01*
X0522749Y0353379D01*
X0522132Y0352762D01*
X0522132Y0352145D01*
X0524601Y0352145D01*
X0524601Y0351528D02*
X0523983Y0350911D01*
X0522749Y0350911D01*
X0520917Y0350911D02*
X0520917Y0353379D01*
X0519683Y0353379D02*
X0519066Y0353379D01*
X0519683Y0353379D02*
X0520917Y0352145D01*
X0517848Y0353379D02*
X0516614Y0353379D01*
X0517231Y0353997D02*
X0517231Y0351528D01*
X0516614Y0350911D01*
X0515393Y0350911D02*
X0513541Y0350911D01*
X0512924Y0351528D01*
X0513541Y0352145D01*
X0514776Y0352145D01*
X0515393Y0352762D01*
X0514776Y0353379D01*
X0512924Y0353379D01*
X0512313Y0348614D02*
X0513548Y0348614D01*
X0514165Y0347997D01*
X0514165Y0347379D01*
X0513548Y0346762D01*
X0512313Y0346762D01*
X0511696Y0346145D01*
X0511696Y0345528D01*
X0512313Y0344911D01*
X0513548Y0344911D01*
X0514165Y0345528D01*
X0514766Y0342614D02*
X0517234Y0340145D01*
X0516617Y0340762D02*
X0514766Y0338911D01*
X0512317Y0338911D02*
X0512317Y0342614D01*
X0513551Y0342614D02*
X0511082Y0342614D01*
X0509868Y0342614D02*
X0509868Y0338911D01*
X0509868Y0340762D02*
X0507399Y0340762D01*
X0507399Y0338911D02*
X0507399Y0342614D01*
X0506182Y0344911D02*
X0506799Y0345528D01*
X0506182Y0346145D01*
X0504330Y0346145D01*
X0504330Y0346762D02*
X0504330Y0344911D01*
X0506182Y0344911D01*
X0508013Y0345528D02*
X0508630Y0344911D01*
X0510482Y0344911D01*
X0510482Y0343676D02*
X0510482Y0347379D01*
X0508630Y0347379D01*
X0508013Y0346762D01*
X0508013Y0345528D01*
X0506182Y0347379D02*
X0504947Y0347379D01*
X0504330Y0346762D01*
X0503116Y0347379D02*
X0501264Y0347379D01*
X0500647Y0346762D01*
X0500647Y0344911D01*
X0499432Y0345528D02*
X0498815Y0344911D01*
X0496964Y0344911D01*
X0496964Y0344293D02*
X0496964Y0347379D01*
X0498815Y0347379D01*
X0499432Y0346762D01*
X0499432Y0345528D01*
X0498198Y0343676D02*
X0497581Y0343676D01*
X0496964Y0344293D01*
X0495749Y0344911D02*
X0495749Y0348614D01*
X0495132Y0347379D02*
X0493898Y0347379D01*
X0493280Y0346762D01*
X0493280Y0344911D01*
X0492066Y0345528D02*
X0492066Y0346762D01*
X0491449Y0347379D01*
X0490215Y0347379D01*
X0489597Y0346762D01*
X0489597Y0346145D01*
X0492066Y0346145D01*
X0492066Y0345528D02*
X0491449Y0344911D01*
X0490215Y0344911D01*
X0488383Y0344911D02*
X0488383Y0347379D01*
X0488383Y0346145D02*
X0487149Y0347379D01*
X0486531Y0347379D01*
X0485314Y0346762D02*
X0485314Y0345528D01*
X0484697Y0344911D01*
X0483462Y0344911D01*
X0482845Y0345528D01*
X0482845Y0346762D01*
X0483462Y0347379D01*
X0484697Y0347379D01*
X0485314Y0346762D01*
X0485928Y0350911D02*
X0484076Y0350911D01*
X0483459Y0351528D01*
X0484076Y0352145D01*
X0485310Y0352145D01*
X0485928Y0352762D01*
X0485310Y0353379D01*
X0483459Y0353379D01*
X0487149Y0352762D02*
X0488383Y0352762D01*
X0489597Y0353379D02*
X0489597Y0350911D01*
X0491449Y0350911D01*
X0492066Y0351528D01*
X0492066Y0353379D01*
X0493281Y0352762D02*
X0493281Y0350911D01*
X0495132Y0350911D01*
X0495749Y0351528D01*
X0495132Y0352145D01*
X0493281Y0352145D01*
X0493281Y0352762D02*
X0493898Y0353379D01*
X0495132Y0353379D01*
X0497588Y0354614D02*
X0497588Y0350911D01*
X0498205Y0350911D02*
X0496970Y0350911D01*
X0499426Y0350911D02*
X0500043Y0351528D01*
X0500043Y0353997D01*
X0500660Y0353379D02*
X0499426Y0353379D01*
X0498205Y0354614D02*
X0497588Y0354614D01*
X0501875Y0352762D02*
X0502492Y0353379D01*
X0503726Y0353379D01*
X0504343Y0352762D01*
X0504343Y0351528D01*
X0503726Y0350911D01*
X0502492Y0350911D01*
X0501875Y0351528D01*
X0501875Y0352762D01*
X0505558Y0352762D02*
X0506792Y0352762D01*
X0505558Y0352762D02*
X0505558Y0351528D01*
X0506175Y0350911D01*
X0507409Y0350911D01*
X0508026Y0351528D01*
X0508026Y0353997D01*
X0507409Y0354614D01*
X0506175Y0354614D01*
X0505558Y0353997D01*
X0503116Y0347379D02*
X0503116Y0344911D01*
X0503716Y0342614D02*
X0506185Y0338911D01*
X0502502Y0338911D02*
X0502502Y0342614D01*
X0500650Y0342614D01*
X0500033Y0341997D01*
X0500033Y0340762D01*
X0500650Y0340145D01*
X0502502Y0340145D01*
X0501267Y0340145D02*
X0500033Y0338911D01*
X0497584Y0338911D02*
X0497584Y0342614D01*
X0496350Y0342614D02*
X0498819Y0342614D01*
X0495135Y0342614D02*
X0495135Y0339528D01*
X0494518Y0338911D01*
X0493284Y0338911D01*
X0492667Y0339528D01*
X0492667Y0342614D01*
X0495749Y0346762D02*
X0495132Y0347379D01*
X0487766Y0350911D02*
X0487766Y0353997D01*
X0487149Y0354614D01*
X0511696Y0347997D02*
X0512313Y0348614D01*
X0517234Y0342614D02*
X0517234Y0338911D01*
X0073650Y0101483D02*
X0073650Y0098281D01*
X0072049Y0098281D01*
X0071515Y0098814D01*
X0071515Y0099348D01*
X0072049Y0099882D01*
X0073650Y0099882D01*
X0072049Y0099882D02*
X0071515Y0100416D01*
X0071515Y0100950D01*
X0072049Y0101483D01*
X0073650Y0101483D01*
X0070427Y0101483D02*
X0070427Y0098281D01*
X0070427Y0099348D02*
X0068826Y0099348D01*
X0068292Y0099882D01*
X0068292Y0100950D01*
X0068826Y0101483D01*
X0070427Y0101483D01*
X0069360Y0099348D02*
X0068292Y0098281D01*
X0067205Y0098281D02*
X0065069Y0098281D01*
X0066137Y0098281D02*
X0066137Y0101483D01*
X0067205Y0100416D01*
X0059650Y0099882D02*
X0058049Y0099882D01*
X0057515Y0099348D01*
X0057515Y0098814D01*
X0058049Y0098281D01*
X0059650Y0098281D01*
X0059650Y0101483D01*
X0058049Y0101483D01*
X0057515Y0100950D01*
X0057515Y0100416D01*
X0058049Y0099882D01*
X0056427Y0099348D02*
X0054826Y0099348D01*
X0054292Y0099882D01*
X0054292Y0100950D01*
X0054826Y0101483D01*
X0056427Y0101483D01*
X0056427Y0098281D01*
X0055360Y0099348D02*
X0054292Y0098281D01*
X0053205Y0098814D02*
X0052671Y0098281D01*
X0051603Y0098281D01*
X0051069Y0098814D01*
X0051069Y0099348D01*
X0051603Y0099882D01*
X0053205Y0099882D01*
X0053205Y0098814D01*
X0053205Y0099882D02*
X0052137Y0100950D01*
X0051069Y0101483D01*
X0046541Y0101983D02*
X0046541Y0098781D01*
X0044940Y0098781D01*
X0044406Y0099314D01*
X0044406Y0099848D01*
X0044940Y0100382D01*
X0046541Y0100382D01*
X0044940Y0100382D02*
X0044406Y0100916D01*
X0044406Y0101450D01*
X0044940Y0101983D01*
X0046541Y0101983D01*
X0043318Y0101983D02*
X0041717Y0101983D01*
X0041183Y0101450D01*
X0041183Y0100382D01*
X0041717Y0099848D01*
X0043318Y0099848D01*
X0043318Y0098781D02*
X0043318Y0101983D01*
X0042251Y0099848D02*
X0041183Y0098781D01*
X0040096Y0098781D02*
X0037960Y0098781D01*
X0039028Y0098781D02*
X0039028Y0101983D01*
X0040096Y0100916D01*
X0036873Y0101450D02*
X0036339Y0101983D01*
X0035271Y0101983D01*
X0034738Y0101450D01*
X0034738Y0100916D01*
X0036873Y0098781D01*
X0034738Y0098781D01*
X0045069Y0081483D02*
X0045069Y0080950D01*
X0047205Y0078814D01*
X0047205Y0078281D01*
X0048292Y0078281D02*
X0049360Y0079348D01*
X0048826Y0079348D02*
X0050427Y0079348D01*
X0050427Y0078281D02*
X0050427Y0081483D01*
X0048826Y0081483D01*
X0048292Y0080950D01*
X0048292Y0079882D01*
X0048826Y0079348D01*
X0047205Y0081483D02*
X0045069Y0081483D01*
X0051515Y0080950D02*
X0051515Y0080416D01*
X0052049Y0079882D01*
X0053650Y0079882D01*
X0053650Y0078281D02*
X0052049Y0078281D01*
X0051515Y0078814D01*
X0051515Y0079348D01*
X0052049Y0079882D01*
X0051515Y0080950D02*
X0052049Y0081483D01*
X0053650Y0081483D01*
X0053650Y0078281D01*
X0058738Y0078781D02*
X0060873Y0078781D01*
X0058738Y0080916D01*
X0058738Y0081450D01*
X0059271Y0081983D01*
X0060339Y0081983D01*
X0060873Y0081450D01*
X0061960Y0081450D02*
X0061960Y0080382D01*
X0062494Y0079848D01*
X0064096Y0079848D01*
X0064096Y0078781D02*
X0064096Y0081983D01*
X0062494Y0081983D01*
X0061960Y0081450D01*
X0063028Y0079848D02*
X0061960Y0078781D01*
X0065183Y0079314D02*
X0065717Y0078781D01*
X0067318Y0078781D01*
X0067318Y0081983D01*
X0065717Y0081983D01*
X0065183Y0081450D01*
X0065183Y0080916D01*
X0065717Y0080382D01*
X0067318Y0080382D01*
X0065717Y0080382D02*
X0065183Y0079848D01*
X0065183Y0079314D01*
D12*
X0452506Y0359061D02*
X0455709Y0361196D01*
X0452506Y0363331D01*
X0455709Y0365466D02*
X0455709Y0359061D01*
X0457884Y0359061D02*
X0461086Y0359061D01*
X0462154Y0360128D01*
X0462154Y0362263D01*
X0461086Y0363331D01*
X0457884Y0363331D01*
X0464329Y0362263D02*
X0464329Y0360128D01*
X0465397Y0359061D01*
X0467532Y0359061D01*
X0468600Y0360128D01*
X0468600Y0362263D01*
X0467532Y0363331D01*
X0465397Y0363331D01*
X0464329Y0362263D01*
X0470761Y0359061D02*
X0472897Y0359061D01*
X0471829Y0359061D02*
X0471829Y0365466D01*
X0472897Y0365466D01*
X0475072Y0363331D02*
X0478274Y0363331D01*
X0479342Y0362263D01*
X0479342Y0360128D01*
X0478274Y0359061D01*
X0475072Y0359061D01*
X0487963Y0360128D02*
X0487963Y0364399D01*
X0489030Y0365466D01*
X0492233Y0365466D01*
X0492233Y0359061D01*
X0489030Y0359061D01*
X0487963Y0360128D01*
X0494408Y0365466D02*
X0498679Y0365466D01*
X0498679Y0359061D01*
X0500854Y0361196D02*
X0500854Y0365466D01*
X0498679Y0362263D02*
X0496543Y0362263D01*
X0500854Y0361196D02*
X0502989Y0359061D01*
X0505124Y0361196D01*
X0505124Y0365466D01*
X0507299Y0365466D02*
X0511570Y0359061D01*
X0513745Y0361196D02*
X0513745Y0362263D01*
X0514812Y0363331D01*
X0516947Y0363331D01*
X0518015Y0362263D01*
X0518015Y0360128D01*
X0516947Y0359061D01*
X0514812Y0359061D01*
X0513745Y0361196D02*
X0518015Y0361196D01*
X0520177Y0359061D02*
X0522312Y0359061D01*
X0521244Y0359061D02*
X0521244Y0363331D01*
X0522312Y0363331D01*
X0524487Y0363331D02*
X0528758Y0359061D01*
X0530919Y0359061D02*
X0533055Y0359061D01*
X0531987Y0359061D02*
X0531987Y0363331D01*
X0533055Y0363331D01*
X0531987Y0365466D02*
X0531987Y0366534D01*
X0535230Y0365466D02*
X0535230Y0359061D01*
X0539500Y0365466D01*
X0539500Y0359061D01*
X0528758Y0363331D02*
X0524487Y0359061D01*
X0521244Y0365466D02*
X0521244Y0366534D01*
D13*
X0304950Y0239989D02*
X0304950Y0228178D01*
X0297076Y0228178D01*
X0297076Y0239989D02*
X0304950Y0239989D01*
X0281328Y0224241D02*
X0273454Y0224241D01*
X0273454Y0212430D01*
X0281328Y0212430D01*
X0297076Y0204556D02*
X0304950Y0204556D01*
X0304950Y0192745D01*
X0297076Y0192745D01*
D14*
X0307076Y0200561D02*
X0310146Y0197492D01*
X0310146Y0196724D01*
X0311680Y0197492D02*
X0311680Y0200561D01*
X0312448Y0201328D01*
X0314750Y0201328D01*
X0314750Y0196724D01*
X0312448Y0196724D01*
X0311680Y0197492D01*
X0310146Y0201328D02*
X0307076Y0201328D01*
X0307076Y0200561D01*
X0307556Y0215661D02*
X0306788Y0216429D01*
X0306788Y0217196D01*
X0307556Y0217963D01*
X0309857Y0217963D01*
X0309857Y0216429D01*
X0309090Y0215661D01*
X0307556Y0215661D01*
X0309857Y0217963D02*
X0308323Y0219498D01*
X0306788Y0220265D01*
X0311392Y0219498D02*
X0312159Y0220265D01*
X0314461Y0220265D01*
X0314461Y0215661D01*
X0312159Y0215661D01*
X0311392Y0216429D01*
X0311392Y0219498D01*
X0312448Y0232157D02*
X0311680Y0232925D01*
X0311680Y0235994D01*
X0312448Y0236761D01*
X0314750Y0236761D01*
X0314750Y0232157D01*
X0312448Y0232157D01*
X0310146Y0232925D02*
X0309378Y0232157D01*
X0307844Y0232157D01*
X0307076Y0232925D01*
X0307076Y0234459D01*
X0307844Y0235227D01*
X0308611Y0235227D01*
X0310146Y0234459D01*
X0310146Y0236761D01*
X0307076Y0236761D01*
X0303374Y0120965D02*
X0302440Y0120965D01*
X0301973Y0120498D01*
X0301973Y0120030D01*
X0302440Y0119563D01*
X0301973Y0119096D01*
X0301973Y0118629D01*
X0302440Y0118162D01*
X0303374Y0118162D01*
X0303841Y0118629D01*
X0302907Y0119563D02*
X0302440Y0119563D01*
X0303841Y0120498D02*
X0303374Y0120965D01*
X0309221Y0117829D02*
X0312290Y0114759D01*
X0311522Y0113992D01*
X0309988Y0113992D01*
X0309221Y0114759D01*
X0309221Y0117829D01*
X0309988Y0118596D01*
X0311522Y0118596D01*
X0312290Y0117829D01*
X0312290Y0114759D01*
X0313824Y0113992D02*
X0316894Y0113992D01*
X0313824Y0117061D01*
X0313824Y0117829D01*
X0314592Y0118596D01*
X0316126Y0118596D01*
X0316894Y0117829D01*
X0318428Y0117829D02*
X0319196Y0118596D01*
X0320730Y0118596D01*
X0321498Y0117829D01*
X0321498Y0114759D01*
X0320730Y0113992D01*
X0319196Y0113992D01*
X0318428Y0114759D01*
X0296083Y0103766D02*
X0296083Y0099930D01*
X0295316Y0099162D01*
X0293781Y0099162D01*
X0293014Y0099930D01*
X0293014Y0103766D01*
X0291480Y0102999D02*
X0290712Y0103766D01*
X0289178Y0103766D01*
X0288410Y0102999D01*
X0288410Y0102231D01*
X0289178Y0101464D01*
X0288410Y0100697D01*
X0288410Y0099930D01*
X0289178Y0099162D01*
X0290712Y0099162D01*
X0291480Y0099930D01*
X0289945Y0101464D02*
X0289178Y0101464D01*
X0286229Y0118162D02*
X0284361Y0118162D01*
X0285295Y0118162D02*
X0285295Y0120965D01*
X0286229Y0120030D01*
X0292873Y0120067D02*
X0292873Y0120535D01*
X0293340Y0121002D01*
X0294274Y0121002D01*
X0294741Y0120535D01*
X0292873Y0120067D02*
X0294741Y0118199D01*
X0292873Y0118199D01*
X0305921Y0093965D02*
X0307322Y0092563D01*
X0305454Y0092563D01*
X0305921Y0091162D02*
X0305921Y0093965D01*
X0330500Y0073296D02*
X0330500Y0070227D01*
X0330500Y0071761D02*
X0335104Y0071761D01*
X0333569Y0070227D01*
X0332035Y0068692D02*
X0331267Y0068692D01*
X0330500Y0067925D01*
X0330500Y0066390D01*
X0331267Y0065623D01*
X0332802Y0065623D01*
X0332802Y0067925D01*
X0332035Y0068692D01*
X0334337Y0067157D02*
X0332802Y0065623D01*
X0332802Y0064088D02*
X0332035Y0063321D01*
X0332035Y0061019D01*
X0332035Y0062554D02*
X0330500Y0064088D01*
X0332802Y0064088D02*
X0334337Y0064088D01*
X0335104Y0063321D01*
X0335104Y0061019D01*
X0330500Y0061019D01*
X0334337Y0067157D02*
X0335104Y0068692D01*
X0338500Y0067925D02*
X0339267Y0068692D01*
X0340035Y0068692D01*
X0340802Y0067925D01*
X0340802Y0065623D01*
X0339267Y0065623D01*
X0338500Y0066390D01*
X0338500Y0067925D01*
X0338500Y0070227D02*
X0341569Y0073296D01*
X0342337Y0073296D01*
X0343104Y0072529D01*
X0343104Y0070994D01*
X0342337Y0070227D01*
X0343104Y0068692D02*
X0342337Y0067157D01*
X0340802Y0065623D01*
X0340802Y0064088D02*
X0340035Y0063321D01*
X0340035Y0061019D01*
X0340035Y0062554D02*
X0338500Y0064088D01*
X0340802Y0064088D02*
X0342337Y0064088D01*
X0343104Y0063321D01*
X0343104Y0061019D01*
X0338500Y0061019D01*
X0346500Y0061019D02*
X0351104Y0061019D01*
X0351104Y0063321D01*
X0350337Y0064088D01*
X0348802Y0064088D01*
X0348035Y0063321D01*
X0348035Y0061019D01*
X0348035Y0062554D02*
X0346500Y0064088D01*
X0347267Y0065623D02*
X0346500Y0066390D01*
X0346500Y0067925D01*
X0347267Y0068692D01*
X0348035Y0068692D01*
X0348802Y0067925D01*
X0348802Y0065623D01*
X0347267Y0065623D01*
X0348802Y0065623D02*
X0350337Y0067157D01*
X0351104Y0068692D01*
X0350337Y0070227D02*
X0349569Y0070227D01*
X0348802Y0070994D01*
X0348802Y0072529D01*
X0348035Y0073296D01*
X0347267Y0073296D01*
X0346500Y0072529D01*
X0346500Y0070994D01*
X0347267Y0070227D01*
X0348035Y0070227D01*
X0348802Y0070994D01*
X0348802Y0072529D02*
X0349569Y0073296D01*
X0350337Y0073296D01*
X0351104Y0072529D01*
X0351104Y0070994D01*
X0350337Y0070227D01*
X0354500Y0070227D02*
X0355267Y0070227D01*
X0358337Y0073296D01*
X0359104Y0073296D01*
X0359104Y0070227D01*
X0359104Y0068692D02*
X0358337Y0067157D01*
X0356802Y0065623D01*
X0356802Y0067925D01*
X0356035Y0068692D01*
X0355267Y0068692D01*
X0354500Y0067925D01*
X0354500Y0066390D01*
X0355267Y0065623D01*
X0356802Y0065623D01*
X0356802Y0064088D02*
X0356035Y0063321D01*
X0356035Y0061019D01*
X0356035Y0062554D02*
X0354500Y0064088D01*
X0356802Y0064088D02*
X0358337Y0064088D01*
X0359104Y0063321D01*
X0359104Y0061019D01*
X0354500Y0061019D01*
X0362500Y0061019D02*
X0367104Y0061019D01*
X0367104Y0063321D01*
X0366337Y0064088D01*
X0364802Y0064088D01*
X0364035Y0063321D01*
X0364035Y0061019D01*
X0364035Y0062554D02*
X0362500Y0064088D01*
X0363267Y0065623D02*
X0362500Y0066390D01*
X0362500Y0067925D01*
X0363267Y0068692D01*
X0364035Y0068692D01*
X0364802Y0067925D01*
X0364802Y0065623D01*
X0363267Y0065623D01*
X0364802Y0065623D02*
X0366337Y0067157D01*
X0367104Y0068692D01*
X0364802Y0070227D02*
X0364802Y0072529D01*
X0364035Y0073296D01*
X0363267Y0073296D01*
X0362500Y0072529D01*
X0362500Y0070994D01*
X0363267Y0070227D01*
X0364802Y0070227D01*
X0366337Y0071761D01*
X0367104Y0073296D01*
X0370500Y0072529D02*
X0370500Y0070994D01*
X0371267Y0070227D01*
X0371267Y0068692D02*
X0372035Y0068692D01*
X0372802Y0067925D01*
X0372802Y0065623D01*
X0371267Y0065623D01*
X0370500Y0066390D01*
X0370500Y0067925D01*
X0371267Y0068692D01*
X0372802Y0070227D02*
X0373569Y0071761D01*
X0373569Y0072529D01*
X0372802Y0073296D01*
X0371267Y0073296D01*
X0370500Y0072529D01*
X0372802Y0070227D02*
X0375104Y0070227D01*
X0375104Y0073296D01*
X0378500Y0072529D02*
X0383104Y0072529D01*
X0380802Y0070227D01*
X0380802Y0073296D01*
X0380035Y0068692D02*
X0380802Y0067925D01*
X0380802Y0065623D01*
X0379267Y0065623D01*
X0378500Y0066390D01*
X0378500Y0067925D01*
X0379267Y0068692D01*
X0380035Y0068692D01*
X0382337Y0067157D02*
X0380802Y0065623D01*
X0380802Y0064088D02*
X0380035Y0063321D01*
X0380035Y0061019D01*
X0380035Y0062554D02*
X0378500Y0064088D01*
X0380802Y0064088D02*
X0382337Y0064088D01*
X0383104Y0063321D01*
X0383104Y0061019D01*
X0378500Y0061019D01*
X0375104Y0061019D02*
X0375104Y0063321D01*
X0374337Y0064088D01*
X0372802Y0064088D01*
X0372035Y0063321D01*
X0372035Y0061019D01*
X0372035Y0062554D02*
X0370500Y0064088D01*
X0372802Y0065623D02*
X0374337Y0067157D01*
X0375104Y0068692D01*
X0382337Y0067157D02*
X0383104Y0068692D01*
X0386500Y0067925D02*
X0387267Y0068692D01*
X0388035Y0068692D01*
X0388802Y0067925D01*
X0388802Y0065623D01*
X0387267Y0065623D01*
X0386500Y0066390D01*
X0386500Y0067925D01*
X0387267Y0070227D02*
X0386500Y0070994D01*
X0386500Y0072529D01*
X0387267Y0073296D01*
X0388035Y0073296D01*
X0388802Y0072529D01*
X0388802Y0071761D01*
X0388802Y0072529D02*
X0389569Y0073296D01*
X0390337Y0073296D01*
X0391104Y0072529D01*
X0391104Y0070994D01*
X0390337Y0070227D01*
X0391104Y0068692D02*
X0390337Y0067157D01*
X0388802Y0065623D01*
X0388802Y0064088D02*
X0388035Y0063321D01*
X0388035Y0061019D01*
X0388035Y0062554D02*
X0386500Y0064088D01*
X0388802Y0064088D02*
X0390337Y0064088D01*
X0391104Y0063321D01*
X0391104Y0061019D01*
X0386500Y0061019D01*
X0375104Y0061019D02*
X0370500Y0061019D01*
X0338500Y0070227D02*
X0338500Y0073296D01*
X0323608Y0049781D02*
X0324376Y0049014D01*
X0324376Y0047479D01*
X0323608Y0046712D01*
X0322841Y0046712D01*
X0322074Y0047479D01*
X0322074Y0049781D01*
X0323608Y0049781D02*
X0320539Y0049781D01*
X0319772Y0049014D01*
X0319772Y0047479D01*
X0320539Y0046712D01*
X0319772Y0045177D02*
X0319772Y0042108D01*
X0319772Y0043642D02*
X0324376Y0043642D01*
X0322841Y0042108D01*
X0323608Y0040573D02*
X0324376Y0039806D01*
X0324376Y0038271D01*
X0323608Y0037504D01*
X0320539Y0037504D01*
X0319772Y0038271D01*
X0319772Y0039806D01*
X0320539Y0040573D01*
X0265104Y0063019D02*
X0265104Y0065321D01*
X0264337Y0066088D01*
X0262802Y0066088D01*
X0262035Y0065321D01*
X0262035Y0063019D01*
X0262035Y0064554D02*
X0260500Y0066088D01*
X0261267Y0067623D02*
X0260500Y0068390D01*
X0260500Y0069925D01*
X0261267Y0070692D01*
X0262802Y0070692D01*
X0263569Y0069925D01*
X0263569Y0069157D01*
X0262802Y0067623D01*
X0265104Y0067623D01*
X0265104Y0070692D01*
X0265104Y0072227D02*
X0262802Y0072227D01*
X0263569Y0073761D01*
X0263569Y0074529D01*
X0262802Y0075296D01*
X0261267Y0075296D01*
X0260500Y0074529D01*
X0260500Y0072994D01*
X0261267Y0072227D01*
X0265104Y0072227D02*
X0265104Y0075296D01*
X0257104Y0075296D02*
X0256337Y0073761D01*
X0254802Y0072227D01*
X0254802Y0074529D01*
X0254035Y0075296D01*
X0253267Y0075296D01*
X0252500Y0074529D01*
X0252500Y0072994D01*
X0253267Y0072227D01*
X0254802Y0072227D01*
X0254802Y0070692D02*
X0253267Y0070692D01*
X0252500Y0069925D01*
X0252500Y0068390D01*
X0253267Y0067623D01*
X0254802Y0067623D02*
X0255569Y0069157D01*
X0255569Y0069925D01*
X0254802Y0070692D01*
X0257104Y0070692D02*
X0257104Y0067623D01*
X0254802Y0067623D01*
X0254802Y0066088D02*
X0254035Y0065321D01*
X0254035Y0063019D01*
X0254035Y0064554D02*
X0252500Y0066088D01*
X0254802Y0066088D02*
X0256337Y0066088D01*
X0257104Y0065321D01*
X0257104Y0063019D01*
X0252500Y0063019D01*
X0249104Y0063019D02*
X0249104Y0065321D01*
X0248337Y0066088D01*
X0246802Y0066088D01*
X0246035Y0065321D01*
X0246035Y0063019D01*
X0246035Y0064554D02*
X0244500Y0066088D01*
X0245267Y0067623D02*
X0244500Y0068390D01*
X0244500Y0069925D01*
X0245267Y0070692D01*
X0246802Y0070692D01*
X0247569Y0069925D01*
X0247569Y0069157D01*
X0246802Y0067623D01*
X0249104Y0067623D01*
X0249104Y0070692D01*
X0249104Y0072227D02*
X0249104Y0075296D01*
X0248337Y0075296D01*
X0245267Y0072227D01*
X0244500Y0072227D01*
X0241104Y0072994D02*
X0241104Y0074529D01*
X0240337Y0075296D01*
X0239569Y0075296D01*
X0238802Y0074529D01*
X0238802Y0072994D01*
X0239569Y0072227D01*
X0240337Y0072227D01*
X0241104Y0072994D01*
X0241104Y0070692D02*
X0241104Y0067623D01*
X0238802Y0067623D01*
X0239569Y0069157D01*
X0239569Y0069925D01*
X0238802Y0070692D01*
X0237267Y0070692D01*
X0236500Y0069925D01*
X0236500Y0068390D01*
X0237267Y0067623D01*
X0236500Y0066088D02*
X0238035Y0064554D01*
X0238035Y0065321D02*
X0238035Y0063019D01*
X0236500Y0063019D02*
X0241104Y0063019D01*
X0241104Y0065321D01*
X0240337Y0066088D01*
X0238802Y0066088D01*
X0238035Y0065321D01*
X0233104Y0065321D02*
X0233104Y0063019D01*
X0228500Y0063019D01*
X0230035Y0063019D02*
X0230035Y0065321D01*
X0230802Y0066088D01*
X0232337Y0066088D01*
X0233104Y0065321D01*
X0233104Y0067623D02*
X0230802Y0067623D01*
X0231569Y0069157D01*
X0231569Y0069925D01*
X0230802Y0070692D01*
X0229267Y0070692D01*
X0228500Y0069925D01*
X0228500Y0068390D01*
X0229267Y0067623D01*
X0228500Y0066088D02*
X0230035Y0064554D01*
X0233104Y0067623D02*
X0233104Y0070692D01*
X0232337Y0072227D02*
X0231569Y0072227D01*
X0230802Y0072994D01*
X0230802Y0075296D01*
X0232337Y0075296D02*
X0233104Y0074529D01*
X0233104Y0072994D01*
X0232337Y0072227D01*
X0232337Y0075296D02*
X0229267Y0075296D01*
X0228500Y0074529D01*
X0228500Y0072994D01*
X0229267Y0072227D01*
X0225104Y0072994D02*
X0225104Y0074529D01*
X0224337Y0075296D01*
X0221267Y0072227D01*
X0220500Y0072994D01*
X0220500Y0074529D01*
X0221267Y0075296D01*
X0224337Y0075296D01*
X0225104Y0072994D02*
X0224337Y0072227D01*
X0221267Y0072227D01*
X0221267Y0070692D02*
X0222035Y0070692D01*
X0222802Y0069925D01*
X0222802Y0067623D01*
X0221267Y0067623D01*
X0220500Y0068390D01*
X0220500Y0069925D01*
X0221267Y0070692D01*
X0222802Y0067623D02*
X0224337Y0069157D01*
X0225104Y0070692D01*
X0224337Y0066088D02*
X0222802Y0066088D01*
X0222035Y0065321D01*
X0222035Y0063019D01*
X0222035Y0064554D02*
X0220500Y0066088D01*
X0220500Y0063019D02*
X0225104Y0063019D01*
X0225104Y0065321D01*
X0224337Y0066088D01*
X0217104Y0065321D02*
X0217104Y0063019D01*
X0212500Y0063019D01*
X0214035Y0063019D02*
X0214035Y0065321D01*
X0214802Y0066088D01*
X0216337Y0066088D01*
X0217104Y0065321D01*
X0217104Y0067623D02*
X0214802Y0067623D01*
X0215569Y0069157D01*
X0215569Y0069925D01*
X0214802Y0070692D01*
X0213267Y0070692D01*
X0212500Y0069925D01*
X0212500Y0068390D01*
X0213267Y0067623D01*
X0212500Y0066088D02*
X0214035Y0064554D01*
X0217104Y0067623D02*
X0217104Y0070692D01*
X0214802Y0072227D02*
X0214802Y0075296D01*
X0217104Y0074529D02*
X0214802Y0072227D01*
X0212500Y0074529D02*
X0217104Y0074529D01*
X0209104Y0074529D02*
X0208337Y0075296D01*
X0207569Y0075296D01*
X0206802Y0074529D01*
X0206035Y0075296D01*
X0205267Y0075296D01*
X0204500Y0074529D01*
X0204500Y0072994D01*
X0205267Y0072227D01*
X0205267Y0070692D02*
X0204500Y0069925D01*
X0204500Y0068390D01*
X0205267Y0067623D01*
X0206802Y0067623D02*
X0207569Y0069157D01*
X0207569Y0069925D01*
X0206802Y0070692D01*
X0205267Y0070692D01*
X0206802Y0067623D02*
X0209104Y0067623D01*
X0209104Y0070692D01*
X0208337Y0072227D02*
X0209104Y0072994D01*
X0209104Y0074529D01*
X0206802Y0074529D02*
X0206802Y0073761D01*
X0206802Y0066088D02*
X0206035Y0065321D01*
X0206035Y0063019D01*
X0206035Y0064554D02*
X0204500Y0066088D01*
X0206802Y0066088D02*
X0208337Y0066088D01*
X0209104Y0065321D01*
X0209104Y0063019D01*
X0204500Y0063019D01*
X0177104Y0063831D02*
X0177104Y0066133D01*
X0176337Y0066900D01*
X0174802Y0066900D01*
X0174035Y0066133D01*
X0174035Y0063831D01*
X0174035Y0065365D02*
X0172500Y0066900D01*
X0174802Y0068435D02*
X0174802Y0071504D01*
X0173267Y0073039D02*
X0172500Y0073039D01*
X0173267Y0073039D02*
X0176337Y0076108D01*
X0177104Y0076108D01*
X0177104Y0073039D01*
X0177104Y0070737D02*
X0174802Y0068435D01*
X0172500Y0070737D02*
X0177104Y0070737D01*
X0177104Y0063831D02*
X0172500Y0063831D01*
X0169104Y0063831D02*
X0169104Y0066133D01*
X0168337Y0066900D01*
X0166802Y0066900D01*
X0166035Y0066133D01*
X0166035Y0063831D01*
X0166035Y0065365D02*
X0164500Y0066900D01*
X0166802Y0068435D02*
X0166802Y0071504D01*
X0167569Y0073039D02*
X0168337Y0073039D01*
X0169104Y0073806D01*
X0169104Y0075341D01*
X0168337Y0076108D01*
X0167569Y0076108D01*
X0166802Y0075341D01*
X0166802Y0073806D01*
X0167569Y0073039D01*
X0166802Y0073806D02*
X0166035Y0073039D01*
X0165267Y0073039D01*
X0164500Y0073806D01*
X0164500Y0075341D01*
X0165267Y0076108D01*
X0166035Y0076108D01*
X0166802Y0075341D01*
X0164500Y0070737D02*
X0169104Y0070737D01*
X0166802Y0068435D01*
X0164500Y0063831D02*
X0169104Y0063831D01*
X0161104Y0063831D02*
X0161104Y0066133D01*
X0160337Y0066900D01*
X0158802Y0066900D01*
X0158035Y0066133D01*
X0158035Y0063831D01*
X0158035Y0065365D02*
X0156500Y0066900D01*
X0158802Y0068435D02*
X0158802Y0071504D01*
X0159569Y0073039D02*
X0158802Y0073806D01*
X0158802Y0076108D01*
X0160337Y0076108D02*
X0161104Y0075341D01*
X0161104Y0073806D01*
X0160337Y0073039D01*
X0159569Y0073039D01*
X0157267Y0073039D02*
X0156500Y0073806D01*
X0156500Y0075341D01*
X0157267Y0076108D01*
X0160337Y0076108D01*
X0161104Y0070737D02*
X0156500Y0070737D01*
X0158802Y0068435D02*
X0161104Y0070737D01*
X0161104Y0063831D02*
X0156500Y0063831D01*
X0153104Y0063831D02*
X0153104Y0066133D01*
X0152337Y0066900D01*
X0150802Y0066900D01*
X0150035Y0066133D01*
X0150035Y0063831D01*
X0150035Y0065365D02*
X0148500Y0066900D01*
X0149267Y0068435D02*
X0148500Y0069202D01*
X0148500Y0070737D01*
X0149267Y0071504D01*
X0150802Y0071504D01*
X0151569Y0070737D01*
X0151569Y0069969D01*
X0150802Y0068435D01*
X0153104Y0068435D01*
X0153104Y0071504D01*
X0152337Y0073039D02*
X0153104Y0073806D01*
X0153104Y0075341D01*
X0152337Y0076108D01*
X0149267Y0073039D01*
X0148500Y0073806D01*
X0148500Y0075341D01*
X0149267Y0076108D01*
X0152337Y0076108D01*
X0152337Y0073039D02*
X0149267Y0073039D01*
X0145104Y0074573D02*
X0140500Y0074573D01*
X0140500Y0073039D02*
X0140500Y0076108D01*
X0137104Y0075341D02*
X0137104Y0073806D01*
X0136337Y0073039D01*
X0137104Y0071504D02*
X0137104Y0068435D01*
X0134802Y0068435D01*
X0135569Y0069969D01*
X0135569Y0070737D01*
X0134802Y0071504D01*
X0133267Y0071504D01*
X0132500Y0070737D01*
X0132500Y0069202D01*
X0133267Y0068435D01*
X0132500Y0066900D02*
X0134035Y0065365D01*
X0134035Y0066133D02*
X0134035Y0063831D01*
X0132500Y0063831D02*
X0137104Y0063831D01*
X0137104Y0066133D01*
X0136337Y0066900D01*
X0134802Y0066900D01*
X0134035Y0066133D01*
X0140500Y0066900D02*
X0142035Y0065365D01*
X0142035Y0066133D02*
X0142035Y0063831D01*
X0140500Y0063831D02*
X0145104Y0063831D01*
X0145104Y0066133D01*
X0144337Y0066900D01*
X0142802Y0066900D01*
X0142035Y0066133D01*
X0142802Y0068435D02*
X0143569Y0069969D01*
X0143569Y0070737D01*
X0142802Y0071504D01*
X0141267Y0071504D01*
X0140500Y0070737D01*
X0140500Y0069202D01*
X0141267Y0068435D01*
X0142802Y0068435D02*
X0145104Y0068435D01*
X0145104Y0071504D01*
X0143569Y0073039D02*
X0145104Y0074573D01*
X0148500Y0063831D02*
X0153104Y0063831D01*
X0137104Y0075341D02*
X0136337Y0076108D01*
X0135569Y0076108D01*
X0132500Y0073039D01*
X0132500Y0076108D01*
X0127104Y0076108D02*
X0126337Y0074573D01*
X0124802Y0073039D01*
X0124802Y0075341D01*
X0124035Y0076108D01*
X0123267Y0076108D01*
X0122500Y0075341D01*
X0122500Y0073806D01*
X0123267Y0073039D01*
X0124802Y0073039D01*
X0124802Y0071504D02*
X0124802Y0068435D01*
X0127104Y0070737D01*
X0122500Y0070737D01*
X0121104Y0070737D02*
X0118802Y0068435D01*
X0118802Y0071504D01*
X0118802Y0073039D02*
X0119569Y0074573D01*
X0119569Y0075341D01*
X0118802Y0076108D01*
X0117267Y0076108D01*
X0116500Y0075341D01*
X0116500Y0073806D01*
X0117267Y0073039D01*
X0118802Y0073039D02*
X0121104Y0073039D01*
X0121104Y0076108D01*
X0121104Y0070737D02*
X0116500Y0070737D01*
X0116500Y0066900D02*
X0118035Y0065365D01*
X0118035Y0066133D02*
X0118035Y0063831D01*
X0116500Y0063831D02*
X0121104Y0063831D01*
X0121104Y0066133D01*
X0120337Y0066900D01*
X0118802Y0066900D01*
X0118035Y0066133D01*
X0122500Y0066900D02*
X0124035Y0065365D01*
X0124035Y0066133D02*
X0124035Y0063831D01*
X0122500Y0063831D02*
X0127104Y0063831D01*
X0127104Y0066133D01*
X0126337Y0066900D01*
X0124802Y0066900D01*
X0124035Y0066133D01*
X0101104Y0066133D02*
X0100337Y0066900D01*
X0098802Y0066900D01*
X0098035Y0066133D01*
X0098035Y0063831D01*
X0098035Y0065365D02*
X0096500Y0066900D01*
X0097267Y0068435D02*
X0096500Y0069202D01*
X0096500Y0070737D01*
X0097267Y0071504D01*
X0098035Y0071504D01*
X0098802Y0070737D01*
X0098802Y0069969D01*
X0098802Y0070737D02*
X0099569Y0071504D01*
X0100337Y0071504D01*
X0101104Y0070737D01*
X0101104Y0069202D01*
X0100337Y0068435D01*
X0101104Y0066133D02*
X0101104Y0063831D01*
X0096500Y0063831D01*
X0093104Y0063831D02*
X0093104Y0066133D01*
X0092337Y0066900D01*
X0090802Y0066900D01*
X0090035Y0066133D01*
X0090035Y0063831D01*
X0090035Y0065365D02*
X0088500Y0066900D01*
X0090802Y0068435D02*
X0090802Y0071504D01*
X0092337Y0073039D02*
X0093104Y0073806D01*
X0093104Y0075341D01*
X0092337Y0076108D01*
X0089267Y0073039D01*
X0088500Y0073806D01*
X0088500Y0075341D01*
X0089267Y0076108D01*
X0092337Y0076108D01*
X0092337Y0073039D02*
X0089267Y0073039D01*
X0088500Y0070737D02*
X0093104Y0070737D01*
X0090802Y0068435D01*
X0088500Y0063831D02*
X0093104Y0063831D01*
X0085104Y0063831D02*
X0085104Y0066133D01*
X0084337Y0066900D01*
X0082802Y0066900D01*
X0082035Y0066133D01*
X0082035Y0063831D01*
X0082035Y0065365D02*
X0080500Y0066900D01*
X0082802Y0068435D02*
X0082802Y0071504D01*
X0083569Y0073039D02*
X0085104Y0074573D01*
X0080500Y0074573D01*
X0080500Y0073039D02*
X0080500Y0076108D01*
X0077104Y0075341D02*
X0077104Y0073806D01*
X0076337Y0073039D01*
X0074802Y0071504D02*
X0074802Y0068435D01*
X0077104Y0070737D01*
X0072500Y0070737D01*
X0072500Y0073039D02*
X0075569Y0076108D01*
X0076337Y0076108D01*
X0077104Y0075341D01*
X0072500Y0076108D02*
X0072500Y0073039D01*
X0069104Y0073806D02*
X0069104Y0075341D01*
X0068337Y0076108D01*
X0067569Y0076108D01*
X0066802Y0075341D01*
X0066035Y0076108D01*
X0065267Y0076108D01*
X0064500Y0075341D01*
X0064500Y0073806D01*
X0065267Y0073039D01*
X0066802Y0074573D02*
X0066802Y0075341D01*
X0068337Y0073039D02*
X0069104Y0073806D01*
X0069104Y0070737D02*
X0066802Y0068435D01*
X0066802Y0071504D01*
X0064500Y0070737D02*
X0069104Y0070737D01*
X0068337Y0066900D02*
X0066802Y0066900D01*
X0066035Y0066133D01*
X0066035Y0063831D01*
X0066035Y0065365D02*
X0064500Y0066900D01*
X0064500Y0063831D02*
X0069104Y0063831D01*
X0069104Y0066133D01*
X0068337Y0066900D01*
X0072500Y0066900D02*
X0074035Y0065365D01*
X0074035Y0066133D02*
X0074035Y0063831D01*
X0072500Y0063831D02*
X0077104Y0063831D01*
X0077104Y0066133D01*
X0076337Y0066900D01*
X0074802Y0066900D01*
X0074035Y0066133D01*
X0080500Y0063831D02*
X0085104Y0063831D01*
X0082802Y0068435D02*
X0085104Y0070737D01*
X0080500Y0070737D01*
X0096500Y0073806D02*
X0096500Y0075341D01*
X0097267Y0076108D01*
X0100337Y0076108D01*
X0101104Y0075341D01*
X0101104Y0073806D01*
X0100337Y0073039D01*
X0099569Y0073039D01*
X0098802Y0073806D01*
X0098802Y0076108D01*
X0096500Y0073806D02*
X0097267Y0073039D01*
X0061104Y0075341D02*
X0058802Y0073039D01*
X0058802Y0076108D01*
X0056500Y0075341D02*
X0061104Y0075341D01*
X0058802Y0071504D02*
X0058802Y0068435D01*
X0061104Y0070737D01*
X0056500Y0070737D01*
X0053104Y0070737D02*
X0053104Y0069202D01*
X0052337Y0068435D01*
X0052337Y0066900D02*
X0050802Y0066900D01*
X0050035Y0066133D01*
X0050035Y0063831D01*
X0050035Y0065365D02*
X0048500Y0066900D01*
X0049267Y0068435D02*
X0048500Y0069202D01*
X0048500Y0070737D01*
X0049267Y0071504D01*
X0050035Y0071504D01*
X0050802Y0070737D01*
X0050802Y0069969D01*
X0050802Y0070737D02*
X0051569Y0071504D01*
X0052337Y0071504D01*
X0053104Y0070737D01*
X0052337Y0073039D02*
X0051569Y0073039D01*
X0050802Y0073806D01*
X0050802Y0075341D01*
X0050035Y0076108D01*
X0049267Y0076108D01*
X0048500Y0075341D01*
X0048500Y0073806D01*
X0049267Y0073039D01*
X0050035Y0073039D01*
X0050802Y0073806D01*
X0050802Y0075341D02*
X0051569Y0076108D01*
X0052337Y0076108D01*
X0053104Y0075341D01*
X0053104Y0073806D01*
X0052337Y0073039D01*
X0052337Y0066900D02*
X0053104Y0066133D01*
X0053104Y0063831D01*
X0048500Y0063831D01*
X0045104Y0063831D02*
X0045104Y0066133D01*
X0044337Y0066900D01*
X0042802Y0066900D01*
X0042035Y0066133D01*
X0042035Y0063831D01*
X0042035Y0065365D02*
X0040500Y0066900D01*
X0041267Y0068435D02*
X0040500Y0069202D01*
X0040500Y0070737D01*
X0041267Y0071504D01*
X0042035Y0071504D01*
X0042802Y0070737D01*
X0042802Y0069969D01*
X0042802Y0070737D02*
X0043569Y0071504D01*
X0044337Y0071504D01*
X0045104Y0070737D01*
X0045104Y0069202D01*
X0044337Y0068435D01*
X0045104Y0073039D02*
X0045104Y0076108D01*
X0044337Y0076108D01*
X0041267Y0073039D01*
X0040500Y0073039D01*
X0040500Y0063831D02*
X0045104Y0063831D01*
X0056500Y0063831D02*
X0061104Y0063831D01*
X0061104Y0066133D01*
X0060337Y0066900D01*
X0058802Y0066900D01*
X0058035Y0066133D01*
X0058035Y0063831D01*
X0058035Y0065365D02*
X0056500Y0066900D01*
X0236500Y0072994D02*
X0237267Y0072227D01*
X0238035Y0072227D01*
X0238802Y0072994D01*
X0238802Y0074529D02*
X0238035Y0075296D01*
X0237267Y0075296D01*
X0236500Y0074529D01*
X0236500Y0072994D01*
X0244500Y0063019D02*
X0249104Y0063019D01*
X0260500Y0063019D02*
X0265104Y0063019D01*
X0408500Y0064088D02*
X0410035Y0062554D01*
X0410035Y0063321D02*
X0410035Y0061019D01*
X0408500Y0061019D02*
X0413104Y0061019D01*
X0413104Y0063321D01*
X0412337Y0064088D01*
X0410802Y0064088D01*
X0410035Y0063321D01*
X0410802Y0065623D02*
X0409267Y0065623D01*
X0408500Y0066390D01*
X0408500Y0067925D01*
X0409267Y0068692D01*
X0410035Y0068692D01*
X0410802Y0067925D01*
X0410802Y0065623D01*
X0412337Y0067157D01*
X0413104Y0068692D01*
X0412337Y0070227D02*
X0411569Y0070227D01*
X0410802Y0070994D01*
X0410802Y0073296D01*
X0412337Y0073296D02*
X0413104Y0072529D01*
X0413104Y0070994D01*
X0412337Y0070227D01*
X0412337Y0073296D02*
X0409267Y0073296D01*
X0408500Y0072529D01*
X0408500Y0070994D01*
X0409267Y0070227D01*
X0416500Y0070994D02*
X0417267Y0070227D01*
X0420337Y0073296D01*
X0417267Y0073296D01*
X0416500Y0072529D01*
X0416500Y0070994D01*
X0417267Y0070227D02*
X0420337Y0070227D01*
X0421104Y0070994D01*
X0421104Y0072529D01*
X0420337Y0073296D01*
X0424500Y0072529D02*
X0425267Y0073296D01*
X0426035Y0073296D01*
X0426802Y0072529D01*
X0426802Y0070227D01*
X0425267Y0070227D01*
X0424500Y0070994D01*
X0424500Y0072529D01*
X0426802Y0070227D02*
X0428337Y0071761D01*
X0429104Y0073296D01*
X0432500Y0072529D02*
X0432500Y0070994D01*
X0433267Y0070227D01*
X0434802Y0070227D02*
X0435569Y0071761D01*
X0435569Y0072529D01*
X0434802Y0073296D01*
X0433267Y0073296D01*
X0432500Y0072529D01*
X0434802Y0070227D02*
X0437104Y0070227D01*
X0437104Y0073296D01*
X0440500Y0072529D02*
X0445104Y0072529D01*
X0442802Y0070227D01*
X0442802Y0073296D01*
X0444337Y0068692D02*
X0441267Y0065623D01*
X0440500Y0065623D01*
X0440500Y0064088D02*
X0442035Y0062554D01*
X0442035Y0063321D02*
X0442035Y0061019D01*
X0440500Y0061019D02*
X0445104Y0061019D01*
X0445104Y0063321D01*
X0444337Y0064088D01*
X0442802Y0064088D01*
X0442035Y0063321D01*
X0445104Y0065623D02*
X0445104Y0068692D01*
X0444337Y0068692D01*
X0448500Y0070227D02*
X0448500Y0073296D01*
X0448500Y0071761D02*
X0453104Y0071761D01*
X0451569Y0070227D01*
X0452337Y0068692D02*
X0449267Y0065623D01*
X0448500Y0065623D01*
X0448500Y0064088D02*
X0450035Y0062554D01*
X0450035Y0063321D02*
X0450035Y0061019D01*
X0448500Y0061019D02*
X0453104Y0061019D01*
X0453104Y0063321D01*
X0452337Y0064088D01*
X0450802Y0064088D01*
X0450035Y0063321D01*
X0453104Y0065623D02*
X0453104Y0068692D01*
X0452337Y0068692D01*
X0456500Y0070227D02*
X0459569Y0073296D01*
X0460337Y0073296D01*
X0461104Y0072529D01*
X0461104Y0070994D01*
X0460337Y0070227D01*
X0460337Y0068692D02*
X0457267Y0065623D01*
X0456500Y0065623D01*
X0456500Y0064088D02*
X0458035Y0062554D01*
X0458035Y0063321D02*
X0458035Y0061019D01*
X0456500Y0061019D02*
X0461104Y0061019D01*
X0461104Y0063321D01*
X0460337Y0064088D01*
X0458802Y0064088D01*
X0458035Y0063321D01*
X0461104Y0065623D02*
X0461104Y0068692D01*
X0460337Y0068692D01*
X0456500Y0070227D02*
X0456500Y0073296D01*
X0464500Y0072529D02*
X0464500Y0070994D01*
X0465267Y0070227D01*
X0466802Y0071761D02*
X0466802Y0072529D01*
X0466035Y0073296D01*
X0465267Y0073296D01*
X0464500Y0072529D01*
X0466802Y0072529D02*
X0467569Y0073296D01*
X0468337Y0073296D01*
X0469104Y0072529D01*
X0469104Y0070994D01*
X0468337Y0070227D01*
X0468337Y0068692D02*
X0465267Y0065623D01*
X0464500Y0065623D01*
X0464500Y0064088D02*
X0466035Y0062554D01*
X0466035Y0063321D02*
X0466035Y0061019D01*
X0464500Y0061019D02*
X0469104Y0061019D01*
X0469104Y0063321D01*
X0468337Y0064088D01*
X0466802Y0064088D01*
X0466035Y0063321D01*
X0469104Y0065623D02*
X0469104Y0068692D01*
X0468337Y0068692D01*
X0486500Y0070227D02*
X0487267Y0070227D01*
X0490337Y0073296D01*
X0491104Y0073296D01*
X0491104Y0070227D01*
X0491104Y0068692D02*
X0490337Y0068692D01*
X0487267Y0065623D01*
X0486500Y0065623D01*
X0486500Y0064088D02*
X0488035Y0062554D01*
X0488035Y0063321D02*
X0488035Y0061019D01*
X0486500Y0061019D02*
X0491104Y0061019D01*
X0491104Y0063321D01*
X0490337Y0064088D01*
X0488802Y0064088D01*
X0488035Y0063321D01*
X0491104Y0065623D02*
X0491104Y0068692D01*
X0494500Y0070994D02*
X0495267Y0070227D01*
X0496035Y0070227D01*
X0496802Y0070994D01*
X0496802Y0072529D01*
X0496035Y0073296D01*
X0495267Y0073296D01*
X0494500Y0072529D01*
X0494500Y0070994D01*
X0496802Y0070994D02*
X0497569Y0070227D01*
X0498337Y0070227D01*
X0499104Y0070994D01*
X0499104Y0072529D01*
X0498337Y0073296D01*
X0497569Y0073296D01*
X0496802Y0072529D01*
X0498337Y0068692D02*
X0495267Y0065623D01*
X0494500Y0065623D01*
X0494500Y0064088D02*
X0496035Y0062554D01*
X0496035Y0063321D02*
X0496035Y0061019D01*
X0494500Y0061019D02*
X0499104Y0061019D01*
X0499104Y0063321D01*
X0498337Y0064088D01*
X0496802Y0064088D01*
X0496035Y0063321D01*
X0499104Y0065623D02*
X0499104Y0068692D01*
X0498337Y0068692D01*
X0502500Y0067925D02*
X0502500Y0066390D01*
X0503267Y0065623D01*
X0504035Y0065623D01*
X0504802Y0066390D01*
X0504802Y0067925D01*
X0504035Y0068692D01*
X0503267Y0068692D01*
X0502500Y0067925D01*
X0504802Y0067925D02*
X0505569Y0068692D01*
X0506337Y0068692D01*
X0507104Y0067925D01*
X0507104Y0066390D01*
X0506337Y0065623D01*
X0505569Y0065623D01*
X0504802Y0066390D01*
X0504802Y0064088D02*
X0504035Y0063321D01*
X0504035Y0061019D01*
X0504035Y0062554D02*
X0502500Y0064088D01*
X0504802Y0064088D02*
X0506337Y0064088D01*
X0507104Y0063321D01*
X0507104Y0061019D01*
X0502500Y0061019D01*
X0510500Y0061019D02*
X0515104Y0061019D01*
X0515104Y0063321D01*
X0514337Y0064088D01*
X0512802Y0064088D01*
X0512035Y0063321D01*
X0512035Y0061019D01*
X0512035Y0062554D02*
X0510500Y0064088D01*
X0511267Y0065623D02*
X0512035Y0065623D01*
X0512802Y0066390D01*
X0512802Y0067925D01*
X0512035Y0068692D01*
X0511267Y0068692D01*
X0510500Y0067925D01*
X0510500Y0066390D01*
X0511267Y0065623D01*
X0512802Y0066390D02*
X0513569Y0065623D01*
X0514337Y0065623D01*
X0515104Y0066390D01*
X0515104Y0067925D01*
X0514337Y0068692D01*
X0513569Y0068692D01*
X0512802Y0067925D01*
X0514337Y0070227D02*
X0515104Y0070994D01*
X0515104Y0072529D01*
X0514337Y0073296D01*
X0513569Y0073296D01*
X0512802Y0072529D01*
X0512035Y0073296D01*
X0511267Y0073296D01*
X0510500Y0072529D01*
X0510500Y0070994D01*
X0511267Y0070227D01*
X0512802Y0071761D02*
X0512802Y0072529D01*
X0507104Y0072529D02*
X0504802Y0070227D01*
X0504802Y0073296D01*
X0502500Y0072529D02*
X0507104Y0072529D01*
X0518500Y0073296D02*
X0518500Y0070227D01*
X0521569Y0073296D01*
X0522337Y0073296D01*
X0523104Y0072529D01*
X0523104Y0070994D01*
X0522337Y0070227D01*
X0522337Y0068692D02*
X0521569Y0068692D01*
X0520802Y0067925D01*
X0520802Y0066390D01*
X0521569Y0065623D01*
X0522337Y0065623D01*
X0523104Y0066390D01*
X0523104Y0067925D01*
X0522337Y0068692D01*
X0520802Y0067925D02*
X0520035Y0068692D01*
X0519267Y0068692D01*
X0518500Y0067925D01*
X0518500Y0066390D01*
X0519267Y0065623D01*
X0520035Y0065623D01*
X0520802Y0066390D01*
X0520802Y0064088D02*
X0520035Y0063321D01*
X0520035Y0061019D01*
X0520035Y0062554D02*
X0518500Y0064088D01*
X0520802Y0064088D02*
X0522337Y0064088D01*
X0523104Y0063321D01*
X0523104Y0061019D01*
X0518500Y0061019D01*
X0526500Y0061019D02*
X0531104Y0061019D01*
X0531104Y0063321D01*
X0530337Y0064088D01*
X0528802Y0064088D01*
X0528035Y0063321D01*
X0528035Y0061019D01*
X0528035Y0062554D02*
X0526500Y0064088D01*
X0526500Y0065623D02*
X0527267Y0065623D01*
X0530337Y0068692D01*
X0531104Y0068692D01*
X0531104Y0065623D01*
X0534500Y0066390D02*
X0535267Y0065623D01*
X0536035Y0065623D01*
X0536802Y0066390D01*
X0536802Y0067925D01*
X0536035Y0068692D01*
X0535267Y0068692D01*
X0534500Y0067925D01*
X0534500Y0066390D01*
X0534500Y0064088D02*
X0536035Y0062554D01*
X0536035Y0063321D02*
X0536035Y0061019D01*
X0534500Y0061019D02*
X0539104Y0061019D01*
X0539104Y0063321D01*
X0538337Y0064088D01*
X0536802Y0064088D01*
X0536035Y0063321D01*
X0537569Y0065623D02*
X0536802Y0066390D01*
X0537569Y0065623D02*
X0538337Y0065623D01*
X0539104Y0066390D01*
X0539104Y0067925D01*
X0538337Y0068692D01*
X0537569Y0068692D01*
X0536802Y0067925D01*
X0535267Y0070227D02*
X0538337Y0070227D01*
X0539104Y0070994D01*
X0539104Y0072529D01*
X0538337Y0073296D01*
X0535267Y0070227D01*
X0534500Y0070994D01*
X0534500Y0072529D01*
X0535267Y0073296D01*
X0538337Y0073296D01*
X0542500Y0073296D02*
X0542500Y0070227D01*
X0542500Y0071761D02*
X0547104Y0071761D01*
X0545569Y0070227D01*
X0545569Y0068692D02*
X0544802Y0067925D01*
X0544802Y0066390D01*
X0545569Y0065623D01*
X0546337Y0065623D01*
X0547104Y0066390D01*
X0547104Y0067925D01*
X0546337Y0068692D01*
X0545569Y0068692D01*
X0544802Y0067925D02*
X0544035Y0068692D01*
X0543267Y0068692D01*
X0542500Y0067925D01*
X0542500Y0066390D01*
X0543267Y0065623D01*
X0544035Y0065623D01*
X0544802Y0066390D01*
X0544802Y0064088D02*
X0544035Y0063321D01*
X0544035Y0061019D01*
X0544035Y0062554D02*
X0542500Y0064088D01*
X0544802Y0064088D02*
X0546337Y0064088D01*
X0547104Y0063321D01*
X0547104Y0061019D01*
X0542500Y0061019D01*
X0531104Y0070994D02*
X0530337Y0070227D01*
X0529569Y0070227D01*
X0528802Y0070994D01*
X0528802Y0073296D01*
X0530337Y0073296D02*
X0531104Y0072529D01*
X0531104Y0070994D01*
X0530337Y0073296D02*
X0527267Y0073296D01*
X0526500Y0072529D01*
X0526500Y0070994D01*
X0527267Y0070227D01*
X0437104Y0068692D02*
X0436337Y0068692D01*
X0433267Y0065623D01*
X0432500Y0065623D01*
X0432500Y0064088D02*
X0434035Y0062554D01*
X0434035Y0063321D02*
X0434035Y0061019D01*
X0432500Y0061019D02*
X0437104Y0061019D01*
X0437104Y0063321D01*
X0436337Y0064088D01*
X0434802Y0064088D01*
X0434035Y0063321D01*
X0437104Y0065623D02*
X0437104Y0068692D01*
X0429104Y0068692D02*
X0428337Y0068692D01*
X0425267Y0065623D01*
X0424500Y0065623D01*
X0424500Y0064088D02*
X0426035Y0062554D01*
X0426035Y0063321D02*
X0426035Y0061019D01*
X0424500Y0061019D02*
X0429104Y0061019D01*
X0429104Y0063321D01*
X0428337Y0064088D01*
X0426802Y0064088D01*
X0426035Y0063321D01*
X0429104Y0065623D02*
X0429104Y0068692D01*
X0421104Y0068692D02*
X0420337Y0068692D01*
X0417267Y0065623D01*
X0416500Y0065623D01*
X0416500Y0064088D02*
X0418035Y0062554D01*
X0418035Y0063321D02*
X0418035Y0061019D01*
X0416500Y0061019D02*
X0421104Y0061019D01*
X0421104Y0063321D01*
X0420337Y0064088D01*
X0418802Y0064088D01*
X0418035Y0063321D01*
X0421104Y0065623D02*
X0421104Y0068692D01*
D15*
X0318272Y0075060D02*
X0318272Y0037658D01*
X0303706Y0037658D01*
X0291894Y0037658D02*
X0277328Y0037658D01*
X0277328Y0075060D01*
X0280871Y0078603D01*
X0291894Y0078603D01*
X0303706Y0078603D02*
X0314729Y0078603D01*
X0318272Y0075060D01*
X0303902Y0076438D02*
X0304349Y0076283D01*
X0304791Y0076117D01*
X0305230Y0075940D01*
X0305664Y0075753D01*
X0306093Y0075555D01*
X0306517Y0075347D01*
X0306936Y0075128D01*
X0307349Y0074900D01*
X0307757Y0074661D01*
X0308159Y0074412D01*
X0308555Y0074153D01*
X0308944Y0073885D01*
X0309326Y0073607D01*
X0309702Y0073321D01*
X0310070Y0073025D01*
X0310431Y0072720D01*
X0310785Y0072406D01*
X0311130Y0072084D01*
X0311468Y0071753D01*
X0311797Y0071414D01*
X0312119Y0071067D01*
X0312431Y0070713D01*
X0312735Y0070351D01*
X0313030Y0069982D01*
X0313315Y0069605D01*
X0313592Y0069222D01*
X0313858Y0068832D01*
X0314116Y0068435D01*
X0314363Y0068032D01*
X0314601Y0067624D01*
X0314828Y0067210D01*
X0315045Y0066790D01*
X0315252Y0066365D01*
X0315448Y0065935D01*
X0315634Y0065501D01*
X0315809Y0065062D01*
X0315974Y0064619D01*
X0316127Y0064172D01*
X0316270Y0063721D01*
X0316401Y0063267D01*
X0316521Y0062810D01*
X0316630Y0062350D01*
X0316728Y0061888D01*
X0316814Y0061423D01*
X0316889Y0060956D01*
X0316952Y0060488D01*
X0317004Y0060018D01*
X0317045Y0059548D01*
X0317074Y0059076D01*
X0317091Y0058604D01*
X0317097Y0058131D01*
X0317091Y0057658D01*
X0317074Y0057186D01*
X0317045Y0056714D01*
X0317004Y0056244D01*
X0316952Y0055774D01*
X0316889Y0055306D01*
X0316814Y0054839D01*
X0316728Y0054374D01*
X0316630Y0053912D01*
X0316521Y0053452D01*
X0316401Y0052995D01*
X0316270Y0052541D01*
X0316127Y0052090D01*
X0315974Y0051643D01*
X0315809Y0051200D01*
X0315634Y0050761D01*
X0315448Y0050327D01*
X0315252Y0049897D01*
X0315045Y0049472D01*
X0314828Y0049052D01*
X0314601Y0048638D01*
X0314363Y0048230D01*
X0314116Y0047827D01*
X0313858Y0047430D01*
X0313592Y0047040D01*
X0313315Y0046657D01*
X0313030Y0046280D01*
X0312735Y0045911D01*
X0312431Y0045549D01*
X0312119Y0045195D01*
X0311797Y0044848D01*
X0311468Y0044509D01*
X0311130Y0044178D01*
X0310785Y0043856D01*
X0310431Y0043542D01*
X0310070Y0043237D01*
X0309702Y0042941D01*
X0309326Y0042655D01*
X0308944Y0042377D01*
X0308555Y0042109D01*
X0308159Y0041850D01*
X0307757Y0041601D01*
X0307349Y0041362D01*
X0306936Y0041134D01*
X0306517Y0040915D01*
X0306093Y0040707D01*
X0305664Y0040509D01*
X0305230Y0040322D01*
X0304791Y0040145D01*
X0304349Y0039979D01*
X0303902Y0039824D01*
X0291698Y0039824D02*
X0291251Y0039979D01*
X0290809Y0040145D01*
X0290370Y0040322D01*
X0289936Y0040509D01*
X0289507Y0040707D01*
X0289083Y0040915D01*
X0288664Y0041134D01*
X0288251Y0041362D01*
X0287843Y0041601D01*
X0287441Y0041850D01*
X0287045Y0042109D01*
X0286656Y0042377D01*
X0286274Y0042655D01*
X0285898Y0042941D01*
X0285530Y0043237D01*
X0285169Y0043542D01*
X0284815Y0043856D01*
X0284470Y0044178D01*
X0284132Y0044509D01*
X0283803Y0044848D01*
X0283481Y0045195D01*
X0283169Y0045549D01*
X0282865Y0045911D01*
X0282570Y0046280D01*
X0282285Y0046657D01*
X0282008Y0047040D01*
X0281742Y0047430D01*
X0281484Y0047827D01*
X0281237Y0048230D01*
X0280999Y0048638D01*
X0280772Y0049052D01*
X0280555Y0049472D01*
X0280348Y0049897D01*
X0280152Y0050327D01*
X0279966Y0050761D01*
X0279791Y0051200D01*
X0279626Y0051643D01*
X0279473Y0052090D01*
X0279330Y0052541D01*
X0279199Y0052995D01*
X0279079Y0053452D01*
X0278970Y0053912D01*
X0278872Y0054374D01*
X0278786Y0054839D01*
X0278711Y0055306D01*
X0278648Y0055774D01*
X0278596Y0056244D01*
X0278555Y0056714D01*
X0278526Y0057186D01*
X0278509Y0057658D01*
X0278503Y0058131D01*
X0278509Y0058604D01*
X0278526Y0059076D01*
X0278555Y0059548D01*
X0278596Y0060018D01*
X0278648Y0060488D01*
X0278711Y0060956D01*
X0278786Y0061423D01*
X0278872Y0061888D01*
X0278970Y0062350D01*
X0279079Y0062810D01*
X0279199Y0063267D01*
X0279330Y0063721D01*
X0279473Y0064172D01*
X0279626Y0064619D01*
X0279791Y0065062D01*
X0279966Y0065501D01*
X0280152Y0065935D01*
X0280348Y0066365D01*
X0280555Y0066790D01*
X0280772Y0067210D01*
X0280999Y0067624D01*
X0281237Y0068032D01*
X0281484Y0068435D01*
X0281742Y0068832D01*
X0282008Y0069222D01*
X0282285Y0069605D01*
X0282570Y0069982D01*
X0282865Y0070351D01*
X0283169Y0070713D01*
X0283481Y0071067D01*
X0283803Y0071414D01*
X0284132Y0071753D01*
X0284470Y0072084D01*
X0284815Y0072406D01*
X0285169Y0072720D01*
X0285530Y0073025D01*
X0285898Y0073321D01*
X0286274Y0073607D01*
X0286656Y0073885D01*
X0287045Y0074153D01*
X0287441Y0074412D01*
X0287843Y0074661D01*
X0288251Y0074900D01*
X0288664Y0075128D01*
X0289083Y0075347D01*
X0289507Y0075555D01*
X0289936Y0075753D01*
X0290370Y0075940D01*
X0290809Y0076117D01*
X0291251Y0076283D01*
X0291698Y0076438D01*
X0284176Y0097162D02*
X0309976Y0097162D01*
X0309976Y0111162D01*
X0284176Y0111162D01*
X0284176Y0097162D01*
D16*
X0193233Y0222231D02*
X0192299Y0222231D01*
X0191832Y0222698D01*
X0190938Y0222698D02*
X0190471Y0222231D01*
X0189536Y0222231D01*
X0189069Y0222698D01*
X0189069Y0225033D01*
X0188175Y0225033D02*
X0186307Y0225033D01*
X0187241Y0225033D02*
X0187241Y0222231D01*
X0185413Y0222231D02*
X0183545Y0222231D01*
X0184479Y0222231D02*
X0184479Y0225033D01*
X0185413Y0224099D01*
X0182651Y0224566D02*
X0182184Y0225033D01*
X0181249Y0225033D01*
X0180782Y0224566D01*
X0180782Y0224099D01*
X0181249Y0223632D01*
X0180782Y0223165D01*
X0180782Y0222698D01*
X0181249Y0222231D01*
X0182184Y0222231D01*
X0182651Y0222698D01*
X0181716Y0223632D02*
X0181249Y0223632D01*
X0181249Y0230231D02*
X0180782Y0230698D01*
X0180782Y0231165D01*
X0181249Y0231632D01*
X0182651Y0231632D01*
X0182651Y0230698D01*
X0182184Y0230231D01*
X0181249Y0230231D01*
X0182651Y0231632D02*
X0181716Y0232566D01*
X0180782Y0233033D01*
X0184479Y0233033D02*
X0184479Y0230231D01*
X0185413Y0230231D02*
X0183545Y0230231D01*
X0185413Y0232099D02*
X0184479Y0233033D01*
X0186307Y0233033D02*
X0188175Y0233033D01*
X0189069Y0233033D02*
X0189069Y0230698D01*
X0189536Y0230231D01*
X0190471Y0230231D01*
X0190938Y0230698D01*
X0190938Y0233033D01*
X0191832Y0232566D02*
X0192299Y0233033D01*
X0193233Y0233033D01*
X0193700Y0232566D01*
X0193700Y0230698D01*
X0193233Y0230231D01*
X0192299Y0230231D01*
X0191832Y0230698D01*
X0187241Y0230231D02*
X0187241Y0233033D01*
X0187241Y0238231D02*
X0187241Y0241033D01*
X0188175Y0241033D02*
X0186307Y0241033D01*
X0185413Y0240099D02*
X0184479Y0241033D01*
X0184479Y0238231D01*
X0185413Y0238231D02*
X0183545Y0238231D01*
X0182651Y0238231D02*
X0182651Y0238698D01*
X0180782Y0240566D01*
X0180782Y0241033D01*
X0182651Y0241033D01*
X0183545Y0246231D02*
X0185413Y0246231D01*
X0184479Y0246231D02*
X0184479Y0249033D01*
X0185413Y0248099D01*
X0186307Y0249033D02*
X0188175Y0249033D01*
X0189069Y0249033D02*
X0189069Y0246698D01*
X0189536Y0246231D01*
X0190471Y0246231D01*
X0190938Y0246698D01*
X0190938Y0249033D01*
X0191832Y0248566D02*
X0192299Y0249033D01*
X0193233Y0249033D01*
X0193700Y0248566D01*
X0193700Y0246698D01*
X0193233Y0246231D01*
X0192299Y0246231D01*
X0191832Y0246698D01*
X0187241Y0246231D02*
X0187241Y0249033D01*
X0182651Y0247632D02*
X0180782Y0247632D01*
X0181249Y0246231D02*
X0181249Y0249033D01*
X0182651Y0247632D01*
X0182184Y0254231D02*
X0182651Y0254698D01*
X0182651Y0255165D01*
X0182184Y0255632D01*
X0181249Y0255632D01*
X0180782Y0255165D01*
X0180782Y0254698D01*
X0181249Y0254231D01*
X0182184Y0254231D01*
X0183545Y0254231D02*
X0185413Y0254231D01*
X0184479Y0254231D02*
X0184479Y0257033D01*
X0185413Y0256099D01*
X0186307Y0257033D02*
X0188175Y0257033D01*
X0189069Y0257033D02*
X0189069Y0254698D01*
X0189536Y0254231D01*
X0190471Y0254231D01*
X0190938Y0254698D01*
X0190938Y0257033D01*
X0191832Y0256566D02*
X0192299Y0257033D01*
X0193233Y0257033D01*
X0193700Y0256566D01*
X0193700Y0254698D01*
X0193233Y0254231D01*
X0192299Y0254231D01*
X0191832Y0254698D01*
X0187241Y0254231D02*
X0187241Y0257033D01*
X0182651Y0256566D02*
X0182651Y0256099D01*
X0182184Y0255632D01*
X0181249Y0255632D02*
X0180782Y0256099D01*
X0180782Y0256566D01*
X0181249Y0257033D01*
X0182184Y0257033D01*
X0182651Y0256566D01*
X0182184Y0262231D02*
X0182651Y0262698D01*
X0182184Y0262231D02*
X0181249Y0262231D01*
X0180782Y0262698D01*
X0180782Y0263632D01*
X0181249Y0264099D01*
X0181716Y0264099D01*
X0182651Y0263632D01*
X0182651Y0265033D01*
X0180782Y0265033D01*
X0184479Y0265033D02*
X0184479Y0262231D01*
X0185413Y0262231D02*
X0183545Y0262231D01*
X0185413Y0264099D02*
X0184479Y0265033D01*
X0186307Y0265033D02*
X0188175Y0265033D01*
X0189069Y0265033D02*
X0189069Y0262698D01*
X0189536Y0262231D01*
X0190471Y0262231D01*
X0190938Y0262698D01*
X0190938Y0265033D01*
X0191832Y0264566D02*
X0192299Y0265033D01*
X0193233Y0265033D01*
X0193700Y0264566D01*
X0193700Y0262698D01*
X0193233Y0262231D01*
X0192299Y0262231D01*
X0191832Y0262698D01*
X0187241Y0262231D02*
X0187241Y0265033D01*
X0189069Y0241033D02*
X0189069Y0238698D01*
X0189536Y0238231D01*
X0190471Y0238231D01*
X0190938Y0238698D01*
X0190938Y0241033D01*
X0191832Y0240566D02*
X0192299Y0241033D01*
X0193233Y0241033D01*
X0193700Y0240566D01*
X0193700Y0238698D01*
X0193233Y0238231D01*
X0192299Y0238231D01*
X0191832Y0238698D01*
X0192299Y0225033D02*
X0193233Y0225033D01*
X0193700Y0224566D01*
X0193700Y0222698D01*
X0193233Y0222231D01*
X0190938Y0222698D02*
X0190938Y0225033D01*
X0191832Y0224566D02*
X0192299Y0225033D01*
X0398594Y0224632D02*
X0399995Y0224632D01*
X0400462Y0225099D01*
X0400462Y0225566D01*
X0399995Y0226033D01*
X0399061Y0226033D01*
X0398594Y0225566D01*
X0398594Y0223698D01*
X0399061Y0223231D01*
X0399995Y0223231D01*
X0400462Y0223698D01*
X0401356Y0223231D02*
X0403225Y0223231D01*
X0402291Y0223231D02*
X0402291Y0226033D01*
X0403225Y0225099D01*
X0404119Y0226033D02*
X0405987Y0226033D01*
X0406881Y0226033D02*
X0406881Y0223698D01*
X0407348Y0223231D01*
X0408282Y0223231D01*
X0408749Y0223698D01*
X0408749Y0226033D01*
X0409644Y0225566D02*
X0410111Y0226033D01*
X0411045Y0226033D01*
X0411512Y0225566D01*
X0411512Y0223698D01*
X0411045Y0223231D01*
X0410111Y0223231D01*
X0409644Y0223698D01*
X0405053Y0223231D02*
X0405053Y0226033D01*
X0405053Y0231231D02*
X0405053Y0234033D01*
X0405987Y0234033D02*
X0404119Y0234033D01*
X0403225Y0233566D02*
X0402758Y0234033D01*
X0401824Y0234033D01*
X0401356Y0233566D01*
X0401356Y0233099D01*
X0403225Y0231231D01*
X0401356Y0231231D01*
X0400462Y0231231D02*
X0398594Y0233099D01*
X0398594Y0233566D01*
X0399061Y0234033D01*
X0399995Y0234033D01*
X0400462Y0233566D01*
X0400462Y0231231D02*
X0398594Y0231231D01*
X0399061Y0239231D02*
X0399995Y0239231D01*
X0400462Y0239698D01*
X0398594Y0241566D01*
X0398594Y0239698D01*
X0399061Y0239231D01*
X0400462Y0239698D02*
X0400462Y0241566D01*
X0399995Y0242033D01*
X0399061Y0242033D01*
X0398594Y0241566D01*
X0401356Y0241566D02*
X0401824Y0242033D01*
X0402758Y0242033D01*
X0403225Y0241566D01*
X0404119Y0242033D02*
X0405987Y0242033D01*
X0406881Y0242033D02*
X0406881Y0239698D01*
X0407348Y0239231D01*
X0408282Y0239231D01*
X0408749Y0239698D01*
X0408749Y0242033D01*
X0409644Y0241566D02*
X0410111Y0242033D01*
X0411045Y0242033D01*
X0411512Y0241566D01*
X0411512Y0239698D01*
X0411045Y0239231D01*
X0410111Y0239231D01*
X0409644Y0239698D01*
X0405053Y0239231D02*
X0405053Y0242033D01*
X0403225Y0239231D02*
X0401356Y0241099D01*
X0401356Y0241566D01*
X0401356Y0239231D02*
X0403225Y0239231D01*
X0406881Y0234033D02*
X0406881Y0231698D01*
X0407348Y0231231D01*
X0408282Y0231231D01*
X0408749Y0231698D01*
X0408749Y0234033D01*
X0409644Y0233566D02*
X0410111Y0234033D01*
X0411045Y0234033D01*
X0411512Y0233566D01*
X0411512Y0231698D01*
X0411045Y0231231D01*
X0410111Y0231231D01*
X0409644Y0231698D01*
X0410111Y0247231D02*
X0409644Y0247698D01*
X0410111Y0247231D02*
X0411045Y0247231D01*
X0411512Y0247698D01*
X0411512Y0249566D01*
X0411045Y0250033D01*
X0410111Y0250033D01*
X0409644Y0249566D01*
X0408749Y0250033D02*
X0408749Y0247698D01*
X0408282Y0247231D01*
X0407348Y0247231D01*
X0406881Y0247698D01*
X0406881Y0250033D01*
X0405987Y0250033D02*
X0404119Y0250033D01*
X0405053Y0250033D02*
X0405053Y0247231D01*
X0403225Y0247231D02*
X0401356Y0249099D01*
X0401356Y0249566D01*
X0401824Y0250033D01*
X0402758Y0250033D01*
X0403225Y0249566D01*
X0403225Y0247231D02*
X0401356Y0247231D01*
X0400462Y0247698D02*
X0399995Y0247231D01*
X0399061Y0247231D01*
X0398594Y0247698D01*
X0398594Y0248165D01*
X0399061Y0248632D01*
X0399528Y0248632D01*
X0399061Y0248632D02*
X0398594Y0249099D01*
X0398594Y0249566D01*
X0399061Y0250033D01*
X0399995Y0250033D01*
X0400462Y0249566D01*
X0400462Y0255231D02*
X0398594Y0255231D01*
X0399528Y0255231D02*
X0399528Y0258033D01*
X0400462Y0257099D01*
X0401356Y0257099D02*
X0401356Y0257566D01*
X0401824Y0258033D01*
X0402758Y0258033D01*
X0403225Y0257566D01*
X0404119Y0258033D02*
X0405987Y0258033D01*
X0406881Y0258033D02*
X0406881Y0255698D01*
X0407348Y0255231D01*
X0408282Y0255231D01*
X0408749Y0255698D01*
X0408749Y0258033D01*
X0409644Y0257566D02*
X0410111Y0258033D01*
X0411045Y0258033D01*
X0411512Y0257566D01*
X0411512Y0255698D01*
X0411045Y0255231D01*
X0410111Y0255231D01*
X0409644Y0255698D01*
X0405053Y0255231D02*
X0405053Y0258033D01*
X0403225Y0255231D02*
X0401356Y0257099D01*
X0401356Y0255231D02*
X0403225Y0255231D01*
X0403225Y0263231D02*
X0401356Y0265099D01*
X0401356Y0265566D01*
X0401824Y0266033D01*
X0402758Y0266033D01*
X0403225Y0265566D01*
X0404119Y0266033D02*
X0405987Y0266033D01*
X0406881Y0266033D02*
X0406881Y0263698D01*
X0407348Y0263231D01*
X0408282Y0263231D01*
X0408749Y0263698D01*
X0408749Y0266033D01*
X0409644Y0265566D02*
X0410111Y0266033D01*
X0411045Y0266033D01*
X0411512Y0265566D01*
X0411512Y0263698D01*
X0411045Y0263231D01*
X0410111Y0263231D01*
X0409644Y0263698D01*
X0405053Y0263231D02*
X0405053Y0266033D01*
X0403225Y0263231D02*
X0401356Y0263231D01*
X0400462Y0264632D02*
X0398594Y0264632D01*
X0399061Y0266033D02*
X0400462Y0264632D01*
X0399061Y0263231D02*
X0399061Y0266033D01*
X0498594Y0265566D02*
X0500462Y0263698D01*
X0499995Y0263231D01*
X0499061Y0263231D01*
X0498594Y0263698D01*
X0498594Y0265566D01*
X0499061Y0266033D01*
X0499995Y0266033D01*
X0500462Y0265566D01*
X0500462Y0263698D01*
X0501356Y0263698D02*
X0501824Y0263231D01*
X0502758Y0263231D01*
X0503225Y0263698D01*
X0502291Y0264632D02*
X0501824Y0264632D01*
X0501356Y0264165D01*
X0501356Y0263698D01*
X0501824Y0264632D02*
X0501356Y0265099D01*
X0501356Y0265566D01*
X0501824Y0266033D01*
X0502758Y0266033D01*
X0503225Y0265566D01*
X0504119Y0266033D02*
X0505987Y0266033D01*
X0506881Y0266033D02*
X0506881Y0263698D01*
X0507348Y0263231D01*
X0508282Y0263231D01*
X0508749Y0263698D01*
X0508749Y0266033D01*
X0509644Y0265566D02*
X0510111Y0266033D01*
X0511045Y0266033D01*
X0511512Y0265566D01*
X0511512Y0263698D01*
X0511045Y0263231D01*
X0510111Y0263231D01*
X0509644Y0263698D01*
X0505053Y0263231D02*
X0505053Y0266033D01*
X0505053Y0258033D02*
X0505053Y0255231D01*
X0503225Y0255231D02*
X0501356Y0257099D01*
X0501356Y0257566D01*
X0501824Y0258033D01*
X0502758Y0258033D01*
X0503225Y0257566D01*
X0504119Y0258033D02*
X0505987Y0258033D01*
X0506881Y0258033D02*
X0506881Y0255698D01*
X0507348Y0255231D01*
X0508282Y0255231D01*
X0508749Y0255698D01*
X0508749Y0258033D01*
X0509644Y0257566D02*
X0510111Y0258033D01*
X0511045Y0258033D01*
X0511512Y0257566D01*
X0511512Y0255698D01*
X0511045Y0255231D01*
X0510111Y0255231D01*
X0509644Y0255698D01*
X0510111Y0250033D02*
X0511045Y0250033D01*
X0511512Y0249566D01*
X0511512Y0247698D01*
X0511045Y0247231D01*
X0510111Y0247231D01*
X0509644Y0247698D01*
X0508749Y0247698D02*
X0508282Y0247231D01*
X0507348Y0247231D01*
X0506881Y0247698D01*
X0506881Y0250033D01*
X0505987Y0250033D02*
X0504119Y0250033D01*
X0505053Y0250033D02*
X0505053Y0247231D01*
X0503225Y0247231D02*
X0501356Y0249099D01*
X0501356Y0249566D01*
X0501824Y0250033D01*
X0502758Y0250033D01*
X0503225Y0249566D01*
X0503225Y0247231D02*
X0501356Y0247231D01*
X0500462Y0247698D02*
X0499995Y0247231D01*
X0499061Y0247231D01*
X0498594Y0247698D01*
X0498594Y0249566D01*
X0499061Y0250033D01*
X0499995Y0250033D01*
X0500462Y0249566D01*
X0500462Y0249099D01*
X0499995Y0248632D01*
X0498594Y0248632D01*
X0498594Y0242033D02*
X0499528Y0241566D01*
X0500462Y0240632D01*
X0499061Y0240632D01*
X0498594Y0240165D01*
X0498594Y0239698D01*
X0499061Y0239231D01*
X0499995Y0239231D01*
X0500462Y0239698D01*
X0500462Y0240632D01*
X0501356Y0241099D02*
X0501356Y0241566D01*
X0501824Y0242033D01*
X0502758Y0242033D01*
X0503225Y0241566D01*
X0504119Y0242033D02*
X0505987Y0242033D01*
X0506881Y0242033D02*
X0506881Y0239698D01*
X0507348Y0239231D01*
X0508282Y0239231D01*
X0508749Y0239698D01*
X0508749Y0242033D01*
X0509644Y0241566D02*
X0510111Y0242033D01*
X0511045Y0242033D01*
X0511512Y0241566D01*
X0511512Y0239698D01*
X0511045Y0239231D01*
X0510111Y0239231D01*
X0509644Y0239698D01*
X0505053Y0239231D02*
X0505053Y0242033D01*
X0503225Y0239231D02*
X0501356Y0241099D01*
X0501356Y0239231D02*
X0503225Y0239231D01*
X0502758Y0234033D02*
X0503225Y0233566D01*
X0502758Y0234033D02*
X0501824Y0234033D01*
X0501356Y0233566D01*
X0501356Y0233099D01*
X0503225Y0231231D01*
X0501356Y0231231D01*
X0500462Y0231698D02*
X0500462Y0232165D01*
X0499995Y0232632D01*
X0499061Y0232632D01*
X0498594Y0232165D01*
X0498594Y0231698D01*
X0499061Y0231231D01*
X0499995Y0231231D01*
X0500462Y0231698D01*
X0499995Y0232632D02*
X0500462Y0233099D01*
X0500462Y0233566D01*
X0499995Y0234033D01*
X0499061Y0234033D01*
X0498594Y0233566D01*
X0498594Y0233099D01*
X0499061Y0232632D01*
X0504119Y0234033D02*
X0505987Y0234033D01*
X0506881Y0234033D02*
X0506881Y0231698D01*
X0507348Y0231231D01*
X0508282Y0231231D01*
X0508749Y0231698D01*
X0508749Y0234033D01*
X0509644Y0233566D02*
X0510111Y0234033D01*
X0511045Y0234033D01*
X0511512Y0233566D01*
X0511512Y0231698D01*
X0511045Y0231231D01*
X0510111Y0231231D01*
X0509644Y0231698D01*
X0505053Y0231231D02*
X0505053Y0234033D01*
X0505053Y0226033D02*
X0505053Y0223231D01*
X0503225Y0223231D02*
X0501356Y0225099D01*
X0501356Y0225566D01*
X0501824Y0226033D01*
X0502758Y0226033D01*
X0503225Y0225566D01*
X0504119Y0226033D02*
X0505987Y0226033D01*
X0506881Y0226033D02*
X0506881Y0223698D01*
X0507348Y0223231D01*
X0508282Y0223231D01*
X0508749Y0223698D01*
X0508749Y0226033D01*
X0509644Y0225566D02*
X0510111Y0226033D01*
X0511045Y0226033D01*
X0511512Y0225566D01*
X0511512Y0223698D01*
X0511045Y0223231D01*
X0510111Y0223231D01*
X0509644Y0223698D01*
X0503225Y0223231D02*
X0501356Y0223231D01*
X0500462Y0223698D02*
X0499995Y0223231D01*
X0499061Y0223231D01*
X0498594Y0223698D01*
X0498594Y0224632D01*
X0499061Y0225099D01*
X0499528Y0225099D01*
X0500462Y0224632D01*
X0500462Y0226033D01*
X0498594Y0226033D01*
X0508749Y0247698D02*
X0508749Y0250033D01*
X0509644Y0249566D02*
X0510111Y0250033D01*
X0503225Y0255231D02*
X0501356Y0255231D01*
X0500462Y0255231D02*
X0500462Y0255698D01*
X0498594Y0257566D01*
X0498594Y0258033D01*
X0500462Y0258033D01*
X0576594Y0257566D02*
X0576594Y0257099D01*
X0577061Y0256632D01*
X0576594Y0256165D01*
X0576594Y0255698D01*
X0577061Y0255231D01*
X0577995Y0255231D01*
X0578462Y0255698D01*
X0579356Y0255698D02*
X0579824Y0255231D01*
X0580758Y0255231D01*
X0581225Y0255698D01*
X0580291Y0256632D02*
X0579824Y0256632D01*
X0579356Y0256165D01*
X0579356Y0255698D01*
X0579824Y0256632D02*
X0579356Y0257099D01*
X0579356Y0257566D01*
X0579824Y0258033D01*
X0580758Y0258033D01*
X0581225Y0257566D01*
X0582119Y0258033D02*
X0583987Y0258033D01*
X0584881Y0258033D02*
X0584881Y0255698D01*
X0585348Y0255231D01*
X0586282Y0255231D01*
X0586749Y0255698D01*
X0586749Y0258033D01*
X0587644Y0257566D02*
X0588111Y0258033D01*
X0589045Y0258033D01*
X0589512Y0257566D01*
X0589512Y0255698D01*
X0589045Y0255231D01*
X0588111Y0255231D01*
X0587644Y0255698D01*
X0583053Y0255231D02*
X0583053Y0258033D01*
X0578462Y0257566D02*
X0577995Y0258033D01*
X0577061Y0258033D01*
X0576594Y0257566D01*
X0577061Y0256632D02*
X0577528Y0256632D01*
X0577061Y0263231D02*
X0576594Y0263698D01*
X0576594Y0264165D01*
X0577061Y0264632D01*
X0578462Y0264632D01*
X0578462Y0263698D01*
X0577995Y0263231D01*
X0577061Y0263231D01*
X0578462Y0264632D02*
X0577528Y0265566D01*
X0576594Y0266033D01*
X0579356Y0265566D02*
X0579356Y0265099D01*
X0579824Y0264632D01*
X0579356Y0264165D01*
X0579356Y0263698D01*
X0579824Y0263231D01*
X0580758Y0263231D01*
X0581225Y0263698D01*
X0580291Y0264632D02*
X0579824Y0264632D01*
X0579356Y0265566D02*
X0579824Y0266033D01*
X0580758Y0266033D01*
X0581225Y0265566D01*
X0582119Y0266033D02*
X0583987Y0266033D01*
X0584881Y0266033D02*
X0584881Y0263698D01*
X0585348Y0263231D01*
X0586282Y0263231D01*
X0586749Y0263698D01*
X0586749Y0266033D01*
X0587644Y0265566D02*
X0588111Y0266033D01*
X0589045Y0266033D01*
X0589512Y0265566D01*
X0589512Y0263698D01*
X0589045Y0263231D01*
X0588111Y0263231D01*
X0587644Y0263698D01*
X0583053Y0263231D02*
X0583053Y0266033D01*
X0583053Y0250033D02*
X0583053Y0247231D01*
X0584881Y0247698D02*
X0584881Y0250033D01*
X0583987Y0250033D02*
X0582119Y0250033D01*
X0581225Y0249566D02*
X0580758Y0250033D01*
X0579824Y0250033D01*
X0579356Y0249566D01*
X0579356Y0249099D01*
X0579824Y0248632D01*
X0579356Y0248165D01*
X0579356Y0247698D01*
X0579824Y0247231D01*
X0580758Y0247231D01*
X0581225Y0247698D01*
X0580291Y0248632D02*
X0579824Y0248632D01*
X0578462Y0248632D02*
X0577528Y0249099D01*
X0577061Y0249099D01*
X0576594Y0248632D01*
X0576594Y0247698D01*
X0577061Y0247231D01*
X0577995Y0247231D01*
X0578462Y0247698D01*
X0578462Y0248632D02*
X0578462Y0250033D01*
X0576594Y0250033D01*
X0577061Y0242033D02*
X0577995Y0242033D01*
X0578462Y0241566D01*
X0579356Y0241566D02*
X0579356Y0241099D01*
X0579824Y0240632D01*
X0579356Y0240165D01*
X0579356Y0239698D01*
X0579824Y0239231D01*
X0580758Y0239231D01*
X0581225Y0239698D01*
X0580291Y0240632D02*
X0579824Y0240632D01*
X0579356Y0241566D02*
X0579824Y0242033D01*
X0580758Y0242033D01*
X0581225Y0241566D01*
X0582119Y0242033D02*
X0583987Y0242033D01*
X0584881Y0242033D02*
X0584881Y0239698D01*
X0585348Y0239231D01*
X0586282Y0239231D01*
X0586749Y0239698D01*
X0586749Y0242033D01*
X0587644Y0241566D02*
X0588111Y0242033D01*
X0589045Y0242033D01*
X0589512Y0241566D01*
X0589512Y0239698D01*
X0589045Y0239231D01*
X0588111Y0239231D01*
X0587644Y0239698D01*
X0583053Y0239231D02*
X0583053Y0242033D01*
X0578462Y0239231D02*
X0576594Y0241099D01*
X0576594Y0241566D01*
X0577061Y0242033D01*
X0576594Y0239231D02*
X0578462Y0239231D01*
X0579824Y0234033D02*
X0579356Y0233566D01*
X0579356Y0233099D01*
X0579824Y0232632D01*
X0579356Y0232165D01*
X0579356Y0231698D01*
X0579824Y0231231D01*
X0580758Y0231231D01*
X0581225Y0231698D01*
X0580291Y0232632D02*
X0579824Y0232632D01*
X0578462Y0232632D02*
X0576594Y0232632D01*
X0577061Y0234033D02*
X0578462Y0232632D01*
X0579824Y0234033D02*
X0580758Y0234033D01*
X0581225Y0233566D01*
X0582119Y0234033D02*
X0583987Y0234033D01*
X0584881Y0234033D02*
X0584881Y0231698D01*
X0585348Y0231231D01*
X0586282Y0231231D01*
X0586749Y0231698D01*
X0586749Y0234033D01*
X0587644Y0233566D02*
X0588111Y0234033D01*
X0589045Y0234033D01*
X0589512Y0233566D01*
X0589512Y0231698D01*
X0589045Y0231231D01*
X0588111Y0231231D01*
X0587644Y0231698D01*
X0583053Y0231231D02*
X0583053Y0234033D01*
X0577061Y0234033D02*
X0577061Y0231231D01*
X0577528Y0226033D02*
X0577528Y0223231D01*
X0578462Y0223231D02*
X0576594Y0223231D01*
X0578462Y0225099D02*
X0577528Y0226033D01*
X0579356Y0225566D02*
X0579356Y0225099D01*
X0579824Y0224632D01*
X0579356Y0224165D01*
X0579356Y0223698D01*
X0579824Y0223231D01*
X0580758Y0223231D01*
X0581225Y0223698D01*
X0580291Y0224632D02*
X0579824Y0224632D01*
X0579356Y0225566D02*
X0579824Y0226033D01*
X0580758Y0226033D01*
X0581225Y0225566D01*
X0582119Y0226033D02*
X0583987Y0226033D01*
X0584881Y0226033D02*
X0584881Y0223698D01*
X0585348Y0223231D01*
X0586282Y0223231D01*
X0586749Y0223698D01*
X0586749Y0226033D01*
X0587644Y0225566D02*
X0588111Y0226033D01*
X0589045Y0226033D01*
X0589512Y0225566D01*
X0589512Y0223698D01*
X0589045Y0223231D01*
X0588111Y0223231D01*
X0587644Y0223698D01*
X0583053Y0223231D02*
X0583053Y0226033D01*
X0585348Y0247231D02*
X0584881Y0247698D01*
X0585348Y0247231D02*
X0586282Y0247231D01*
X0586749Y0247698D01*
X0586749Y0250033D01*
X0587644Y0249566D02*
X0588111Y0250033D01*
X0589045Y0250033D01*
X0589512Y0249566D01*
X0589512Y0247698D01*
X0589045Y0247231D01*
X0588111Y0247231D01*
X0587644Y0247698D01*
M02*
