%
M48
M72
T01C0.0197
T02C0.0315
T03C0.0331
T04C0.0394
T05C0.0400
T06C0.0590
T07C0.0787
T08C0.1575
%
T01
X3080Y6513
X4180Y8763
X5380Y7963
X6580Y7813
X7680Y8513
X8580Y9813
X9180Y10413
X10380Y11413
X10980Y12013
X10180Y12613
X9780Y13413
X9980Y15213
X10380Y15813
X10580Y16613
X10780Y17213
X11380Y17613
X11180Y18213
X10680Y18913
X11180Y19413
X11380Y20213
X13480Y19313
X13980Y20013
X15280Y20113
X17280Y20113
X17680Y18113
X17980Y17213
X17780Y16013
X19180Y14813
X19580Y14413
X19180Y14013
X19180Y13413
X17180Y13813
X15780Y12013
X16580Y10613
X16280Y8713
X14980Y7813
X14280Y7113
X14380Y9813
X13080Y9713
X14380Y11813
X10880Y8513
X10680Y7313
X7780Y10413
X7380Y11813
X5580Y12013
X5580Y12813
X5080Y15113
X5580Y16013
X6480Y17113
X6880Y19313
X5380Y20013
X4880Y19113
X3080Y21313
X2380Y20213
X2880Y19113
X2180Y19013
X2880Y18113
X1180Y17613
X2180Y15813
X1980Y15213
X1780Y14613
X1830Y13313
X2180Y12813
X2580Y13213
X2980Y12613
X1180Y12213
X1080Y10313
X5580Y9813
X3980Y15563
X2930Y15563
X8980Y20413
X8480Y22113
X12180Y23413
X12580Y22813
X12180Y24213
X12180Y25013
X12180Y25813
X12180Y26613
X15880Y27313
X15880Y25513
X18480Y26313
X20980Y26413
X20980Y25813
X20980Y25013
X20980Y24213
X20980Y23213
X21380Y22413
X20680Y21313
X19980Y20213
X19380Y19613
X20180Y17813
X21980Y17213
X22180Y16213
X22080Y18513
X22480Y20913
X23480Y23113
X22680Y25313
X23480Y27113
X26880Y23113
X28880Y20713
X29180Y18813
X28280Y18113
X26180Y19813
X25380Y20013
X25880Y17113
X24680Y14913
X25380Y12013
X26993Y12026
X28180Y10013
X28180Y9413
X28180Y8613
X28780Y7813
X28680Y6913
X27180Y7213
X25980Y7813
X24280Y6913
X21880Y8913
X21980Y10013
X23480Y9513
X23780Y11613
X25380Y10013
X27180Y9613
X30680Y10313
X31380Y9213
X31980Y9013
X32380Y9413
X33080Y9713
X34380Y9813
X35180Y7813
X34480Y7313
X32780Y6413
X31880Y7113
X31380Y8413
X30580Y7813
X30880Y4513
X28680Y4513
X27180Y5413
X21580Y11613
X20780Y12013
X19180Y10213
X19680Y9513
X18580Y11413
X18680Y7113
X13480Y15913
X9680Y17513
X3980Y22813
X3580Y23413
X3580Y24213
X3580Y25013
X3580Y25813
X3580Y26613
X3080Y37526
X4580Y37726
X4580Y37226
X4580Y36776
X4580Y38226
X4630Y38776
X6630Y39576
X6580Y40076
X6530Y40576
X6530Y41076
X6430Y41526
X7680Y41776
X7980Y41376
X8480Y41176
X8480Y41976
X10180Y41826
X8980Y38676
X9180Y38276
X9380Y37876
X9580Y37476
X9780Y37076
X10580Y37076
X10880Y37476
X11180Y37876
X11380Y38326
X11630Y38726
X13030Y42326
X14730Y43276
X15080Y44676
X17380Y43476
X17630Y42476
X17580Y40776
X18330Y39326
X18580Y38876
X18780Y38476
X18980Y38076
X19180Y37676
X19380Y37276
X19580Y36876
X19780Y36476
X19980Y36076
X20180Y35676
X20180Y34576
X19680Y33426
X20480Y33076
X20980Y32976
X21480Y32876
X22680Y33826
X24380Y33876
X27730Y35026
X27580Y36476
X27780Y37926
X27580Y38676
X27580Y39376
X26330Y41376
X25430Y40376
X23430Y38876
X21980Y39926
X20630Y40276
X20730Y41026
X20230Y41126
X20330Y42376
X21080Y42826
X21280Y43276
X21880Y43326
X21780Y42676
X23080Y43476
X24380Y43376
X25430Y44176
X24430Y45726
X21880Y45926
X20880Y44076
X18080Y44576
X21780Y48126
X22180Y49126
X22230Y50126
X19380Y53676
X19180Y54076
X18980Y54476
X18780Y54876
X18580Y55276
X17580Y55676
X17680Y54376
X16430Y54876
X18080Y51226
X15580Y50876
X13080Y52276
X11280Y52326
X9980Y54276
X8080Y54276
X7830Y55526
X8530Y56826
X4280Y51726
X1980Y51576
X3580Y55076
X5780Y48526
X4780Y47926
X1830Y45176
X1580Y46926
X4130Y44626
X3230Y40726
X6930Y38476
X5930Y35776
X5230Y33776
X8080Y32576
X8280Y32976
X8480Y33476
X10180Y33226
X14980Y36626
X20530Y39026
X29580Y38626
X30080Y40176
X31830Y40076
X32580Y41626
X32480Y42376
X33080Y42776
X33380Y42376
X35580Y41576
X35980Y41876
X35780Y42376
X37130Y42626
X38680Y42526
X39630Y42126
X40180Y42076
X40580Y43076
X42230Y43476
X40930Y44626
X39380Y44876
X36930Y45076
X35780Y44376
X38680Y41126
X39230Y39626
X41330Y40426
X43380Y38676
X43980Y38676
X44580Y38476
X44380Y39226
X44180Y40076
X44530Y40626
X44780Y41026
X44980Y41476
X45180Y41876
X45380Y42276
X48680Y41976
X49580Y41576
X50180Y41976
X50730Y40626
X52380Y40226
X52580Y40626
X52780Y41026
X52980Y41476
X53380Y42276
X54130Y44676
X55980Y45676
X55980Y46276
X55980Y47076
X56380Y47876
X56580Y48476
X56780Y49076
X57282Y46467
X57282Y45955
X54080Y50576
X51580Y50726
X49580Y51176
X49880Y53176
X50980Y53026
X46830Y56326
X43580Y53026
X41780Y54076
X41580Y53676
X41380Y53276
X41180Y52876
X41980Y54476
X41480Y55276
X42930Y55526
X42180Y58676
X38180Y53076
X37680Y49676
X35180Y49276
X33180Y50076
X32380Y47176
X31230Y46676
X31180Y45026
X30580Y44476
X33980Y39476
X33980Y38876
X34080Y38226
X36030Y38226
X31830Y36726
X31480Y35176
X29580Y35226
X34880Y32976
X37080Y26313
X37980Y26013
X38180Y25413
X38180Y24813
X38180Y24213
X37080Y23513
X37980Y22813
X37780Y22013
X37480Y20513
X39380Y18813
X39780Y18213
X38480Y17513
X37580Y17213
X37580Y16213
X37480Y15313
X39180Y15013
X38780Y14013
X39580Y13813
X39580Y13213
X39280Y11713
X40580Y10613
X39980Y10013
X39880Y8513
X39880Y7113
X41680Y8913
X41880Y9713
X43480Y9513
X45380Y9813
X46880Y8513
X47380Y9013
X47180Y10013
X47180Y11613
X48980Y11613
X49180Y13013
X49180Y13613
X49180Y14413
X49380Y15013
X48580Y16413
X48380Y16813
X47980Y17413
X48580Y18013
X48380Y18813
X50680Y20113
X50980Y18413
X50980Y17813
X53080Y16513
X53180Y15213
X54480Y16713
X57080Y17113
X56780Y18213
X56780Y19213
X55080Y20113
X56580Y21413
X55380Y23213
X55380Y24413
X55380Y25013
X55380Y25613
X55380Y26213
X57880Y27113
X55830Y37826
X55530Y38226
X55280Y38626
X55030Y39026
X54780Y39426
X52030Y39176
X51630Y38926
X51230Y38676
X50780Y38526
X50380Y38276
X49880Y38126
X49430Y37926
X49030Y37726
X48630Y37476
X48230Y37226
X47480Y38426
X46530Y35326
X47080Y33876
X47780Y33076
X46180Y33076
X44880Y34126
X42730Y32976
X47280Y26713
X47980Y26213
X48180Y25613
X48180Y24813
X48180Y24213
X47080Y24113
X47980Y23013
X47980Y22213
X51980Y22613
X52380Y20613
X53080Y19913
X57380Y15213
X57380Y14213
X57780Y13813
X57780Y13213
X58280Y11513
X57080Y10113
X55380Y10013
X55480Y9113
X54380Y7813
X55080Y6313
X52680Y6713
X52480Y9713
X53780Y9813
X53580Y11813
X53780Y12813
X52180Y12413
X50980Y14013
X50180Y10213
X49080Y9513
X45980Y7813
X44480Y7113
X47680Y5713
X45180Y12013
X43580Y12013
X41780Y12213
X41580Y11413
X41680Y13313
X41780Y14213
X41980Y14813
X42180Y15413
X44680Y15313
X45480Y16913
X42280Y20113
X43580Y20813
X43180Y22213
X41380Y21613
X43080Y24113
X40780Y25213
X35880Y24313
X35080Y20313
X32880Y17313
X32880Y15713
X34680Y15313
X34680Y16913
X31680Y19913
X31880Y25113
X42180Y18613
X37380Y12613
X36280Y12313
X36780Y10613
X36480Y9513
X36580Y7013
X32580Y11813
X17680Y22313
X6880Y27313
X8380Y44676
X22880Y57526
X23230Y55076
X26980Y57926
X26580Y58676
X27780Y59876
X30180Y58126
X31180Y59126
X31880Y58026
X30217Y55264
X29017Y55864
X29180Y51276
X25380Y49626
X35880Y57776
X45780Y50676
X43330Y45026
X53430Y35926
X53630Y33226
X50430Y34026
X51680Y26713
X57280Y53676
X56980Y55676
X56580Y56076
X56180Y56476
X55780Y56876
T02
X9708Y58841
X11597Y60023
T03
X5109Y13562
X6275Y13562
X7308Y14104
X7970Y15064
X8111Y16222
X7697Y17312
X6824Y18086
X5692Y18365
X4559Y18086
X3686Y17312
X3273Y16222
X3413Y15064
X4076Y14104
X11934Y16222
X12348Y17312
X13221Y18086
X14353Y18365
X15486Y18086
X16359Y17312
X16772Y16222
X16632Y15064
X15969Y14104
X14936Y13562
X13770Y13562
X12737Y14104
X12075Y15064
X22958Y16222
X23371Y17312
X24244Y18086
X25377Y18365
X26509Y18086
X27382Y17312
X27796Y16222
X27655Y15064
X26993Y14104
X25960Y13562
X24794Y13562
X23761Y14104
X23098Y15064
X31619Y16222
X32033Y17312
X32906Y18086
X34038Y18365
X35171Y18086
X36044Y17312
X36457Y16222
X36317Y15064
X35654Y14104
X34621Y13562
X33455Y13562
X32422Y14104
X31760Y15064
X42643Y16222
X43056Y17312
X43929Y18086
X45062Y18365
X46194Y18086
X47067Y17312
X47481Y16222
X47341Y15064
X46678Y14104
X45645Y13562
X44479Y13562
X43446Y14104
X42783Y15064
X51304Y16222
X51718Y17312
X52591Y18086
X53723Y18365
X54856Y18086
X55729Y17312
X56143Y16222
X56002Y15064
X55339Y14104
X54306Y13562
X53140Y13562
X52107Y14104
X51445Y15064
T04
X22430Y35076
X22430Y36076
X11597Y57660
T05
X5192Y21302
X6192Y21302
X6192Y22302
X6192Y23302
X6192Y24302
X6192Y25302
X6192Y26302
X5192Y26302
X5192Y25302
X5192Y24302
X5192Y23302
X5192Y22302
X13853Y26302
X13853Y25302
X13853Y24302
X13853Y23302
X13853Y22302
X13853Y21302
X14853Y21302
X14853Y22302
X14853Y23302
X14853Y24302
X14853Y25302
X14853Y26302
X24877Y26302
X25877Y26302
X25877Y25302
X25877Y24302
X24877Y24302
X24877Y25302
X24877Y23302
X25877Y23302
X25877Y22302
X24877Y22302
X24877Y21302
X25877Y21302
X28526Y25771
X29526Y25771
X30526Y25771
X33538Y25302
X33538Y24302
X33538Y23302
X33538Y22302
X33538Y21302
X34538Y21302
X34538Y22302
X34538Y23302
X34538Y24302
X34538Y25302
X34538Y26302
X33538Y26302
X25080Y35076
X25080Y36076
X25080Y37076
X24877Y52798
X25877Y52798
X25877Y53798
X24877Y53798
X24877Y54798
X25877Y54798
X25877Y55798
X25877Y56798
X24877Y56798
X24877Y55798
X24877Y57798
X25877Y57798
X28526Y57267
X29526Y57267
X30526Y57267
X33538Y56798
X33538Y55798
X33538Y54798
X33538Y53798
X33538Y52798
X34538Y52798
X34538Y53798
X34538Y54798
X34538Y55798
X34538Y56798
X34538Y57798
X33538Y57798
X32566Y62087
X30786Y62087
X28629Y62087
X26849Y62087
X24692Y62087
X22912Y62087
X20755Y62087
X18975Y62087
X14853Y57798
X13853Y57798
X13853Y56798
X13853Y55798
X13853Y54798
X13853Y53798
X13853Y52798
X14853Y52798
X14853Y53798
X14853Y54798
X14853Y55798
X14853Y56798
X6192Y56798
X6192Y55798
X6192Y54798
X6192Y53798
X6192Y52798
X5192Y52798
X5192Y53798
X5192Y54798
X5192Y55798
X5192Y56798
X5192Y57798
X6192Y57798
X34723Y62087
X36503Y62087
X38660Y62087
X40440Y62087
X44562Y57798
X44562Y56798
X44562Y55798
X44562Y54798
X44562Y53798
X44562Y52798
X45562Y52798
X45562Y53798
X45562Y54798
X45562Y55798
X45562Y56798
X45562Y57798
X53223Y57798
X54223Y57798
X54223Y56798
X53223Y56798
X53223Y55798
X54223Y55798
X54223Y54798
X53223Y54798
X53223Y53798
X53223Y52798
X54223Y52798
X54223Y53798
X58318Y53179
X58318Y52179
X58318Y51179
X58318Y50179
X58318Y49179
X58318Y48179
X54223Y21302
X53223Y21302
X53223Y22302
X53223Y23302
X54223Y23302
X54223Y22302
X54223Y24302
X53223Y24302
X53223Y25302
X54223Y25302
X54223Y26302
X53223Y26302
X45562Y26302
X45562Y25302
X45562Y24302
X45562Y23302
X45562Y22302
X45562Y21302
X44562Y21302
X44562Y22302
X44562Y23302
X44562Y24302
X44562Y25302
X44562Y26302
T06
X18485Y61107
X21245Y61107
X22422Y61107
X25182Y61107
X26359Y61107
X29119Y61107
X30296Y61107
X33056Y61107
X34233Y61107
X36993Y61107
X38170Y61107
X40930Y61107
T07
X35190Y36202
X43839Y36202
T08
X3330Y3330
X3330Y28526
X3330Y34826
X3330Y60023
X56086Y60023
X56086Y3330
X56086Y28526
X56086Y34826
M30
