G75*
%MOIN*%
%OFA0B0*%
%FSLAX25Y25*%
%IPPOS*%
%LPD*%
%AMOC8*
5,1,8,0,0,1.08239X$1,22.5*
%
%ADD10C,0.01600*%
%ADD11C,0.08200*%
%ADD12OC8,0.08400*%
%ADD13R,0.04737X0.05131*%
%ADD14R,0.05131X0.04737*%
%ADD15OC8,0.06800*%
%ADD16R,0.03359X0.10249*%
%ADD17R,0.10249X0.03359*%
%ADD18R,0.02454X0.03162*%
%ADD19R,0.08800X0.03400*%
%ADD20R,0.07099X0.11430*%
%ADD21R,0.06312X0.06312*%
%ADD22R,0.06312X0.04737*%
%ADD23R,0.04737X0.06312*%
%ADD24R,0.22454X0.17335*%
%ADD25R,0.10643X0.17729*%
%ADD26R,0.12611X0.05524*%
%ADD27R,0.05524X0.12611*%
%ADD28R,0.17335X0.22454*%
%ADD29R,0.08600X0.03000*%
%ADD30R,0.05918X0.06706*%
%ADD31R,0.06706X0.05918*%
%ADD32R,0.08280X0.05131*%
%ADD33C,0.59855*%
%ADD34C,0.15800*%
%ADD35R,0.12611X0.09068*%
%ADD36R,0.08674X0.03950*%
%ADD37C,0.04769*%
%ADD38R,0.09855X0.10643*%
%ADD39R,0.10643X0.09855*%
%ADD40C,0.09400*%
%ADD41C,0.09650*%
%ADD42R,0.10643X0.08674*%
%ADD43R,0.11036X0.08674*%
%ADD44R,0.05918X0.07099*%
%ADD45R,0.08674X0.10643*%
%ADD46R,0.08674X0.11036*%
%ADD47R,0.05600X0.09600*%
%ADD48R,0.14973X0.09461*%
%ADD49R,0.09600X0.05600*%
%ADD50R,0.09461X0.14973*%
%ADD51C,0.06107*%
%ADD52C,0.00500*%
%ADD53C,0.26200*%
D10*
X0001800Y0021485D02*
X0001800Y0297076D01*
X0001806Y0297552D01*
X0001823Y0298027D01*
X0001852Y0298502D01*
X0001892Y0298976D01*
X0001944Y0299449D01*
X0002007Y0299920D01*
X0002081Y0300390D01*
X0002167Y0300858D01*
X0002264Y0301324D01*
X0002372Y0301787D01*
X0002491Y0302247D01*
X0002622Y0302705D01*
X0002763Y0303159D01*
X0002916Y0303610D01*
X0003079Y0304056D01*
X0003253Y0304499D01*
X0003438Y0304937D01*
X0003633Y0305371D01*
X0003839Y0305800D01*
X0004055Y0306224D01*
X0004281Y0306643D01*
X0004517Y0307056D01*
X0004763Y0307463D01*
X0005019Y0307864D01*
X0005285Y0308258D01*
X0005560Y0308647D01*
X0005844Y0309028D01*
X0006137Y0309402D01*
X0006439Y0309770D01*
X0006751Y0310130D01*
X0007070Y0310482D01*
X0007398Y0310826D01*
X0007735Y0311163D01*
X0008079Y0311491D01*
X0008431Y0311810D01*
X0008791Y0312122D01*
X0009159Y0312424D01*
X0009533Y0312717D01*
X0009914Y0313001D01*
X0010303Y0313276D01*
X0010697Y0313542D01*
X0011098Y0313798D01*
X0011505Y0314044D01*
X0011918Y0314280D01*
X0012337Y0314506D01*
X0012761Y0314722D01*
X0013190Y0314928D01*
X0013624Y0315123D01*
X0014062Y0315308D01*
X0014505Y0315482D01*
X0014951Y0315645D01*
X0015402Y0315798D01*
X0015856Y0315939D01*
X0016314Y0316070D01*
X0016774Y0316189D01*
X0017237Y0316297D01*
X0017703Y0316394D01*
X0018171Y0316480D01*
X0018641Y0316554D01*
X0019112Y0316617D01*
X0019585Y0316669D01*
X0020059Y0316709D01*
X0020534Y0316738D01*
X0021009Y0316755D01*
X0021485Y0316761D01*
X0572666Y0316761D01*
X0573142Y0316755D01*
X0573617Y0316738D01*
X0574092Y0316709D01*
X0574566Y0316669D01*
X0575039Y0316617D01*
X0575510Y0316554D01*
X0575980Y0316480D01*
X0576448Y0316394D01*
X0576914Y0316297D01*
X0577377Y0316189D01*
X0577837Y0316070D01*
X0578295Y0315939D01*
X0578749Y0315798D01*
X0579200Y0315645D01*
X0579646Y0315482D01*
X0580089Y0315308D01*
X0580527Y0315123D01*
X0580961Y0314928D01*
X0581390Y0314722D01*
X0581814Y0314506D01*
X0582233Y0314280D01*
X0582646Y0314044D01*
X0583053Y0313798D01*
X0583454Y0313542D01*
X0583848Y0313276D01*
X0584237Y0313001D01*
X0584618Y0312717D01*
X0584992Y0312424D01*
X0585360Y0312122D01*
X0585720Y0311810D01*
X0586072Y0311491D01*
X0586416Y0311163D01*
X0586753Y0310826D01*
X0587081Y0310482D01*
X0587400Y0310130D01*
X0587712Y0309770D01*
X0588014Y0309402D01*
X0588307Y0309028D01*
X0588591Y0308647D01*
X0588866Y0308258D01*
X0589132Y0307864D01*
X0589388Y0307463D01*
X0589634Y0307056D01*
X0589870Y0306643D01*
X0590096Y0306224D01*
X0590312Y0305800D01*
X0590518Y0305371D01*
X0590713Y0304937D01*
X0590898Y0304499D01*
X0591072Y0304056D01*
X0591235Y0303610D01*
X0591388Y0303159D01*
X0591529Y0302705D01*
X0591660Y0302247D01*
X0591779Y0301787D01*
X0591887Y0301324D01*
X0591984Y0300858D01*
X0592070Y0300390D01*
X0592144Y0299920D01*
X0592207Y0299449D01*
X0592259Y0298976D01*
X0592299Y0298502D01*
X0592328Y0298027D01*
X0592345Y0297552D01*
X0592351Y0297076D01*
X0592351Y0021485D01*
X0592345Y0021009D01*
X0592328Y0020534D01*
X0592299Y0020059D01*
X0592259Y0019585D01*
X0592207Y0019112D01*
X0592144Y0018641D01*
X0592070Y0018171D01*
X0591984Y0017703D01*
X0591887Y0017237D01*
X0591779Y0016774D01*
X0591660Y0016314D01*
X0591529Y0015856D01*
X0591388Y0015402D01*
X0591235Y0014951D01*
X0591072Y0014505D01*
X0590898Y0014062D01*
X0590713Y0013624D01*
X0590518Y0013190D01*
X0590312Y0012761D01*
X0590096Y0012337D01*
X0589870Y0011918D01*
X0589634Y0011505D01*
X0589388Y0011098D01*
X0589132Y0010697D01*
X0588866Y0010303D01*
X0588591Y0009914D01*
X0588307Y0009533D01*
X0588014Y0009159D01*
X0587712Y0008791D01*
X0587400Y0008431D01*
X0587081Y0008079D01*
X0586753Y0007735D01*
X0586416Y0007398D01*
X0586072Y0007070D01*
X0585720Y0006751D01*
X0585360Y0006439D01*
X0584992Y0006137D01*
X0584618Y0005844D01*
X0584237Y0005560D01*
X0583848Y0005285D01*
X0583454Y0005019D01*
X0583053Y0004763D01*
X0582646Y0004517D01*
X0582233Y0004281D01*
X0581814Y0004055D01*
X0581390Y0003839D01*
X0580961Y0003633D01*
X0580527Y0003438D01*
X0580089Y0003253D01*
X0579646Y0003079D01*
X0579200Y0002916D01*
X0578749Y0002763D01*
X0578295Y0002622D01*
X0577837Y0002491D01*
X0577377Y0002372D01*
X0576914Y0002264D01*
X0576448Y0002167D01*
X0575980Y0002081D01*
X0575510Y0002007D01*
X0575039Y0001944D01*
X0574566Y0001892D01*
X0574092Y0001852D01*
X0573617Y0001823D01*
X0573142Y0001806D01*
X0572666Y0001800D01*
X0021485Y0001800D01*
X0021009Y0001806D01*
X0020534Y0001823D01*
X0020059Y0001852D01*
X0019585Y0001892D01*
X0019112Y0001944D01*
X0018641Y0002007D01*
X0018171Y0002081D01*
X0017703Y0002167D01*
X0017237Y0002264D01*
X0016774Y0002372D01*
X0016314Y0002491D01*
X0015856Y0002622D01*
X0015402Y0002763D01*
X0014951Y0002916D01*
X0014505Y0003079D01*
X0014062Y0003253D01*
X0013624Y0003438D01*
X0013190Y0003633D01*
X0012761Y0003839D01*
X0012337Y0004055D01*
X0011918Y0004281D01*
X0011505Y0004517D01*
X0011098Y0004763D01*
X0010697Y0005019D01*
X0010303Y0005285D01*
X0009914Y0005560D01*
X0009533Y0005844D01*
X0009159Y0006137D01*
X0008791Y0006439D01*
X0008431Y0006751D01*
X0008079Y0007070D01*
X0007735Y0007398D01*
X0007398Y0007735D01*
X0007070Y0008079D01*
X0006751Y0008431D01*
X0006439Y0008791D01*
X0006137Y0009159D01*
X0005844Y0009533D01*
X0005560Y0009914D01*
X0005285Y0010303D01*
X0005019Y0010697D01*
X0004763Y0011098D01*
X0004517Y0011505D01*
X0004281Y0011918D01*
X0004055Y0012337D01*
X0003839Y0012761D01*
X0003633Y0013190D01*
X0003438Y0013624D01*
X0003253Y0014062D01*
X0003079Y0014505D01*
X0002916Y0014951D01*
X0002763Y0015402D01*
X0002622Y0015856D01*
X0002491Y0016314D01*
X0002372Y0016774D01*
X0002264Y0017237D01*
X0002167Y0017703D01*
X0002081Y0018171D01*
X0002007Y0018641D01*
X0001944Y0019112D01*
X0001892Y0019585D01*
X0001852Y0020059D01*
X0001823Y0020534D01*
X0001806Y0021009D01*
X0001800Y0021485D01*
X0001800Y0336446D02*
X0001800Y0612036D01*
X0001806Y0612512D01*
X0001823Y0612987D01*
X0001852Y0613462D01*
X0001892Y0613936D01*
X0001944Y0614409D01*
X0002007Y0614880D01*
X0002081Y0615350D01*
X0002167Y0615818D01*
X0002264Y0616284D01*
X0002372Y0616747D01*
X0002491Y0617207D01*
X0002622Y0617665D01*
X0002763Y0618119D01*
X0002916Y0618570D01*
X0003079Y0619016D01*
X0003253Y0619459D01*
X0003438Y0619897D01*
X0003633Y0620331D01*
X0003839Y0620760D01*
X0004055Y0621184D01*
X0004281Y0621603D01*
X0004517Y0622016D01*
X0004763Y0622423D01*
X0005019Y0622824D01*
X0005285Y0623218D01*
X0005560Y0623607D01*
X0005844Y0623988D01*
X0006137Y0624362D01*
X0006439Y0624730D01*
X0006751Y0625090D01*
X0007070Y0625442D01*
X0007398Y0625786D01*
X0007735Y0626123D01*
X0008079Y0626451D01*
X0008431Y0626770D01*
X0008791Y0627082D01*
X0009159Y0627384D01*
X0009533Y0627677D01*
X0009914Y0627961D01*
X0010303Y0628236D01*
X0010697Y0628502D01*
X0011098Y0628758D01*
X0011505Y0629004D01*
X0011918Y0629240D01*
X0012337Y0629466D01*
X0012761Y0629682D01*
X0013190Y0629888D01*
X0013624Y0630083D01*
X0014062Y0630268D01*
X0014505Y0630442D01*
X0014951Y0630605D01*
X0015402Y0630758D01*
X0015856Y0630899D01*
X0016314Y0631030D01*
X0016774Y0631149D01*
X0017237Y0631257D01*
X0017703Y0631354D01*
X0018171Y0631440D01*
X0018641Y0631514D01*
X0019112Y0631577D01*
X0019585Y0631629D01*
X0020059Y0631669D01*
X0020534Y0631698D01*
X0021009Y0631715D01*
X0021485Y0631721D01*
X0572666Y0631721D01*
X0573142Y0631715D01*
X0573617Y0631698D01*
X0574092Y0631669D01*
X0574566Y0631629D01*
X0575039Y0631577D01*
X0575510Y0631514D01*
X0575980Y0631440D01*
X0576448Y0631354D01*
X0576914Y0631257D01*
X0577377Y0631149D01*
X0577837Y0631030D01*
X0578295Y0630899D01*
X0578749Y0630758D01*
X0579200Y0630605D01*
X0579646Y0630442D01*
X0580089Y0630268D01*
X0580527Y0630083D01*
X0580961Y0629888D01*
X0581390Y0629682D01*
X0581814Y0629466D01*
X0582233Y0629240D01*
X0582646Y0629004D01*
X0583053Y0628758D01*
X0583454Y0628502D01*
X0583848Y0628236D01*
X0584237Y0627961D01*
X0584618Y0627677D01*
X0584992Y0627384D01*
X0585360Y0627082D01*
X0585720Y0626770D01*
X0586072Y0626451D01*
X0586416Y0626123D01*
X0586753Y0625786D01*
X0587081Y0625442D01*
X0587400Y0625090D01*
X0587712Y0624730D01*
X0588014Y0624362D01*
X0588307Y0623988D01*
X0588591Y0623607D01*
X0588866Y0623218D01*
X0589132Y0622824D01*
X0589388Y0622423D01*
X0589634Y0622016D01*
X0589870Y0621603D01*
X0590096Y0621184D01*
X0590312Y0620760D01*
X0590518Y0620331D01*
X0590713Y0619897D01*
X0590898Y0619459D01*
X0591072Y0619016D01*
X0591235Y0618570D01*
X0591388Y0618119D01*
X0591529Y0617665D01*
X0591660Y0617207D01*
X0591779Y0616747D01*
X0591887Y0616284D01*
X0591984Y0615818D01*
X0592070Y0615350D01*
X0592144Y0614880D01*
X0592207Y0614409D01*
X0592259Y0613936D01*
X0592299Y0613462D01*
X0592328Y0612987D01*
X0592345Y0612512D01*
X0592351Y0612036D01*
X0592351Y0336446D01*
X0592345Y0335970D01*
X0592328Y0335495D01*
X0592299Y0335020D01*
X0592259Y0334546D01*
X0592207Y0334073D01*
X0592144Y0333602D01*
X0592070Y0333132D01*
X0591984Y0332664D01*
X0591887Y0332198D01*
X0591779Y0331735D01*
X0591660Y0331275D01*
X0591529Y0330817D01*
X0591388Y0330363D01*
X0591235Y0329912D01*
X0591072Y0329466D01*
X0590898Y0329023D01*
X0590713Y0328585D01*
X0590518Y0328151D01*
X0590312Y0327722D01*
X0590096Y0327298D01*
X0589870Y0326879D01*
X0589634Y0326466D01*
X0589388Y0326059D01*
X0589132Y0325658D01*
X0588866Y0325264D01*
X0588591Y0324875D01*
X0588307Y0324494D01*
X0588014Y0324120D01*
X0587712Y0323752D01*
X0587400Y0323392D01*
X0587081Y0323040D01*
X0586753Y0322696D01*
X0586416Y0322359D01*
X0586072Y0322031D01*
X0585720Y0321712D01*
X0585360Y0321400D01*
X0584992Y0321098D01*
X0584618Y0320805D01*
X0584237Y0320521D01*
X0583848Y0320246D01*
X0583454Y0319980D01*
X0583053Y0319724D01*
X0582646Y0319478D01*
X0582233Y0319242D01*
X0581814Y0319016D01*
X0581390Y0318800D01*
X0580961Y0318594D01*
X0580527Y0318399D01*
X0580089Y0318214D01*
X0579646Y0318040D01*
X0579200Y0317877D01*
X0578749Y0317724D01*
X0578295Y0317583D01*
X0577837Y0317452D01*
X0577377Y0317333D01*
X0576914Y0317225D01*
X0576448Y0317128D01*
X0575980Y0317042D01*
X0575510Y0316968D01*
X0575039Y0316905D01*
X0574566Y0316853D01*
X0574092Y0316813D01*
X0573617Y0316784D01*
X0573142Y0316767D01*
X0572666Y0316761D01*
X0021485Y0316761D02*
X0021009Y0316767D01*
X0020534Y0316784D01*
X0020059Y0316813D01*
X0019585Y0316853D01*
X0019112Y0316905D01*
X0018641Y0316968D01*
X0018171Y0317042D01*
X0017703Y0317128D01*
X0017237Y0317225D01*
X0016774Y0317333D01*
X0016314Y0317452D01*
X0015856Y0317583D01*
X0015402Y0317724D01*
X0014951Y0317877D01*
X0014505Y0318040D01*
X0014062Y0318214D01*
X0013624Y0318399D01*
X0013190Y0318594D01*
X0012761Y0318800D01*
X0012337Y0319016D01*
X0011918Y0319242D01*
X0011505Y0319478D01*
X0011098Y0319724D01*
X0010697Y0319980D01*
X0010303Y0320246D01*
X0009914Y0320521D01*
X0009533Y0320805D01*
X0009159Y0321098D01*
X0008791Y0321400D01*
X0008431Y0321712D01*
X0008079Y0322031D01*
X0007735Y0322359D01*
X0007398Y0322696D01*
X0007070Y0323040D01*
X0006751Y0323392D01*
X0006439Y0323752D01*
X0006137Y0324120D01*
X0005844Y0324494D01*
X0005560Y0324875D01*
X0005285Y0325264D01*
X0005019Y0325658D01*
X0004763Y0326059D01*
X0004517Y0326466D01*
X0004281Y0326879D01*
X0004055Y0327298D01*
X0003839Y0327722D01*
X0003633Y0328151D01*
X0003438Y0328585D01*
X0003253Y0329023D01*
X0003079Y0329466D01*
X0002916Y0329912D01*
X0002763Y0330363D01*
X0002622Y0330817D01*
X0002491Y0331275D01*
X0002372Y0331735D01*
X0002264Y0332198D01*
X0002167Y0332664D01*
X0002081Y0333132D01*
X0002007Y0333602D01*
X0001944Y0334073D01*
X0001892Y0334546D01*
X0001852Y0335020D01*
X0001823Y0335495D01*
X0001806Y0335970D01*
X0001800Y0336446D01*
D11*
X0250800Y0350761D03*
X0250800Y0360761D03*
X0250800Y0370761D03*
X0285265Y0257706D03*
X0295265Y0257706D03*
X0305265Y0257706D03*
X0583178Y0481792D03*
X0583178Y0491792D03*
X0583178Y0501792D03*
X0583178Y0511792D03*
X0583178Y0521792D03*
X0583178Y0531792D03*
X0305265Y0572666D03*
X0295265Y0572666D03*
X0285265Y0572666D03*
D12*
X0224300Y0360761D03*
X0224300Y0350761D03*
D13*
X0224454Y0326761D03*
X0231146Y0326761D03*
X0240454Y0388261D03*
X0247146Y0388261D03*
X0247146Y0398261D03*
X0240454Y0398261D03*
X0240454Y0408261D03*
X0247146Y0408261D03*
X0247146Y0418261D03*
X0240454Y0418261D03*
X0199146Y0419761D03*
X0199146Y0428261D03*
X0199146Y0436761D03*
X0192454Y0436761D03*
X0192454Y0428261D03*
X0192454Y0419761D03*
X0164595Y0527391D03*
X0157902Y0527391D03*
X0056328Y0517548D03*
X0049635Y0517548D03*
X0395454Y0478761D03*
X0402146Y0478761D03*
X0532792Y0478946D03*
X0539485Y0478946D03*
X0539485Y0487446D03*
X0532792Y0487446D03*
X0532792Y0495946D03*
X0539485Y0495946D03*
X0539485Y0470446D03*
X0532792Y0470446D03*
D14*
X0554950Y0520107D03*
X0554950Y0526800D03*
X0468335Y0526800D03*
X0468335Y0520107D03*
X0393800Y0470107D03*
X0393800Y0463414D03*
X0352300Y0501414D03*
X0352300Y0508107D03*
X0358099Y0520107D03*
X0358099Y0526800D03*
X0271485Y0526800D03*
X0271485Y0520107D03*
X0247800Y0472107D03*
X0247800Y0465414D03*
X0232957Y0467517D03*
X0232957Y0474209D03*
X0210643Y0474005D03*
X0210643Y0467312D03*
X0185698Y0465981D03*
X0185698Y0472674D03*
X0227800Y0376107D03*
X0227800Y0369414D03*
X0237800Y0369414D03*
X0237800Y0376107D03*
X0250800Y0341107D03*
X0250800Y0334414D03*
X0343406Y0400083D03*
X0343406Y0406776D03*
X0352406Y0406776D03*
X0352406Y0400083D03*
X0461800Y0343107D03*
X0461800Y0336414D03*
X0481800Y0336414D03*
X0481800Y0343107D03*
X0097300Y0343107D03*
X0097300Y0336414D03*
X0059800Y0336414D03*
X0059800Y0343107D03*
D15*
X0061918Y0263020D03*
X0061918Y0253020D03*
X0061918Y0243020D03*
X0061918Y0233020D03*
X0061918Y0223020D03*
X0061918Y0213020D03*
X0051918Y0213020D03*
X0051918Y0223020D03*
X0051918Y0233020D03*
X0051918Y0243020D03*
X0051918Y0253020D03*
X0051918Y0263020D03*
X0138532Y0263020D03*
X0138532Y0253020D03*
X0138532Y0243020D03*
X0138532Y0233020D03*
X0138532Y0223020D03*
X0138532Y0213020D03*
X0148532Y0213020D03*
X0148532Y0223020D03*
X0148532Y0233020D03*
X0148532Y0243020D03*
X0148532Y0253020D03*
X0148532Y0263020D03*
X0248769Y0263020D03*
X0258769Y0263020D03*
X0258769Y0253020D03*
X0258769Y0243020D03*
X0248769Y0243020D03*
X0248769Y0253020D03*
X0248769Y0233020D03*
X0258769Y0233020D03*
X0258769Y0223020D03*
X0248769Y0223020D03*
X0248769Y0213020D03*
X0258769Y0213020D03*
X0335383Y0213020D03*
X0345383Y0213020D03*
X0345383Y0223020D03*
X0345383Y0233020D03*
X0335383Y0233020D03*
X0335383Y0223020D03*
X0335383Y0243020D03*
X0335383Y0253020D03*
X0345383Y0253020D03*
X0345383Y0243020D03*
X0345383Y0263020D03*
X0335383Y0263020D03*
X0445619Y0263020D03*
X0445619Y0253020D03*
X0445619Y0243020D03*
X0445619Y0233020D03*
X0445619Y0223020D03*
X0445619Y0213020D03*
X0455619Y0213020D03*
X0455619Y0223020D03*
X0455619Y0233020D03*
X0455619Y0243020D03*
X0455619Y0253020D03*
X0455619Y0263020D03*
X0532233Y0263020D03*
X0542233Y0263020D03*
X0542233Y0253020D03*
X0542233Y0243020D03*
X0532233Y0243020D03*
X0532233Y0253020D03*
X0532233Y0233020D03*
X0532233Y0223020D03*
X0542233Y0223020D03*
X0542233Y0233020D03*
X0542233Y0213020D03*
X0532233Y0213020D03*
X0532233Y0527981D03*
X0542233Y0527981D03*
X0542233Y0537981D03*
X0532233Y0537981D03*
X0532233Y0547981D03*
X0542233Y0547981D03*
X0542233Y0557981D03*
X0532233Y0557981D03*
X0532233Y0567981D03*
X0542233Y0567981D03*
X0542233Y0577981D03*
X0532233Y0577981D03*
X0455619Y0577981D03*
X0455619Y0567981D03*
X0455619Y0557981D03*
X0455619Y0547981D03*
X0455619Y0537981D03*
X0455619Y0527981D03*
X0445619Y0527981D03*
X0445619Y0537981D03*
X0445619Y0547981D03*
X0445619Y0557981D03*
X0445619Y0567981D03*
X0445619Y0577981D03*
X0404401Y0620873D03*
X0386601Y0620873D03*
X0365031Y0620873D03*
X0347231Y0620873D03*
X0325661Y0620873D03*
X0307861Y0620873D03*
X0286291Y0620873D03*
X0268491Y0620873D03*
X0246920Y0620873D03*
X0229120Y0620873D03*
X0207550Y0620873D03*
X0189750Y0620873D03*
X0148532Y0577981D03*
X0138532Y0577981D03*
X0138532Y0567981D03*
X0138532Y0557981D03*
X0138532Y0547981D03*
X0138532Y0537981D03*
X0138532Y0527981D03*
X0148532Y0527981D03*
X0148532Y0537981D03*
X0148532Y0547981D03*
X0148532Y0557981D03*
X0148532Y0567981D03*
X0061918Y0567981D03*
X0061918Y0557981D03*
X0051918Y0557981D03*
X0051918Y0567981D03*
X0051918Y0577981D03*
X0061918Y0577981D03*
X0061918Y0547981D03*
X0051918Y0547981D03*
X0051918Y0537981D03*
X0051918Y0527981D03*
X0061918Y0527981D03*
X0061918Y0537981D03*
X0248769Y0537981D03*
X0258769Y0537981D03*
X0258769Y0527981D03*
X0248769Y0527981D03*
X0248769Y0547981D03*
X0258769Y0547981D03*
X0258769Y0557981D03*
X0258769Y0567981D03*
X0248769Y0567981D03*
X0248769Y0557981D03*
X0248769Y0577981D03*
X0258769Y0577981D03*
X0335383Y0577981D03*
X0345383Y0577981D03*
X0345383Y0567981D03*
X0345383Y0557981D03*
X0345383Y0547981D03*
X0345383Y0537981D03*
X0345383Y0527981D03*
X0335383Y0527981D03*
X0335383Y0537981D03*
X0335383Y0547981D03*
X0335383Y0557981D03*
X0335383Y0567981D03*
D16*
X0476800Y0428178D03*
X0481800Y0428178D03*
X0486800Y0428178D03*
X0491800Y0428178D03*
X0496800Y0428178D03*
X0501800Y0428178D03*
X0506800Y0428178D03*
X0511800Y0428178D03*
X0516800Y0428178D03*
X0521800Y0428178D03*
X0526800Y0428178D03*
X0526800Y0354950D03*
X0521800Y0354950D03*
X0516800Y0354950D03*
X0511800Y0354950D03*
X0506800Y0354950D03*
X0501800Y0354950D03*
X0496800Y0354950D03*
X0491800Y0354950D03*
X0486800Y0354950D03*
X0481800Y0354950D03*
X0476800Y0354950D03*
X0117351Y0354950D03*
X0112351Y0354950D03*
X0107351Y0354950D03*
X0102351Y0354950D03*
X0097351Y0354950D03*
X0092351Y0354950D03*
X0087351Y0354950D03*
X0082351Y0354950D03*
X0077351Y0354950D03*
X0072351Y0354950D03*
X0067351Y0354950D03*
X0067351Y0428178D03*
X0072351Y0428178D03*
X0077351Y0428178D03*
X0082351Y0428178D03*
X0087351Y0428178D03*
X0092351Y0428178D03*
X0097351Y0428178D03*
X0102351Y0428178D03*
X0107351Y0428178D03*
X0112351Y0428178D03*
X0117351Y0428178D03*
D17*
X0128965Y0416564D03*
X0128965Y0411564D03*
X0128965Y0406564D03*
X0128965Y0401564D03*
X0128965Y0396564D03*
X0128965Y0391564D03*
X0128965Y0386564D03*
X0128965Y0381564D03*
X0128965Y0376564D03*
X0128965Y0371564D03*
X0128965Y0366564D03*
X0055737Y0366564D03*
X0055737Y0371564D03*
X0055737Y0376564D03*
X0055737Y0381564D03*
X0055737Y0386564D03*
X0055737Y0391564D03*
X0055737Y0396564D03*
X0055737Y0401564D03*
X0055737Y0406564D03*
X0055737Y0411564D03*
X0055737Y0416564D03*
X0465186Y0416564D03*
X0465186Y0411564D03*
X0465186Y0406564D03*
X0465186Y0401564D03*
X0465186Y0396564D03*
X0465186Y0391564D03*
X0465186Y0386564D03*
X0465186Y0381564D03*
X0465186Y0376564D03*
X0465186Y0371564D03*
X0465186Y0366564D03*
X0538414Y0366564D03*
X0538414Y0371564D03*
X0538414Y0376564D03*
X0538414Y0381564D03*
X0538414Y0386564D03*
X0538414Y0391564D03*
X0538414Y0396564D03*
X0538414Y0401564D03*
X0538414Y0406564D03*
X0538414Y0411564D03*
X0538414Y0416564D03*
D18*
X0215359Y0406501D03*
X0212800Y0406501D03*
X0210241Y0406501D03*
X0203359Y0406501D03*
X0200800Y0406501D03*
X0198241Y0406501D03*
X0198241Y0399020D03*
X0200800Y0399020D03*
X0203359Y0399020D03*
X0210241Y0399020D03*
X0212800Y0399020D03*
X0215359Y0399020D03*
D19*
X0209582Y0481434D03*
X0209582Y0486434D03*
X0209582Y0491434D03*
X0209582Y0496434D03*
X0233782Y0496434D03*
X0233782Y0491434D03*
X0233782Y0486434D03*
X0233782Y0481434D03*
X0359755Y0479300D03*
X0359755Y0474300D03*
X0359755Y0469300D03*
X0359755Y0484300D03*
X0383955Y0484300D03*
X0383955Y0479300D03*
X0383955Y0474300D03*
X0383955Y0469300D03*
D20*
X0089989Y0519517D03*
X0078965Y0519517D03*
X0078965Y0533296D03*
X0089989Y0533296D03*
D21*
X0182902Y0502154D03*
X0197863Y0502154D03*
D22*
X0166879Y0456328D03*
X0158217Y0460068D03*
X0158217Y0452587D03*
D23*
X0193493Y0484989D03*
X0197233Y0493650D03*
X0189753Y0493650D03*
X0338060Y0493091D03*
X0338060Y0500430D03*
X0345540Y0500430D03*
X0345540Y0493091D03*
X0341800Y0484430D03*
X0341800Y0509091D03*
D24*
X0100209Y0496312D03*
X0100209Y0462060D03*
D25*
X0037391Y0463713D03*
X0037391Y0496391D03*
X0163847Y0437194D03*
X0163847Y0404517D03*
X0309800Y0484922D03*
X0309800Y0517599D03*
X0446800Y0499099D03*
X0446800Y0466422D03*
X0494800Y0466422D03*
X0494800Y0499099D03*
D26*
X0329753Y0404359D03*
X0329753Y0396485D03*
X0329753Y0388611D03*
X0329753Y0380737D03*
X0329753Y0372863D03*
X0329753Y0364989D03*
X0329753Y0357115D03*
X0329753Y0349241D03*
X0265186Y0349241D03*
X0265186Y0357115D03*
X0265186Y0364989D03*
X0265186Y0372863D03*
X0265186Y0380737D03*
X0265186Y0388611D03*
X0265186Y0396485D03*
X0265186Y0404359D03*
D27*
X0276603Y0412627D03*
X0284477Y0412627D03*
X0292351Y0412627D03*
X0300225Y0412627D03*
X0308099Y0412627D03*
X0315973Y0412627D03*
D28*
X0325816Y0449627D03*
X0291564Y0449627D03*
D29*
X0395980Y0440300D03*
X0395980Y0435300D03*
X0395980Y0430300D03*
X0395980Y0425300D03*
X0414580Y0425300D03*
X0414580Y0430300D03*
X0414580Y0435300D03*
X0414580Y0440300D03*
D30*
X0375540Y0443761D03*
X0368060Y0443761D03*
X0368060Y0434761D03*
X0375540Y0434761D03*
X0349540Y0428761D03*
X0342060Y0428761D03*
X0342060Y0419761D03*
X0349540Y0419761D03*
X0395816Y0489123D03*
X0403296Y0489123D03*
X0253422Y0485824D03*
X0245942Y0485824D03*
X0200540Y0445761D03*
X0193060Y0445761D03*
X0043115Y0428863D03*
X0035635Y0428863D03*
D31*
X0196831Y0466643D03*
X0196831Y0474123D03*
X0222178Y0473335D03*
X0222178Y0465855D03*
X0346682Y0463887D03*
X0346682Y0471367D03*
X0428650Y0439209D03*
X0428650Y0431729D03*
X0492257Y0439792D03*
X0492257Y0447272D03*
D32*
X0385225Y0443194D03*
X0385225Y0433351D03*
D33*
X0395146Y0362020D03*
D34*
X0351898Y0354520D02*
X0351898Y0369520D01*
X0438394Y0369520D02*
X0438394Y0354520D01*
D35*
X0580721Y0419985D03*
X0580721Y0444985D03*
D36*
X0568910Y0434946D03*
X0568910Y0430024D03*
D37*
X0572816Y0459552D03*
X0572816Y0464670D03*
D38*
X0269359Y0460587D03*
X0269359Y0443658D03*
D39*
X0116367Y0566178D03*
X0099438Y0566178D03*
D40*
X0111673Y0576603D02*
X0120273Y0576603D01*
X0097076Y0584114D02*
X0097076Y0592714D01*
X0111673Y0600225D02*
X0120273Y0600225D01*
D41*
X0184850Y0611073D03*
X0212450Y0611073D03*
X0224220Y0611073D03*
X0251820Y0611073D03*
X0263591Y0611073D03*
X0291191Y0611073D03*
X0302961Y0611073D03*
X0330561Y0611073D03*
X0342331Y0611073D03*
X0369931Y0611073D03*
X0381701Y0611073D03*
X0409301Y0611073D03*
D42*
X0218517Y0450761D03*
D43*
X0233280Y0456272D03*
X0233280Y0445249D03*
D44*
X0239863Y0325761D03*
X0247737Y0325761D03*
D45*
X0415800Y0469544D03*
D46*
X0410288Y0454780D03*
X0421312Y0454780D03*
D47*
X0282400Y0504961D03*
X0273300Y0504961D03*
X0264200Y0504961D03*
D48*
X0273300Y0480560D03*
D49*
X0158000Y0479661D03*
X0158000Y0488761D03*
X0158000Y0497861D03*
D50*
X0133599Y0488761D03*
D51*
X0143532Y0183650D03*
X0132207Y0180859D03*
X0123476Y0173124D03*
X0119340Y0162218D03*
X0120746Y0150639D03*
X0127372Y0141039D03*
X0137700Y0135619D03*
X0149364Y0135619D03*
X0159693Y0141039D03*
X0166319Y0150639D03*
X0167724Y0162218D03*
X0163588Y0173124D03*
X0154857Y0180859D03*
X0081110Y0162218D03*
X0076974Y0173124D03*
X0068243Y0180859D03*
X0056918Y0183650D03*
X0045593Y0180859D03*
X0036862Y0173124D03*
X0032726Y0162218D03*
X0034132Y0150639D03*
X0040758Y0141039D03*
X0051086Y0135619D03*
X0062750Y0135619D03*
X0073078Y0141039D03*
X0079704Y0150639D03*
X0229576Y0162218D03*
X0233713Y0173124D03*
X0242443Y0180859D03*
X0253769Y0183650D03*
X0265094Y0180859D03*
X0273824Y0173124D03*
X0277961Y0162218D03*
X0276555Y0150639D03*
X0269929Y0141039D03*
X0259600Y0135619D03*
X0247937Y0135619D03*
X0237608Y0141039D03*
X0230982Y0150639D03*
X0316191Y0162218D03*
X0320327Y0173124D03*
X0329057Y0180859D03*
X0340383Y0183650D03*
X0351708Y0180859D03*
X0360439Y0173124D03*
X0364575Y0162218D03*
X0363169Y0150639D03*
X0356543Y0141039D03*
X0346215Y0135619D03*
X0334551Y0135619D03*
X0324222Y0141039D03*
X0317596Y0150639D03*
X0426427Y0162218D03*
X0430563Y0173124D03*
X0439294Y0180859D03*
X0450619Y0183650D03*
X0461944Y0180859D03*
X0470675Y0173124D03*
X0474811Y0162218D03*
X0473405Y0150639D03*
X0466779Y0141039D03*
X0456451Y0135619D03*
X0444787Y0135619D03*
X0434459Y0141039D03*
X0427833Y0150639D03*
X0513041Y0162218D03*
X0517177Y0173124D03*
X0525908Y0180859D03*
X0537233Y0183650D03*
X0548558Y0180859D03*
X0557289Y0173124D03*
X0561425Y0162218D03*
X0560019Y0150639D03*
X0553393Y0141039D03*
X0543065Y0135619D03*
X0531401Y0135619D03*
X0521073Y0141039D03*
X0514447Y0150639D03*
D52*
X0562605Y0516821D02*
X0561932Y0517002D01*
X0561300Y0517297D01*
X0560729Y0517696D01*
X0560236Y0518189D01*
X0559836Y0518761D01*
X0559541Y0519393D01*
X0559361Y0520066D01*
X0559300Y0520761D01*
X0559300Y0524761D01*
X0559361Y0525455D01*
X0559541Y0526129D01*
X0559836Y0526761D01*
X0560236Y0527332D01*
X0560729Y0527825D01*
X0561300Y0528225D01*
X0561932Y0528519D01*
X0562605Y0528700D01*
X0563300Y0528761D01*
X0563995Y0528700D01*
X0564668Y0528519D01*
X0565300Y0528225D01*
X0565871Y0527825D01*
X0566364Y0527332D01*
X0566764Y0526761D01*
X0567059Y0526129D01*
X0567239Y0525455D01*
X0567300Y0524761D01*
X0567300Y0520761D01*
X0567239Y0520066D01*
X0567059Y0519393D01*
X0566764Y0518761D01*
X0566364Y0518189D01*
X0565871Y0517696D01*
X0565300Y0517297D01*
X0564668Y0517002D01*
X0563995Y0516821D01*
X0563300Y0516761D01*
X0562605Y0516821D01*
X0561588Y0517162D02*
X0565012Y0517162D01*
X0565820Y0517661D02*
X0560780Y0517661D01*
X0560266Y0518159D02*
X0566334Y0518159D01*
X0566692Y0518658D02*
X0559908Y0518658D01*
X0559651Y0519156D02*
X0566949Y0519156D01*
X0567129Y0519655D02*
X0559471Y0519655D01*
X0559353Y0520153D02*
X0567247Y0520153D01*
X0567290Y0520652D02*
X0559310Y0520652D01*
X0559300Y0521150D02*
X0567300Y0521150D01*
X0567300Y0521649D02*
X0559300Y0521649D01*
X0559300Y0522147D02*
X0567300Y0522147D01*
X0567300Y0522646D02*
X0559300Y0522646D01*
X0559300Y0523144D02*
X0567300Y0523144D01*
X0567300Y0523643D02*
X0559300Y0523643D01*
X0559300Y0524141D02*
X0567300Y0524141D01*
X0567300Y0524640D02*
X0559300Y0524640D01*
X0559333Y0525138D02*
X0567267Y0525138D01*
X0567191Y0525637D02*
X0559409Y0525637D01*
X0559544Y0526135D02*
X0567056Y0526135D01*
X0566823Y0526634D02*
X0559777Y0526634D01*
X0560096Y0527132D02*
X0566504Y0527132D01*
X0566065Y0527631D02*
X0560535Y0527631D01*
X0561164Y0528129D02*
X0565436Y0528129D01*
X0564263Y0528628D02*
X0562337Y0528628D01*
X0481800Y0526761D02*
X0481800Y0522761D01*
X0481739Y0522066D01*
X0481559Y0521393D01*
X0481264Y0520761D01*
X0480864Y0520189D01*
X0480371Y0519696D01*
X0479800Y0519297D01*
X0479168Y0519002D01*
X0478495Y0518821D01*
X0477800Y0518761D01*
X0477105Y0518821D01*
X0476432Y0519002D01*
X0475800Y0519297D01*
X0475229Y0519696D01*
X0474736Y0520189D01*
X0474336Y0520761D01*
X0474041Y0521393D01*
X0473861Y0522066D01*
X0473800Y0522761D01*
X0473800Y0526761D01*
X0473861Y0527455D01*
X0474041Y0528129D01*
X0474336Y0528761D01*
X0474736Y0529332D01*
X0475229Y0529825D01*
X0475800Y0530225D01*
X0476432Y0530519D01*
X0477105Y0530700D01*
X0477800Y0530761D01*
X0478495Y0530700D01*
X0479168Y0530519D01*
X0479800Y0530225D01*
X0480371Y0529825D01*
X0480864Y0529332D01*
X0481264Y0528761D01*
X0481559Y0528129D01*
X0481739Y0527455D01*
X0481800Y0526761D01*
X0481800Y0526634D02*
X0473800Y0526634D01*
X0473800Y0526135D02*
X0481800Y0526135D01*
X0481800Y0525637D02*
X0473800Y0525637D01*
X0473800Y0525138D02*
X0481800Y0525138D01*
X0481800Y0524640D02*
X0473800Y0524640D01*
X0473800Y0524141D02*
X0481800Y0524141D01*
X0481800Y0523643D02*
X0473800Y0523643D01*
X0473800Y0523144D02*
X0481800Y0523144D01*
X0481790Y0522646D02*
X0473810Y0522646D01*
X0473854Y0522147D02*
X0481746Y0522147D01*
X0481627Y0521649D02*
X0473973Y0521649D01*
X0474154Y0521150D02*
X0481446Y0521150D01*
X0481188Y0520652D02*
X0474412Y0520652D01*
X0474772Y0520153D02*
X0480828Y0520153D01*
X0480312Y0519655D02*
X0475288Y0519655D01*
X0476101Y0519156D02*
X0479499Y0519156D01*
X0481767Y0527132D02*
X0473833Y0527132D01*
X0473908Y0527631D02*
X0481692Y0527631D01*
X0481558Y0528129D02*
X0474042Y0528129D01*
X0474274Y0528628D02*
X0481326Y0528628D01*
X0481008Y0529126D02*
X0474592Y0529126D01*
X0475029Y0529625D02*
X0480571Y0529625D01*
X0479945Y0530123D02*
X0475655Y0530123D01*
X0476815Y0530622D02*
X0478785Y0530622D01*
X0371800Y0526761D02*
X0371800Y0522761D01*
X0371739Y0522066D01*
X0371559Y0521393D01*
X0371264Y0520761D01*
X0370864Y0520189D01*
X0370371Y0519696D01*
X0369800Y0519297D01*
X0369168Y0519002D01*
X0368495Y0518821D01*
X0367800Y0518761D01*
X0367105Y0518821D01*
X0366432Y0519002D01*
X0365800Y0519297D01*
X0365229Y0519696D01*
X0364736Y0520189D01*
X0364336Y0520761D01*
X0364041Y0521393D01*
X0363861Y0522066D01*
X0363800Y0522761D01*
X0363800Y0526761D01*
X0363861Y0527455D01*
X0364041Y0528129D01*
X0364336Y0528761D01*
X0364736Y0529332D01*
X0365229Y0529825D01*
X0365800Y0530225D01*
X0366432Y0530519D01*
X0367105Y0530700D01*
X0367800Y0530761D01*
X0368495Y0530700D01*
X0369168Y0530519D01*
X0369800Y0530225D01*
X0370371Y0529825D01*
X0370864Y0529332D01*
X0371264Y0528761D01*
X0371559Y0528129D01*
X0371739Y0527455D01*
X0371800Y0526761D01*
X0371800Y0526634D02*
X0363800Y0526634D01*
X0363800Y0526135D02*
X0371800Y0526135D01*
X0371800Y0525637D02*
X0363800Y0525637D01*
X0363800Y0525138D02*
X0371800Y0525138D01*
X0371800Y0524640D02*
X0363800Y0524640D01*
X0363800Y0524141D02*
X0371800Y0524141D01*
X0371800Y0523643D02*
X0363800Y0523643D01*
X0363800Y0523144D02*
X0371800Y0523144D01*
X0371790Y0522646D02*
X0363810Y0522646D01*
X0363854Y0522147D02*
X0371746Y0522147D01*
X0371627Y0521649D02*
X0363973Y0521649D01*
X0364154Y0521150D02*
X0371446Y0521150D01*
X0371188Y0520652D02*
X0364412Y0520652D01*
X0364772Y0520153D02*
X0370828Y0520153D01*
X0370312Y0519655D02*
X0365288Y0519655D01*
X0366101Y0519156D02*
X0369499Y0519156D01*
X0371767Y0527132D02*
X0363833Y0527132D01*
X0363908Y0527631D02*
X0371692Y0527631D01*
X0371558Y0528129D02*
X0364042Y0528129D01*
X0364274Y0528628D02*
X0371326Y0528628D01*
X0371008Y0529126D02*
X0364592Y0529126D01*
X0365029Y0529625D02*
X0370571Y0529625D01*
X0369945Y0530123D02*
X0365655Y0530123D01*
X0366815Y0530622D02*
X0368785Y0530622D01*
X0285800Y0526761D02*
X0285800Y0522761D01*
X0285739Y0522066D01*
X0285559Y0521393D01*
X0285264Y0520761D01*
X0284864Y0520189D01*
X0284371Y0519696D01*
X0283800Y0519297D01*
X0283168Y0519002D01*
X0282495Y0518821D01*
X0281800Y0518761D01*
X0281105Y0518821D01*
X0280432Y0519002D01*
X0279800Y0519297D01*
X0279229Y0519696D01*
X0278736Y0520189D01*
X0278336Y0520761D01*
X0278041Y0521393D01*
X0277861Y0522066D01*
X0277800Y0522761D01*
X0277800Y0526761D01*
X0277861Y0527455D01*
X0278041Y0528129D01*
X0278336Y0528761D01*
X0278736Y0529332D01*
X0279229Y0529825D01*
X0279800Y0530225D01*
X0280432Y0530519D01*
X0281105Y0530700D01*
X0281800Y0530761D01*
X0282495Y0530700D01*
X0283168Y0530519D01*
X0283800Y0530225D01*
X0284371Y0529825D01*
X0284864Y0529332D01*
X0285264Y0528761D01*
X0285559Y0528129D01*
X0285739Y0527455D01*
X0285800Y0526761D01*
X0285800Y0526634D02*
X0277800Y0526634D01*
X0277800Y0526135D02*
X0285800Y0526135D01*
X0285800Y0525637D02*
X0277800Y0525637D01*
X0277800Y0525138D02*
X0285800Y0525138D01*
X0285800Y0524640D02*
X0277800Y0524640D01*
X0277800Y0524141D02*
X0285800Y0524141D01*
X0285800Y0523643D02*
X0277800Y0523643D01*
X0277800Y0523144D02*
X0285800Y0523144D01*
X0285790Y0522646D02*
X0277810Y0522646D01*
X0277854Y0522147D02*
X0285746Y0522147D01*
X0285627Y0521649D02*
X0277973Y0521649D01*
X0278154Y0521150D02*
X0285446Y0521150D01*
X0285188Y0520652D02*
X0278412Y0520652D01*
X0278772Y0520153D02*
X0284828Y0520153D01*
X0284312Y0519655D02*
X0279288Y0519655D01*
X0280101Y0519156D02*
X0283499Y0519156D01*
X0285767Y0527132D02*
X0277833Y0527132D01*
X0277908Y0527631D02*
X0285692Y0527631D01*
X0285558Y0528129D02*
X0278042Y0528129D01*
X0278274Y0528628D02*
X0285326Y0528628D01*
X0285008Y0529126D02*
X0278592Y0529126D01*
X0279029Y0529625D02*
X0284571Y0529625D01*
X0283945Y0530123D02*
X0279655Y0530123D01*
X0280815Y0530622D02*
X0282785Y0530622D01*
X0167800Y0534761D02*
X0167739Y0534066D01*
X0167559Y0533393D01*
X0167264Y0532761D01*
X0166864Y0532189D01*
X0166371Y0531696D01*
X0165800Y0531297D01*
X0165168Y0531002D01*
X0164495Y0530821D01*
X0163800Y0530761D01*
X0159800Y0530761D01*
X0159105Y0530821D01*
X0158432Y0531002D01*
X0157800Y0531297D01*
X0157229Y0531696D01*
X0156736Y0532189D01*
X0156336Y0532761D01*
X0156041Y0533393D01*
X0155861Y0534066D01*
X0155800Y0534761D01*
X0155861Y0535455D01*
X0156041Y0536129D01*
X0156336Y0536761D01*
X0156736Y0537332D01*
X0157229Y0537825D01*
X0157800Y0538225D01*
X0158432Y0538519D01*
X0159105Y0538700D01*
X0159800Y0538761D01*
X0163800Y0538761D01*
X0164495Y0538700D01*
X0165168Y0538519D01*
X0165800Y0538225D01*
X0166371Y0537825D01*
X0166864Y0537332D01*
X0167264Y0536761D01*
X0167559Y0536129D01*
X0167739Y0535455D01*
X0167800Y0534761D01*
X0167787Y0534610D02*
X0155813Y0534610D01*
X0155830Y0535109D02*
X0167770Y0535109D01*
X0167699Y0535607D02*
X0155901Y0535607D01*
X0156035Y0536106D02*
X0167565Y0536106D01*
X0167337Y0536604D02*
X0156263Y0536604D01*
X0156575Y0537103D02*
X0167025Y0537103D01*
X0166595Y0537601D02*
X0157005Y0537601D01*
X0157621Y0538100D02*
X0165979Y0538100D01*
X0164874Y0538598D02*
X0158726Y0538598D01*
X0155857Y0534112D02*
X0167743Y0534112D01*
X0167618Y0533613D02*
X0155982Y0533613D01*
X0156171Y0533115D02*
X0167429Y0533115D01*
X0167163Y0532616D02*
X0156437Y0532616D01*
X0156808Y0532118D02*
X0166792Y0532118D01*
X0166261Y0531619D02*
X0157339Y0531619D01*
X0158177Y0531120D02*
X0165423Y0531120D01*
X0058739Y0509955D02*
X0058800Y0509261D01*
X0058739Y0508566D01*
X0058559Y0507893D01*
X0058264Y0507261D01*
X0057864Y0506689D01*
X0057371Y0506196D01*
X0056800Y0505797D01*
X0056168Y0505502D01*
X0055495Y0505321D01*
X0054800Y0505261D01*
X0050800Y0505261D01*
X0050105Y0505321D01*
X0049432Y0505502D01*
X0048800Y0505797D01*
X0048229Y0506196D01*
X0047736Y0506689D01*
X0047336Y0507261D01*
X0047041Y0507893D01*
X0046861Y0508566D01*
X0046800Y0509261D01*
X0046861Y0509955D01*
X0047041Y0510629D01*
X0047336Y0511261D01*
X0047736Y0511832D01*
X0048229Y0512325D01*
X0048800Y0512725D01*
X0049432Y0513019D01*
X0050105Y0513200D01*
X0050800Y0513261D01*
X0054800Y0513261D01*
X0055495Y0513200D01*
X0056168Y0513019D01*
X0056800Y0512725D01*
X0057371Y0512325D01*
X0057864Y0511832D01*
X0058264Y0511261D01*
X0058559Y0510629D01*
X0058739Y0509955D01*
X0058678Y0510183D02*
X0046922Y0510183D01*
X0046837Y0509685D02*
X0058763Y0509685D01*
X0058793Y0509186D02*
X0046807Y0509186D01*
X0046850Y0508687D02*
X0058750Y0508687D01*
X0058638Y0508189D02*
X0046962Y0508189D01*
X0047135Y0507690D02*
X0058465Y0507690D01*
X0058216Y0507192D02*
X0047384Y0507192D01*
X0047733Y0506693D02*
X0057867Y0506693D01*
X0057369Y0506195D02*
X0048231Y0506195D01*
X0049015Y0505696D02*
X0056585Y0505696D01*
X0058534Y0510682D02*
X0047066Y0510682D01*
X0047298Y0511180D02*
X0058302Y0511180D01*
X0057971Y0511679D02*
X0047629Y0511679D01*
X0048081Y0512177D02*
X0057519Y0512177D01*
X0056870Y0512676D02*
X0048730Y0512676D01*
X0050009Y0513174D02*
X0055591Y0513174D01*
D53*
X0033296Y0600225D03*
X0033296Y0348257D03*
X0033296Y0285265D03*
X0033296Y0033296D03*
X0560855Y0033296D03*
X0560855Y0285265D03*
X0560855Y0348257D03*
X0560855Y0600225D03*
M02*
