G75*
%MOIN*%
%OFA0B0*%
%FSLAX25Y25*%
%IPPOS*%
%LPD*%
%AMOC8*
5,1,8,0,0,1.08239X$1,22.5*
%
%ADD10C,0.01600*%
%ADD11C,0.00000*%
D10*
X0001800Y0021485D02*
X0001800Y0297076D01*
X0001806Y0297552D01*
X0001823Y0298027D01*
X0001852Y0298502D01*
X0001892Y0298976D01*
X0001944Y0299449D01*
X0002007Y0299920D01*
X0002081Y0300390D01*
X0002167Y0300858D01*
X0002264Y0301324D01*
X0002372Y0301787D01*
X0002491Y0302247D01*
X0002622Y0302705D01*
X0002763Y0303159D01*
X0002916Y0303610D01*
X0003079Y0304056D01*
X0003253Y0304499D01*
X0003438Y0304937D01*
X0003633Y0305371D01*
X0003839Y0305800D01*
X0004055Y0306224D01*
X0004281Y0306643D01*
X0004517Y0307056D01*
X0004763Y0307463D01*
X0005019Y0307864D01*
X0005285Y0308258D01*
X0005560Y0308647D01*
X0005844Y0309028D01*
X0006137Y0309402D01*
X0006439Y0309770D01*
X0006751Y0310130D01*
X0007070Y0310482D01*
X0007398Y0310826D01*
X0007735Y0311163D01*
X0008079Y0311491D01*
X0008431Y0311810D01*
X0008791Y0312122D01*
X0009159Y0312424D01*
X0009533Y0312717D01*
X0009914Y0313001D01*
X0010303Y0313276D01*
X0010697Y0313542D01*
X0011098Y0313798D01*
X0011505Y0314044D01*
X0011918Y0314280D01*
X0012337Y0314506D01*
X0012761Y0314722D01*
X0013190Y0314928D01*
X0013624Y0315123D01*
X0014062Y0315308D01*
X0014505Y0315482D01*
X0014951Y0315645D01*
X0015402Y0315798D01*
X0015856Y0315939D01*
X0016314Y0316070D01*
X0016774Y0316189D01*
X0017237Y0316297D01*
X0017703Y0316394D01*
X0018171Y0316480D01*
X0018641Y0316554D01*
X0019112Y0316617D01*
X0019585Y0316669D01*
X0020059Y0316709D01*
X0020534Y0316738D01*
X0021009Y0316755D01*
X0021485Y0316761D01*
X0572666Y0316761D01*
X0573142Y0316755D01*
X0573617Y0316738D01*
X0574092Y0316709D01*
X0574566Y0316669D01*
X0575039Y0316617D01*
X0575510Y0316554D01*
X0575980Y0316480D01*
X0576448Y0316394D01*
X0576914Y0316297D01*
X0577377Y0316189D01*
X0577837Y0316070D01*
X0578295Y0315939D01*
X0578749Y0315798D01*
X0579200Y0315645D01*
X0579646Y0315482D01*
X0580089Y0315308D01*
X0580527Y0315123D01*
X0580961Y0314928D01*
X0581390Y0314722D01*
X0581814Y0314506D01*
X0582233Y0314280D01*
X0582646Y0314044D01*
X0583053Y0313798D01*
X0583454Y0313542D01*
X0583848Y0313276D01*
X0584237Y0313001D01*
X0584618Y0312717D01*
X0584992Y0312424D01*
X0585360Y0312122D01*
X0585720Y0311810D01*
X0586072Y0311491D01*
X0586416Y0311163D01*
X0586753Y0310826D01*
X0587081Y0310482D01*
X0587400Y0310130D01*
X0587712Y0309770D01*
X0588014Y0309402D01*
X0588307Y0309028D01*
X0588591Y0308647D01*
X0588866Y0308258D01*
X0589132Y0307864D01*
X0589388Y0307463D01*
X0589634Y0307056D01*
X0589870Y0306643D01*
X0590096Y0306224D01*
X0590312Y0305800D01*
X0590518Y0305371D01*
X0590713Y0304937D01*
X0590898Y0304499D01*
X0591072Y0304056D01*
X0591235Y0303610D01*
X0591388Y0303159D01*
X0591529Y0302705D01*
X0591660Y0302247D01*
X0591779Y0301787D01*
X0591887Y0301324D01*
X0591984Y0300858D01*
X0592070Y0300390D01*
X0592144Y0299920D01*
X0592207Y0299449D01*
X0592259Y0298976D01*
X0592299Y0298502D01*
X0592328Y0298027D01*
X0592345Y0297552D01*
X0592351Y0297076D01*
X0592351Y0021485D01*
X0592345Y0021009D01*
X0592328Y0020534D01*
X0592299Y0020059D01*
X0592259Y0019585D01*
X0592207Y0019112D01*
X0592144Y0018641D01*
X0592070Y0018171D01*
X0591984Y0017703D01*
X0591887Y0017237D01*
X0591779Y0016774D01*
X0591660Y0016314D01*
X0591529Y0015856D01*
X0591388Y0015402D01*
X0591235Y0014951D01*
X0591072Y0014505D01*
X0590898Y0014062D01*
X0590713Y0013624D01*
X0590518Y0013190D01*
X0590312Y0012761D01*
X0590096Y0012337D01*
X0589870Y0011918D01*
X0589634Y0011505D01*
X0589388Y0011098D01*
X0589132Y0010697D01*
X0588866Y0010303D01*
X0588591Y0009914D01*
X0588307Y0009533D01*
X0588014Y0009159D01*
X0587712Y0008791D01*
X0587400Y0008431D01*
X0587081Y0008079D01*
X0586753Y0007735D01*
X0586416Y0007398D01*
X0586072Y0007070D01*
X0585720Y0006751D01*
X0585360Y0006439D01*
X0584992Y0006137D01*
X0584618Y0005844D01*
X0584237Y0005560D01*
X0583848Y0005285D01*
X0583454Y0005019D01*
X0583053Y0004763D01*
X0582646Y0004517D01*
X0582233Y0004281D01*
X0581814Y0004055D01*
X0581390Y0003839D01*
X0580961Y0003633D01*
X0580527Y0003438D01*
X0580089Y0003253D01*
X0579646Y0003079D01*
X0579200Y0002916D01*
X0578749Y0002763D01*
X0578295Y0002622D01*
X0577837Y0002491D01*
X0577377Y0002372D01*
X0576914Y0002264D01*
X0576448Y0002167D01*
X0575980Y0002081D01*
X0575510Y0002007D01*
X0575039Y0001944D01*
X0574566Y0001892D01*
X0574092Y0001852D01*
X0573617Y0001823D01*
X0573142Y0001806D01*
X0572666Y0001800D01*
X0021485Y0001800D01*
X0021009Y0001806D01*
X0020534Y0001823D01*
X0020059Y0001852D01*
X0019585Y0001892D01*
X0019112Y0001944D01*
X0018641Y0002007D01*
X0018171Y0002081D01*
X0017703Y0002167D01*
X0017237Y0002264D01*
X0016774Y0002372D01*
X0016314Y0002491D01*
X0015856Y0002622D01*
X0015402Y0002763D01*
X0014951Y0002916D01*
X0014505Y0003079D01*
X0014062Y0003253D01*
X0013624Y0003438D01*
X0013190Y0003633D01*
X0012761Y0003839D01*
X0012337Y0004055D01*
X0011918Y0004281D01*
X0011505Y0004517D01*
X0011098Y0004763D01*
X0010697Y0005019D01*
X0010303Y0005285D01*
X0009914Y0005560D01*
X0009533Y0005844D01*
X0009159Y0006137D01*
X0008791Y0006439D01*
X0008431Y0006751D01*
X0008079Y0007070D01*
X0007735Y0007398D01*
X0007398Y0007735D01*
X0007070Y0008079D01*
X0006751Y0008431D01*
X0006439Y0008791D01*
X0006137Y0009159D01*
X0005844Y0009533D01*
X0005560Y0009914D01*
X0005285Y0010303D01*
X0005019Y0010697D01*
X0004763Y0011098D01*
X0004517Y0011505D01*
X0004281Y0011918D01*
X0004055Y0012337D01*
X0003839Y0012761D01*
X0003633Y0013190D01*
X0003438Y0013624D01*
X0003253Y0014062D01*
X0003079Y0014505D01*
X0002916Y0014951D01*
X0002763Y0015402D01*
X0002622Y0015856D01*
X0002491Y0016314D01*
X0002372Y0016774D01*
X0002264Y0017237D01*
X0002167Y0017703D01*
X0002081Y0018171D01*
X0002007Y0018641D01*
X0001944Y0019112D01*
X0001892Y0019585D01*
X0001852Y0020059D01*
X0001823Y0020534D01*
X0001806Y0021009D01*
X0001800Y0021485D01*
X0001800Y0336446D02*
X0001800Y0612036D01*
X0001806Y0612512D01*
X0001823Y0612987D01*
X0001852Y0613462D01*
X0001892Y0613936D01*
X0001944Y0614409D01*
X0002007Y0614880D01*
X0002081Y0615350D01*
X0002167Y0615818D01*
X0002264Y0616284D01*
X0002372Y0616747D01*
X0002491Y0617207D01*
X0002622Y0617665D01*
X0002763Y0618119D01*
X0002916Y0618570D01*
X0003079Y0619016D01*
X0003253Y0619459D01*
X0003438Y0619897D01*
X0003633Y0620331D01*
X0003839Y0620760D01*
X0004055Y0621184D01*
X0004281Y0621603D01*
X0004517Y0622016D01*
X0004763Y0622423D01*
X0005019Y0622824D01*
X0005285Y0623218D01*
X0005560Y0623607D01*
X0005844Y0623988D01*
X0006137Y0624362D01*
X0006439Y0624730D01*
X0006751Y0625090D01*
X0007070Y0625442D01*
X0007398Y0625786D01*
X0007735Y0626123D01*
X0008079Y0626451D01*
X0008431Y0626770D01*
X0008791Y0627082D01*
X0009159Y0627384D01*
X0009533Y0627677D01*
X0009914Y0627961D01*
X0010303Y0628236D01*
X0010697Y0628502D01*
X0011098Y0628758D01*
X0011505Y0629004D01*
X0011918Y0629240D01*
X0012337Y0629466D01*
X0012761Y0629682D01*
X0013190Y0629888D01*
X0013624Y0630083D01*
X0014062Y0630268D01*
X0014505Y0630442D01*
X0014951Y0630605D01*
X0015402Y0630758D01*
X0015856Y0630899D01*
X0016314Y0631030D01*
X0016774Y0631149D01*
X0017237Y0631257D01*
X0017703Y0631354D01*
X0018171Y0631440D01*
X0018641Y0631514D01*
X0019112Y0631577D01*
X0019585Y0631629D01*
X0020059Y0631669D01*
X0020534Y0631698D01*
X0021009Y0631715D01*
X0021485Y0631721D01*
X0572666Y0631721D01*
X0573142Y0631715D01*
X0573617Y0631698D01*
X0574092Y0631669D01*
X0574566Y0631629D01*
X0575039Y0631577D01*
X0575510Y0631514D01*
X0575980Y0631440D01*
X0576448Y0631354D01*
X0576914Y0631257D01*
X0577377Y0631149D01*
X0577837Y0631030D01*
X0578295Y0630899D01*
X0578749Y0630758D01*
X0579200Y0630605D01*
X0579646Y0630442D01*
X0580089Y0630268D01*
X0580527Y0630083D01*
X0580961Y0629888D01*
X0581390Y0629682D01*
X0581814Y0629466D01*
X0582233Y0629240D01*
X0582646Y0629004D01*
X0583053Y0628758D01*
X0583454Y0628502D01*
X0583848Y0628236D01*
X0584237Y0627961D01*
X0584618Y0627677D01*
X0584992Y0627384D01*
X0585360Y0627082D01*
X0585720Y0626770D01*
X0586072Y0626451D01*
X0586416Y0626123D01*
X0586753Y0625786D01*
X0587081Y0625442D01*
X0587400Y0625090D01*
X0587712Y0624730D01*
X0588014Y0624362D01*
X0588307Y0623988D01*
X0588591Y0623607D01*
X0588866Y0623218D01*
X0589132Y0622824D01*
X0589388Y0622423D01*
X0589634Y0622016D01*
X0589870Y0621603D01*
X0590096Y0621184D01*
X0590312Y0620760D01*
X0590518Y0620331D01*
X0590713Y0619897D01*
X0590898Y0619459D01*
X0591072Y0619016D01*
X0591235Y0618570D01*
X0591388Y0618119D01*
X0591529Y0617665D01*
X0591660Y0617207D01*
X0591779Y0616747D01*
X0591887Y0616284D01*
X0591984Y0615818D01*
X0592070Y0615350D01*
X0592144Y0614880D01*
X0592207Y0614409D01*
X0592259Y0613936D01*
X0592299Y0613462D01*
X0592328Y0612987D01*
X0592345Y0612512D01*
X0592351Y0612036D01*
X0592351Y0336446D01*
X0592345Y0335970D01*
X0592328Y0335495D01*
X0592299Y0335020D01*
X0592259Y0334546D01*
X0592207Y0334073D01*
X0592144Y0333602D01*
X0592070Y0333132D01*
X0591984Y0332664D01*
X0591887Y0332198D01*
X0591779Y0331735D01*
X0591660Y0331275D01*
X0591529Y0330817D01*
X0591388Y0330363D01*
X0591235Y0329912D01*
X0591072Y0329466D01*
X0590898Y0329023D01*
X0590713Y0328585D01*
X0590518Y0328151D01*
X0590312Y0327722D01*
X0590096Y0327298D01*
X0589870Y0326879D01*
X0589634Y0326466D01*
X0589388Y0326059D01*
X0589132Y0325658D01*
X0588866Y0325264D01*
X0588591Y0324875D01*
X0588307Y0324494D01*
X0588014Y0324120D01*
X0587712Y0323752D01*
X0587400Y0323392D01*
X0587081Y0323040D01*
X0586753Y0322696D01*
X0586416Y0322359D01*
X0586072Y0322031D01*
X0585720Y0321712D01*
X0585360Y0321400D01*
X0584992Y0321098D01*
X0584618Y0320805D01*
X0584237Y0320521D01*
X0583848Y0320246D01*
X0583454Y0319980D01*
X0583053Y0319724D01*
X0582646Y0319478D01*
X0582233Y0319242D01*
X0581814Y0319016D01*
X0581390Y0318800D01*
X0580961Y0318594D01*
X0580527Y0318399D01*
X0580089Y0318214D01*
X0579646Y0318040D01*
X0579200Y0317877D01*
X0578749Y0317724D01*
X0578295Y0317583D01*
X0577837Y0317452D01*
X0577377Y0317333D01*
X0576914Y0317225D01*
X0576448Y0317128D01*
X0575980Y0317042D01*
X0575510Y0316968D01*
X0575039Y0316905D01*
X0574566Y0316853D01*
X0574092Y0316813D01*
X0573617Y0316784D01*
X0573142Y0316767D01*
X0572666Y0316761D01*
X0021485Y0316761D02*
X0021009Y0316767D01*
X0020534Y0316784D01*
X0020059Y0316813D01*
X0019585Y0316853D01*
X0019112Y0316905D01*
X0018641Y0316968D01*
X0018171Y0317042D01*
X0017703Y0317128D01*
X0017237Y0317225D01*
X0016774Y0317333D01*
X0016314Y0317452D01*
X0015856Y0317583D01*
X0015402Y0317724D01*
X0014951Y0317877D01*
X0014505Y0318040D01*
X0014062Y0318214D01*
X0013624Y0318399D01*
X0013190Y0318594D01*
X0012761Y0318800D01*
X0012337Y0319016D01*
X0011918Y0319242D01*
X0011505Y0319478D01*
X0011098Y0319724D01*
X0010697Y0319980D01*
X0010303Y0320246D01*
X0009914Y0320521D01*
X0009533Y0320805D01*
X0009159Y0321098D01*
X0008791Y0321400D01*
X0008431Y0321712D01*
X0008079Y0322031D01*
X0007735Y0322359D01*
X0007398Y0322696D01*
X0007070Y0323040D01*
X0006751Y0323392D01*
X0006439Y0323752D01*
X0006137Y0324120D01*
X0005844Y0324494D01*
X0005560Y0324875D01*
X0005285Y0325264D01*
X0005019Y0325658D01*
X0004763Y0326059D01*
X0004517Y0326466D01*
X0004281Y0326879D01*
X0004055Y0327298D01*
X0003839Y0327722D01*
X0003633Y0328151D01*
X0003438Y0328585D01*
X0003253Y0329023D01*
X0003079Y0329466D01*
X0002916Y0329912D01*
X0002763Y0330363D01*
X0002622Y0330817D01*
X0002491Y0331275D01*
X0002372Y0331735D01*
X0002264Y0332198D01*
X0002167Y0332664D01*
X0002081Y0333132D01*
X0002007Y0333602D01*
X0001944Y0334073D01*
X0001892Y0334546D01*
X0001852Y0335020D01*
X0001823Y0335495D01*
X0001806Y0335970D01*
X0001800Y0336446D01*
D11*
X0109083Y0574635D02*
X0109083Y0578572D01*
X0122863Y0578572D01*
X0122863Y0574635D01*
X0109083Y0574635D01*
X0098650Y0582509D02*
X0095501Y0582509D01*
X0095501Y0594320D01*
X0098650Y0594320D01*
X0098650Y0582509D01*
X0110068Y0598650D02*
X0110068Y0601800D01*
X0121879Y0601800D01*
X0121879Y0598650D01*
X0110068Y0598650D01*
M02*
